<svg xmlns="http://www.w3.org/2000/svg" width="32" height="32" viewBox="0 0 32 32"><title>settings</title><path d="M31.7,19.7l-3.6-1.5a12.2,12.2,0,0,0,0-4.5l3.6-1.5a.5.5,0,0,0,.3-.7L30.4,7.8a.5.5,0,0,0-.7-.3L26.1,9A12.3,12.3,0,0,0,23,5.9l1.5-3.6a.5.5,0,0,0-.3-.7L20.4,0a.5.5,0,0,0-.7.3L18.2,3.9a12.3,12.3,0,0,0-4.5,0L12.3.3a.5.5,0,0,0-.7-.3L7.8,1.6a.5.5,0,0,0-.3.7L9,5.9A12.2,12.2,0,0,0,5.9,9L2.3,7.5a.5.5,0,0,0-.7.3L0,11.6a.5.5,0,0,0,.3.7l3.6,1.5a12.2,12.2,0,0,0,0,4.5L.3,19.7a.5.5,0,0,0-.3.7l1.6,3.8a.5.5,0,0,0,.7.3L5.9,23A12.2,12.2,0,0,0,9,26.1L7.5,29.7a.5.5,0,0,0,.3.7L11.6,32a.5.5,0,0,0,.7-.3l1.5-3.6a12.3,12.3,0,0,0,4.5,0l1.5,3.6a.5.5,0,0,0,.7.3l3.8-1.6a.5.5,0,0,0,.3-.7L23,26.1A12.3,12.3,0,0,0,26.1,23l3.6,1.5a.5.5,0,0,0,.7-.3L32,20.4A.5.5,0,0,0,31.7,19.7Zm-14.2,0a4,4,0,1,1,2.2-5.2A4,4,0,0,1,17.5,19.7Z"/></svg>