<svg xmlns="http://www.w3.org/2000/svg" width="56.4" height="16" viewBox="0 0 56.4 16"><title>download-png-white</title><polygon points="14.1 6.1 9.5 10.7 9.5 0 6.5 0 6.5 10.7 1.9 6.1 0 8 7 15 1 15 1 12 0 12 0 16 0.7 16 2 16 7.5 16 8 16 8 16 8 16 8 16 8 16 8 16 8 16 16 8 14.1 6.1" fill="#fff"/><polygon points="15 15 11 15 10 16 11 16 14 16 16 16 16 14 16 12 15 12 15 15" fill="#fff"/><path d="M24.2,2.3h5c3.3,0,3.9,2.1,3.9,3.5s-.6,3.5-3.9,3.5h-3v4.4h-2Zm2,5.4h2.9a1.8,1.8,0,0,0,2-1.9c0-1.5-.9-1.9-2-1.9h-3Z" fill="#fff"/><path d="M34.8,2.3h2.1l5.2,8.4h0V2.3h1.9V13.7H41.9L36.7,5.3h0v8.4H34.8Z" fill="#fff"/><path d="M56.4,13.7H55.1l-.3-1.3A4.1,4.1,0,0,1,51.4,14c-3.4,0-5.5-2.7-5.5-6s2-6,5.5-6S56,3.3,56.3,5.9h-2a2.7,2.7,0,0,0-2.9-2.3c-2.4,0-3.5,2.2-3.5,4.4s1,4.4,3.5,4.4a2.9,2.9,0,0,0,3.2-3.1h-3V7.7h4.9Z" fill="#fff"/></svg>