<svg xmlns="http://www.w3.org/2000/svg" width="55" height="16" viewBox="0 0 55 16"><title>download-svg-white</title><polygon points="14.1 6.1 9.5 10.7 9.5 0 6.5 0 6.5 10.7 1.9 6.1 0 8 7 15 1 15 1 12 0 12 0 16 0.7 16 2 16 7.5 16 8 16 8 16 8 16 8 16 8 16 8 16 8 16 16 8 14.1 6.1" fill="#fff"/><polygon points="15 15 11 15 10 16 11 16 14 16 16 16 16 14 16 12 15 12 15 15" fill="#fff"/><path d="M26.2,9.9c0,1.8,1.3,2.4,2.9,2.4s2.4-.9,2.4-1.7a1.4,1.4,0,0,0-.9-1.4l-3.4-.9c-2-.5-2.5-1.7-2.5-2.9S26.7,2,28.8,2s4.4,1.3,4.4,3.6h-2c-.1-1.5-1.1-2-2.5-2s-2.1.3-2.1,1.5.5,1.2,1.4,1.5l3.3.9a3,3,0,0,1,2.2,2.9C33.5,13,31.2,14,29,14s-4.7-1.2-4.8-4.1Z" fill="#fff"/><path d="M34,2.3H36l2.9,9h0l2.9-9h2L40,13.7H37.8Z" fill="#fff"/><path d="M55,13.7H53.7l-.3-1.3A4.1,4.1,0,0,1,50,14c-3.4,0-5.5-2.7-5.5-6s2-6,5.5-6,4.6,1.3,4.9,3.9h-2A2.7,2.7,0,0,0,50,3.6c-2.4,0-3.5,2.2-3.5,4.4s1,4.4,3.5,4.4a2.9,2.9,0,0,0,3.2-3.1h-3V7.7H55Z" fill="#fff"/></svg>