<svg xmlns="http://www.w3.org/2000/svg" width="32" height="32" viewBox="0 0 32 32"><title>bad-light-stops-play</title><rect width="32" height="32"/><circle cx="11.5" cy="10.5" r="1" fill="#ffe710"/><circle cx="8.5" cy="10.5" r="1" fill="#ffe710"/><circle cx="8.5" cy="7.5" r="1" fill="#ffe710"/><circle cx="11.5" cy="7.5" r="1" fill="#ffe710"/><circle cx="11.5" cy="4.5" r="1" fill="#ffe710"/><circle cx="8.5" cy="4.5" r="1" fill="#ffe710"/><rect y="28" width="32" height="4" fill="#b3b3b3"/><polygon points="11 28 9 28 9.7 12 10.3 12 11 28" fill="#b3b3b3"/><path d="M26,25.9V32h1.9V24.9a.9.9,0,0,0-1.9,0H25a.9.9,0,0,0-1.9,0H21.9a.9.9,0,0,0-1.9,0V32h1.9V25.9h1.2V32H25V25.9Z" fill="#fff"/></svg>