<svg xmlns="http://www.w3.org/2000/svg" width="32" height="32" viewBox="0 0 32 32"><title>baseball</title><path d="M27.2,4.6h0l-.7-.7h0a15.9,15.9,0,0,0-21,0h0l-.7.7h0a16,16,0,1,0,22.5,0ZM1.5,16A14.4,14.4,0,0,1,5.8,5.7,14.9,14.9,0,0,1,7.6,7.9l-1.2.6L7,9.8l1.3-.6a14.9,14.9,0,0,1,1.1,2.9v.6H8.3v1.5H9.9a14.9,14.9,0,0,1,0,3.7l-1.3-.4L8.1,19l1.4.4a15,15,0,0,1-1.3,3.5l-1.1-.8-.9,1.2,1.2.8a15,15,0,0,1-1.7,2.1A14.5,14.5,0,0,1,1.5,16ZM16,30.5A14.4,14.4,0,0,1,6.6,27a16.1,16.1,0,0,0,1.8-2.2l1.3.9.9-1.2-1.3-.9a16,16,0,0,0,1.4-3.8L12,20l.4-1.4-1.6-.4a15.9,15.9,0,0,0,0-4.1h1.5V12.5H10.6l-.2-.8A16,16,0,0,0,9.3,8.8l1.4-.6L10,6.8l-1.5.7A15.8,15.8,0,0,0,6.6,5,14.4,14.4,0,0,1,25.4,5a15.8,15.8,0,0,0-2,2.5L22,6.8l-.6,1.4,1.4.6a16,16,0,0,0-1.2,3.1l-.2.8H19.7V14h1.5a15.9,15.9,0,0,0,0,4.1l-1.6.4.4,1.4,1.5-.4a16,16,0,0,0,1.4,3.8l-1.3.9.9,1.2,1.3-.9A16,16,0,0,0,25.4,27,14.4,14.4,0,0,1,16,30.5Zm10.2-4.2a14.9,14.9,0,0,1-1.7-2.2l1.2-.8-.9-1.2-1.1.8a15,15,0,0,1-1.3-3.5l1.4-.4-.4-1.4-1.3.4a14.9,14.9,0,0,1,0-3.7h1.5V12.8H22.4v-.6a14.9,14.9,0,0,1,1.1-2.9l1.3.6.6-1.4-1.2-.6a15,15,0,0,1,1.8-2.2,14.5,14.5,0,0,1,0,20.7Z"/></svg>