<svg xmlns="http://www.w3.org/2000/svg" width="32" height="32" viewBox="0 0 32 32"><title>basketball</title><path d="M7.2,14.1a5.2,5.2,0,0,0-6.6,0l-.6.5a16,16,0,0,0,2,9.2A35.4,35.4,0,0,1,7.2,14.1Z"/><path d="M12.4.4A15.9,15.9,0,0,0,5.2,4.2L11,9.9l1.9-1.7A6.7,6.7,0,0,1,12.4.4Z"/><path d="M14.1.7a5.2,5.2,0,0,0,0,6.6A35.3,35.3,0,0,1,23.8,2a16,16,0,0,0-9.2-2Z"/><path d="M8.2,12.9,9.9,11,4.2,5.2A15.9,15.9,0,0,0,.4,12.4,6.7,6.7,0,0,1,8.2,12.9Z"/><path d="M15.1,8.3a5.2,5.2,0,0,0,1.6.8h0l15,4a15.9,15.9,0,0,0-4.4-8.4L25.4,3.1A33.8,33.8,0,0,0,15.1,8.3Z"/><path d="M16.4,10.5h0a6.7,6.7,0,0,1-2.4-1.2L12,11,27.8,26.8a16,16,0,0,0,4.1-12.1Z"/><path d="M11,12,9.2,13.9a6.7,6.7,0,0,1,1.2,2.4h0l4.2,15.6a16,16,0,0,0,12.1-4.1Z"/><path d="M9,16.8H9a5.2,5.2,0,0,0-.8-1.6A33.8,33.8,0,0,0,3.1,25.4a15.7,15.7,0,0,0,10,6.3Z"/></svg>