<svg xmlns="http://www.w3.org/2000/svg" width="32" height="32" viewBox="0 0 32 32"><title>close-of-play</title><rect y="28" width="32" height="3.98" fill="#4e7a22"/><polygon points="30 22 30 19 19 19 19 19.7 15.9 16 13 16 10.1 18.9 10.3 21.2 10.7 24.4 7.8 17.7 6.7 18.8 8.6 26.1 11 26.8 11 32 19.9 32 18.9 26.1 19.8 22 30 22"/><path d="M14.8,14.2a3.5,3.5,0,0,1-2.7-.5l1.1-6.3h.1a3.5,3.5,0,0,1,1.6,6.8Z"/><path d="M9,15.7a1.2,1.2,0,0,0-.8-1.1A2.6,2.6,0,1,0,4,17.3h.1c-.9,1.2-1.4,2.3-1,2.7s2.1-.3,3.6-1.8l.6-.6.3-.3.3-.4A1.2,1.2,0,0,0,9,15.7Z"/></svg>