<svg xmlns="http://www.w3.org/2000/svg" width="32" height="32" viewBox="0 0 32 32"><title>cricket</title><path d="M3.3,21.7l1.4,1.4L2.8,25,4,26.6,26.6,4,25,2.8,23.1,4.7,21.7,3.3l1.6-1.6A16,16,0,0,0,1.7,23.2Zm17-17,1.4,1.4L18.8,8.9,17.4,7.5ZM16,8.9l1.4,1.4-2.8,2.8-1.4-1.4Zm-4.2,4.2,1.4,1.4-2.8,2.8L8.9,16ZM7.5,17.4l1.4,1.4L6.1,21.6,4.7,20.3Z"/><path d="M30.3,8.8l-1.6,1.6L27.3,8.9,29.2,7,28,5.4,5.4,28,7,29.2l1.9-1.9,1.4,1.4L8.8,30.3A16,16,0,0,0,30.3,8.8ZM11.7,27.3l-1.4-1.4,2.8-2.8,1.4,1.4ZM16,23.1l-1.4-1.4,2.8-2.8,1.4,1.4Zm4.2-4.2-1.4-1.4,2.8-2.8L23.1,16Zm4.2-4.2-1.4-1.4,2.8-2.8,1.4,1.4Z"/></svg>