<svg xmlns="http://www.w3.org/2000/svg" width="32" height="32" viewBox="0 0 32 32"><title>drinks-break</title><polygon points="4 9.4 5.6 7 8.3 7 10 9.4 10 10 4 10 4 9.4" fill="#0087ff" opacity="0.2"/><path d="M10,27H4v-8L4.8,17H4.1c-.1,0-.1-.1-.1-.1V16h6v.9c0,.1,0,.1-.1.1H9.1l.9,1.9V27Z" fill="#0087ff" opacity="0.2"/><path d="M11,16.9V9.1L8.8,6H5L3,9.1v7.8a1.2,1.2,0,0,0,.4.9l-.4.9V27a1,1,0,0,0,1,1h6a.9.9,0,0,0,1-1V18.8l-.4-1.1A1.2,1.2,0,0,0,11,16.9ZM4,9.4,5.6,7H8.3L10,9.4V10H4ZM10,27H4v-8L4.8,17H4.1c-.1,0-.1-.1-.1-.1V16h6v.9c0,.1,0,.1-.1.1H9.1l.9,1.9V27Z"/><polygon points="14.9 18 15.5 27 22.5 27 23.1 18 14.9 18" fill="#0087ff" opacity="0.2"/><polygon points="23.4 28 14.6 28 13.6 14 14.6 14 15.5 27 22.5 27 23.4 14 24.4 14 23.4 28"/><polygon points="16.5 26.2 15.6 25.7 22.7 11.2 28.8 10.1 29 11.1 23.3 12.1 16.5 26.2"/><rect x="5" y="4" width="4" height="2" rx="0.6" ry="0.6"/></svg>