<svg xmlns="http://www.w3.org/2000/svg" width="32" height="32" viewBox="0 0 32 32"><title>football</title><polygon points="10.8 14.4 12.8 20.4 19.1 20.4 21.1 14.4 16 10.7 10.8 14.4"/><path d="M16,0A16,16,0,1,0,32,16,16,16,0,0,0,16,0ZM27.3,25,27,22.7l-5.3,1.1L19,28.5l2.1,1a14.3,14.3,0,0,1-10.2,0l2.1-1-2.7-4.7L5,22.7l-.3,2.4A14.4,14.4,0,0,1,1.5,16c0-.2,0-.4,0-.6l1.6,1.7,3.7-4L6.2,7.6l-2.3.4a14.5,14.5,0,0,1,8.3-6L11,4.1l5,2.2,5-2.2L19.8,2a14.5,14.5,0,0,1,8.3,6l-2.3-.4L25.2,13l3.7,4,1.6-1.7c0,.2,0,.5,0,.7A14.4,14.4,0,0,1,27.3,25Z"/></svg>