<svg xmlns="http://www.w3.org/2000/svg" width="32" height="32" viewBox="0 0 32 32"><title>gaelic-games</title><polygon points="20.9 28.1 23.6 23.4 19.6 19.2 16.9 22.8 20.9 28.1"/><polygon points="23 31 24 32 30 32 32 30 32 26 25 25 25 25 22.2 29.9 23 31"/><polygon points="32 2 30 0 16 15.2 2 0 0 2 0 4 3 4 13.4 18 8.4 23.4 11.1 28.1 29 4 32 4 32 2"/><polygon points="7 25 7 25 0 26 0 30 2 32 8 32 9 31 9.8 29.9 7 25"/><path d="M19.5,1.5a5,5,0,1,0,0,7.1A5,5,0,0,0,19.5,1.5ZM14.1,6.9h.1a2.7,2.7,0,0,0,4.6-1.9,2.7,2.7,0,0,0-.8-1.9l-.2-.2h0L15.5,1.2H16a3.9,3.9,0,0,1,2.7,6.6,3.9,3.9,0,0,1-6.6-3.4l1.9,2.5ZM17.3,4A1.6,1.6,0,1,1,15,6.2h-.1l-2.3-3,.6-.9.9-.7,3.1,2.4Z"/></svg>