<svg xmlns="http://www.w3.org/2000/svg" width="32" height="32" viewBox="0 0 32 32"><title>goalball</title><polygon points="19.5 19.5 25.2 22 31 19.2 32 17 25 19.2 20.4 16.1 19.5 19.5"/><path d="M3.5,5.6A3.5,3.5,0,1,0,6.9,9.1,3.5,3.5,0,0,0,3.5,5.6Zm0,5.9A2.4,2.4,0,1,1,5.9,9.1,2.4,2.4,0,0,1,3.5,11.5Z"/><polyline points="3.1 12.6 2.3 12.6 0 20.2 8.5 17.5 10.4 21.4 8.8 26.4 16.9 26.4 16.9 24.5 17.3 22.8 19.2 15.2 17.9 14.2 11.1 12.6 6.9 14.4 3.5 16.2 4 12.9"/><path d="M16.5,7.6l2.6.4.3-.8a3.4,3.4,0,0,0-5.7.1Z"/><path d="M16.4,10.2,13.2,8.4a3.4,3.4,0,0,0,3.9,4.2h.1l.8-2.1Z"/></svg>