<svg xmlns="http://www.w3.org/2000/svg" width="32" height="32" viewBox="0 0 32 32"><title>horse-racing</title><polygon points="17 31.5 18 30.5 15 24.5 11.3 23.9 17 31.5"/><polygon points="0 12.1 0 16.7 3.5 13.4 0 12.1"/><polygon points="32 11.5 31.1 10.5 28.8 12.9 30 13.5 32 11.5"/><path d="M18.6,14.2,8.5,4.5H5l-5,4v2l6.3,2.4L0,18.7v1.8l17.9,3H18l7,5,1-1-6-6-5-2ZM6,9.5l2-2,3,2-2,1Z"/><path d="M30.1,9.4,22,.5v3L14.1,7.8l5.7,5.5A4.9,4.9,0,0,0,23,14.5a5,5,0,0,0,3.2-1.2l.5-.5ZM26,6.5l.7.7-.7.7L24.6,6.5Zm-.1,5.7-.4.4a4.1,4.1,0,0,1-5.2-.1l-.3-.3,1.5-2,.3.4a3.5,3.5,0,0,0,3.7.8l.9.4Z"/><path d="M12.2,6h.8l1.8-3.6A2.5,2.5,0,0,0,10,3.6,2.6,2.6,0,0,0,10,4Z"/></svg>