<svg xmlns="http://www.w3.org/2000/svg" width="32" height="32" viewBox="0 0 32 32"><title>interval</title><path d="M15.6,8.8a9.3,9.3,0,1,0,9.3,9.3A9.3,9.3,0,0,0,15.6,8.8Zm0,16.2a6.8,6.8,0,1,1,6.8-6.8A6.8,6.8,0,0,1,15.6,25Z"/><rect x="21.8" y="8.4" width="2.9" height="4.31" transform="translate(-0.6 19.5) rotate(-45)"/><path d="M17.7,6.7a2.2,2.2,0,1,0-2.2,2.2A2.2,2.2,0,0,0,17.7,6.7ZM15.6,8.1A1.4,1.4,0,1,1,17,6.7,1.4,1.4,0,0,1,15.6,8.1Z"/><path d="M15.6,12.7a5.5,5.5,0,0,1,0,11" fill="#c1272d"/></svg>