<svg xmlns="http://www.w3.org/2000/svg" width="32" height="32" viewBox="0 0 32 32"><title>its-sunny</title><rect width="32" height="32" fill="#3f7693"/><circle cx="16" cy="13.1" r="7.1" fill="#f8d34c"/><polygon points="17.2 4.8 14.8 4.8 14.8 0 17.2 0 17.2 4.8 17.2 4.8" fill="#f8d34c"/><polygon points="10.9 6.5 8.5 2.3 10.5 1.2 12.9 5.3 10.9 6.5 10.9 6.5" fill="#f8d34c"/><polygon points="21.5 24.9 19.1 20.8 21.1 19.6 23.5 23.8 21.5 24.9 21.5 24.9" fill="#f8d34c"/><polygon points="26.7 20.6 22.6 18.2 23.7 16.2 27.9 18.6 26.7 20.6 26.7 20.6" fill="#f8d34c"/><polygon points="7.7 14.2 2.9 14.2 2.9 11.9 7.7 11.9 7.7 14.2 7.7 14.2" fill="#f8d34c"/><polygon points="29.1 14.2 24.3 14.2 24.3 11.9 29.1 11.9 29.1 14.2 29.1 14.2" fill="#f8d34c"/><polygon points="5.3 20.6 4.1 18.6 8.3 16.2 9.4 18.2 5.3 20.6 5.3 20.6" fill="#f8d34c"/><polygon points="23.7 9.9 22.6 7.9 26.7 5.5 27.9 7.5 23.7 9.9 23.7 9.9" fill="#f8d34c"/><polygon points="21.1 6.5 19.1 5.3 21.5 1.2 23.5 2.3 21.1 6.5 21.1 6.5" fill="#f8d34c"/><polygon points="10.5 24.9 8.5 23.8 10.9 19.6 12.9 20.8 10.5 24.9 10.5 24.9" fill="#f8d34c"/><polygon points="17.2 26.1 14.8 26.1 14.8 21.3 17.2 21.3 17.2 26.1 17.2 26.1" fill="#f8d34c"/><polygon points="8.3 9.9 4.1 7.5 5.3 5.5 9.4 7.9 8.3 9.9 8.3 9.9" fill="#f8d34c"/><rect y="28" width="32" height="4" fill="#4e7a22"/><path d="M26,25.9V32h1.9V24.9a.9.9,0,0,0-1.9,0H25a.9.9,0,0,0-1.9,0H21.9a.9.9,0,0,0-1.9,0V32h1.9V25.9h1.2V32H25V25.9Z"/></svg>