<svg xmlns="http://www.w3.org/2000/svg" width="32" height="32" viewBox="0 0 32 32"><title>man-of-the-match</title><polygon points="3.9 8.2 2.5 5.1 2.9 4.6 4.3 6.2 4.7 6.2 5.1 5.2 5.5 5.8 5.5 7.6 3.9 8.2"/><polygon points="27.8 11 29 9.8 28.2 9.3 27.8 9.4 27.4 9.3 27 8.7 26.8 8.8 26.4 10.5 27.8 11"/><rect y="28" width="32" height="3.98" fill="#4e7a22"/><polygon points="9.5 32 8.8 26.3 7 20.6 4.9 14.1 4.3 9.5 5.9 8.9 9.8 19.1 13 21.1 16.2 21.4 21.4 17.2 26 11.2 27.3 11.7 23.7 19 19.1 24.3 18.9 26.7 18.4 32 9.5 32"/><path d="M13.7,18.7a3.5,3.5,0,0,0,2.8-.5l-1.1-6.4h-.1a3.5,3.5,0,0,0-1.6,6.9Z"/></svg>