<svg xmlns="http://www.w3.org/2000/svg" width="32" height="32" viewBox="0 0 32 32"><title>modern-pentathlon</title><polygon points="26.3 13.3 29.1 15 32.1 9.9 31 8.9 29.1 12 26.9 9.3 26.3 13.3"/><polygon points="14.7 23.5 7.3 25.3 6.3 27.3 16.3 26.2 21.2 21.7 17.2 20.4 14.7 23.5"/><polygon points="25.6 7.6 25 7 21 5.1 14 7.2 13.1 13.6 14.5 13.7 15.6 8.7 19 8.1 20.1 14.1 18.2 19.1 27.2 22 26.4 31 28.4 32 30.2 19.9 24.2 17 25.6 7.6"/><path d="M25.5,5h.1l2.1-3.6A2.5,2.5,0,1,0,25.5,5Z"/><circle cx="1.9" cy="2.4" r="2" transform="translate(0 0) rotate(-0.9)"/><circle cx="7.9" cy="2.3" r="2" transform="translate(0 0.1) rotate(-0.9)"/><circle cx="2.1" cy="12.4" r="2" transform="translate(-0.2 0) rotate(-0.9)"/><circle cx="8.1" cy="12.3" r="2" transform="translate(-0.2 0.1) rotate(-0.9)"/><circle cx="5" cy="7.3" r="2" transform="translate(-0.1 0.1) rotate(-0.9)"/></svg>