<svg xmlns="http://www.w3.org/2000/svg" width="32" height="32" viewBox="0 0 32 32"><title>moto-gp</title><path d="M5.5,18a3.5,3.5,0,0,1-3.2-2.2h0a3.4,3.4,0,0,1,1-3.9h0A3.5,3.5,0,0,1,5.5,11a3.5,3.5,0,0,1,3.3,2.3l2.2.6a5.5,5.5,0,1,0-.7,3.3l-2.2-.4A3.5,3.5,0,0,1,5.5,18Z"/><polygon points="3.5 15 11.5 16.4 12.5 15.3 4 13 3.5 15"/><path d="M27.8,9.2,30,7,29,4,26,1,23,0,20,3l7,3L17,10l-3,2,2,2-5,5h9l1.5-2.2a5.5,5.5,0,0,0,5,3.2l1.7-.3a5.5,5.5,0,0,0-.3-10.6ZM26.5,18a3.5,3.5,0,0,1-3.4-3.5h0L24,13l1.3-1.3L26,15h1l1-3,.4-.4A3.5,3.5,0,0,1,26.5,18Z"/><polygon points="13 11 16.2 8.8 21.5 6.6 20 5 14 5 12 7 9 6 7 4 2 4 1 5 10 8 13 11"/></svg>