<svg xmlns="http://www.w3.org/2000/svg" width="32" height="32" viewBox="0 0 32 32"><title>rowing</title><polygon points="17.5 18.9 16 21 18 21 19.1 19.6 17.5 18.9"/><polygon points="28 29.9 25 28.9 22 29.9 19 28.9 16 29.9 13 28.9 10 29.9 7 28.9 4 29.9 1 28.9 0 29.3 0 30.3 1 30 4 31 7 30 10 31 13 30 16 31 19 30 22 31 25 30 28 31 31 30 32 30.3 32 29.3 31 28.9 28 29.9"/><polygon points="10 27.8 13 26.8 14 27.2 5.6 13.7 5.6 13.7 4.7 14.1 9.6 22 0 22 10 27.8"/><polygon points="28 9 23 5 7 13 7.8 14.4 15 12 19 10 25 15 25 16 16 13 12 21 14 21 17 17 26 21 30 21 32 19 32 16 28 9"/><polygon points="16.2 27.8 19 26.8 22 27.8 25 26.8 28 27.8 31 26.8 32 27.2 32 22 12.6 22 16.2 27.8"/><path d="M18.6,5.5A2.7,2.7,0,1,0,13.8,4l3.7,2Z"/></svg>