<svg xmlns="http://www.w3.org/2000/svg" width="32" height="32" viewBox="0 0 32 32"><title>shooting</title><polygon points="10.5 5 10.5 5 10.5 5 10.5 5 10.5 5"/><polygon points="15.4 5.6 15.8 5.5 15.6 4.9 15.4 4.9 15.4 5.6"/><path d="M12.3,1.2A2.6,2.6,0,0,0,7.6,3.5h3.6Z"/><polygon points="15.4 5.6 15.4 4.9 15.6 4.9 21 3.7 31.6 1.5 31.4 1 31.4 1 31.2 0 12.4 4 11.7 4.4 10.5 5 10.5 5 10.5 5 10.5 5 10.4 5 4.4 5 3.1 6.4 6.5 9.2 15.4 5.6"/><polygon points="15.9 7.1 15.4 8 14.7 7.6 6.3 10.9 2.7 8 4.4 16 3.4 23 0.4 32 2.8 32 6.9 23 8.1 19.1 10.4 23 12.1 32 14.4 32 13.4 23 11.4 15 10.4 12 11.4 10 16.5 11 18.8 5.5 16.4 6 15.9 7.1"/></svg>