<svg xmlns="http://www.w3.org/2000/svg" width="32" height="32" viewBox="0 0 32 32"><title>snooker</title><circle cx="11" cy="20.2" r="2"/><circle cx="16" cy="20.2" r="2"/><circle cx="21" cy="20.2" r="2"/><circle cx="13.5" cy="15.2" r="2"/><circle cx="18.5" cy="15.2" r="2"/><circle cx="13.5" cy="25.2" r="2"/><circle cx="18.5" cy="25.2" r="2"/><circle cx="23.4" cy="25.2" r="2"/><circle cx="8.5" cy="25.2" r="2"/><circle cx="16" cy="10.2" r="2"/><path d="M31.3,26.9h0L18.8,2.7a3,3,0,0,0-5.6,0L.7,26.8h0a3,3,0,0,0-.3,1.3,3,3,0,0,0,3,3H28.6a3,3,0,0,0,3-3A3,3,0,0,0,31.3,26.9ZM3.4,28.2l12.4-24h.4l12.4,24Z"/></svg>