<svg xmlns="http://www.w3.org/2000/svg" width="32" height="32" viewBox="0 0 32 32"><title>sport-10-wicket</title><path d="M13.5,26.3a2.5,2.5,0,1,1,5,0V32h-5Z"/><polygon points="29.3 14.9 28.6 13.8 26.5 15 25.9 14 19.4 17.7 20 18.8 17.9 20 18.5 21.1 20.7 19.8 21.3 20.9 27.7 17.2 27.1 16.1 29.3 14.9"/><polygon points="14.1 20 12 18.7 12.6 17.7 6.1 13.9 5.5 15 3.4 13.8 2.7 14.8 4.9 16.1 4.3 17.2 10.7 20.9 11.4 19.8 13.5 21.1 14.1 20"/><path d="M21.4,32h5.1L28,23.5a2.5,2.5,0,0,0-5-.9Z"/><circle cx="16" cy="10" r="7"/><path d="M13.2,8.5H11.6v-1h.1A2.3,2.3,0,0,0,13,7.2a1.4,1.4,0,0,0,.6-1h1.2V14H13.2Z" fill="#fff"/><path d="M15.7,8.8A4.2,4.2,0,0,1,16,7.5a2.1,2.1,0,0,1,.7-.9,2.3,2.3,0,0,1,1.4-.3l1.2.2a1.6,1.6,0,0,1,.7.7,3.2,3.2,0,0,1,.4,1.2,11.3,11.3,0,0,1,.1,1.8q0,.8-.1,1.6a4.2,4.2,0,0,1-.3,1.3,2,2,0,0,1-.7.9,2.4,2.4,0,0,1-1.4.3l-1.2-.2a1.5,1.5,0,0,1-.8-.6,3.1,3.1,0,0,1-.4-1.2,11.3,11.3,0,0,1-.1-1.8Q15.7,9.6,15.7,8.8Zm1.6,3.1a2.9,2.9,0,0,0,.1.7l.3.4h.8l.3-.4a3.8,3.8,0,0,0,.1-.8q0-.5,0-1.3V9.7c0-.5,0-.9,0-1.2a3,3,0,0,0-.1-.7l-.3-.4h-.8l-.3.4a3.8,3.8,0,0,0-.1.8q0,.5,0,1.3v.8Q17.3,11.4,17.3,11.9Z" fill="#fff"/><path d="M10.7,32H5.6L4.1,23.5a2.6,2.6,0,0,1,0-.3,2.5,2.5,0,0,1,5-.6Z"/></svg>