<svg xmlns="http://www.w3.org/2000/svg" width="32" height="32" viewBox="0 0 32 32"><title>sport-5-wicket</title><circle cx="16" cy="10" r="7"/><path d="M13.5,26.3a2.5,2.5,0,1,1,5,0V32h-5Z"/><polygon points="29.3 14.9 28.6 13.8 26.5 15 25.9 14 19.4 17.7 20 18.8 17.9 20 18.5 21.1 20.7 19.8 21.3 20.9 27.7 17.2 27.1 16.1 29.3 14.9"/><polygon points="14.1 20 12 18.7 12.6 17.7 6.1 13.9 5.5 15 3.4 13.8 2.7 14.8 4.9 16.1 4.3 17.2 10.7 20.9 11.4 19.8 13.5 21.1 14.1 20"/><path d="M21.4,32h5.1L28,23.5a2.5,2.5,0,0,0-5-.9Z"/><path d="M10.7,32H5.6L4.1,23.5a2.6,2.6,0,0,1,0-.3,2.5,2.5,0,0,1,5-.6Z"/><path d="M15.1,7.6,15,9.4h0l.6-.4h.9l.9.2.6.6a2.4,2.4,0,0,1,.3.8,4.7,4.7,0,0,1,.1.9,5.8,5.8,0,0,1-.1,1.2,2.3,2.3,0,0,1-.4.9,1.7,1.7,0,0,1-.8.6l-1.2.2-1.2-.2-.7-.5a1.8,1.8,0,0,1-.3-.7,3.4,3.4,0,0,1-.1-.7v-.2H15c0,.1,0,.3,0,.4v.4l.2.3h.4a.7.7,0,0,0,.7-.4,2.4,2.4,0,0,0,.2-1.1,6.1,6.1,0,0,0,0-.8,1.5,1.5,0,0,0-.1-.5l-.3-.3h-.4l-.5.2a.9.9,0,0,0-.2.5H13.7l.3-4.2H18V7.6Z" fill="#fff"/></svg>