<svg xmlns="http://www.w3.org/2000/svg" width="32" height="32" viewBox="0 0 32 32"><title>sport-100</title><rect width="32" height="32" fill="#1c1c1c"/><rect x="10" y="10" width="1" height="1" fill="#ffe710"/><rect x="10" y="12" width="1" height="1" fill="#ffe710"/><rect x="10" y="16" width="1" height="1" fill="#ffe710"/><rect x="12" y="8" width="1" height="1" fill="#ffe710"/><rect x="12" y="10" width="1" height="1" fill="#ffe710"/><rect x="10" y="22" width="1" height="1" fill="#ffe710"/><rect x="12" y="22" width="1" height="1" fill="#ffe710"/><rect x="12" y="24" width="1" height="1" fill="#ffe710"/><rect x="14" y="8" width="1" height="1" fill="#ffe710"/><rect x="16" y="10" width="1" height="1" fill="#ffe710"/><rect x="14" y="10" width="1" height="1" fill="#ffe710"/><rect x="16" y="16" width="1" height="1" fill="#ffe710"/><rect x="16" y="18" width="1" height="1" fill="#ffe710"/><rect x="16" y="22" width="1" height="1" fill="#ffe710"/><rect x="14" y="22" width="1" height="1" fill="#ffe710"/><rect x="14" y="24" width="1" height="1" fill="#ffe710"/><rect x="10" y="14" width="1" height="1" fill="#ffe710"/><rect x="10" y="20" width="1" height="1" fill="#ffe710"/><rect x="10" y="18" width="1" height="1" fill="#ffe710"/><rect x="16" y="14" width="1" height="1" fill="#ffe710"/><rect x="16" y="12" width="1" height="1" fill="#ffe710"/><rect x="16" y="20" width="1" height="1" fill="#ffe710"/><rect x="19" y="10" width="1" height="1" fill="#ffe710"/><rect x="19" y="12" width="1" height="1" fill="#ffe710"/><rect x="19" y="16" width="1" height="1" fill="#ffe710"/><rect x="21" y="8" width="1" height="1" fill="#ffe710"/><rect x="21" y="10" width="1" height="1" fill="#ffe710"/><rect x="19" y="22" width="1" height="1" fill="#ffe710"/><rect x="21" y="22" width="1" height="1" fill="#ffe710"/><rect x="21" y="24" width="1" height="1" fill="#ffe710"/><rect x="23" y="8" width="1" height="1" fill="#ffe710"/><rect x="25" y="10" width="1" height="1" fill="#ffe710"/><rect x="23" y="10" width="1" height="1" fill="#ffe710"/><rect x="25" y="16" width="1" height="1" fill="#ffe710"/><rect x="25" y="18" width="1" height="1" fill="#ffe710"/><rect x="25" y="22" width="1" height="1" fill="#ffe710"/><rect x="23" y="22" width="1" height="1" fill="#ffe710"/><rect x="23" y="24" width="1" height="1" fill="#ffe710"/><rect x="19" y="14" width="1" height="1" fill="#ffe710"/><rect x="19" y="20" width="1" height="1" fill="#ffe710"/><rect x="19" y="18" width="1" height="1" fill="#ffe710"/><rect x="25" y="14" width="1" height="1" fill="#ffe710"/><rect x="25" y="12" width="1" height="1" fill="#ffe710"/><rect x="25" y="20" width="1" height="1" fill="#ffe710"/><rect x="7" y="8" width="1" height="1" fill="#ffe710"/><rect x="7" y="10" width="1" height="1" fill="#ffe710"/><rect x="7" y="12" width="1" height="1" fill="#ffe710"/><rect x="7" y="16" width="1" height="1" fill="#ffe710"/><rect x="7" y="22" width="1" height="1" fill="#ffe710"/><rect x="7" y="24" width="1" height="1" fill="#ffe710"/><rect x="7" y="14" width="1" height="1" fill="#ffe710"/><rect x="7" y="20" width="1" height="1" fill="#ffe710"/><rect x="7" y="18" width="1" height="1" fill="#ffe710"/><rect x="5" y="10" width="1" height="1" fill="#ffe710"/></svg>