<svg xmlns="http://www.w3.org/2000/svg" width="32" height="32" viewBox="0 0 32 32"><title>squash</title><path d="M19.8,16.5h-.5l2.3-2.3,1.3,1.3.8-.6-1.4-1.4,2.3-2.3L27,13.8l-.4.3a5.5,5.5,0,0,1,1.9.4L29,14c3.6-3.6,4-9,1-12a7.1,7.1,0,0,0-5.1-2A9.9,9.9,0,0,0,18,3a13.9,13.9,0,0,0-4,9.8l-2.6,6.5L7.5,23.1l-.6-.6L0,29.4,2.6,32l6.9-6.9L9,24.5l4-4L19.3,18h2a5.5,5.5,0,0,1,.9-1.7A9.9,9.9,0,0,1,19.8,16.5ZM18,16.3A3.2,3.2,0,0,1,15.8,14l2.8-2.8,2.3,2.3Zm3.5-3.5-2.3-2.3,2.3-2.3,2.3,2.3Zm-3-3-2-2A13,13,0,0,1,18.2,5l2.6,2.6Zm3.7-2.3,2.3-2.3,2.3,2.3L24.5,9.8ZM27.9,13h-.1l-2.6-2.6,2.3-2.3,2.2,2.2A9.1,9.1,0,0,1,27.9,13Zm2.5-5.3a7.7,7.7,0,0,1-.4,1.7L28.2,7.5l2.1-2.1A6.4,6.4,0,0,1,30.5,7.7Zm-.6-3.3L27.5,6.8,25.2,4.5l2.4-2.4a4.9,4.9,0,0,1,2.3,2.3ZM26.5,1.7l-2,2L22.6,1.9a7.5,7.5,0,0,1,2.3-.4Zm-5,.5,2.2,2.2L21.5,6.8,18.9,4.2H19A9.1,9.1,0,0,1,21.6,2.3Zm-5.8,8a12.7,12.7,0,0,1,.4-1.4l1.7,1.7-2.3,2.3A8.7,8.7,0,0,1,15.7,10.3Zm-1.6,7.7.9-2.1.6.7.7.6Z"/><path d="M26.5,15A4.5,4.5,0,1,0,31,19.5,4.5,4.5,0,0,0,26.5,15ZM25,19a1,1,0,1,1,1-1A1,1,0,0,1,25,19Zm3,0a1,1,0,1,1,1-1A1,1,0,0,1,28,19Z"/></svg>