<svg xmlns="http://www.w3.org/2000/svg" width="32" height="32" viewBox="0 0 32 32"><title>synchronised-swimming</title><path d="M21.3,13.2a2.5,2.5,0,0,1-.5,1.5l-2.5.7h0l-.5.2-.8-4,.4-.3a2.5,2.5,0,0,1,4,2Z"/><path d="M11.4,15.5a2.5,2.5,0,0,1-.5,1.5l-2.5.7H7.9l-.8-4,.4-.3a2.5,2.5,0,0,1,4,2Z"/><polygon points="31 26.9 28 27.9 25 26.9 22 27.9 19 26.9 16 27.9 13 26.9 10 27.9 7 26.9 4 27.9 1 26.9 0 27.3 0 28.3 1 28 4 29 7 28 10 29 13 28 16 29 19 28 22 29 25 28 28 29 31 28 32 28.3 32 27.3 31 26.9"/><polygon points="19 17 20 18 15 20 10 22 8 25.3 7 25 4 26 1 25 3 20 3 12 4 4 5 5 5 12 6 19 12 19 19 17"/><polygon points="21 19 17 24 16 26 13 25 10 26 10 25 11 23 21 19"/><polygon points="13 17 13 11 14 3 15 4 15 12 16 16 13 17"/><polygon points="28 14 29 15 22 18 20.4 16.4 21 16.2 21 16.2 28 14"/></svg>