<svg xmlns="http://www.w3.org/2000/svg" width="32" height="32" viewBox="0 0 32 32"><title>touch-down</title><polygon points="14 3.3 14 6 15.3 6 16.7 6 18 6 18 0.7 17.3 0 16 3.3 16 3.3 16 3.3 14.7 0 14 0.7 14 3.3 14 3.3 14 3.3"/><polygon points="26 7 24.7 16.7 21.3 20 18 20 17 20 16 20 15 20 14 20 11 20 7.7 16.7 6 7 4 7 4 19 7 23 9 26 9 32 11 32 11 23.5 12 22.3 12 32 14 32 14 21 15 21 15 32 15.3 32 16 32 17 32 17 21 18 21 18 32 20 32 20 22.3 21 23.5 21 32 23 32 23 26 25 23 28 19 28 7 26 7"/><path d="M16,17.7A4.1,4.1,0,0,0,20,14h0V9.4L16,8,12,9.4V14h0A4.1,4.1,0,0,0,16,17.7ZM13,10h0l3-1,3,1v2H13Z"/></svg>