<svg xmlns="http://www.w3.org/2000/svg" width="32" height="32" viewBox="0 0 32 32"><title>triathlon</title><circle cx="2" cy="2" r="2"/><circle cx="2" cy="10" r="2"/><circle cx="7" cy="6" r="2"/><polygon points="26.1 13.3 29 15 32 10 31 9 29 12 26.8 9.3 26.1 13.3"/><polygon points="14.4 23.3 7 25 6 27 16 26 21 21.6 17 20.2 14.4 23.3"/><polygon points="25.6 7.5 25 7 21 5 14 7 13 13.4 14.4 13.5 15.6 8.5 19 8 20 14 18 19 27 22 26 31 28 32 30 20 24 17 25.6 7.5"/><path d="M25.5,5h.1l2.1-3.6A2.5,2.5,0,1,0,25.5,5Z"/></svg>