<svg xmlns="http://www.w3.org/2000/svg" width="32" height="32" viewBox="0 0 32 32"><title>try</title><polygon points="2 14 2 22 7 22 15 14 2 14" fill="#4e7a22"/><polygon points="17 15 10 22 30 22 30 15 17 15" fill="#4e7a22"/><path d="M26.8,13.7h0a1.7,1.7,0,0,1-1.2-.6,1.9,1.9,0,0,1-.2-1.8,4.3,4.3,0,0,1,1.3-1.9,4.3,4.3,0,0,1,2.1-1h.6a1.7,1.7,0,0,1,1.2.6,1.9,1.9,0,0,1,.2,1.8,4.3,4.3,0,0,1-1.3,1.9,4.4,4.4,0,0,1-2.1,1Z" fill="#fff"/><path d="M30.6,8.7A1.9,1.9,0,0,0,29.2,8h-.7a5,5,0,0,0-2.4,1.2,5,5,0,0,0-1.5,2.2,2.2,2.2,0,0,0,.3,2.1,1.9,1.9,0,0,0,1.3.6h.7A5.1,5.1,0,0,0,29.3,13a5,5,0,0,0,1.5-2.2A2.2,2.2,0,0,0,30.6,8.7Zm-4.3,4.5a1,1,0,0,1-.7-.3,1.2,1.2,0,0,1-.1-1.2A4,4,0,0,1,26.8,10,4,4,0,0,1,28.7,9h.5a.9.9,0,0,1,.7.3,1.2,1.2,0,0,1,.1,1.2,4,4,0,0,1-1.2,1.7,4,4,0,0,1-1.9.9h-.5"/><path d="M27.7,2.5A2.7,2.7,0,0,1,31,4.2h0L27.3,7.4a2.7,2.7,0,0,1,.4-5Z"/><polygon points="8 2 6.7 2 8.7 8.8 12 8.5 8 2"/><polygon points="23.3 8 16.8 10.3 13.5 9.5 7 10 1.3 0 0 0 5 13 16 15 21.5 15 20.7 13.4 23.3 8"/><polygon points="24.9 12.5 26.7 9.5 25.3 8 24.7 8 22 13.3 22.7 15 32 15 32 13.3 24.9 12.5"/></svg>