<svg xmlns="http://www.w3.org/2000/svg" width="32" height="32" viewBox="0 0 32 32"><title>water-polo</title><path d="M5.5,5A3.5,3.5,0,0,1,9,8.5a3.4,3.4,0,0,1-.4,1.6L11,13l5-2,4-.9h4l4,2L31,15l-1,1L26,13H24l-1,1v9l-1,1-3-1-3,1,1-3,1-2-3-4-5,1L6,10,7.4,8.7l.5.6A2.4,2.4,0,0,0,8,8.5a2.5,2.5,0,1,0-3.2,2.4L5.5,12h0a3.5,3.5,0,1,1,0-7Z"/><path d="M18.6,8.5l-1.2.3A2.5,2.5,0,0,1,19.5,5H20l.7,3.4Z"/><polygon points="31 25 28 26 25 25 22 26 19 25 16 26 13 25 10 26 7 25 4 26 1 25 0 25.3 0 26.4 1 26 4 27 7 26 10 27 13 26 16 27 19 26 22 27 25 26 28 27 31 26 32 26.4 32 25.3 31 25"/></svg>