<svg xmlns="http://www.w3.org/2000/svg" width="32" height="32" viewBox="0 0 32 32"><title>weightlifting</title><polygon points="31 4 31 1 30 0 28 0 27 1 27 8 28 9 30 9 31 8 31 5 32 5 32 4 31 4"/><polygon points="2 0 1 1 1 4 0 4 0 5 1 5 1 8 2 9 4 9 5 8 5 1 4 0 2 0"/><path d="M14.8,11.8l1,.2a2.3,2.3,0,0,0,1-4.3l-1-.2h-.2l-1.7,3.4A2.2,2.2,0,0,0,14.8,11.8Z"/><path d="M6,5H7l2,5,3,5,1,4L9,25v7h2l1-6,3.4-3,1.8,3.5L21,32h2l-2.3-6.1L19,19V17l1-2,3-5,2-5h1V4H6ZM8.6,5H23.4L21,9l-2,3-2,1H15l-2-1L11,9,8.6,5Z"/></svg>