<svg xmlns="http://www.w3.org/2000/svg" width="32" height="32" viewBox="0 0 32 32"><title>wheelchair-tennis</title><path d="M14.8,8.4a2.7,2.7,0,1,0-.5-5l.5,4.9Z"/><path d="M22.7,12.3l-3.2-1L13.2,9.2,9.5,18.6A7.2,7.2,0,0,0,13.2,32,6.8,6.8,0,0,0,19,29h3.4l-2.1-2,2.1-6.1L16.3,18l2.1-4.6,4.3,1,4.3-1V11.3ZM13.2,30.1a5.3,5.3,0,1,1,5.3-5.3A5.3,5.3,0,0,1,13.2,30.1Z"/><path d="M22.6,7.3h.1c1.3.5,1.3.8,1.3.8h0l.9,2.1,1-.4L25,7.7a2.1,2.1,0,0,1,0-1.1l.2-.6a6.9,6.9,0,0,0-.1-4.2,3,3,0,0,0-4-1.6,3.1,3.1,0,0,0-1.6,4A7.1,7.1,0,0,0,22.6,7.3Zm-1-6.2a2.2,2.2,0,0,1,2.9,1.2c.5,1.1.5,3.6-.6,4.1S20.9,5.2,20.4,4A2.2,2.2,0,0,1,21.6,1.1Z"/><path d="M9.2,8.2a2.1,2.1,0,1,0-2.1,2.1A2.1,2.1,0,0,0,9.2,8.2Zm-3.3,0A1.2,1.2,0,1,1,7.1,9.5,1.2,1.2,0,0,1,5.8,8.2Z"/><circle cx="13.2" cy="24.8" r="4.1"/></svg>