<svg xmlns="http://www.w3.org/2000/svg" width="32" height="32" viewBox="0 0 32 32"><title>winter-sports</title><path d="M25.5,4.4a2.5,2.5,0,0,0-.5,5l3-2.9A2.5,2.5,0,0,0,25.5,4.4Z"/><polygon points="4 4.6 3.6 5.7 4.6 6 5.6 2.9 5.6 2.9 5.6 2.9 4.6 2.6 4.3 3.6 2 2.9 2 3.9 4 4.6 4 4.6"/><path d="M23.9,10.4l.4,1.2,2.3.8H23l-2-6-3-2L11.3,6.1,6.4,4.4l-.3.9L19.2,9.9,22,15.4l7-2V12.1Z"/><path d="M30.6,27.7h-.3L13.8,22.2l5.5-7.9L18,11.7l-1.7-1.3L9.2,8,9,8.4v3l3,2,3,1-3.1,7.2L0,17.5v1.6l28.6,9.8,1.2.4h.5l.8-.2a1.7,1.7,0,0,0,.9-1Z"/></svg>