<svg xmlns="http://www.w3.org/2000/svg" width="32" height="32" viewBox="0 0 32 32"><title>animals-and-nature</title><ellipse cx="4" cy="11.4" rx="3.4" ry="5.1" transform="translate(-3.7 2.1) rotate(-20.2)"/><ellipse cx="28" cy="11.4" rx="5.1" ry="3.4" transform="translate(7.6 33.8) rotate(-69.8)"/><ellipse cx="11.4" cy="5.1" rx="3.4" ry="5.1" transform="translate(-0.6 1.6) rotate(-7.7)"/><ellipse cx="20.7" cy="5.1" rx="5.1" ry="3.4" transform="translate(13.4 25.1) rotate(-83.9)"/><path d="M22.1,20a5.8,5.8,0,0,0,.1-.9,6.1,6.1,0,0,0-12.1,0,6.3,6.3,0,0,0,.1.8,6.1,6.1,0,1,0,5.4,9.3A6.1,6.1,0,1,0,22.1,20Z"/></svg>