<svg xmlns="http://www.w3.org/2000/svg" width="32" height="32" viewBox="0 0 32 32"><title>childrens-60-mins</title><path d="M15.4,6a13,13,0,1,0,13,13A13,13,0,0,0,15.4,6Zm0,22.5A9.5,9.5,0,1,1,24.9,19,9.5,9.5,0,0,1,15.4,28.5Z"/><rect x="24.1" y="5.4" width="4" height="6" transform="translate(1.7 20.9) rotate(-45)"/><path d="M15.4,6a3,3,0,1,0-3-3A3,3,0,0,0,15.4,6Zm0-5a2,2,0,1,1-2,2A2,2,0,0,1,15.4,1Z"/><path d="M12.3,17.4a2.3,2.3,0,0,0-2.1,1h0c.1-1,.4-2.8,1.7-2.8a1.3,1.3,0,0,1,1.2,1.1H15a2.8,2.8,0,0,0-3-2.5c-2.6,0-3.6,2.5-3.6,4.8s.7,4.7,3.5,4.7a3.2,3.2,0,0,0,3.2-3.3,3.1,3.1,0,0,0-.7-2A2.9,2.9,0,0,0,12.3,17.4Zm-.4,4.8a1.6,1.6,0,0,1-1.5-1.7,1.5,1.5,0,0,1,1.5-1.7c.9,0,1.4.9,1.4,1.7A1.5,1.5,0,0,1,11.9,22.2Z"/><path d="M19,14.2c-1.8,0-3.3,1.1-3.3,4.7s1.5,4.8,3.3,4.8,3.4-1.1,3.4-4.8S20.8,14.2,19,14.2Zm0,7.9c-1.5,0-1.5-2.2-1.5-3.2s0-3.2,1.5-3.2,1.5,2.2,1.5,3.2S20.5,22.2,19,22.2Z"/></svg>