<svg xmlns="http://www.w3.org/2000/svg" width="32" height="32" viewBox="0 0 32 32"><title>entertainment</title><path d="M28.5,10l-1.5,3.8H23.5L25,10H21.8l-1.5,3.8H17L18.5,10H15.3l-1.5,3.8H10.5L12,10H8.8L7.6,12.9,5.4,10.7l.9-.3L3.7,6.9l-1.5.5h0V32H29.9V10ZM26,26.3H6V24.3H26Zm0-4.8H6V19.6H26Z"/><polygon points="18.3 6.9 15.7 3.4 12.9 4.3 15.4 7.7 18.3 6.9"/><polygon points="28.5 3.9 27.4 0 24.8 0.8 27.4 4.2 28.5 3.9"/><polygon points="12.4 8.6 9.8 5.2 6.8 6 9.4 9.5 12.4 8.6"/><polygon points="24.3 5.1 21.7 1.7 18.8 2.5 21.4 6 24.3 5.1"/></svg>