<svg xmlns="http://www.w3.org/2000/svg" width="32" height="32" viewBox="0 0 32 32"><title>fan-clubs</title><circle cx="16" cy="11.1" r="6.7"/><path d="M6.6,19.7a5.1,5.1,0,0,0,4.5-2.8,7.6,7.6,0,0,1-2.7-5.8,7.7,7.7,0,0,1,.1-1.2,5.1,5.1,0,1,0-1.9,9.8Z"/><polygon points="8.9 19.8 6.2 27.6 25.8 27.6 23.1 19.8 8.9 19.8"/><polygon points="30.1 21.5 24.8 21.5 26.7 27.1 32 27.1 30.1 21.5"/><polygon points="1.9 21.5 0 27.1 5.3 27.1 7.2 21.5 1.9 21.5"/><path d="M21,16.9a5.1,5.1,0,1,0,2.6-7,7.5,7.5,0,0,1-2.6,7Z"/></svg>