<svg xmlns="http://www.w3.org/2000/svg" width="32" height="32" viewBox="0 0 32 32"><title>feeling-good</title><path d="M16,6A10,10,0,1,0,26,16,10,10,0,0,0,16,6Zm0,17a5,5,0,0,1-5-5H21A5,5,0,0,1,16,23Z"/><rect x="15" width="2" height="4"/><rect x="15" y="28" width="2" height="4"/><rect x="8" y="1.9" width="2" height="4.02" transform="matrix(0.87, -0.5, 0.5, 0.87, -0.74, 5.02)"/><rect x="22" y="26.1" width="2" height="4" transform="translate(-11 15.3) rotate(-30)"/><rect x="2.9" y="7" width="2" height="4.02" transform="translate(-5.9 7.9) rotate(-60)"/><rect x="27.1" y="21" width="2" height="4" transform="translate(-5.9 35.9) rotate(-60)"/><rect x="1.9" y="22" width="4" height="2" transform="translate(-11 5) rotate(-30)"/><rect x="26.1" y="8" width="4" height="1.99" transform="translate(-0.7 15.3) rotate(-30)"/><rect x="7" y="27.1" width="4" height="2" transform="translate(-19.8 21.9) rotate(-60)"/><rect x="21" y="2.9" width="4" height="1.99" transform="matrix(0.5, -0.87, 0.87, 0.5, 8.14, 21.85)"/><rect x="28" y="15" width="4" height="1.98"/><rect y="15" width="4" height="1.98"/></svg>