<svg xmlns="http://www.w3.org/2000/svg" width="32" height="32" viewBox="0 0 32 32"><title>incredible-world</title><path d="M29.2,12.1a11.2,11.2,0,1,0-5.1,9.3l1.3,1.7a13,13,0,0,1-9,2.2,13.3,13.3,0,0,1-8.9-5,13.2,13.2,0,0,1-2.8-9.8,13.4,13.4,0,0,1,5-9L8.6,0A15.4,15.4,0,0,0,2.9,10.3a15.4,15.4,0,0,0,13.4,17h.9V30H12.3v2H23.1V30H19.2V27.4a15.1,15.1,0,0,0,8.4-3.3l.8-.6-2.6-3.2A11.1,11.1,0,0,0,29.2,12.1ZM19.2,20.2l-.7,1.1h-.4a9.1,9.1,0,0,1-5.4-1.8l.4-.4c.3-.3.3-.4-.1-.7l-1.1-1.2c-.1-.1,0-.2-.1-.2a7.2,7.2,0,0,0-.2-1.2c-.2-.6-.5-1.2-.7-1.7a2.8,2.8,0,0,1-.2-1.2c.1-.8.4-1,1-.5l1.8,1.7,1.3,1.1a.8.8,0,0,0,1,0l.4-.2,1.3-.7a.8.8,0,0,1,1.2.8,3,3,0,0,1-.1.9L18,18a2.3,2.3,0,0,0-.1.6c0,.2.1.3.3.1l.4-.4c.2-.1.3-.1.4.1A2,2,0,0,1,19.2,20.2ZM22.3,9.9l-1.2.9a5.5,5.5,0,0,1-2.3,1,1.8,1.8,0,0,1-2-1A13.8,13.8,0,0,1,16.1,9l-.8-2.5A9.2,9.2,0,0,1,15,5.1,1,1,0,0,1,15.6,4c.4-.2.7,0,1.1.3a10.5,10.5,0,0,1,2,2,3.5,3.5,0,0,0,1.8,1.2l.7.3a1.8,1.8,0,0,1,1,1.2c.1.4.3.5.6.4l1.6-.6A2.8,2.8,0,0,1,26,8.7l.6.2a9.1,9.1,0,0,1-.4,7.5,1.2,1.2,0,0,1-1.6-.9,4.3,4.3,0,0,1-.1-1.6,15.4,15.4,0,0,1,.6-1.9l.4-1.4a.4.4,0,0,0-.4-.5H23.4A1,1,0,0,0,22.3,9.9Z"/></svg>