<svg xmlns="http://www.w3.org/2000/svg" width="32" height="32" viewBox="0 0 32 32"><title>learning-areas</title><path d="M30,12.5A12.5,12.5,0,0,0,20.6.4,12.4,12.4,0,0,0,17.5,0h-.6A12.5,12.5,0,0,0,5,12.5V13L4,16,2,18v2l2,1,1,7,6,1,1,3H26l-1.9-8.9A12.5,12.5,0,0,0,30,12.5ZM25,14H22.8a5.5,5.5,0,0,1-.7,1.5l1.3,1.3-2.1,2.1-1.3-1.5-.9.4V20H16V17.8l-1.4-.6-1.8,1.7-2.1-2.1,1.9-1.9-.3-.9H10V11h2.2l.3-.9L10.7,8.3l2.2-2.1,1.7,1.7L16,7.2V5h3V7.2l.9.4,1.3-1.5,2.1,2.1L22.1,9.5a5.3,5.3,0,0,1,.7,1.5H25Z"/><circle cx="17.5" cy="12.5" r="2.5"/></svg>