<svg xmlns="http://www.w3.org/2000/svg" width="32" height="32" viewBox="0 0 32 32"><title>phonics</title><path d="M17,17V32H32V17ZM28.3,27a3.7,3.7,0,0,1-.9,1.2,3.6,3.6,0,0,1-1.2.8l-1.6.3a4.7,4.7,0,0,1-1.9-.4,4.1,4.1,0,0,1-1.4-1,4.5,4.5,0,0,1-.9-1.5,5.5,5.5,0,0,1-.3-1.9,5.7,5.7,0,0,1,.3-1.9,4.6,4.6,0,0,1,.9-1.5,4,4,0,0,1,1.4-1,4.6,4.6,0,0,1,1.9-.4l1.4.2,1.2.6a3.5,3.5,0,0,1,.9,1,3.7,3.7,0,0,1,.4,1.4h-2a1.7,1.7,0,0,0-.2-.6l-.5-.5-.6-.3h-.7a2.4,2.4,0,0,0-1.2.3,2.2,2.2,0,0,0-.8.7,3.1,3.1,0,0,0-.4,1,5.1,5.1,0,0,0-.1,1.2,4.7,4.7,0,0,0,.1,1.1,3,3,0,0,0,.4,1,2.2,2.2,0,0,0,.8.7,2.4,2.4,0,0,0,1.2.3,1.9,1.9,0,0,0,1.5-.6,2.6,2.6,0,0,0,.6-1.5h2A4.7,4.7,0,0,1,28.3,27Z"/><polygon points="16.2 5.1 15 8.5 17.4 8.5 16.3 5.1 16.2 5.1"/><path d="M23.9,0H8.9V15h15ZM18.7,12.1,18,10H14.5l-.7,2.1h-2l3.5-9.2h2.1l3.5,9.2Z"/><path d="M8.9,27.2l.3-.4a1.3,1.3,0,0,0,.1-.6,1.2,1.2,0,0,0-.4-1A1.7,1.7,0,0,0,7.9,25H5.7v2.5H8.4Z"/><path d="M8.6,23.3a1,1,0,0,0,.4-.8,1.1,1.1,0,0,0-.1-.5l-.3-.3-.4-.2H5.7v2.2H7.7A1.5,1.5,0,0,0,8.6,23.3Z"/><path d="M0,32H15V17H0ZM3.6,19.8H9.2l.9.4a1.8,1.8,0,0,1,.6.7,2.5,2.5,0,0,1,.2,1.1,2,2,0,0,1-.3,1.2,2.3,2.3,0,0,1-.9.8,2.2,2.2,0,0,1,1.3.9,2.8,2.8,0,0,1,.1,2.7,2.4,2.4,0,0,1-.7.8l-1,.5-1.2.2H3.6Z"/></svg>