<svg xmlns="http://www.w3.org/2000/svg" width="32" height="32" viewBox="0 0 32 32"><title>pop-songs</title><path d="M10,13.8V24.5c0-.7-1.6-1.1-2.7-1.1a4.2,4.2,0,0,0-4.2,4.3,4.5,4.5,0,0,0,8.9,0V19.6l9.8-3.8v5.1a4.8,4.8,0,0,0-2.9-1.1,4.3,4.3,0,0,0-4.3,4.3,4.1,4.1,0,1,0,8.2,0V9.1Zm-2.6,16a2.1,2.1,0,1,1,2.1-2.1A2.1,2.1,0,0,1,7.4,29.8Zm11.4-3.6A2.1,2.1,0,1,1,21,24.1,2.1,2.1,0,0,1,18.9,26.3Z"/><polygon points="8.8 5 8.6 8.7 11.5 10.9 8 11.9 6.8 15.3 4.8 12.3 1.1 12.2 3.4 9.3 2.4 5.8 5.8 7.1 8.8 5"/><polygon points="28.1 0 27.9 3.7 30.9 5.9 27.3 6.9 26.1 10.3 24.1 7.2 20.5 7.2 22.7 4.3 21.7 0.8 25.1 2.1 28.1 0"/><polygon points="14.4 0.7 15.6 3.1 18.2 3.5 16.3 5.4 16.7 8 14.4 6.8 12 8 12.4 5.4 10.5 3.5 13.2 3.1 14.4 0.7"/><polygon points="26.1 12.5 28 13.9 30.2 13.2 29.4 15.4 30.7 17.3 28.4 17.2 27 19.1 26.4 16.9 24.2 16.1 26.1 14.8 26.1 12.5"/></svg>