<svg xmlns="http://www.w3.org/2000/svg" width="32" height="32" viewBox="0 0 32 32"><title>special-needs</title><path d="M16,22.5l1-2h5v-3H16.2l-4-4.8a11.7,11.7,0,0,1-1.1-1.5A7.2,7.2,0,0,1,10,7.4a4.9,4.9,0,0,1,9.1-2.5L20,6.3l.9-1.4A4.9,4.9,0,0,1,30,7.4a7.3,7.3,0,0,1-1.1,3.8l-1.1,1.4L24,17.2v3.1L29.3,14a15.4,15.4,0,0,0,1.3-1.7A9.2,9.2,0,0,0,32,7.4,6.9,6.9,0,0,0,25.1.5,6.8,6.8,0,0,0,20,2.7,6.8,6.8,0,0,0,14.9.5,6.9,6.9,0,0,0,8,7.4a9.1,9.1,0,0,0,1.4,4.9A15.4,15.4,0,0,0,10.7,14l2.9,3.5H13l-7,6v7h8l9-2,9-4v-4l-7,2Z"/><rect y="22.5" width="4" height="9"/></svg>