<svg xmlns="http://www.w3.org/2000/svg" width="32" height="32" viewBox="0 0 32 32"><title>fog-a</title><path d="M4.3,9.6h5.9v1.5H6.1v1.9H9.7v1.4H6.1V18H4.3Z"/><path d="M15,9.4c2.6,0,4.1,1.9,4.1,4.4A4,4,0,0,1,15,18.2a4,4,0,0,1-4.1-4.4C10.8,11.3,12.4,9.4,15,9.4Zm0,7.2c1.7,0,2.3-1.4,2.3-2.8S16.6,11,15,11s-2.3,1.4-2.3,2.9S13.3,16.6,15,16.6Z"/><path d="M26.3,17A2.8,2.8,0,0,1,24,18.2a4,4,0,0,1-4.1-4.4c0-2.5,1.5-4.4,4.1-4.4a3.4,3.4,0,0,1,3.5,3H25.8A1.7,1.7,0,0,0,24,11c-1.7,0-2.3,1.4-2.3,2.9s.6,2.8,2.3,2.8a1.8,1.8,0,0,0,2-1.8H24.2V13.5h3.5V18H26.5Z"/></svg>