<svg xmlns="http://www.w3.org/2000/svg" width="32" height="32" viewBox="0 0 32 32"><title>hail</title><path d="M23,8h-.6a6.6,6.6,0,0,0-12.9,0H8.9a4.9,4.9,0,0,0,0,9.8H12V15.6H8.9a2.6,2.6,0,1,1,2.2-3.9l2-1.2a4.9,4.9,0,0,0-1.5-1.6,4.4,4.4,0,1,1,7.8,3.4h2.6a6.7,6.7,0,0,0,.5-1.9H23a2.6,2.6,0,0,1,0,5.2H19.9v2.3H23A4.9,4.9,0,0,0,23,8Z"/><line x1="14.4" y1="15.9" x2="17.5" y2="19.1" fill="#a8a8a8"/><line x1="15.3" y1="19.7" x2="16.5" y2="15.3" fill="#a8a8a8"/><line x1="18" y1="16.9" x2="13.8" y2="18.1" fill="#a8a8a8"/><circle cx="15.9" cy="17.5" r="2.2" fill="#a8a8a8"/><line x1="9" y1="20.2" x2="12.1" y2="23.4" fill="#a8a8a8"/><line x1="10" y1="24" x2="11.1" y2="19.6" fill="#a8a8a8"/><line x1="12.7" y1="21.2" x2="8.4" y2="22.4" fill="#a8a8a8"/><circle cx="10.6" cy="21.8" r="2.2" fill="#a8a8a8"/></svg>