<svg xmlns="http://www.w3.org/2000/svg" width="32" height="32" viewBox="0 0 32 32"><title>hail-shower-night</title><path d="M19,8.2h-.6a6.6,6.6,0,0,0-12.9,0H4.9a4.9,4.9,0,0,0,0,9.9H8V15.8H4.9a2.6,2.6,0,1,1,2.2-3.9l2-1.2A4.9,4.9,0,0,0,7.7,9.1a4.4,4.4,0,1,1,7.8,3.4h2.6a6.7,6.7,0,0,0,.5-1.9H19a2.6,2.6,0,0,1,0,5.2H15.9v2.3H19a4.9,4.9,0,0,0,0-9.9Z"/><path d="M31.1,11.4A7.1,7.1,0,0,1,25.5,0a7.1,7.1,0,0,0-6.2,7,6.1,6.1,0,0,1,5.7,7h1.4A7.1,7.1,0,0,0,32,11.4Z" fill="#969696"/><line x1="10.3" y1="16" x2="13.4" y2="19.1" fill="#a8a8a8"/><line x1="11.3" y1="19.7" x2="12.4" y2="15.4" fill="#a8a8a8"/><line x1="14" y1="17" x2="9.7" y2="18.1" fill="#a8a8a8"/><circle cx="11.8" cy="17.6" r="2.2" fill="#a8a8a8"/><line x1="4.9" y1="20.3" x2="8" y2="23.4" fill="#a8a8a8"/><line x1="5.9" y1="24" x2="7" y2="19.7" fill="#a8a8a8"/><line x1="8.6" y1="21.3" x2="4.3" y2="22.4" fill="#a8a8a8"/><circle cx="6.5" cy="21.9" r="2.2" fill="#a8a8a8"/></svg>