<svg xmlns="http://www.w3.org/2000/svg" width="32" height="32" viewBox="0 0 32 32"><title>heavy-rain-shower</title><polygon points="20.1 4.8 17.8 4.8 17.8 0 20.1 0 20.1 4.8 20.1 4.8" fill="#fcc342"/><polygon points="20.1 26.3 17.8 26.3 17.8 21.4 20.1 21.4 20.1 26.3 20.1 26.3" fill="#fcc342"/><polygon points="27.2 14.3 27.2 12 32 12 32 14.3 27.2 14.3 27.2 14.3" fill="#fcc342"/><polygon points="24.5 25.1 22.1 20.9 24.1 19.7 26.5 23.9 24.5 25.1 24.5 25.1" fill="#fcc342"/><polygon points="26.7 10 25.5 8 29.7 5.6 30.8 7.6 26.7 10 26.7 10" fill="#fcc342"/><polygon points="29.7 20.7 25.5 18.3 26.7 16.3 30.8 18.7 29.7 20.7 29.7 20.7" fill="#fcc342"/><polygon points="24.1 6.5 22.1 5.4 24.5 1.2 26.5 2.3 24.1 6.5 24.1 6.5" fill="#fcc342"/><path d="M19,8.2h-.6a6.6,6.6,0,0,0-12.9,0H4.9a4.9,4.9,0,0,0,0,9.8H8V15.7H4.9a2.6,2.6,0,1,1,2.2-3.9l2-1.2A4.9,4.9,0,0,0,7.7,9.1a4.4,4.4,0,1,1,7.8,3.4h2.6a6.7,6.7,0,0,0,.5-1.9H19a2.6,2.6,0,0,1,0,5.2H15.9v2.3H19a4.9,4.9,0,0,0,0-9.8Z"/><path d="M7.6,24.1h0L8,19.5,4,21.8H4a2.4,2.4,0,1,0,3.6,2.4h0Z" fill="#68a5d8"/><path d="M14.1,18.4h0l.4-4.6-4,2.3h0a2.4,2.4,0,1,0,3.6,2.4h0Z" fill="#68a5d8"/></svg>