<svg xmlns="http://www.w3.org/2000/svg" width="32" height="32" viewBox="0 0 32 32"><title>ice</title><path d="M20.9,17.1l2.3.3.4-2.5.9-5.9h-.9l-.3-1.5-.9-4L22,2l-1.4-.2L11.9.6,10.5.4,9.9,1.6l-2,3.6L7.1,6.6H6.2l-.9,5.9L5,14.8l2.3.3.3-2.3,13.7,2ZM9.6,6.1l2-3.6,8.7,1.3.9,4Z"/><polygon points="16.2 24.5 4 18.4 5.6 16.9 4.7 16.7 3.1 16.5 0.7 19 12.5 24.9 3.8 31.6 7 31.6 16.2 24.5"/><polygon points="31.3 27.4 19.1 21.4 21.3 19.2 20.7 19.1 18.8 18.8 15.8 21.9 27.6 27.8 22.6 31.6 25.9 31.6 31.3 27.4"/></svg>