<svg xmlns="http://www.w3.org/2000/svg" width="32" height="32" viewBox="0 0 32 32"><title>sandstorm</title><path d="M1.2,7.7c0,.8.7,1.2,1.4,1.2s1.3-.1,1.3-.8-1-.8-1.9-1.1S0,6.4,0,5.2,1.3,3.3,2.4,3.3s2.6.6,2.6,2H3.7c0-.8-.6-1-1.3-1s-1,.2-1,.7.3.6,2,1,1.9.4,1.9,1.9-.9,2-2.7,2S-.2,9.3-.2,7.7Z"/><path d="M7.9,3.5H9.3l2.4,6.4H10.3L9.8,8.4H7.4L6.8,9.8H5.4ZM7.7,7.4H9.4L8.6,5h0Z"/><path d="M12.3,3.5h1.4l2.7,4.3h0V3.5h1.3V9.8H16.4L13.7,5.6h0V9.8H12.3Z"/><path d="M19,3.5h2.8a2.8,2.8,0,0,1,3,3.1c0,1.8-1,3.2-3,3.2H19Zm1.4,5.2h1.3c.8,0,1.6-.5,1.6-1.9s-.5-2.1-1.9-2.1h-1Z"/><path d="M1.2,15.7c0,.8.7,1.2,1.4,1.2s1.3-.1,1.3-.8-1-.8-1.9-1.1-2-.6-2-1.8,1.3-1.9,2.4-1.9,2.6.6,2.6,2H3.7c0-.8-.6-1-1.3-1s-1,.2-1,.7.3.6,2,1,1.9.4,1.9,1.9-.9,2-2.7,2-2.8-.7-2.8-2.3Z"/><path d="M7.3,12.7h-2V11.5h5.4v1.2h-2v5.2H7.3Z"/><path d="M14.4,11.3a3.1,3.1,0,0,1,3.2,3.4A3.1,3.1,0,0,1,14.4,18a3.1,3.1,0,0,1-3.2-3.3A3.1,3.1,0,0,1,14.4,11.3Zm0,5.5c1.3,0,1.8-1.1,1.8-2.1s-.5-2.2-1.8-2.2-1.8,1.1-1.8,2.2S13.1,16.8,14.4,16.8Z"/><path d="M18.3,11.5h3.5a1.8,1.8,0,0,1,1.9,1.8,1.6,1.6,0,0,1-1,1.6h0c.7.2.9.8,1,1.5a3.4,3.4,0,0,0,.3,1.5H22.5a6.9,6.9,0,0,1-.2-1.5c-.1-.7-.4-1-1.1-1H19.8v2.5H18.3Zm1.4,2.9h1.6c.6,0,1-.3,1-.9s-.3-.9-1-.9H19.8Z"/><path d="M24.7,11.5h2l1.5,4.4h0l1.4-4.4h2v6.4H30.4V13.3h0l-1.6,4.5H27.7l-1.6-4.5h0v4.5H24.7Z"/></svg>