<svg xmlns="http://www.w3.org/2000/svg" width="32" height="32" viewBox="0 0 32 32"><title>thundery-shower-night</title><polygon points="11.3 14.8 8 21.4 11.8 21.4 9 28.6 9.3 28.8 15.5 19.4 11.8 19.4 14.7 14.8 11.3 14.8" fill="#f7df4d"/><path d="M31.1,11.4A7.1,7.1,0,0,1,25.5,0a7.1,7.1,0,0,0-6.2,7A6,6,0,0,1,25,13a6.1,6.1,0,0,1-.1.9h1.4A7.1,7.1,0,0,0,32,11.3Z" fill="#969696"/><path d="M19,8.2h-.6a6.6,6.6,0,0,0-12.9,0H4.9a4.9,4.9,0,0,0,0,9.9H7.9V15.8H4.9a2.6,2.6,0,1,1,2.2-3.9l2-1.2A4.9,4.9,0,0,0,7.7,9.1a4.4,4.4,0,1,1,7.8,3.4h2.6a6.7,6.7,0,0,0,.5-1.9H19a2.6,2.6,0,0,1,0,5.2H15.9v2.3H19a4.9,4.9,0,0,0,0-9.9Z"/></svg>