<svg xmlns="http://www.w3.org/2000/svg" width="32" height="32" viewBox="0 0 32 32"><title>coast-sea</title><path d="M28.5,26.7a3.5,3.5,0,0,1-2.4-.9l-.7-.6h0a1.6,1.6,0,0,0-1-.3,2,2,0,0,0-1.2.4h-.1l-.6.5a3.9,3.9,0,0,1-2.5.9,3.5,3.5,0,0,1-2.4-.9l-.8-.6h0a1.6,1.6,0,0,0-1-.3,1.9,1.9,0,0,0-1.2.4l-1.3-1.4a3.8,3.8,0,0,1,2.5-.9,3.5,3.5,0,0,1,2.4.9l.8.6h0a1.6,1.6,0,0,0,1,.3,1.9,1.9,0,0,0,1.2-.4h.1l.6-.5a3.9,3.9,0,0,1,2.5-.9,3.5,3.5,0,0,1,2.4.9l.7.6h0a1.6,1.6,0,0,0,1,.3,1.9,1.9,0,0,0,1.2-.4l.7-.6,1.2,1.5-.6.5A3.9,3.9,0,0,1,28.5,26.7Z"/><path d="M28.5,32a3.5,3.5,0,0,1-2.4-.9l-.7-.6h0a1.6,1.6,0,0,0-1-.3,2,2,0,0,0-1.2.4h-.1l-.6.5A3.9,3.9,0,0,1,20,32a3.5,3.5,0,0,1-2.4-.9l-.8-.6h0a1.6,1.6,0,0,0-1-.3,1.9,1.9,0,0,0-1.2.4l-.7.5a3.8,3.8,0,0,1-2.5.9,3.4,3.4,0,0,1-2.4-.9l-.7-.6h0a1.6,1.6,0,0,0-1-.3,1.9,1.9,0,0,0-1.2.4l-.7.5a3.9,3.9,0,0,1-2.5.9A3.4,3.4,0,0,1,.3,31l1.4-1.3a1.6,1.6,0,0,0,1.1.3A1.9,1.9,0,0,0,4,29.7l.7-.5a3.9,3.9,0,0,1,2.5-.9,3.5,3.5,0,0,1,2.4.9l.7.6h0a1.6,1.6,0,0,0,1,.3,1.9,1.9,0,0,0,1.2-.4h.1l.6-.5a3.9,3.9,0,0,1,2.5-.9,3.5,3.5,0,0,1,2.4.9l.8.6h0a1.6,1.6,0,0,0,1,.3,1.9,1.9,0,0,0,1.2-.4h.1l.6-.5a3.9,3.9,0,0,1,2.5-.9,3.5,3.5,0,0,1,2.4.9l.7.6h0a1.6,1.6,0,0,0,1,.3,1.9,1.9,0,0,0,1.2-.4l.7-.6,1.2,1.5-.6.5A3.9,3.9,0,0,1,28.5,32Z"/><path d="M9.9,9h.6V7.7H9.6V3.7h.9V2.9L6.6,0,2.8,2.9v.8h1V7.7h-1V9h.6L.9,26a2.7,2.7,0,0,0,1.7.5,3,3,0,0,0,1.9-.6l.7-.5A3,3,0,0,1,7,24.8a2.5,2.5,0,0,1,1.8.6l.6.5a2.5,2.5,0,0,0,1.8.6l1.2-.2Z"/><polygon points="12.9 6.1 30.4 1.4 30.4 11.7 12.9 6.1"/></svg>