<svg xmlns="http://www.w3.org/2000/svg" width="32" height="32" viewBox="0 0 32 32"><title>drizzle</title><circle cx="10.8" cy="19.8" r="0.6" fill="#68a5d8"/><circle cx="13.4" cy="19.8" r="0.6" fill="#68a5d8"/><circle cx="16" cy="19.8" r="0.6" fill="#68a5d8"/><circle cx="18.6" cy="19.8" r="0.6" fill="#68a5d8"/><circle cx="21.2" cy="19.8" r="0.6" fill="#68a5d8"/><circle cx="10.8" cy="22.4" r="0.6" fill="#68a5d8"/><circle cx="13.4" cy="22.4" r="0.6" fill="#68a5d8"/><circle cx="16" cy="22.4" r="0.6" fill="#68a5d8"/><circle cx="18.6" cy="22.4" r="0.6" fill="#68a5d8"/><circle cx="21.2" cy="22.4" r="0.6" fill="#68a5d8"/><circle cx="13.4" cy="25" r="0.6" fill="#68a5d8"/><circle cx="16" cy="25" r="0.6" fill="#68a5d8"/><circle cx="18.6" cy="25" r="0.6" fill="#68a5d8"/><path d="M23.1,8h-.6a6.7,6.7,0,0,0-13,0H8.9a4.9,4.9,0,1,0,0,9.9H23.1a4.9,4.9,0,1,0,0-9.9Zm0,7.5H8.9a2.6,2.6,0,1,1,2.3-3.9l2-1.2a5,5,0,0,0-1.5-1.6,4.4,4.4,0,1,1,7.9,3.4h2.6a6.7,6.7,0,0,0,.5-1.9h.4a2.6,2.6,0,1,1,0,5.2Z"/></svg>