<svg xmlns="http://www.w3.org/2000/svg" width="62" height="32" viewBox="0 0 62 32"><title>fog-b</title><path d="M28.9,11.3c-2.7,0-3.7,2.4-3.7,4.7s1,4.7,3.7,4.7,3.7-2.4,3.7-4.7-1-4.7-3.7-4.7"/><path d="M0,32H62V0H0ZM20.2,11.3H12.6v3.3h6.6v3.2H12.6V24H8.4V8H20.2Zm8.7,13c-5,0-7.9-3.7-7.9-8.3s2.8-8.3,7.9-8.3,7.9,3.7,7.9,8.3-2.8,8.3-7.9,8.3M53.6,24H50.9l-.2-1.7a5.4,5.4,0,0,1-4.5,2.1c-4.8,0-8-3.7-8-8.3s3.1-8.3,8-8.3c3.3,0,6.9,1.8,7.2,5.8H49.3c-.1-1.4-1.5-2.2-3.2-2.2s-3.7,2.4-3.7,4.7,1,4.7,3.7,4.7,3.4-1,3.7-2.4H46.9V15.2h6.7Z"/></svg>