<svg xmlns="http://www.w3.org/2000/svg" width="32" height="32" viewBox="0 0 32 32"><title>heavy-snow-shower-night</title><path d="M19,8.2h-.6a6.6,6.6,0,0,0-12.9,0H4.9a4.9,4.9,0,0,0,0,9.9H8V15.8H4.9a2.6,2.6,0,1,1,2.2-3.9l2-1.2A4.9,4.9,0,0,0,7.7,9.1a4.4,4.4,0,1,1,7.8,3.4h2.6a6.7,6.7,0,0,0,.5-1.9H19a2.6,2.6,0,0,1,0,5.2H15.9v2.3H19a4.9,4.9,0,0,0,0-9.9Z"/><path d="M31.1,11.4A7.1,7.1,0,0,1,25.5,0a7.1,7.1,0,0,0-6.2,7,6.1,6.1,0,0,1,5.7,7h1.4A7.1,7.1,0,0,0,32,11.4Z" fill="#969696"/><polygon points="13.3 20.1 9.8 16.6 10.5 15.9 14 19.4 13.3 20.1 13.3 20.1" fill="#a8a8a8"/><polygon points="11.8 20.5 10.8 20.2 12.1 15.5 13 15.7 11.8 20.5 11.8 20.5" fill="#a8a8a8"/><polygon points="9.7 19.1 9.4 18.1 14.2 16.9 14.4 17.8 9.7 19.1 9.7 19.1" fill="#a8a8a8"/><polygon points="8.1 24.2 4.6 20.7 5.3 20 8.7 23.5 8.1 24.2 8.1 24.2" fill="#a8a8a8"/><polygon points="6.5 24.6 5.6 24.3 6.8 19.6 7.8 19.8 6.5 24.6 6.5 24.6" fill="#a8a8a8"/><polygon points="4.4 23.2 4.2 22.2 8.9 21 9.2 21.9 4.4 23.2 4.4 23.2" fill="#a8a8a8"/></svg>