<svg xmlns="http://www.w3.org/2000/svg" width="32" height="32" viewBox="0 0 32 32"><title>heavy-snow</title><path d="M23,8h-.6A6.6,6.6,0,0,0,9.6,8H9a4.9,4.9,0,0,0,0,9.8H12V15.5H9a2.6,2.6,0,1,1,2.2-3.9l2-1.2a4.9,4.9,0,0,0-1.5-1.6,4.4,4.4,0,1,1,7.8,3.4h2.6a6.7,6.7,0,0,0,.5-1.9H23a2.6,2.6,0,0,1,0,5.2H20v2.3H23A4.9,4.9,0,0,0,23,8Z"/><polygon points="17.4 19.8 13.9 16.4 14.6 15.7 18.1 19.1 17.4 19.8 17.4 19.8" fill="#a8a8a8"/><polygon points="15.8 20.2 14.9 20 16.2 15.3 17.1 15.5 15.8 20.2 15.8 20.2" fill="#a8a8a8"/><polygon points="13.8 18.9 13.5 17.9 18.2 16.6 18.5 17.6 13.8 18.9 13.8 18.9" fill="#a8a8a8"/><polygon points="12.1 23.9 8.7 20.5 9.4 19.8 12.8 23.2 12.1 23.9 12.1 23.9" fill="#a8a8a8"/><polygon points="10.6 24.3 9.6 24.1 10.9 19.4 11.9 19.6 10.6 24.3 10.6 24.3" fill="#a8a8a8"/><polygon points="8.5 23 8.3 22 13 20.7 13.2 21.7 8.5 23 8.5 23" fill="#a8a8a8"/></svg>