<svg xmlns="http://www.w3.org/2000/svg" width="32" height="32" viewBox="0 0 32 32"><title>light-rain-shower-night</title><path d="M19,8.2h-.6a6.6,6.6,0,0,0-12.9,0H4.9a4.9,4.9,0,0,0,0,9.9H8V15.8H4.9a2.6,2.6,0,1,1,2.2-3.9l2-1.2A4.9,4.9,0,0,0,7.7,9.1a4.4,4.4,0,1,1,7.8,3.4h2.6a6.7,6.7,0,0,0,.5-1.9H19a2.6,2.6,0,0,1,0,5.2H15.9v2.3H19a4.9,4.9,0,0,0,0-9.9Z"/><path d="M14.1,18.4h0l.4-4.6-4,2.3h0a2.4,2.4,0,1,0,3.6,2.4h0Z" fill="#68a5d8"/><path d="M31.1,11.4A7.1,7.1,0,0,1,25.5,0a7.1,7.1,0,0,0-6.2,7,6.1,6.1,0,0,1,5.7,7h1.4A7.1,7.1,0,0,0,32,11.4Z" fill="#969696"/></svg>