<svg xmlns="http://www.w3.org/2000/svg" width="32" height="32" viewBox="0 0 32 32"><title>snow</title><polygon points="30 19.1 29.5 17.2 23.1 18.9 18 16 23.1 13.1 29.5 14.8 30 12.9 25.5 11.7 30.4 8.9 29.4 7.1 24.5 9.9 25.7 5.4 23.8 4.9 22.1 11.3 17 14.3 17 8.4 21.7 3.7 20.3 2.3 17 5.6 17 0 15 0 15 5.6 11.7 2.3 10.3 3.7 15 8.4 15 14.3 9.9 11.3 8.2 4.9 6.3 5.4 7.5 9.9 2.6 7.1 1.6 8.9 6.5 11.7 2 12.9 2.5 14.8 8.9 13.1 14 16 8.9 18.9 2.5 17.2 2 19.1 6.5 20.3 1.6 23.1 2.6 24.9 7.5 22.1 6.3 26.6 8.2 27.1 9.9 20.7 15 17.7 15 23.6 10.3 28.3 11.7 29.7 15 26.4 15 32 17 32 17 26.4 20.3 29.7 21.7 28.3 17 23.6 17 17.7 22.1 20.7 23.8 27.1 25.7 26.6 24.5 22.1 29.4 24.9 30.4 23.1 25.5 20.3 30 19.1"/></svg>