<svg xmlns="http://www.w3.org/2000/svg" width="32" height="32" viewBox="0 0 32 32"><title>tropical-storm</title><path d="M11.3,14.7A11.2,11.2,0,0,1,10,12.5a6.7,6.7,0,0,1-.5-2.8A8.2,8.2,0,0,1,9.8,8a9.7,9.7,0,0,1,.6-1.8,9.3,9.3,0,0,1,1-1.7,10.4,10.4,0,0,1,1.4-1.5l1.7-1.2L16.3.9,19.2.2,20.4,0A19.3,19.3,0,0,0,17,.9a9.2,9.2,0,0,0-2.7,1.6,8.3,8.3,0,0,0-2,2.3,7.7,7.7,0,0,0-.8,2.4,4.3,4.3,0,0,0,.5,3,11,11,0,0,1,.9-2.4,6.8,6.8,0,0,1,1.8-2.2,8.9,8.9,0,0,1,3.2-1.6l2-.3h2.1l2,.5,1.7.8a18.8,18.8,0,0,1,2.5,1.7l.9.8a19,19,0,0,0-2.9-1.9,9.1,9.1,0,0,0-3-1,8.2,8.2,0,0,0-3,.1,7.5,7.5,0,0,0-2.3.9,4.3,4.3,0,0,0-1.3,1.2A4.5,4.5,0,0,0,15.9,8a11,11,0,0,1,2.3-.9A6.6,6.6,0,0,1,21,7a8.8,8.8,0,0,1,3.3,1.3l1.5,1.3a10.2,10.2,0,0,1,1.3,1.6A11,11,0,0,1,28,13a9.3,9.3,0,0,1,.5,1.8,19.3,19.3,0,0,1,.3,3c0,.7,0,1.2,0,1.2a18.8,18.8,0,0,0-.4-3.4,8.9,8.9,0,0,0-1.2-2.9,7.9,7.9,0,0,0-2-2.2,7.4,7.4,0,0,0-2.2-1.1,4.1,4.1,0,0,0-1.7-.2,4.2,4.2,0,0,0-1.3.3,10.6,10.6,0,0,1,2.1,1.2,6.5,6.5,0,0,1,1.8,2.1,8.6,8.6,0,0,1,1,3.4,9.1,9.1,0,0,1,0,2,9.9,9.9,0,0,1-.4,2,10.7,10.7,0,0,1-.8,1.8,9.2,9.2,0,0,1-1.1,1.5,19,19,0,0,1-2.1,2.1l-.9.7a18.7,18.7,0,0,0,2.4-2.4,8.9,8.9,0,0,0,1.5-2.6,7.7,7.7,0,0,0,.5-2.9,7.3,7.3,0,0,0-.5-2.3,4,4,0,0,0-.8-1.4,3.9,3.9,0,0,0-1-.8,10.7,10.7,0,0,1,.3,2.4,6.5,6.5,0,0,1-.6,2.7,8.7,8.7,0,0,1-2.1,2.9L17.8,23l-1.9.8-1.9.5H12.1L9.2,24l-1.1-.3a18.5,18.5,0,0,0,3.3.4,9,9,0,0,0,3-.4A7.7,7.7,0,0,0,17,22.4a7.4,7.4,0,0,0,1.6-1.7,3.9,3.9,0,0,0,.6-1.5,3.8,3.8,0,0,0,0-1.3,10.6,10.6,0,0,1-1.8,1.7,6.6,6.6,0,0,1-2.6,1.1,8.8,8.8,0,0,1-3.6,0l-1.9-.6-1.8-1L6,17.8a9.4,9.4,0,0,1-1.2-1.5,18.7,18.7,0,0,1-1.4-2.6L3,12.6a19.1,19.1,0,0,0,1.6,3,9.1,9.1,0,0,0,2.1,2.2,8,8,0,0,0,2.6,1.3,7.6,7.6,0,0,0,2.4.3,4.1,4.1,0,0,0,1.6-.4,4,4,0,0,0,1.1-.7,10.9,10.9,0,0,1-2.5-.4,6.7,6.7,0,0,1-2.5-1.4L8.3,15.2a9.6,9.6,0,0,1-1-1.6,9.1,9.1,0,0,1-.7-1.9,10.3,10.3,0,0,1-.3-2.1,11.4,11.4,0,0,1,.1-2,9.8,9.8,0,0,1,.5-1.9A19,19,0,0,1,8.1,2.9l.6-1A19.3,19.3,0,0,0,7.4,5.1a9.2,9.2,0,0,0-.5,3.1,8.2,8.2,0,0,0,.6,3,7.6,7.6,0,0,0,1.3,2.1,4.2,4.2,0,0,0,2.6,1.5Z"/></svg>