<svg xmlns="http://www.w3.org/2000/svg" width="32" height="32" viewBox="0 0 32 32"><title>motorcycle</title><path d="M26.5,15.5h-.6l-.9-3,3-2V9H26L25,6H19V8h4V9.5l-7,1-3,3.3L11,12H3v1.5l10,3L10.1,18A5.5,5.5,0,0,0,0,21a5.7,5.7,0,0,0,5.5,5.8A5.7,5.7,0,0,0,10.8,23H15l8.4-8.6.7,1.8A5.4,5.4,0,0,0,21,21.1a5.5,5.5,0,1,0,5.5-5.6Zm-21,9.3A3.6,3.6,0,0,1,2,21.1a3.6,3.6,0,0,1,3.5-3.6,3.5,3.5,0,0,1,2.8,1.3L5,20.5V23H8.6A3.6,3.6,0,0,1,5.5,24.8Zm21-.2A3.5,3.5,0,0,1,24.8,18l1.3,3.9,1.6-.5-1.2-3.9a3.5,3.5,0,0,1,0,7Z"/></svg>