<svg xmlns="http://www.w3.org/2000/svg" width="32" height="32" viewBox="0 0 32 32"><title>tram-and-metro</title><polygon points="16 7 18 2 14 2 16 7 16 7" fill="none"/><polygon points="7 25 11 26 11 24 7 24 7 25" fill="none"/><rect x="7" y="10" width="2" height="9" fill="none"/><rect x="23" y="10" width="2" height="9" fill="none"/><polygon points="21 26 25 25 25 24 21 24 21 26" fill="none"/><path d="M25,7H18l2-5h1l1,1h3L22,0H10L7,3h3l1-1h1l2,5H7L5,9V27l2,2v1H9v2h2V30H21v2h2V30h2V29l2-2V9ZM18,2,16,7h0L14,2ZM7,10H9v9H7Zm4,16L7,25V24h4Zm0-16H21V22H11ZM25,25l-4,1V24h4Zm0-6H23V10h2Z"/></svg>