<svg xmlns="http://www.w3.org/2000/svg" width="32" height="32" viewBox="0 0 32 32"><title>all-teams</title><ellipse cx="10.5" cy="3.5" rx="3.5" ry="3.5"/><ellipse cx="21.5" cy="3.5" rx="3.5" ry="3.5"/><ellipse cx="5" cy="17.5" rx="3.5" ry="3.5"/><polygon points="2 32 8 32 10 22 0 22 2 32"/><ellipse cx="16" cy="17.5" rx="3.5" ry="3.5"/><polygon points="13 32 19 32 21 22 11 22 13 32"/><ellipse cx="27" cy="17.5" rx="3.5" ry="3.5"/><polygon points="22 22 24 32 30 32 32 22 22 22"/><path d="M20.9,15h1.2a5.5,5.5,0,0,1,3.6-2.8L26.5,8h-10l.8,4.1A5.5,5.5,0,0,1,20.9,15Z"/><path d="M9.9,15h1.2a5.5,5.5,0,0,1,3.6-2.8L15.5,8H5.5l.8,4.1A5.5,5.5,0,0,1,9.9,15Z"/></svg>