<svg xmlns="http://www.w3.org/2000/svg" width="32" height="32" viewBox="0 0 32 32"><title>american-football</title><path d="M.5,18.6A27.8,27.8,0,0,0,.8,30.5l.2.5.5.2a26.3,26.3,0,0,0,6.6.8,27.4,27.4,0,0,0,5.2-.5Z"/><path d="M31.5,13.4a27.8,27.8,0,0,0-.3-11.9L31,.9,30.5.8A26.4,26.4,0,0,0,23.9,0a27.4,27.4,0,0,0-5.2.5Z"/><path d="M15.3,1.4A22.5,22.5,0,0,0,1.4,15.3L16.7,30.6a22.3,22.3,0,0,0,8.5-5.3,22.4,22.4,0,0,0,5.4-8.5Zm1.9,9.5L15.5,9.2,12.7,12l1.6,1.6-.7.7L12,12.7,9.2,15.5l1.6,1.6-.7.7L8.5,16.2,7.4,17.4l-.8-.8,1.1-1.1L6.2,13.9l.7-.7,1.6,1.6L11.3,12,9.7,10.4l.7-.7L12,11.3l2.8-2.8L13.2,6.9l.7-.7,1.6,1.6,1.1-1.1.8.8L16.2,8.5l1.6,1.6Z"/></svg>