<svg xmlns="http://www.w3.org/2000/svg" width="32" height="32" viewBox="0 0 32 32"><title>badminton</title><path d="M24,15V8H17L15,0,4.9,16.5,6,17.6l2.2-3.6,2,2L7.7,19.3l.7.7L11,16.7l1.8,1.8L9.9,21.4l.7.7,2.9-2.9L15.3,21,12,23.6l.7.7L16,21.8l2,2L14.4,26l1.1,1.1L32,17ZM21.8,9.5,17,14.3l-2.4-2.4,1.9-2.4Zm.7.7v5.3l-2.4,1.9L17.7,15ZM14.4,3.8l1.3,5.1-1.8,2.3L11.4,8.7ZM10.9,15.2,8.8,13.1l2.1-3.5L13.3,12Zm.7.7L14,12.7,16.3,15l-2.8,2.8Zm2.6,2.6L17,15.7,19.3,18l-3.2,2.4Zm4.7,4.7-2.1-2.1L20,18.7l2.4,2.4Zm1.9-5.1,2.3-1.8,5.1,1.3-4.9,3Z"/><path d="M2,20.1A7,7,0,0,0,11.9,30l1.4-1.4L3.5,18.6Zm8.5,8.5a5,5,0,0,1-7.1-7.1h0l7.1,7.1Z"/></svg>