<svg xmlns="http://www.w3.org/2000/svg" width="32" height="32" viewBox="0 0 32 32"><title>boccia</title><path d="M15.9,9.4a3.8,3.8,0,0,0,2.2,2.1l4.8-5h0a3.8,3.8,0,0,0-7,3Z"/><polygon points="18.8 19.5 23.5 24.4 29.5 24.9 31.4 23.1 25.7 21.9 19.8 15 18.8 19.5"/><polygon points="8.9 27.9 7.9 22.7 7.8 14.5 3.8 17.7 5.5 26.2 4 27.2 2.4 22 0 15.8 4.5 12.4 9.4 9.6 16.6 12.1 18.4 14.1 15.9 25.3 15.9 25.3 17.8 27.9 8.9 27.9"/><path d="M29.5,15.8A2.5,2.5,0,1,0,32,18.3,2.5,2.5,0,0,0,29.5,15.8Zm0,4A1.5,1.5,0,1,1,31,18.3,1.5,1.5,0,0,1,29.5,19.8Z"/></svg>