<svg xmlns="http://www.w3.org/2000/svg" width="32" height="32" viewBox="0 0 32 32"><title>boxing</title><path d="M17.2,15.9l-3.8-1.3h-.1l-.8,2.5v.2l2.9,1-.3.9-1.6-.5a2.9,2.9,0,0,0,2,2.5l.9.2a2.9,2.9,0,0,0,.9-5.6Z"/><polygon points="0 31 6 31 7.1 29.2 2.7 22.3 0 31"/><path d="M31.9,5.4a2.9,2.9,0,0,0-2.8-2.1h-.7L24.5,4.4l.8,2.8,3-.8.3,1-1.6.4A2.9,2.9,0,0,0,29.1,9h.7A2.9,2.9,0,0,0,31.9,5.4Z"/><path d="M14.7,4.8l1.8-2.1a3.5,3.5,0,0,0-6.3,3Z"/><polygon points="6 8 4 11 3 20 10 31 17 31 11 21 11 17 12 14 15 10 23.8 7.8 22.9 4.7 6 8"/></svg>