<svg xmlns="http://www.w3.org/2000/svg" width="32" height="32" viewBox="0 0 32 32"><title>canoeing</title><path d="M19,13a3,3,0,0,0-3,3,2.9,2.9,0,0,0,.1.8l1.8,1.5,4-3.2A3,3,0,0,0,19,13Z"/><polygon points="22.6 11.1 22.4 11.1 24.6 19.2 20 22 18.1 20.5 16.3 22.8 20 25 25.1 21.1 25.6 22.9 25.6 22.9 24.2 25.3 24.9 27.9 25 27.8 28 28.8 30.1 28.1 29 24 26.6 22.6 23.4 10.8 22.6 11.1"/><path d="M7,27.8l3,1,3-1,3,1,3-1a12.9,12.9,0,0,0-6-2.6v-.7L15,22h0l2-2.5L14,17V15l2-3,6.1-2.3h0l.9-.4-.6-2.1,1.4-2.4L22.5,0,17.7,1.3,19,6.1l2.5,1.4v.5L14,10,2.2,28.2l1.8.6Z"/><polygon points="31 29.9 28 30.9 25 29.9 22 30.9 19 29.9 16 30.9 13 29.9 10 30.9 7 29.9 4 30.9 1 29.9 0 30.3 0 31.3 1 31 4 32 7 31 10 32 13 31 16 32 19 31 22 32 25 31 28 32 31 31 32 31.3 32 30.3 31 29.9"/></svg>