<svg xmlns="http://www.w3.org/2000/svg" width="32" height="32" viewBox="0 0 32 32"><title>champagne-moment</title><path d="M3,22.8l-.7.7.7-.7H3l-.7.7c-.4.4-.5.8-.1,1.2l4.4,4.4a.8.8,0,0,0,1.3,0H8l.6-.6Z" fill="#4e7a22"/><path d="M19.8,10.3l-2.4,2.4a14.7,14.7,0,0,1-2.7,2c-1.5.8-4.3,2-5.5,2.7a21,21,0,0,0-2.7,1.9h0L12,25h.1A22.8,22.8,0,0,0,14,22.2c.7-1.2,2-3.9,2.8-5.3a12.9,12.9,0,0,1,2-2.6l2.5-2.4Z" fill="#4e7a22"/><path d="M14.8,21.2a9.3,9.3,0,0,1-3-1.5,9.3,9.3,0,0,1-1.5-3l.9-.3A8.5,8.5,0,0,0,12.5,19a8.5,8.5,0,0,0,2.6,1.3Z" fill="#fff"/><rect x="21.6" y="7.3" width="5.1" height="1" transform="translate(1.5 19.3) rotate(-45)" fill="#ccc"/><path d="M26.1,14.7a2.3,2.3,0,0,1-1.6-.7,1.9,1.9,0,0,1,0-2.7l.7.7a.9.9,0,0,0,0,1.3,1.3,1.3,0,0,0,1.8,0,1.7,1.7,0,0,0,0-2.4,2.7,2.7,0,0,0-3.6-.1l-.7-.7a3.4,3.4,0,0,1,2.5-.9,3.7,3.7,0,0,1,2.5,1,2.7,2.7,0,0,1,0,3.9A2.3,2.3,0,0,1,26.1,14.7Z" fill="#ccc"/><path d="M21.9,9.2l-.7-.7a2.7,2.7,0,0,0-.1-3.6,1.7,1.7,0,0,0-2.4,0,1.3,1.3,0,0,0,0,1.8l-.7.7a2.3,2.3,0,0,1,0-3.2,2.7,2.7,0,0,1,3.9,0,3.7,3.7,0,0,1,1,2.5A3.4,3.4,0,0,1,21.9,9.2Z" fill="#ccc"/><polygon points="8.6 28.4 3 22.8 6.5 19.4 12 25 8.6 28.4"/><path d="M28,6.5l1-1.5a.7.7,0,0,0,.7-.1l.2-.2a.7.7,0,0,0,0-1l-.9-.9a.7.7,0,0,0-.9,0l-.2.2a.6.6,0,0,0-.1.7l-1.5.9Z" fill="#c7b299"/></svg>