<svg xmlns="http://www.w3.org/2000/svg" width="32" height="32" viewBox="0 0 32 32"><title>cycling</title><polygon points="17 13.2 16.5 13.3 16.5 15.9 16.5 16.1 16.4 16.3 15.3 20.4 20 15 17 13.2"/><path d="M29.9,8.2a2.5,2.5,0,0,0,.1-.7,2.5,2.5,0,1,0-4.3,1.8Z"/><path d="M23,14h6V13l-5-1L23,8,21,6,12,8l-2,3,1.6,5.7-.3,1.6h0A6,6,0,1,0,10,25.5h0L13,23l2-7.1V12l6-1ZM6,25.5A4.5,4.5,0,1,1,10.5,21,4.5,4.5,0,0,1,6,25.5Z"/><path d="M26,15a6,6,0,1,0,6,6A6,6,0,0,0,26,15Zm0,10.5A4.5,4.5,0,1,1,30.5,21,4.5,4.5,0,0,1,26,25.5Z"/></svg>