<svg xmlns="http://www.w3.org/2000/svg" width="32" height="32" viewBox="0 0 32 32"><title>disability-sports</title><path d="M27.5,16.5A4.5,4.5,0,0,0,24,18.2l-4.7-3-.5.8L21,17.5H12.8V17h0l-1.2,1.5c0,.1,0,.3,0,.4a5,5,0,1,1-5-5,4.9,4.9,0,0,1,2.8.9L7,19.5l1,1,4-5,4-2v-4l-2-1L4,13H4a6.5,6.5,0,1,0,9,6.5H24.2l3.4,2.1.5-.8-3.3-2.1A3.5,3.5,0,0,1,31,21a3.5,3.5,0,1,1-7,0,3.6,3.6,0,0,1,0-.5H23a4.7,4.7,0,0,0,0,.5,4.5,4.5,0,1,0,4.5-4.5Z"/><path d="M19.8,12l3.7-3.7a2.9,2.9,0,0,0-.6-1,2.8,2.8,0,0,0-4,4Z"/></svg>