<svg xmlns="http://www.w3.org/2000/svg" width="32" height="32" viewBox="0 0 32 32"><title>diving</title><polygon points="31 29.9 28 30.9 25 29.9 22 30.9 19 29.9 16 30.9 13 29.9 10 30.9 7 29.9 4 30.9 1 29.9 0 30.2 0 31.3 1 30.9 4 31.9 7 30.9 10 31.9 13 30.9 16 31.9 19 30.9 22 31.9 25 30.9 28 31.9 31 30.9 32 31.3 32 30.2 31 29.9"/><polygon points="25 23.1 26.4 13.8 22.5 14.3 23 24.1 25 23.1"/><path d="M28,12.1v-1H26.8l1.2-8-3-3H21l-11,9v3l1.4,2.1Zm-9-2,3-4,.3,5H17Z"/><path d="M11.4,17.8a3,3,0,0,0,.1-.7,3,3,0,0,0-.2-.9l-.2-.5v-.2a3,3,0,0,0-1.3-1.1l-1.2-.3a3,3,0,0,0-2.2,5.1Z"/></svg>