<svg xmlns="http://www.w3.org/2000/svg" width="32" height="32" viewBox="0 0 32 32"><title>drop-catch</title><path d="M11.9,26.9l.4.4-.5.5.4.5,6.3-6.3-.5-.4-.5.5-.4-.4.4-.4a4.5,4.5,0,0,0-6,6Zm4.8-4.8.4.4-.8.8-.4-.4Zm-1.2,1.2.4.4-.8.8-.4-.4Zm-1.2,1.2.4.4-.8.8-.4-.4Zm-1.2,1.2.4.4-.8.8-.4-.4Z" fill="#c1272d"/><path d="M19.5,23.3l-.4.4-.4-.4.5-.5-.4-.5-6.3,6.3.5.4.5-.5.4.4-.4.4a4.5,4.5,0,0,0,6-6Zm-5.2,5.2-.4-.4.8-.8.4.4Zm1.2-1.2-.4-.4.8-.8.4.4Zm1.2-1.2-.4-.4.8-.8.4.4Zm1.2-1.2-.4-.4.8-.8.4.4Z" fill="#c1272d"/><rect x="13" y="15.8" width="0.9" height="4" fill="#1c1c1c"/><polygon points="16 19.2 15 19.2 15 14.6 16 14.6 16 19.2" fill="#1c1c1c"/><rect x="17" y="15.8" width="1" height="4" fill="#1c1c1c"/><path d="M20.4,28a5.1,5.1,0,0,1-4.9,3,5.1,5.1,0,0,1-4.9-3H0v4H32V28Z" fill="#4e7a22"/><polygon points="14 6.7 6 5.3 2.7 11.3 3.2 12 6 10.4 5.3 13.8 6.8 17 10.7 17 14 10.5 14 6.7"/><polygon points="7.3 4 14 5.3 14.7 1 7.9 0 7.3 4"/><polygon points="16.7 6.7 24.7 5.3 28 11.3 27.5 12 24.7 10.4 25.3 13.8 23.9 17 20 17 16.7 10.5 16.7 6.7"/><polygon points="23.3 4 16.7 5.3 16 1 22.8 0 23.3 4"/></svg>