<svg xmlns="http://www.w3.org/2000/svg" width="32" height="32" viewBox="0 0 32 32"><title>fixtures-results</title><polygon points="2.4 10 0.4 10 0.4 25 0.4 27 2.4 27 12.4 27 12.4 25 2.4 25 2.4 10"/><rect x="25.4" y="10" width="2" height="4"/><polygon points="24.4 8 27.4 8 27.4 2 22.4 2 22.4 5 22.4 6 21.4 6 19.4 6 18.4 6 18.4 5 18.4 2 9.4 2 9.4 5 9.4 6 8.4 6 6.4 6 5.4 6 5.4 5 5.4 2 0.4 2 0.4 8 2.4 8 24.4 8"/><polygon points="21.4 2 21.4 0 19.4 0 19.4 2 19.4 5 21.4 5 21.4 2"/><polygon points="8.4 2 8.4 0 6.4 0 6.4 2 6.4 5 8.4 5 8.4 2"/><path d="M19.4,14.2,19,12.7a10.2,10.2,0,0,0-6,4.5l1.4.8a8.6,8.6,0,0,1,5.1-3.8"/><path d="M10,15.8l1.4.8a11.8,11.8,0,0,1,7-5.3L18,9.8a13.3,13.3,0,0,0-8,6"/><rect x="21.4" y="20" width="2" height="5"/><path d="M29.6,20l2.1-2.1-3.2-3.2-2,2.1.9.9a7.9,7.9,0,0,0-2.9-1.4V16a2,2,0,1,0-4,0v.3a8,8,0,1,0,8.3,2.9ZM22.4,30a6,6,0,1,1,6-6,6,6,0,0,1-6,6"/></svg>