<svg xmlns="http://www.w3.org/2000/svg" width="32" height="32" viewBox="0 0 32 32"><title>fixtures</title><rect x="24" y="13" width="4" height="4"/><rect x="22" width="2" height="5"/><rect x="8" width="2" height="5"/><rect x="19" y="13" width="4" height="4"/><rect x="14" y="13" width="4" height="4"/><rect x="9" y="13" width="4" height="4"/><rect x="24" y="18" width="4" height="4"/><rect x="19" y="18" width="4" height="4"/><rect x="14" y="18" width="4" height="4"/><rect x="9" y="18" width="4" height="4"/><rect x="4" y="18" width="4" height="4"/><rect x="19" y="23" width="4" height="4"/><rect x="14" y="23" width="4" height="4"/><rect x="9" y="23" width="4" height="4"/><rect x="4" y="23" width="4" height="4"/><polygon points="25 2 25 6 21 6 21 2 11 2 11 6 7 6 7 2 0 2 0 9 2 9 30 9 32 9 32 2 25 2"/><polygon points="30 30 2 30 2 11 0 11 0 32 32 32 32 11 30 11 30 30"/></svg>