<svg xmlns="http://www.w3.org/2000/svg" width="32" height="32" viewBox="0 0 32 32"><title>game-set-match</title><polygon points="5.4 5.8 5.1 5.2 4.7 6.1 4.3 6.2 2.8 4.5 2.5 5.1 3.9 8.1 5.5 7.5 5.4 5.8"/><polygon points="21.3 17.1 16.1 21.3 13 21 9.8 19.1 5.8 8.8 4.2 9.5 4.9 14 6.9 20.5 8.8 26.3 9.5 32 18.3 32 18.9 26.6 19 24.2 23.6 19 27.3 11.7 25.9 11.2 21.3 17.1"/><path d="M13.6,18.6a3.5,3.5,0,0,0,2.8-.5l-1.1-6.3h-.1a3.5,3.5,0,0,0-1.6,6.9Z"/><path d="M16.5,7a7.4,7.4,0,0,0,2.4.8h1.2a17,17,0,0,1,5,.4h.2l.4-.5h-.1c-.5,0-2-2.4-3-4.3h0V3.3h0A6.6,6.6,0,0,0,20,.9,7,7,0,0,0,17.7.1C16-.2,14.5.3,13.8,1.4S14.1,5.6,16.5,7Zm6.1-.5a2.5,2.5,0,0,0,.3-.9l1.3,1.8-2.2-.2ZM14.4,1.8c.5-.8,1.7-1.2,3.1-1a6.4,6.4,0,0,1,2.1.8,5.9,5.9,0,0,1,2.3,2.3h0a2.5,2.5,0,0,1,.2,2.3,2.4,2.4,0,0,1-2,1H19a6.4,6.4,0,0,1-2.1-.8C14.8,5.2,13.7,3.1,14.4,1.8Z"/><polygon points="29.5 10 26.4 8.2 26 8.8 26.6 9.2 26.3 10.4 27.7 10.9 28.4 10.3 29.1 10.7 29.5 10"/></svg>