<svg xmlns="http://www.w3.org/2000/svg" width="32" height="32" viewBox="0 0 32 32"><title>generic-goal</title><path d="M16,6A11,11,0,1,0,27,17,11,11,0,0,0,16,6Zm0,20.6A9.6,9.6,0,1,1,25.6,17,9.6,9.6,0,0,1,16,26.6Z"/><path d="M0,0V16H2V12H5A16.1,16.1,0,0,1,7,8.7V7H9a15.9,15.9,0,0,1,3-1.6h0V2h3V5h2V2h3V5.3h0A15.9,15.9,0,0,1,23,7h2s0,1.8,0,1.7A18.1,18.1,0,0,1,27,12h3v4h2V0ZM5,10H2V7H5ZM5,5H2V2H5Zm5,0H7V2h3ZM25,5H22V2h3Zm5,5H27V7h3Zm0-5H27V2h3Z"/><path d="M9.1,17H8.4A7.6,7.6,0,0,0,16,24.6v-.7A6.9,6.9,0,0,1,9.1,17Z"/></svg>