<svg xmlns="http://www.w3.org/2000/svg" width="32" height="32" viewBox="0 0 32 32"><title>generic-events</title><polygon points="0 21 5 21 5 23 0 23 0 25 5 25 5 27 0 27 0 30 9 30 9 25 15 25 15 30 17 30 17 25 23 25 23 30 32 30 32 27 27 27 27 25 32 25 32 23 27 23 27 21 32 21 32 19 0 19 0 21"/><polygon points="2 13 0 15 0 17 32 17 32 15 30 13 2 13"/><rect x="5" y="2" width="1" height="10"/><rect x="24" y="2" width="1" height="10"/><polygon points="11 4 13 2 7 2 7 6 13 6 11 4"/><polygon points="32 2 26 2 26 6 32 6 30 4 32 2"/></svg>