<svg xmlns="http://www.w3.org/2000/svg" width="32" height="32" viewBox="0 0 32 32"><title>goal</title><path d="M0,0V16H2V12H5A16.1,16.1,0,0,1,7,8.7V7H9a15.9,15.9,0,0,1,3-1.6h0V2h3V5h2V2h3V5.3h0A15.9,15.9,0,0,1,23,7h2s0,1.8,0,1.7A18.1,18.1,0,0,1,27,12h3v4h2V0ZM5,10H2V7H5ZM5,5H2V2H5Zm5,0H7V2h3ZM25,5H22V2h3Zm5,5H27V7h3Zm0-5H27V2h3Z"/><polygon points="12.6 15.8 13.9 20 18.1 20 19.4 15.8 16 13.3 12.6 15.8"/><path d="M16,6A11,11,0,1,0,27,17,11,11,0,0,0,16,6Zm7.8,17-.2-1.4-3.7.8-1.9,3.3,1.1.5.4.2a9.8,9.8,0,0,1-7,0l.4-.2,1.1-.5-1.9-3.2-3.7-.8L8.3,23v.2a9.9,9.9,0,0,1-2.2-5.5c0-.3,0-.5,0-.8s0-.3,0-.4l1.1,1.2L9.7,15l-.4-3.7-1.6.3a10,10,0,0,1,5.7-4.1l-.8,1.4L16,10.4l3.4-1.5-.8-1.4a10,10,0,0,1,5.7,4.1l-1.6-.3-.4,3.7,2.5,2.8,1.1-1.2c0,.2,0,.3,0,.5s0,.5,0,.8a9.9,9.9,0,0,1-2.1,5.4Z"/></svg>