<svg xmlns="http://www.w3.org/2000/svg" width="32" height="32" viewBox="0 0 32 32"><title>judo</title><polygon points="29 19 32 13 31 12 26 19 26 19.4 30.5 24.3 29 19"/><polygon points="13 12 20 12 28.4 7 27 6 19 9 17.3 8.4 13 12"/><polygon points="8 14 13 10 19 5 24.4 2 23 1 14 4 5 9 3 11 3 16 10 19 14 22 14 29 16 31 23 31 31 27 18 13 16 13 24 25 22 26 18 26 16 21 8 14"/><path d="M2.5,17H2.4l-.8.2a2.5,2.5,0,0,0-.4,4.4L5,19.2a2.5,2.5,0,0,0-.2-.6l-.4-.7A2.5,2.5,0,0,0,2.5,17Z"/><path d="M13,25.5h0a2.5,2.5,0,0,0-.5-1.4l-.4-.4-4,1.3A2.5,2.5,0,0,0,10.5,28a2.5,2.5,0,0,0,2-1,2.5,2.5,0,0,0,.5-1.4Z"/></svg>