<svg xmlns="http://www.w3.org/2000/svg" width="32" height="32" viewBox="0 0 32 32"><title>man-of-the-series</title><rect y="28" width="32" height="4.01" fill="#4e7a22"/><rect y="20" width="32" height="4.01" fill="#4e7a22"/><rect y="12" width="32" height="4.01" fill="#4e7a22"/><rect y="4.1" width="32" height="4.01" fill="#4e7a22"/><rect y="23.9" width="32" height="4.01" fill="#6c9148"/><rect y="16" width="32" height="4.01" fill="#6c9148"/><rect y="8" width="32" height="4.01" fill="#6c9148"/><rect y="0.1" width="32" height="4.01" fill="#6c9148"/><polygon points="27.8 10.9 29 9.8 28.2 9.3 27.8 9.4 27.5 9.2 27.1 8.6 26.8 8.7 26.4 10.4 27.8 10.9" fill="#fff"/><polygon points="3.9 8.1 2.6 5.1 2.9 4.5 4.4 6.2 4.8 6.1 5.1 5.2 5.5 5.8 5.5 7.5 3.9 8.1" fill="#fff"/><polygon points="9.6 32 8.9 26.3 7 20.5 4.9 14.1 4.3 9.5 5.9 8.9 9.9 19.1 13.1 21 16.2 21.3 21.4 17.2 26 11.2 27.3 11.7 23.7 19 19.1 24.2 19 26.6 18.4 32 9.6 32" fill="#fff"/><path d="M13.7,18.6a3.5,3.5,0,0,0,2.8-.5l-1.1-6.3h-.1a3.5,3.5,0,0,0-1.6,6.9Z" fill="#fff"/></svg>