<svg xmlns="http://www.w3.org/2000/svg" width="32" height="32" viewBox="0 0 32 32"><title>netball</title><rect x="4" y="18" width="3" height="14"/><path d="M8,18v3l2.5,9h1.4l-.8-3H15v3h1V27h4v3h1V27h3.9l-.8,3h1.4L28,21V18Zm7,8H10.8l-.5-2H15Zm0-3H10L9.4,21H15Zm5,3H16V24h4Zm0-3H16V21h4Zm5.2,3H21V24h4.7Zm.8-2.9H21V21h5.6Z"/><path d="M18,16a8,8,0,1,0-8-8A8,8,0,0,0,18,16Zm2-1.8L14.7,8.9l2.2-.6,4.9,4.9A6.5,6.5,0,0,1,20,14.2ZM18,8h0Zm6.5,0a6.5,6.5,0,0,1-1.9,4.6l-1.3-1.3,1.9-7.2A6.5,6.5,0,0,1,24.5,8ZM22.4,3.2l-1.9,7.2L18.8,8.8l1.8-6.8A6.5,6.5,0,0,1,22.4,3.2ZM18,1.5l1.7.2-.5,1.8L12,5.5A6.5,6.5,0,0,1,18,1.5ZM11.5,8a6.5,6.5,0,0,1,.2-1.4l7.2-1.9-.6,2.2L11.5,8.7A6.3,6.3,0,0,1,11.5,8Zm2,1.2,5.2,5.3H18a6.5,6.5,0,0,1-6.3-4.8Z"/></svg>