<svg xmlns="http://www.w3.org/2000/svg" width="32" height="32" viewBox="0 0 32 32"><title>ouch</title><polygon points="27.6 18.2 32 16 27.6 13.8 28.9 11.9 26 11.3 28 7 21.4 8.6 21.1 6.8 19.1 8 16.1 4 13 8 10.9 6.8 10.6 8.6 4 7 6 11.3 3.1 11.9 4.4 13.8 0 16 4.4 18.2 3.1 20.1 6 20.7 4 25 10.6 23.4 10.9 25.2 12.9 24 15.9 28 19 24 21.1 25.2 21.4 23.4 28 25 26 20.7 28.9 20.1 27.6 18.2" fill="#c1272d"/><path d="M5.2,16.2A3,3,0,0,1,5.4,15l.4-.7.6-.4,1-.2a2.2,2.2,0,0,1,1.7.7,2.5,2.5,0,0,1,.6,1.8A2.5,2.5,0,0,1,9.2,18a2.2,2.2,0,0,1-1.7.6A2.2,2.2,0,0,1,5.8,18,2.4,2.4,0,0,1,5.2,16.2Zm1,0a1.8,1.8,0,0,0,.4,1.2,1.3,1.3,0,0,0,1.9,0,1.8,1.8,0,0,0,.4-1.2,1.8,1.8,0,0,0-.4-1.2,1.2,1.2,0,0,0-1-.4,1.2,1.2,0,0,0-1,.4A1.8,1.8,0,0,0,6.2,16.2Z" fill="#fff"/><path d="M10.7,13.8h1v2.6a5.4,5.4,0,0,0,0,.8.8.8,0,0,0,.3.5l.6.2.6-.2a.6.6,0,0,0,.2-.4,5.3,5.3,0,0,0,0-.8V13.8h1v2.5a6.4,6.4,0,0,1-.1,1.2,1.3,1.3,0,0,1-.3.6l-.6.4h-.9l-1-.2-.6-.4-.3-.5a5.8,5.8,0,0,1-.1-1.2Z" fill="#fff"/><path d="M18.6,16.8l.9.3a2.1,2.1,0,0,1-.7,1.2A2.2,2.2,0,0,1,16,18a2.5,2.5,0,0,1-.6-1.8,2.6,2.6,0,0,1,.6-1.8,2.1,2.1,0,0,1,1.6-.7,2,2,0,0,1,1.4.5,1.9,1.9,0,0,1,.5.9l-.9.2a1,1,0,0,0-.4-.6l-.7-.2a1.1,1.1,0,0,0-.9.4,1.9,1.9,0,0,0-.3,1.2,2,2,0,0,0,.3,1.3,1.1,1.1,0,0,0,.8.4l.7-.2A1.4,1.4,0,0,0,18.6,16.8Z" fill="#fff"/><path d="M20.5,18.5V13.8h1v1.9h1.9V13.8h1v4.7h-1V16.5H21.4v2.1Z" fill="#fff"/><path d="M25.7,17.3l-.2-2.4V13.8h1v1.1l-.2,2.4Zm-.2,1.2v-.9h.9v.9Z" fill="#fff"/></svg>