<svg xmlns="http://www.w3.org/2000/svg" width="32" height="32" viewBox="0 0 32 32"><title>results</title><rect x="26" y="9.5" width="4" height="6" transform="translate(-0.6 23.4) rotate(-45)"/><path d="M21.6,8.3a2.5,2.5,0,1,0-2.5,2.5A2.5,2.5,0,0,0,21.6,8.3ZM19.1,9.8a1.5,1.5,0,1,1,1.5-1.5A1.5,1.5,0,0,1,19.1,9.8Z"/><path d="M19.1,10.8A10.5,10.5,0,1,0,29.6,21.3,10.5,10.5,0,0,0,19.1,10.8Zm0,18a7.5,7.5,0,1,1,7.5-7.5A7.5,7.5,0,0,1,19.1,28.8Z"/><path d="M12.2,2.1,11.5.2A22.6,22.6,0,0,0,.5,8.7L2.2,9.9A20.6,20.6,0,0,1,12.2,2.1Z"/><path d="M12.8,3.9a18.6,18.6,0,0,0-9,7.1l1.6,1.1a16.6,16.6,0,0,1,8.1-6.3Z"/><path d="M14.9,9.6l-.7-1.9a14.6,14.6,0,0,0-7.1,5.6l1.6,1.1A12.6,12.6,0,0,1,14.9,9.6Z"/><rect x="18.6" y="15.8" width="2" height="6"/></svg>