<svg xmlns="http://www.w3.org/2000/svg" width="32" height="32" viewBox="0 0 32 32"><title>rugby-union</title><path d="M29.7,2.3A8.5,8.5,0,0,0,23.5,0,15.3,15.3,0,0,0,20,.4,26.7,26.7,0,0,0,7.7,7.7,26.7,26.7,0,0,0,.4,20c-1,4.1-.3,7.6,1.8,9.7A8.5,8.5,0,0,0,8.5,32a15.2,15.2,0,0,0,3.5-.4,26.7,26.7,0,0,0,12.3-7.3A26.8,26.8,0,0,0,31.6,12C32.5,7.9,31.9,4.4,29.7,2.3Zm.4,9.4a25.2,25.2,0,0,1-6.9,11.5,25.2,25.2,0,0,1-11.5,6.9,13.9,13.9,0,0,1-3.2.4,7.3,7.3,0,0,1-4.7-1.4l4.1-8.2L6.8,19.8,2.7,27.9c-1.3-1.8-1.6-4.4-.8-7.6A25.2,25.2,0,0,1,8.8,8.8,25.2,25.2,0,0,1,20.3,1.9a13.9,13.9,0,0,1,3.2-.4,7.5,7.5,0,0,1,4.4,1.2L20,7l1.1,1.1,8-4.3C30.5,5.6,30.9,8.4,30.1,11.7Z"/><path d="M15.5,16.3,14,17.6a1.6,1.6,0,0,1-1.2.3,2.4,2.4,0,0,1-1.4-.8,2.5,2.5,0,0,1-.8-1.4,1.9,1.9,0,0,1,.3-1.3l1.3-1.5,4.5-4.5L15.1,6.7l-4.4,4.4a14.3,14.3,0,0,0-1.9,2.3,3.2,3.2,0,0,0-.4,1.4,3.6,3.6,0,0,0,.3,1.7,6.5,6.5,0,0,0,1.5,2.1,5.9,5.9,0,0,0,1.8,1.3,3.6,3.6,0,0,0,1.7.3,3.3,3.3,0,0,0,1.5-.5,15.9,15.9,0,0,0,2.2-2l4.4-4.4L20,11.7Z"/></svg>