<svg xmlns="http://www.w3.org/2000/svg" width="32" height="32" viewBox="0 0 32 32"><title>sitting-volleyball</title><polygon points="2 20.6 1.4 12.1 0 12.1 0 26.4 7.4 22.9 4.3 19.7 2 20.6"/><path d="M10.4,15.4a3.4,3.4,0,0,0,2.1-1.6l-3.7-5H8.7a3.4,3.4,0,0,0,1.6,6.6Z"/><path d="M21.1,11.4a4.1,4.1,0,1,0-4.1-4.1A4.1,4.1,0,0,0,21.1,11.4Zm0-6.8a2.7,2.7,0,1,1-2.7,2.7A2.7,2.7,0,0,1,21.1,4.6Z"/><polyline points="21.1 26.4 17 18.9 23.8 18.9 32 15.1 30.6 13.3 23.8 16.2 15.7 15.4 7.5 18.2 5.6 19.1 8.7 22.2 8.7 22.2 13.3 26.4 13.6 28.8 18.4 28.8 22.2 28.8"/></svg>