<svg xmlns="http://www.w3.org/2000/svg" width="32" height="32" viewBox="0 0 32 32"><title>sport-300</title><rect width="32" height="32" fill="#1c1c1c"/><rect x="13" y="10" width="1" height="1" fill="#ffe710"/><rect x="13" y="12" width="1" height="1" fill="#ffe710"/><rect x="13" y="16" width="1" height="1" fill="#ffe710"/><rect x="15" y="8" width="1" height="1" fill="#ffe710"/><rect x="15" y="10" width="1" height="1" fill="#ffe710"/><rect x="13" y="22" width="1" height="1" fill="#ffe710"/><rect x="15" y="22" width="1" height="1" fill="#ffe710"/><rect x="15" y="24" width="1" height="1" fill="#ffe710"/><rect x="17" y="8" width="1" height="1" fill="#ffe710"/><rect x="19" y="10" width="1" height="1" fill="#ffe710"/><rect x="17" y="10" width="1" height="1" fill="#ffe710"/><rect x="19" y="16" width="1" height="1" fill="#ffe710"/><rect x="19" y="18" width="1" height="1" fill="#ffe710"/><rect x="19" y="22" width="1" height="1" fill="#ffe710"/><rect x="17" y="22" width="1" height="1" fill="#ffe710"/><rect x="17" y="24" width="1" height="1" fill="#ffe710"/><rect x="13" y="14" width="1" height="1" fill="#ffe710"/><rect x="13" y="20" width="1" height="1" fill="#ffe710"/><rect x="13" y="18" width="1" height="1" fill="#ffe710"/><rect x="19" y="14" width="1" height="1" fill="#ffe710"/><rect x="19" y="12" width="1" height="1" fill="#ffe710"/><rect x="19" y="20" width="1" height="1" fill="#ffe710"/><rect x="22" y="10" width="1" height="1" fill="#ffe710"/><rect x="22" y="12" width="1" height="1" fill="#ffe710"/><rect x="22" y="16" width="1" height="1" fill="#ffe710"/><rect x="24" y="8" width="1" height="1" fill="#ffe710"/><rect x="24" y="10" width="1" height="1" fill="#ffe710"/><rect x="22" y="22" width="1" height="1" fill="#ffe710"/><rect x="24" y="22" width="1" height="1" fill="#ffe710"/><rect x="24" y="24" width="1" height="1" fill="#ffe710"/><rect x="26" y="8" width="1" height="1" fill="#ffe710"/><rect x="28" y="10" width="1" height="1" fill="#ffe710"/><rect x="26" y="10" width="1" height="1" fill="#ffe710"/><rect x="28" y="16" width="1" height="1" fill="#ffe710"/><rect x="28" y="18" width="1" height="1" fill="#ffe710"/><rect x="28" y="22" width="1" height="1" fill="#ffe710"/><rect x="26" y="22" width="1" height="1" fill="#ffe710"/><rect x="26" y="24" width="1" height="1" fill="#ffe710"/><rect x="22" y="14" width="1" height="1" fill="#ffe710"/><rect x="22" y="20" width="1" height="1" fill="#ffe710"/><rect x="22" y="18" width="1" height="1" fill="#ffe710"/><rect x="28" y="14" width="1" height="1" fill="#ffe710"/><rect x="28" y="12" width="1" height="1" fill="#ffe710"/><rect x="28" y="20" width="1" height="1" fill="#ffe710"/><rect x="4" y="10" width="1" height="1" fill="#ffe710"/><rect x="6" y="16" width="1" height="1" fill="#ffe710"/><rect x="4" y="22" width="1" height="1" fill="#ffe710"/><rect x="8" y="8" width="1" height="1" fill="#ffe710"/><rect x="10" y="10" width="1" height="1" fill="#ffe710"/><rect x="8" y="10" width="1" height="1" fill="#ffe710"/><rect x="8" y="16" width="1" height="1" fill="#ffe710"/><rect x="10" y="18" width="1" height="1" fill="#ffe710"/><rect x="8" y="18" width="1" height="1" fill="#ffe710"/><rect x="10" y="22" width="1" height="1" fill="#ffe710"/><rect x="8" y="22" width="1" height="1" fill="#ffe710"/><rect x="8" y="24" width="1" height="1" fill="#ffe710"/><rect x="6" y="24" width="1" height="1" fill="#ffe710"/><rect x="6" y="8" width="1" height="1" fill="#ffe710"/><rect x="8" y="14" width="1" height="1" fill="#ffe710"/><rect x="10" y="14" width="1" height="1" fill="#ffe710"/><rect x="10" y="12" width="1" height="1" fill="#ffe710"/><rect x="10" y="20" width="1" height="1" fill="#ffe710"/></svg>