<svg xmlns="http://www.w3.org/2000/svg" width="32" height="32" viewBox="0 0 32 32"><title>swimming</title><polygon points="1.2 12.7 4 13.6 7 12.6 10 13.6 13 12.6 16 13.6 19 12.6 22 13.6 22 10 21 7 14 0 12 0 5 7 6 8 13 4 15 7 15 8 1.2 12.7"/><path d="M25,12.6l3,1,1.6-.5a3.5,3.5,0,0,0,.4-1.6,3.5,3.5,0,1,0-7,0,3.5,3.5,0,0,0,.4,1.6Z"/><polygon points="31 14.7 28 15.7 25 14.7 22 15.7 19 14.7 16 15.7 13 14.7 10 15.7 7 14.7 4 15.7 1 14.7 0 15 0 16.1 1 15.7 4 16.7 7 15.7 10 16.7 13 15.7 16 16.7 19 15.7 22 16.7 25 15.7 28 16.7 31 15.7 32 16.1 32 15 31 14.7"/></svg>