<svg xmlns="http://www.w3.org/2000/svg" width="32" height="32" viewBox="0 0 32 32"><title>umpire-review</title><rect y="28.1" width="32" height="3.92" fill="#4e7a22"/><polygon points="23 32 23 24.9 18.6 21.7 23 21.4 23 19.6 8.9 18.4 6.6 20.7 9 24.7 9 32 23 32" fill="#fff"/><path d="M24,18.9l-6.4-.5A4.5,4.5,0,0,0,20,14.8V12h3V10.9l-3-.4V9.1L16,6.8,12,9.1v1.4l-3,.4V12h3v2.8a4.6,4.6,0,0,0,2,3.4l-5.1-.4L5.7,20.5,8,24.9V32H9V24.7l-2.3-4L9,18.5l14,1v1.9l-13.7.8v.7l4.2-.2-.9.9h.8v.5h-.7l.5,1,2.8.9,1.8-1.8-1.6-1.6,3.2-.2L23,24.9V31H21.5l-4.2-4.6,1.1-1.2,3.3,1.2.2-.6-3.7-1.4-1.9,2.2L21.2,32H24V24.6l-3.2-2.4,3.2-.2Z" fill="#0f0f0f"/><polygon points="19.1 9.4 16 7.8 12.9 9.4 12.9 9.4 12.9 10.4 16 10.3 19.1 10.4 19.1 9.4 19.1 9.4" fill="#fff"/><polygon points="24.7 18.9 28.6 18.9 28.6 22.2 28.1 21.6 27.8 22 28.4 22.4 27.3 22.8 24.7 21.4 24.7 18.9"/></svg>