<svg xmlns="http://www.w3.org/2000/svg" width="32" height="32" viewBox="0 0 32 32"><title>volleyball</title><polygon points="6.5 13 6 7 4.5 7 4.5 17 9.9 14.6 7.7 12.4 6.5 13"/><path d="M12.6,8.9a2.5,2.5,0,0,0,1.6-1.2L11.5,4.1h0a2.5,2.5,0,0,0,1.2,4.9Z"/><path d="M20.5,6a3,3,0,1,0-3-3A3,3,0,0,0,20.5,6Zm0-5a2,2,0,1,1-2,2A2,2,0,0,1,20.5,1Z"/><polygon points="13.5 26 3.5 30.7 3.5 32 16.5 28.6 18.5 18 17.5 12 22.5 12 28.5 9 27.5 7.5 22.5 9.6 16.5 9 10.5 11 9.1 11.7 11.4 13.9 11.4 13.9 14.5 17 13.5 20 13.5 26"/><polygon points="6.5 24.5 6.5 26 12.5 24.5 12.5 21.5 6.5 24.5"/></svg>