<svg xmlns="http://www.w3.org/2000/svg" width="32" height="32" viewBox="0 0 32 32"><title>wheelchair-rugby</title><path d="M6.1,6.4A3.2,3.2,0,1,0,2.9,3.2,3.2,3.2,0,0,0,6.1,6.4Zm0-5.1A1.9,1.9,0,1,1,4.1,3.2,1.9,1.9,0,0,1,6.1,1.3Z"/><path d="M17.1,6.3h.3l1.9-4.7a2.9,2.9,0,1,0-2.3,4.7Z"/><polygon points="24 10.3 20.2 9 19.3 11.1 23.9 12.8 29 10.6 29 9.6 24 10.3"/><path d="M15.7,14.9l3.2-6.4L12.5,6.4,8.2,8.5l-2.1.8L7.1,7H5L2.7,12.6,10,10.6v2.1l-.7,3.6A7.9,7.9,0,0,0,3.9,24a8.1,8.1,0,0,0,8,8.1A7.8,7.8,0,0,0,18.3,29h3.7a19,19,0,0,1-2.1-2.2l2.1-7.5ZM11.9,29.8A5.9,5.9,0,1,1,17.8,24,5.9,5.9,0,0,1,11.9,29.8Z"/><circle cx="11.9" cy="24" r="4.8"/></svg>