<svg xmlns="http://www.w3.org/2000/svg" width="32" height="32" viewBox="0 0 32 32"><title>wheelchair-basketball</title><polygon points="19.6 6.9 18.3 6.3 16.9 9 19.1 8.4 19.6 6.9"/><path d="M13.3,9.8A2.6,2.6,0,0,0,15,8.5L12.1,4.6h0a2.6,2.6,0,1,0,1.3,5.1Z"/><path d="M19.5,6l-.3-1.4A1.8,1.8,0,1,1,21.9,3a1.8,1.8,0,0,1-.2.9l.5,1.3a3,3,0,1,0-2.7.7Z"/><circle cx="15" cy="25" r="4"/><path d="M22,27l2-6-6.8-3.9L18,13l5-2L21,4H20l1,5-4,1-6,2,1.6,6.4A7,7,0,0,0,15,32a6.6,6.6,0,0,0,5.7-3H24Zm-7,3.1A5.1,5.1,0,1,1,20.1,25,5.1,5.1,0,0,1,15,30.2Z"/></svg>