<svg xmlns="http://www.w3.org/2000/svg" width="32" height="32" viewBox="0 0 32 32"><title>wicket</title><path d="M10.4,11.5l.6.6-.8.8.6.7,9.9-9.9-.7-.5-.8.8-.6-.6.7-.7a7,7,0,0,0-9.4,9.4Zm7.4-7.4.6.6L17.2,5.9l-.6-.6ZM16,5.9l.6.6L15.3,7.8l-.6-.6ZM14.1,7.8l.6.6L13.5,9.6,12.9,9ZM12.3,9.6l.6.6-1.2,1.2-.6-.6Z"/><path d="M22.2,5.8l-.7.7-.6-.6.8-.8-.5-.7-9.9,9.9.7.6.8-.8.6.6-.7.7a7,7,0,0,0,9.4-9.4Zm-8.1,8.1-.6-.6,1.2-1.2.6.6ZM16,12.1l-.6-.6,1.2-1.2.6.6Zm1.9-1.9-.6-.6,1.2-1.2.6.6Zm1.9-1.9-.6-.6,1.2-1.2.6.6Z"/><polygon points="29.3 14.9 28.6 13.8 26.5 15 25.9 14 19.4 17.7 20 18.8 17.9 20 18.5 21.1 20.7 19.8 21.3 20.9 27.7 17.2 27.1 16.1 29.3 14.9"/><polygon points="14.1 20 12 18.7 12.6 17.7 6.1 13.9 5.5 15 3.4 13.8 2.7 14.8 4.9 16.1 4.3 17.2 10.7 20.9 11.4 19.8 13.5 21.1 14.1 20"/><path d="M18.5,26.1A2.5,2.5,0,0,0,16,23.7a2.4,2.4,0,0,0-2.5,2.4H13v6h6V26h-.5Z"/><path d="M5.5,32h5.1L9,23H9c-.3-2-1.3-2.2-2.5-2.2A2.5,2.5,0,0,0,4,23.3C4,23.4,5.5,32,5.5,32Z"/><path d="M28,22.9a2.3,2.3,0,0,0-2.5-2.2c-1.2,0-2.2.3-2.5,2.3l-1.7,9h5.1l1.4-8.2c0-.1,0-.4,0-.5S28,23,28,22.9Z"/></svg>