<svg xmlns="http://www.w3.org/2000/svg" width="32" height="32" viewBox="0 0 32 32"><title>wrestling</title><path d="M15.5,5h0A4,4,0,0,1,17,2.4V.5A2.5,2.5,0,1,0,15.5,5Z"/><polygon points="12.6 16.3 9.1 13.6 7 15 6 22 0 32 3 32 9.3 23.7 12.6 16.3"/><polygon points="10.6 24.5 9.8 25.6 9 32 11 32 14 24 13.2 18.7 10.6 24.5"/><path d="M18.7,7.2l.3-.5,3-1V5.5a2.5,2.5,0,0,0-5,0Z"/><polygon points="30 24 31.5 17.9 27.5 23.5 26.7 25.3 30 32 32 32 30 24"/><polygon points="31 14 27 8 23 7 20 8 17 13 15.1 13.4 17.9 8.6 15.5 6.1 15.5 6 12 6 7.5 10.5 13.9 15.4 18 15 21 12 24 13 25 15 22 22 20 32 22 32 26 23 31 16 31 14"/></svg>