<svg xmlns="http://www.w3.org/2000/svg" width="32" height="32" viewBox="0 0 32 32"><title>biscuits-sweets-treats</title><path d="M28.5,0h-9l-2,2V30l2,2h9l2-2V2ZM21,29a1.5,1.5,0,1,1,1.5-1.5A1.5,1.5,0,0,1,21,29Zm0-8a1.5,1.5,0,1,1,1.5-1.5A1.5,1.5,0,0,1,21,21Zm0-7a1.5,1.5,0,1,1,1.5-1.5A1.5,1.5,0,0,1,21,14Zm0-8a1.5,1.5,0,1,1,1.5-1.5A1.5,1.5,0,0,1,21,6Zm6,23a1.5,1.5,0,1,1,1.5-1.5A1.5,1.5,0,0,1,27,29Zm0-8a1.5,1.5,0,1,1,1.5-1.5A1.5,1.5,0,0,1,27,21Zm0-7a1.5,1.5,0,1,1,1.5-1.5A1.5,1.5,0,0,1,27,14Zm0-8a1.5,1.5,0,0,1-1.5-1.5A1.5,1.5,0,1,1,27,6Z"/><path d="M11.3.9C10.2.7,9.5,0,8.1,0S5.7.8,4.5.9,2,.7,1.7,1,3.8,6,6.1,8.1c-2.5,1.2-4.2,4.3-4.2,8.1s1.7,6.7,4,8C3.6,26.2.8,30.1,1.7,31s1.7-.1,2.9.1,2.1.9,3.6.9,2.1-.7,3.2-.9,2.9.2,3.3-.1-1.9-4.8-4.2-6.9c2.3-1.2,4-4.3,4-8s-1.8-6.9-4.2-8.1C12.6,6,15.6,2,14.6,1S12.6,1,11.3.9Z"/></svg>