<svg xmlns="http://www.w3.org/2000/svg" width="32" height="32" viewBox="0 0 32 32"><title>fruit-veg</title><path d="M24,13H21.9a3.9,3.9,0,0,0,2.1-1,3.8,3.8,0,0,0,1-3H25c-.8,0-3,.3-4,1.7V9H20v4H17.8c-2.3.2-5,2-5,6s3,9,6.1,9a9,9,0,0,0,2.1-.5,7.1,7.1,0,0,0,2,.5c3.4,0,6-5,6-9A5.7,5.7,0,0,0,24,13Z"/><path d="M14,12.2l.2-.2A4.4,4.4,0,0,0,11,8V6.5a3.1,3.1,0,0,0,2.2-2.6,2.8,2.8,0,0,0-2.5-2.6A2.5,2.5,0,0,0,8.5,0,2.4,2.4,0,0,0,6.2,1.4,2.4,2.4,0,0,0,4.2,3.9C4.2,5.2,5,6.2,7,6.5V8H6.4C4.6,8.6,3,10.5,3,12c0,3.4,3.2,15.9,3.7,18s.8,2,1.8,2,1.5-1,1.8-2l1.5-6.5a12.5,12.5,0,0,1-.9-4.5C10.8,15.6,12.2,13.4,14,12.2Z"/></svg>