<svg xmlns="http://www.w3.org/2000/svg" width="32" height="32" viewBox="0 0 32 32"><title>techniques-skill-rating</title><circle cx="6" cy="26" r="4.5"/><circle cx="16" cy="26" r="4.5"/><circle cx="26" cy="26" r="4.5"/><circle cx="6" cy="16" r="4.5"/><circle cx="16" cy="16" r="4.5"/><path d="M26,13.5A2.5,2.5,0,1,1,23.5,16,2.5,2.5,0,0,1,26,13.5m0-2A4.5,4.5,0,1,0,30.5,16,4.5,4.5,0,0,0,26,11.5Z"/><circle cx="6" cy="6" r="4.5"/><path d="M16,3.5A2.5,2.5,0,1,1,13.5,6,2.5,2.5,0,0,1,16,3.5m0-2A4.5,4.5,0,1,0,20.5,6,4.5,4.5,0,0,0,16,1.5Z"/><path d="M26,3.5A2.5,2.5,0,1,1,23.5,6,2.5,2.5,0,0,1,26,3.5m0-2A4.5,4.5,0,1,0,30.5,6,4.5,4.5,0,0,0,26,1.5Z"/></svg>