<svg xmlns="http://www.w3.org/2000/svg" xmlns:xlink="http://www.w3.org/1999/xlink"><symbol viewBox="0 0 32 32" id="gel-icon-alarm"><path d="M17 17.4V11h-2v7.6l6.6 3.8 1-1.8M29.2 9c1.7-2.9.7-6.5-2.2-8.2C24.1-.9 20.5.1 18.8 3l10.4 6zM2.8 9C1.1 6.1 2.1 2.5 5 .8 7.9-.9 11.5.1 13.2 3L2.8 9z"/><path d="M29 17.5C29 10.3 23.2 4 16 4S3 10.3 3 17.5c0 3.4 1.3 6.7 3.4 9L4 29l2.8 2.9 2.7-2.7c1.9 1.1 4.1 1.7 6.5 1.7 2.3 0 4.5-.6 6.5-1.7l2.7 2.7 2.8-2.8-2.4-2.7c2.1-2.2 3.4-5.5 3.4-8.9zM6.5 18c0-2.5 1-5.2 2.8-7 1.8-1.8 4.2-3 6.7-3 5.2 0 9.5 4.5 9.5 9.8s-4.3 9.6-9.5 9.6-9.5-4.2-9.5-9.4z"/></symbol><symbol viewBox="0 0 32 32" id="gel-icon-alert"><path d="M16 2L0 30h32L16 2zm2 25h-4v-4h4v4zm-4-6V11h4v10h-4z"/></symbol><symbol viewBox="0 0 32 32" id="gel-icon-back-to-start"><path d="M2 0v32h3V0m25 0L5 16l25 16v-8l-13.3-8L30 8"/></symbol><symbol viewBox="0 0 32 32" id="gel-icon-calendar"><path d="M24 13h4v4h-4zM22 0h2v5h-2zM8 0h2v5H8zm11 13h4v4h-4zm-5 0h4v4h-4zm-5 0h4v4H9zm15 5h4v4h-4zm-5 0h4v4h-4zm-5 0h4v4h-4zm-5 0h4v4H9zm-5 0h4v4H4zm15 5h4v4h-4zm-5 0h4v4h-4zm-5 0h4v4H9zm-5 0h4v4H4z"/><path d="M2 9h30V2h-7v4h-4V2H11v4H7V2H0v7m30 2v19H2V11H0v21h32V11"/></symbol><symbol viewBox="0 0 32 32" id="gel-icon-chapters"><path d="M8 0h24v8H8zm8 12h16v8H16zM8 24h24v8H8zm-8-1l12-7L0 9"/></symbol><symbol viewBox="0 0 32 32" id="gel-icon-countdown"><path d="M16.4 18.4V12h-2v7.6l6.6 3.8 1-1.8m2.982-16.725l4.242 4.242-2.828 2.83-4.243-4.244z"/><path d="M15 6C7.8 6 2 11.8 2 19s5.8 13 13 13 13-5.8 13-13S22.2 6 15 6zm0 22.5c-5.2 0-9.5-4.3-9.5-9.5S9.8 9.5 15 9.5s9.5 4.3 9.5 9.5-4.3 9.5-9.5 9.5zM15 6c1.7 0 3-1.3 3-3s-1.3-3-3-3-3 1.3-3 3 1.3 3 3 3zm0-5c1.1 0 2 .9 2 2s-.9 2-2 2-2-.9-2-2 .9-2 2-2z"/></symbol><symbol viewBox="0 0 32 32" id="gel-icon-degraded"><path d="M30 0h-9l2 2h7v28H2V2h7.2l8.6 8.6L9.4 19l7.8 9.5V19l8.2-8.1L14.5 0H0v32h32V0"/></symbol><symbol viewBox="0 0 32 32" id="gel-icon-delete"><style>.st0{fill:#FFF}</style><path d="M26 32H6L5 11h4l.053 15h1.95L11 11h4l.023 15L17 25.97V11h4v15h2.014L23 11h4zM20.982 0h-9l-1 1v1h11V1zM28 9H4V5l2-1h20l2 1z" id="ahLayer_2"/></symbol><symbol viewBox="0 0 32 32" id="gel-icon-down"><path d="M16 29L32 3h-7.2L16 18.3 7.2 3H0"/></symbol><symbol viewBox="0 0 32 32" id="gel-icon-download"><path d="M28.2 12.2L19 21.4V0h-6v21.4l-9.2-9.2L0 16l14 14H2v-6H0v8h16l16-16m-2 14h-8l-2 2h12v-8h-2"/></symbol><symbol viewBox="0 0 32 32" id="gel-icon-duplicate"><style>.st0{fill:#FFF}</style><g id="akLayer_2"><path d="M15 0H0v26h13V8h8V6l-6-6zm-4 6v17.988L2 24V2h12.172l4 4H11z"/><path d="M5.734 10.738H11v2H5.734zm0 3H11v2H5.734zm0 3.25H11v2H5.734zM26 6H11v26h21V12l-6-6zm4 24H13V8h12.172L30 12.83V30z"/><path d="M16.734 16.738h9v2h-9zm0 3h9v2h-9zm0 3.25h9v2h-9z"/></g></symbol><symbol viewBox="0 0 32 32" id="gel-icon-duration"><path d="M17 15.4V6h-2v10.6l8.8 5.1 1-1.8"/><path d="M16 4c6.6 0 12 5.4 12 12s-5.4 12-12 12S4 22.6 4 16 9.4 4 16 4m0-4C7.2 0 0 7.2 0 16s7.2 16 16 16 16-7.2 16-16S24.8 0 16 0z"/></symbol><symbol viewBox="0 0 32 32" id="gel-icon-edit-draft"><style>.st0{fill:#FFF}</style><path d="M24.89.04l7.07 7.07L9.948 29.126l-7.07-7.07zM7.115 31.96H.04v-7.075l.707-.707 7.075 7.075z" id="amLayer_2"/></symbol><symbol viewBox="0 0 32 32" id="gel-icon-email"><path d="M16 19.4l16-15V3H0v26h32V8l-4 4v13H4V8.2l12 11.2zm0-2.8L5.8 7h20.4L16 16.6z"/></symbol><symbol viewBox="0 0 32 32" id="gel-icon-embed"><path d="M10 6.2V0L0 10l10 10v-6.2L6.2 10M22 13.8V20l10-10L22 0v6.2l3.8 3.8m-14.397 3.183l7.78-7.778 1.413 1.414-7.778 7.776z"/></symbol><symbol viewBox="0 0 36 32" id="gel-icon-embed-off-grid"><path d="M11 29v-7l-5-6 5-6V3L0 16M25 3v7l5 6-5 6v7l11-13m-23 9h2l8-18h-2"/></symbol><symbol viewBox="0 0 32 32" id="gel-icon-embed-on-grid"><path d="M10 27v-6l-4.5-5 4.5-5V5L0 16M22 5v6l4.5 5-4.5 5v6l10-11m-20 8h2l6-16h-2"/></symbol><symbol viewBox="0 0 32 32" id="gel-icon-expires"><path d="M16 0c-.3 0-.7 0-1 .1v4c.3-.1.7-.1 1-.1 6.6 0 12 5.4 12 12s-5.4 12-12 12S4 22.6 4 16H0c0 8.8 7.2 16 16 16s16-7.2 16-16S24.8 0 16 0z"/><path d="M23.8 21.7l1-1.8-7.8-4.5V6h-2v10.6"/></symbol><symbol viewBox="0 0 32 32" id="gel-icon-export"><path d="M6 0v22.5l-6 6L3.5 32 22 13.5V21h5V5H11v5h7.5L8 20.5V2h22v22H15.8l-2 2H32V0"/></symbol><symbol viewBox="0 0 32 32" id="gel-icon-external-link"><path d="M12 0v5h11.5l-5 5H0v22h22V17.5l-2 2V30H2V12h14.5l-7.8 7.7 3.6 3.6L27 8.5V20h5V0"/></symbol><symbol viewBox="0 0 32 32" id="gel-icon-filter"><style>.st0{fill:#FFF}</style><path d="M19.878 13l-.018 17-1 1-6.982-6V13L0 1h32z" id="auLayer_2"/></symbol><symbol viewBox="0 0 32 32" id="gel-icon-grid"><path d="M0 0h8v8H0zm0 12h8v8H0zm0 12h8v8H0zM12 0h8v8h-8zm0 12h8v8h-8zm0 12h8v8h-8zM24 0h8v8h-8zm0 12h8v8h-8zm0 12h8v8h-8z"/></symbol><symbol viewBox="0 0 32 32" id="gel-icon-help"><path d="M16 0C7.2 0 0 7.2 0 16s7.2 16 16 16 16-7.2 16-16S24.8 0 16 0zm2 26h-4v-4h4v4zm2.6-10c-1.2.9-2.6 1.6-2.6 3.2v.8h-4v-1c0-2.4 1.4-3.4 2.5-4.3 1.1-.8 2.5-1.5 2.5-2.9 0-1.7-1.4-2.4-2.8-2.4-2 0-3.7 1.6-3.7 3.6H9c.1-4 3.1-6.8 7-6.8 5.1 0 7.3 3.1 7.3 5.2 0 2.7-1.5 3.7-2.7 4.6z"/></symbol><symbol viewBox="0 0 32 31.9" id="gel-icon-home"><path d="M16 5.4l-12 12v14.5h9V22h6v9.9h9V17.4l-12-12"/><path d="M28 12V4h-4v4l-6.6-6.6L16 0l-1.4 1.4L0 16v2.8l16-16 16 16V16"/></symbol><symbol viewBox="0 0 32 32" id="gel-icon-import"><style>.st0{fill:#FFF}</style><path d="M0 25h17l-2-2H2V2h21v17.465L10.03 6.495 6.494 10.03 23.464 27H17v5h15V17h-5v6.465l-2-2V0H0z" id="ayLayer_2"/></symbol><symbol viewBox="0 0 32 32" id="gel-icon-info"><path d="M16 0C7.2 0 0 7.2 0 16s7.2 16 16 16 16-7.2 16-16S24.8 0 16 0zm2 25h-4V13h4v12zm0-14h-4V7h4v4z"/></symbol><symbol viewBox="0 0 32 32" id="gel-icon-label"><style>.st0{fill:#FFF}</style><path d="M12.888.102L0 .08v12.75l19.252 19.09L31.98 19.194 12.888.104zm-5.734 9.56a2.52 2.52 0 0 1 0-5.042 2.52 2.52 0 1 1 0 5.04z" id="baLayer_2"/></symbol><symbol viewBox="0 0 32 32" id="gel-icon-launch-application"><path d="M10 26H2v-6h2v-2H0v10h12v-6h-2m12 4h8v-6h-2v-2h4v10H20v-6h2"/><path d="M6 20h20V4H6v16zm16-4H10V8h12v8z"/></symbol><symbol viewBox="0 0 32 32" id="gel-icon-link"><path d="M18.5 4.6l-1.7-1.7C13-1 6.7-1 2.9 2.9-1 6.7-1 13 2.9 16.8l3.4 3.4c3.8 3.8 10.1 3.8 13.9 0l-3.5-3.5c-1.9 1.9-5 1.9-7 0l-3.4-3.4c-1.9-1.9-1.9-5 0-7 1.9-1.9 5-1.9 7 0L15 8l3.5-3.4z"/><path d="M13.4 27.4l1.7 1.7c3.8 3.8 10.1 3.8 13.9 0 3.8-3.8 4-10 .1-13.8l-3.5-3.5c-3.7-3.8-10-3.8-13.8 0l3.5 3.5c1.9-1.9 5-1.9 7 0l3.4 3.4c1.9 1.9 1.9 5 0 7-1.9 1.9-5 1.9-7 0L17 24l-3.6 3.4z"/></symbol><symbol viewBox="0 0 32 32" id="gel-icon-list"><path d="M0 0v8h32V0M0 17v3h32v-8H0m0 17v3h32v-8H0"/></symbol><symbol viewBox="0 0 32 32" id="gel-icon-list-thumb"><path d="M0 0h8v8H0zm0 12h8v8H0zm0 12h8v8H0zM11 0v8h21V0M11 17v3h21v-8H11m0 17v3h21v-8H11"/></symbol><symbol viewBox="0 0 32 32" id="gel-icon-loading"><path d="M29.8 8l-3.5 2c1 1.8 1.6 3.8 1.6 6 0 6.6-5.4 12-12 12S4 22.6 4 16 9.4 4 16 4V0C7.2 0 0 7.2 0 16s7.2 16 16 16 16-7.2 16-16c0-2.9-.8-5.6-2.2-8z"/></symbol><symbol viewBox="0 0 32 32" id="gel-icon-location"><path d="M16 0C7.2 0 0 7.2 0 16s7.2 16 16 16 16-7.2 16-16S24.8 0 16 0zm2 27.8V23h-4v4.8C9 27 5 23 4.2 18H9v-4H4.2C5 9 9 5 14 4.2V9h4V4.2C23 5 27 9 27.8 14H23v4h4.8c-.8 5-4.8 9-9.8 9.8z"/></symbol><symbol viewBox="0 0 32 31.9" id="gel-icon-lock"><path d="M25 13.9V8.3C25 3.7 20.9 0 16 0S7 3.7 7 8.3v5.6H3v18h26v-18h-4zM12 8.3c0-2 1.8-3.7 4-3.7s4 1.6 4 3.7v5.6h-8V8.3z"/></symbol><symbol viewBox="0 0 32 32" id="gel-icon-more-horizontal"><path d="M0 12h8v8H0zm12 0h8v8h-8zm12 0h8v8h-8z"/></symbol><symbol viewBox="0 0 32 32" id="gel-icon-more-vertical"><path d="M12 0h8v8h-8zm0 12h8v8h-8zm0 12h8v8h-8z"/></symbol><symbol viewBox="0 0 56 32" id="gel-icon-new"><path d="M0 0h56v32H0z"/><path fill="#FFF" d="M4 7.9h4.3l5.6 9.8V7.9h3.9v16h-4.3L8 13.9v10H4v-16zm16.2 0h11.4v3.3h-7.2V14h6.5v3.2h-6.5v3h7.4v3.6H20.2V7.9zm28.3 16h-3.8l-2-11-2 11h-3.9l-3.9-16h3.8l2.1 11.7 2.1-11.7h3.6l2.1 11.7 2.1-11.7h3.8l-4 16z"/></symbol><symbol viewBox="0 0 31.9 32" id="gel-icon-next"><path d="M29 16L3 0v7.2L17.6 16 3 24.8V32"/></symbol><symbol viewBox="0 0 32 32" id="gel-icon-no"><path d="M32 3.5L28.5 0 16 12.5 3.5 0 0 3.5 12.5 16 0 28.5 3.5 32 16 19.5 28.5 32l3.5-3.5L19.5 16"/></symbol><symbol viewBox="0 0 32 32" id="gel-icon-previous"><path d="M3 16l26 16v-7.2L14.4 16 29 7.2V0"/></symbol><symbol viewBox="0 0 32 32" id="gel-icon-print"><path d="M26 12V5l-5-5H6v12H0v12.1L5.9 30H6v2h20v-2h.1l5.9-5.9V12h-6zM8 12V2h12.2L24 5.8V18H8v-6zm0 18v-5h16v5H8z"/></symbol><symbol viewBox="0 0 32 32" id="gel-icon-quote"><path d="M0 17v15h15V17H7c.2-5.9 2.4-8.8 8-9.9V0C6.7 1.2.2 8.3 0 17zm32-9.9V0c-8.3 1.2-14.8 8.3-15 17v15h15V17h-8c.2-5.9 2.4-8.8 8-9.9z"/></symbol><symbol viewBox="0 0 32 32" id="gel-icon-re-order"><path d="M18.033 25.5v-19l5.6 5.7 2.4-2.4-10-9.8-10 9.8 2.4 2.4 5.6-5.7v19l-5.6-5.7-2.4 2.4 10 9.8 10-9.8-2.4-2.4"/></symbol><symbol viewBox="0 0 32 32" id="gel-icon-refresh"><path d="M32 0H20v12h4V7.1c2.4 2.2 4 5.4 4 8.9 0 6.6-5.4 12-12 12v4c8.8 0 16-7.2 16-16 0-4.8-2.1-9.1-5.4-12H32V0zM8 24.9c-2.4-2.2-4-5.4-4-8.9C4 9.4 9.4 4 16 4V0C7.2 0 0 7.2 0 16c0 4.8 2.1 9.1 5.4 12H0v4h12V20H8v4.9z"/></symbol><symbol viewBox="0 0 32 32" id="gel-icon-save"><style>.st0{fill:#FFF}</style><path d="M27.746 0H0v32h32V7.018L27.746 0zM16 2h4v8h-4V2zm14 28h-6V18H8v12H2V2h8v10h12V2h4.912L30 7.85V30z" id="bsLayer_2"/></symbol><symbol viewBox="0 0 32 32" id="gel-icon-search"><path d="M32 28.5l-8.2-8.2c3.4-5.1 2.9-12-1.6-16.4C19.7 1.3 16.3 0 13 0 9.7 0 6.3 1.3 3.8 3.8c-5.1 5.1-5.1 13.3 0 18.4C6.3 24.7 9.7 26 13 26c2.5 0 5.1-.7 7.3-2.2l8.2 8.2 3.5-3.5zM6.6 19.4C4.9 17.7 4 15.4 4 13s.9-4.7 2.6-6.4C8.3 4.9 10.6 4 13 4c2.4 0 4.7.9 6.4 2.6 3.5 3.5 3.5 9.2 0 12.7-1.7 1.7-4 2.6-6.4 2.6s-4.7-.8-6.4-2.5z"/></symbol><symbol viewBox="0 0 32 32" id="gel-icon-settings"><path d="M31.7 19.7l-3.6-1.5c.3-1.5.3-3 0-4.5l3.6-1.5c.3-.1.4-.4.3-.7l-1.6-3.8c-.1-.3-.4-.4-.7-.3L26.1 9c-.9-1.3-1.9-2.3-3.2-3.2l1.5-3.6c.1-.3 0-.6-.3-.7L20.4 0c-.3-.1-.6 0-.7.3l-1.5 3.6c-1.5-.3-3-.3-4.5 0L12.2.3c-.1-.3-.4-.4-.7-.3L7.8 1.6c-.2.1-.4.4-.3.7L9 5.9C7.8 6.7 6.7 7.8 5.9 9L2.3 7.5c-.3-.1-.6.1-.7.3L0 11.6c-.1.3 0 .6.3.7l3.6 1.5c-.3 1.5-.3 3 0 4.5L.3 19.8c-.3.1-.4.4-.3.7l1.6 3.8c.1.3.4.4.7.3L5.9 23c.9 1.3 1.9 2.3 3.2 3.2l-1.5 3.6c-.1.3 0 .6.3.7l3.8 1.6c.3.1.6 0 .7-.3l1.5-3.6c1.5.3 3 .3 4.5 0l1.5 3.6c.1.3.4.4.7.3l3.8-1.6c.3-.1.4-.4.3-.7L23 26.1c1.3-.9 2.3-1.9 3.2-3.2l3.6 1.5c.3.1.6 0 .7-.3l1.6-3.8c0-.2-.2-.5-.4-.6zm-14.2 0c-2 .8-4.4-.1-5.2-2.2-.8-2 .1-4.4 2.2-5.2 2-.8 4.4.1 5.2 2.2.8 2-.1 4.4-2.2 5.2z"/></symbol><symbol viewBox="0 0 32 31.9" id="gel-icon-to-bottom"><path d="M0 26.9h32v3H0zm16 0L0 1.9h8.2L16 15.1l7.8-13.2H32"/></symbol><symbol viewBox="0 0 32 31.9" id="gel-icon-to-top"><path d="M0 1.9h32v3H0zm16 3l16 25h-8.2L16 16.6 8.2 29.9H0"/></symbol><symbol viewBox="0 0 32 32" id="gel-icon-toggle-horizontal"><path d="M25 16L0 32v-8l13-8L0 8.2V0"/><path d="M21 0v2h9v28h-9v2h11V0"/></symbol><symbol viewBox="0 0 32 32" id="gel-icon-unlink"><style>.st0{fill:#FFF}</style><path d="M16.677 9.714l-3.357-3.36a4.928 4.928 0 0 0-6.963 0 4.923 4.923 0 0 0 0 6.96l1.737 1.74-3.48 3.48-1.74-1.736c-3.832-3.83-3.83-10.096 0-13.924 3.83-3.83 10.096-3.83 13.924 0l3.357 3.356-3.478 3.484zm-1.35 12.508l3.356 3.36a4.927 4.927 0 0 0 6.96 0c1.918-1.922 1.923-5.043 0-6.962l-1.74-1.74 3.483-3.478 1.74 1.74c3.833 3.832 3.828 10.095 0 13.925-3.83 3.825-9.972 3.952-13.8.12l-3.485-3.48 3.487-3.485z" id="byLayer_2"/></symbol><symbol viewBox="0 0 32 32" id="gel-icon-unlock"><path d="M23 0c-5 0-9 4.1-9 9v5H0v18h23V14h-4V9c0-2.2 1.8-4 4-4s4 1.8 4 4v5h5V9c0-4.9-4-9-9-9z"/></symbol><symbol viewBox="0 0 32 32" id="gel-icon-up"><path d="M16 3L0 29h7.2L16 13.7 24.8 29H32"/></symbol><symbol viewBox="0 0 32 32" id="gel-icon-upload"><style>.st0{fill:#FFF}</style><path d="M20.5 30v-2H30v-6h2v8zm-2 0H0v-8h2v6h11.48l.02-16.438-7.45 7.46-3.532-3.536L15.988 2 29.48 15.47 25.947 19 18.5 11.562z" id="cbLayer_2"/></symbol><symbol viewBox="0 0 32 32" id="gel-icon-vocab"><path d="M0 0v18h12.7l1.2 2 2.5 4 2.5-4 1.2-2H32V0H0zm22 14H4v-4h18v4zm6-6H4V4h24v4zM0 26h32v6H0z"/></symbol><symbol viewBox="0 0 31.8 32" id="gel-icon-yes"><path d="M12.8 28.9l19-22.6L28 3.1 12.2 21.9l-9-7.5L0 18.2"/></symbol><symbol viewBox="0 0 32 32" id="gel-icon-zoom-in"><path d="M15 20h-4v-5H6v-4h5V6h4v5h5v4h-5v5z"/><path d="M32 28.5l-8.2-8.2c3.4-5.1 2.9-12-1.6-16.4C19.7 1.3 16.3 0 13 0 9.7 0 6.3 1.3 3.8 3.8c-5.1 5.1-5.1 13.3 0 18.4C6.3 24.7 9.7 26 13 26c2.5 0 5.1-.7 7.3-2.2l8.2 8.2 3.5-3.5zM6.6 19.4C4.9 17.7 4 15.4 4 13c0-2.4.9-4.7 2.6-6.4C8.3 4.9 10.6 4 13 4s4.7.9 6.4 2.6c3.5 3.5 3.5 9.2 0 12.7-1.7 1.7-4 2.6-6.4 2.6-2.4.1-4.7-.8-6.4-2.5z"/></symbol><symbol viewBox="0 0 32 32" id="gel-icon-zoom-out"><path d="M6 15v-4h14v4H6z"/><path d="M32 28.5l-8.2-8.2c3.4-5.1 2.9-12-1.6-16.4C19.7 1.3 16.3 0 13 0 9.7 0 6.3 1.3 3.8 3.8c-5.1 5.1-5.1 13.3 0 18.4C6.3 24.7 9.7 26 13 26c2.5 0 5.1-.7 7.3-2.2l8.2 8.2 3.5-3.5zM6.6 19.4C4.9 17.7 4 15.4 4 13c0-2.4.9-4.7 2.6-6.4C8.3 4.9 10.6 4 13 4s4.7.9 6.4 2.6c3.5 3.5 3.5 9.2 0 12.7-1.7 1.7-4 2.6-6.4 2.6-2.4.1-4.7-.8-6.4-2.5z"/></symbol></svg>