<svg xmlns="http://www.w3.org/2000/svg" xmlns:xlink="http://www.w3.org/1999/xlink"><symbol viewBox="0 0 32 32" id="gel-icon-clear-sky-night"><path fill="#969696" d="M14.4 10.4c0-1.6.5-3.1 1.5-4.3-3.5.4-6.2 3.4-6.2 7.1 0 3.9 3.2 7.1 7.1 7.1 2.3 0 4.4-1.1 5.7-2.8-.3 0-.6.1-.9.1-4.1-.1-7.2-3.3-7.2-7.2z"/></symbol><symbol viewBox="0 0 32 32" id="gel-icon-drizzle"><g fill="#68A5D8"><circle cx="10.8" cy="20" r=".6"/><circle cx="13.4" cy="20" r=".6"/><circle cx="16" cy="20" r=".6"/><circle cx="18.6" cy="20" r=".6"/><circle cx="21.2" cy="20" r=".6"/><circle cx="10.8" cy="22.6" r=".6"/><circle cx="13.4" cy="22.6" r=".6"/><circle cx="16" cy="22.6" r=".6"/><circle cx="18.6" cy="22.6" r=".6"/><circle cx="21.2" cy="22.6" r=".6"/><circle cx="13.4" cy="25.2" r=".6"/><circle cx="16" cy="25.2" r=".6"/><circle cx="18.6" cy="25.2" r=".6"/></g><path d="M23.1 8.2h-.6c-.8-2.9-3.4-5-6.5-5s-5.7 2.1-6.5 5h-.6C6.2 8.2 4 10.4 4 13.1S6.2 18 8.9 18h14.2c2.7 0 4.9-2.2 4.9-4.9s-2.2-4.9-4.9-4.9zm0 7.5H8.9c-1.4 0-2.6-1.2-2.6-2.6 0-1.4 1.2-2.6 2.6-2.6.9 0 1.8.5 2.3 1.3l2-1.2c-.4-.6-.9-1.1-1.5-1.6.4-2 2.2-3.5 4.3-3.5 2.4 0 4.4 2 4.4 4.4 0 .9-.3 1.8-.8 2.5h2.6c.2-.6.4-1.3.5-1.9h.4c1.4 0 2.6 1.2 2.6 2.6 0 1.4-1.2 2.6-2.6 2.6z"/></symbol><symbol viewBox="0 0 32 32" id="gel-icon-flood"><path d="M15.9 0L0 26.9h32L15.9 0zm-5.8 15.2L16 9.3l2.5 2.5v-1.7h1.7v3.4l1.7 1.7v2.5l-.8-.8V21l-3.4-1.1v-3h-3.4v3l-3.4 1.2v-4.2l-.8.8v-2.5zm-4.2 5.9l4.2 1.7 5.9-1.7 5.9 1.8 4.2-1.8 1.7 3.4H4.2l1.7-3.4z"/></symbol><symbol viewBox="0 0 62 32" id="gel-icon-fob-b"><path d="M28.9 11.3c-2.7 0-3.7 2.4-3.7 4.7 0 2.4 1 4.7 3.7 4.7s3.7-2.4 3.7-4.7c0-2.4-1-4.7-3.7-4.7"/><path d="M0 32h62V0H0v32zm20.2-20.7h-7.6v3.3h6.6v3.2h-6.6V24H8.4V8h11.8v3.3zm8.7 13c-5 0-7.9-3.7-7.9-8.3 0-4.6 2.8-8.3 7.9-8.3s7.9 3.7 7.9 8.3c0 4.6-2.9 8.3-7.9 8.3m24.7-.3h-2.7l-.2-1.7c-1.1 1.5-3 2.1-4.5 2.1-4.8 0-8-3.7-8-8.3 0-4.6 3.1-8.3 8-8.3 3.3 0 6.9 1.8 7.2 5.8h-4.2c-.1-1.4-1.5-2.2-3.2-2.2-2.7 0-3.7 2.4-3.7 4.7 0 2.4 1 4.7 3.7 4.7 2.1 0 3.4-1 3.7-2.4h-2.9v-3.1h6.7V24z"/></symbol><symbol viewBox="0 0 32 32" id="gel-icon-fog-a"><path d="M4.3 9.6h5.9v1.5H6.1V13h3.5v1.4H6.1V18H4.3V9.6zM15 9.4c2.6 0 4.1 1.9 4.1 4.4 0 2.4-1.5 4.4-4.1 4.4-2.6 0-4.1-1.9-4.1-4.4-.1-2.5 1.5-4.4 4.1-4.4zm0 7.2c1.7 0 2.3-1.4 2.3-2.8 0-1.5-.6-2.9-2.3-2.9-1.7 0-2.3 1.4-2.3 2.9 0 1.4.6 2.8 2.3 2.8zm11.3.4c-.6.8-1.5 1.2-2.3 1.2-2.6 0-4.1-1.9-4.1-4.4 0-2.5 1.5-4.4 4.1-4.4 1.7 0 3.3 1.1 3.5 3h-1.8c-.1-1-.8-1.4-1.7-1.4-1.7 0-2.3 1.4-2.3 2.9 0 1.4.6 2.8 2.3 2.8 1.2 0 1.9-.6 2-1.8h-1.9v-1.4h3.5V18h-1.2l-.1-1z"/></symbol><symbol viewBox="0 0 32 32" id="gel-icon-grey-cloud"><path d="M23 8.3h-.6c-.8-2.9-3.4-5-6.4-5s-5.7 2.1-6.4 5H9c-2.7 0-4.9 2.2-4.9 4.9s2.2 4.9 4.9 4.9h14c2.7 0 4.9-2.2 4.9-4.9S25.7 8.3 23 8.3zm0 7.5H9c-1.4 0-2.6-1.2-2.6-2.6 0-1.4 1.2-2.6 2.6-2.6.9 0 1.8.5 2.2 1.3l2-1.2c-.4-.6-.9-1.2-1.5-1.6.4-2 2.2-3.5 4.3-3.5 2.4 0 4.4 2 4.4 4.4 0 .9-.3 1.8-.8 2.5h2.6c.2-.6.4-1.3.5-1.9h.4c1.4 0 2.6 1.2 2.6 2.6-.1 1.4-1.2 2.6-2.7 2.6z"/></symbol><symbol viewBox="0 0 32 32" id="gel-icon-hail"><path d="M23 8.2h-.6c-.8-2.9-3.4-5-6.4-5-3.1 0-5.7 2.1-6.4 5H9c-2.7 0-4.9 2.2-4.9 4.9S6.3 18 9 18h3v-2.3H9c-1.4 0-2.6-1.2-2.6-2.6 0-1.4 1.2-2.6 2.6-2.6.9 0 1.8.5 2.2 1.3l2-1.2c-.4-.6-.9-1.2-1.5-1.6.4-2 2.2-3.5 4.3-3.5 2.4 0 4.4 2 4.4 4.4 0 .9-.3 1.8-.8 2.5h2.6c.2-.6.4-1.3.5-1.9h.4c1.4 0 2.6 1.2 2.6 2.6 0 1.4-1.2 2.6-2.6 2.6H20V18h3c2.7 0 4.9-2.2 4.9-4.9S25.7 8.2 23 8.2z"/><g fill="#A8A8A8"><path d="M14.4 16.1l3.1 3.1m-2.1.6l1.2-4.3m1.5 1.6l-4.2 1.1"/><circle cx="16" cy="17.7" r="2.2"/><path d="M9.1 20.4l3.1 3.1m-2.1.6l1.1-4.3m1.6 1.6l-4.3 1.1"/><circle cx="10.6" cy="22" r="2.2"/></g></symbol><symbol viewBox="0 0 32 32" id="gel-icon-hail-shower"><path d="M20.1 4.8h-2.3V0h2.3v4.8m0 21.5h-2.3v-4.9h2.3v4.9m7.1-12V12H32v2.3h-4.8m-2.7 10.8l-2.4-4.2 2-1.2 2.4 4.2-2 1.2M26.7 10l-1.2-2 4.2-2.4 1.1 2-4.1 2.4m3 10.7l-4.2-2.4 1.2-2 4.1 2.4-1.1 2M24.1 6.5l-2-1.1 2.4-4.2 2 1.1-2.4 4.2" fill="#FCC342"/><path d="M19 8.2h-.6c-.8-2.9-3.4-5-6.4-5-3.1 0-5.7 2.1-6.4 5H5c-2.8 0-5 2.2-5 4.9S2.2 18 4.9 18H8v-2.3H4.9c-1.4 0-2.6-1.2-2.6-2.6 0-1.4 1.2-2.6 2.6-2.6.9 0 1.8.5 2.2 1.3l2-1.2c-.4-.6-.9-1.1-1.4-1.5.4-2 2.2-3.5 4.3-3.5 2.4 0 4.4 2 4.4 4.4 0 .9-.3 1.8-.8 2.5h2.6c.2-.6.4-1.3.5-1.9h.4c1.4 0 2.6 1.2 2.6 2.6 0 1.4-1.2 2.6-2.6 2.6H16v2.3h3c2.7 0 4.9-2.2 4.9-4.9 0-2.8-2.2-5-4.9-5z"/><g fill="#A8A8A8"><path d="M10.4 16.1l3.1 3.1m-2.2.6l1.2-4.3m1.5 1.6l-4.2 1.1"/><circle cx="11.9" cy="17.7" r="2.2"/><path d="M5 20.4l3.1 3.1m-2.1.6l1.1-4.3m1.6 1.6l-4.3 1.1"/><circle cx="6.6" cy="22" r="2.2"/></g></symbol><symbol viewBox="0 0 32 32" id="gel-icon-hail-shower-night"><path d="M19 8.2h-.6c-.8-2.9-3.4-5-6.4-5-3.1 0-5.7 2.1-6.4 5H5c-2.8 0-5 2.2-5 4.9S2.2 18 4.9 18H8v-2.3H4.9c-1.4 0-2.6-1.2-2.6-2.6 0-1.4 1.2-2.6 2.6-2.6.9 0 1.8.5 2.2 1.3l2-1.2c-.4-.6-.9-1.1-1.4-1.5.4-2 2.2-3.5 4.3-3.5 2.4 0 4.4 2 4.4 4.4 0 .9-.3 1.8-.8 2.5h2.6c.2-.6.4-1.3.5-1.9h.4c1.4 0 2.6 1.2 2.6 2.6 0 1.4-1.2 2.6-2.6 2.6H16v2.3h3c2.7 0 4.9-2.2 4.9-4.9s-2.2-5-4.9-5z"/><path fill="#969696" d="M31.1 11.4c-3.9 0-7.1-3.2-7.1-7.1 0-1.6.5-3.1 1.5-4.3-3.5.4-6.2 3.4-6.2 7 3.2.2 5.7 2.8 5.7 6 0 .3 0 .6-.1.9.5.1.9.1 1.4.1 2.3 0 4.3-1.1 5.6-2.8-.2.2-.5.2-.8.2z"/><g fill="#A8A8A8"><path d="M10.3 16l3.1 3.1m-2.1.6l1.1-4.3M14 17l-4.3 1.1"/><circle cx="11.8" cy="17.6" r="2.2"/><path d="M4.9 20.3L8 23.4m-2.1.6L7 19.7m1.6 1.6l-4.3 1.1"/><circle cx="6.5" cy="21.9" r="2.2"/></g></symbol><symbol viewBox="0 0 32 32" id="gel-icon-hazy"><path d="M0 9.6h1.8v3.2h3.4V9.6H7V18H5.2v-3.6H1.8V18H0V9.6zm10.9 0h1.9L16 18h-2l-.6-1.9h-3.1L9.6 18H7.7l3.2-8.4zm-.1 5.1H13l-1.1-3.1-1.1 3.1zm5.8 1.8l4.5-5.4H17V9.6h6.6v1.5L19 16.4h4.6V18h-7.1v-1.5zM27 14.7l-3-5.1h2l2 3.3 1.9-3.3H32l-3.1 5.2V18H27v-3.3z"/></symbol><symbol viewBox="0 0 32 32" id="gel-icon-heavy-rain"><path d="M23 8.2h-.6c-.8-2.9-3.4-5-6.4-5-3.1 0-5.7 2.1-6.4 5H9c-2.7 0-4.9 2.2-4.9 4.9S6.3 18 9 18h3v-2.3H9c-1.4 0-2.6-1.2-2.6-2.6 0-1.4 1.2-2.6 2.6-2.6.9 0 1.8.5 2.2 1.3l2-1.2c-.4-.6-.9-1.2-1.5-1.6.4-2 2.2-3.5 4.3-3.5 2.4 0 4.4 2 4.4 4.4 0 .9-.3 1.8-.8 2.5h2.6c.2-.6.4-1.3.5-1.9h.4c1.4 0 2.6 1.2 2.6 2.6 0 1.4-1.2 2.6-2.6 2.6H20V18h3c2.7 0 4.9-2.2 4.9-4.9S25.7 8.2 23 8.2z"/><path d="M11.6 24.1l.4-4.7-4 2.3c-.7.4-1.2 1.2-1.2 2.1 0 1.3 1.1 2.4 2.4 2.4 1.3.1 2.3-.9 2.4-2.1zm6.6-5.7l.4-4.7-4 2.3c-.7.4-1.2 1.2-1.2 2.1 0 1.3 1.1 2.4 2.4 2.4 1.2.1 2.2-.9 2.4-2.1z" fill="#68A5D8"/></symbol><symbol viewBox="0 0 32 32" id="gel-icon-heavy-rain-shower"><path d="M20.1 4.8h-2.3V0h2.3v4.8m0 21.5h-2.3v-4.9h2.3v4.9m7.1-12V12H32v2.3h-4.8m-2.7 10.8l-2.4-4.2 2-1.2 2.4 4.2-2 1.2M26.7 10l-1.2-2 4.2-2.4 1.1 2-4.1 2.4m3 10.7l-4.2-2.4 1.2-2 4.1 2.4-1.1 2M24.1 6.5l-2-1.1 2.4-4.2 2 1.1-2.4 4.2" fill="#FCC342"/><path d="M19 8.2h-.6c-.8-2.9-3.4-5-6.4-5s-5.7 2.1-6.4 5H5c-2.8 0-5 2.2-5 4.9S2.2 18 4.9 18H8v-2.3H4.9c-1.4 0-2.6-1.2-2.6-2.6 0-1.4 1.2-2.6 2.6-2.6.9 0 1.8.5 2.2 1.3l2-1.2c-.4-.6-.9-1.1-1.4-1.5.4-2 2.2-3.5 4.3-3.5 2.4 0 4.4 2 4.4 4.4 0 .9-.3 1.8-.8 2.5h2.6c.2-.6.4-1.3.5-1.9h.4c1.4 0 2.6 1.2 2.6 2.6 0 1.4-1.2 2.6-2.6 2.6H16v2.3h3c2.7 0 4.9-2.2 4.9-4.9 0-2.8-2.2-5-4.9-5z"/><path d="M7.6 24.1l.4-4.6-4 2.3c-.7.4-1.2 1.2-1.2 2.1 0 1.3 1.1 2.4 2.4 2.4 1.2 0 2.2-1 2.4-2.2zm6.5-5.7l.4-4.7-4 2.3c-.7.4-1.2 1.2-1.2 2.1 0 1.3 1.1 2.4 2.4 2.4 1.3.1 2.3-.9 2.4-2.1z" fill="#68A5D8"/></symbol><symbol viewBox="0 0 32 32" id="gel-icon-heavy-rain-shower-night"><path d="M19 8.2h-.6c-.8-2.9-3.4-5-6.4-5-3.1 0-5.7 2.1-6.4 5H5c-2.8 0-5 2.2-5 4.9S2.2 18 4.9 18H8v-2.3H4.9c-1.4 0-2.6-1.2-2.6-2.6 0-1.4 1.2-2.6 2.6-2.6.9 0 1.8.5 2.2 1.3l2-1.2c-.4-.6-.9-1.1-1.4-1.5.4-2 2.2-3.5 4.3-3.5 2.4 0 4.4 2 4.4 4.4 0 .9-.3 1.8-.8 2.5h2.6c.2-.6.4-1.3.5-1.9h.4c1.4 0 2.6 1.2 2.6 2.6 0 1.4-1.2 2.6-2.6 2.6H16v2.3h3c2.7 0 4.9-2.2 4.9-4.9s-2.2-5-4.9-5z"/><path d="M7.6 24.1l.4-4.6-4 2.3c-.7.4-1.2 1.2-1.2 2.1 0 1.3 1.1 2.4 2.4 2.4 1.2 0 2.2-.9 2.4-2.2zm6.5-5.7l.4-4.7-4 2.3c-.7.4-1.2 1.2-1.2 2.1 0 1.3 1.1 2.4 2.4 2.4 1.3.1 2.3-.8 2.4-2.1z" fill="#68A5D8"/><path fill="#969696" d="M31.1 11.4c-3.9 0-7.1-3.2-7.1-7.1 0-1.6.5-3.1 1.5-4.3-3.5.4-6.2 3.4-6.2 7 3.2.2 5.7 2.8 5.7 6 0 .3 0 .6-.1.9.5.1.9.1 1.4.1 2.3 0 4.3-1.1 5.6-2.8-.2.2-.5.2-.8.2z"/></symbol><symbol viewBox="0 0 32 32" id="gel-icon-heavy-snow"><path d="M23 8.2h-.6c-.8-2.9-3.4-5-6.4-5-3.1 0-5.7 2.1-6.4 5H9c-2.7 0-4.9 2.2-4.9 4.9S6.3 18 9 18h3v-2.3H9c-1.4 0-2.6-1.2-2.6-2.6 0-1.4 1.2-2.6 2.6-2.6.9 0 1.8.5 2.2 1.3l2-1.2c-.4-.6-.9-1.2-1.5-1.6.4-2 2.2-3.5 4.3-3.5 2.4 0 4.4 2 4.4 4.4 0 .9-.3 1.8-.8 2.5h2.6c.2-.6.4-1.3.5-1.9h.4c1.4 0 2.6 1.2 2.6 2.6 0 1.4-1.2 2.6-2.6 2.6H20V18h3c2.7 0 4.9-2.2 4.9-4.9S25.7 8.2 23 8.2z"/><g fill="#A8A8A8"><path d="M17.4 20.1l-3.5-3.5.7-.7 3.5 3.5-.7.7"/><path d="M15.8 20.5l-.9-.3 1.3-4.7.9.3-1.3 4.7"/><path d="M13.8 19.1l-.3-.9 4.7-1.3.3.9-4.7 1.3"/></g><g fill="#A8A8A8"><path d="M12.1 24.2l-3.4-3.5.7-.7 3.4 3.5-.7.7"/><path d="M10.6 24.6l-1-.3 1.3-4.7 1 .3-1.3 4.7"/><path d="M8.5 23.2l-.2-.9L13 21l.2.9-4.7 1.3"/></g></symbol><symbol viewBox="0 0 32 32" id="gel-icon-heavy-snow-shower"><path d="M20.1 4.8h-2.3V0h2.3v4.8m0 21.5h-2.3v-4.9h2.3v4.9m7.1-12V12H32v2.3h-4.8m-2.7 10.8l-2.4-4.2 2-1.2 2.4 4.2-2 1.2M26.7 10l-1.2-2 4.2-2.4 1.1 2-4.1 2.4m3 10.7l-4.2-2.4 1.2-2 4.1 2.4-1.1 2M24.1 6.5l-2-1.1 2.4-4.2 2 1.1-2.4 4.2" fill="#FCC342"/><path d="M19 8.2h-.6c-.8-2.9-3.4-5-6.4-5-3.1 0-5.7 2.1-6.4 5H5c-2.8 0-5 2.2-5 4.9S2.2 18 4.9 18H8v-2.3H4.9c-1.4 0-2.6-1.2-2.6-2.6 0-1.4 1.2-2.6 2.6-2.6.9 0 1.8.5 2.2 1.3l2-1.2c-.4-.6-.9-1.1-1.4-1.5.4-2 2.2-3.5 4.3-3.5 2.4 0 4.4 2 4.4 4.4 0 .9-.3 1.8-.8 2.5h2.6c.2-.6.4-1.3.5-1.9h.4c1.4 0 2.6 1.2 2.6 2.6 0 1.4-1.2 2.6-2.6 2.6H16v2.3h3c2.7 0 4.9-2.2 4.9-4.9 0-2.8-2.2-5-4.9-5z"/><g fill="#A8A8A8"><path d="M13.3 20.1l-3.5-3.5.7-.7 3.5 3.5-.7.7"/><path d="M11.8 20.5l-1-.3 1.3-4.7.9.3-1.2 4.7"/><path d="M9.7 19.1l-.3-.9 4.8-1.3.2.9-4.7 1.3"/></g><g fill="#A8A8A8"><path d="M8.1 24.2l-3.5-3.5.7-.7 3.5 3.5-.7.7"/><path d="M6.5 24.6l-.9-.3 1.2-4.7 1 .3-1.3 4.7"/><path d="M4.4 23.2l-.2-.9L8.9 21l.3.9-4.8 1.3"/></g></symbol><symbol viewBox="0 0 32 32" id="gel-icon-heavy-snow-shower-night"><path d="M19 8.3h-.6c-.8-2.9-3.4-5-6.4-5-3.1 0-5.7 2.1-6.4 5H5c-2.8 0-5 2.2-5 4.9s2.2 4.9 4.9 4.9H8v-2.3H4.9c-1.4 0-2.6-1.2-2.6-2.6 0-1.4 1.2-2.6 2.6-2.6.9 0 1.8.5 2.2 1.3l2-1.2c-.4-.6-.9-1.2-1.5-1.6.4-2 2.2-3.5 4.3-3.5 2.4 0 4.4 2 4.4 4.4 0 .9-.3 1.8-.8 2.5h2.6c.2-.6.4-1.3.5-1.9h.4c1.4 0 2.6 1.2 2.6 2.6 0 1.4-1.2 2.6-2.6 2.6h-3.1v2.3H19c2.7 0 4.9-2.2 4.9-4.9S21.7 8.3 19 8.3z"/><path fill="#969696" d="M31.1 11.5c-3.9 0-7.1-3.2-7.1-7.1 0-1.6.5-3.1 1.5-4.3-3.5.4-6.2 3.4-6.2 7 3.2.2 5.7 2.8 5.7 6 0 .3 0 .6-.1.9.5.1.9.1 1.4.1 2.3 0 4.3-1.1 5.6-2.8-.2.2-.5.2-.8.2z"/><g fill="#A8A8A8"><path d="M13.3 20.1l-3.5-3.4.7-.7 3.5 3.4-.7.7"/><path d="M11.8 20.5l-1-.2 1.3-4.8.9.3-1.2 4.7"/><path d="M9.7 19.1l-.3-.9 4.8-1.3.2 1-4.7 1.2"/></g><g fill="#A8A8A8"><path d="M8.1 24.2l-3.5-3.4.7-.7 3.4 3.4-.6.7"/><path d="M6.5 24.6l-.9-.2 1.2-4.8 1 .3-1.3 4.7"/><path d="M4.4 23.2l-.2-.9L8.9 21l.3 1-4.8 1.2"/></g></symbol><symbol viewBox="0 0 32 32" id="gel-icon-ice"><path d="M20.9 17.1l2.3.3.4-2.5.9-5.9-.9-.1-.3-1.5-.9-4L22 2l-1.4-.2L11.9.5 10.5.3l-.6 1.3-2 3.6-.8 1.4-.9-.2-.9 5.9-.3 2.5 2.3.3.3-2.3 13.7 2-.4 2.3zM9.6 6.1l2-3.6 8.7 1.3.9 4L9.6 6.1zm6.6 18.4L4 18.4l1.6-1.5-.9-.2-1.6-.2L.7 19l11.8 5.9-8.7 6.7H7m24.3-4.2l-12.2-6 2.2-2.2-.6-.1-1.9-.3-3 3.1 11.8 5.9-5 3.8h3.3"/></symbol><symbol viewBox="0 0 32 32" id="gel-icon-light-rain"><path d="M23 8.2h-.6c-.8-2.9-3.4-5-6.4-5-3.1 0-5.7 2.1-6.4 5H9c-2.7 0-4.9 2.2-4.9 4.9S6.3 18 9 18h3v-2.3H9c-1.4 0-2.6-1.2-2.6-2.6 0-1.4 1.2-2.6 2.6-2.6.9 0 1.8.5 2.2 1.3l2-1.2c-.4-.6-.9-1.2-1.5-1.6.4-2 2.2-3.5 4.3-3.5 2.4 0 4.4 2 4.4 4.4 0 .9-.3 1.8-.8 2.5h2.6c.2-.6.4-1.3.5-1.9h.4c1.4 0 2.6 1.2 2.6 2.6 0 1.4-1.2 2.6-2.6 2.6H20V18h3c2.7 0 4.9-2.2 4.9-4.9S25.7 8.2 23 8.2z"/><path fill="#68A5D8" d="M18.2 18.4l.4-4.7-4 2.3c-.7.4-1.2 1.2-1.2 2.1 0 1.3 1.1 2.4 2.4 2.4 1.2.1 2.2-.9 2.4-2.1z"/></symbol><symbol viewBox="0 0 32 32" id="gel-icon-light-rain-shower"><path d="M20.1 4.8h-2.3V0h2.3v4.8m0 21.5h-2.3v-4.9h2.3v4.9m7.1-12V12H32v2.3h-4.8m-2.7 10.8l-2.4-4.2 2-1.2 2.4 4.2-2 1.2M26.7 10l-1.2-2 4.2-2.4 1.1 2-4.1 2.4m3 10.7l-4.2-2.4 1.2-2 4.1 2.4-1.1 2M24.1 6.5l-2-1.1 2.4-4.2 2 1.1-2.4 4.2" fill="#FCC342"/><path d="M19 8.2h-.6c-.8-2.9-3.4-5-6.4-5s-5.7 2.1-6.4 5H5c-2.8 0-5 2.2-5 4.9S2.2 18 4.9 18H8v-2.3H4.9c-1.4 0-2.6-1.2-2.6-2.6 0-1.4 1.2-2.6 2.6-2.6.9 0 1.8.5 2.2 1.3l2-1.2c-.4-.6-.9-1.1-1.4-1.5.4-2 2.2-3.5 4.3-3.5 2.4 0 4.4 2 4.4 4.4 0 .9-.3 1.8-.8 2.5h2.6c.2-.6.4-1.3.5-1.9h.4c1.4 0 2.6 1.2 2.6 2.6 0 1.4-1.2 2.6-2.6 2.6H16v2.3h3c2.7 0 4.9-2.2 4.9-4.9 0-2.8-2.2-5-4.9-5z"/><path fill="#68A5D8" d="M14.1 18.4l.4-4.7-4 2.3c-.7.4-1.2 1.2-1.2 2.1 0 1.3 1.1 2.4 2.4 2.4 1.3.1 2.3-.9 2.4-2.1z"/></symbol><symbol viewBox="0 0 32 32" id="gel-icon-light-rain-shower-night"><path d="M19 8.2h-.6c-.8-2.9-3.4-5-6.4-5-3.1 0-5.7 2.1-6.4 5H5c-2.8 0-5 2.2-5 4.9S2.2 18 4.9 18H8v-2.3H4.9c-1.4 0-2.6-1.2-2.6-2.6 0-1.4 1.2-2.6 2.6-2.6.9 0 1.8.5 2.2 1.3l2-1.2c-.4-.6-.9-1.1-1.4-1.5.4-2 2.2-3.5 4.3-3.5 2.4 0 4.4 2 4.4 4.4 0 .9-.3 1.8-.8 2.5h2.6c.2-.6.4-1.3.5-1.9h.4c1.4 0 2.6 1.2 2.6 2.6 0 1.4-1.2 2.6-2.6 2.6H16v2.3h3c2.7 0 4.9-2.2 4.9-4.9s-2.2-5-4.9-5z"/><path fill="#68A5D8" d="M14.1 18.4l.4-4.7-4 2.3c-.7.4-1.2 1.2-1.2 2.1 0 1.3 1.1 2.4 2.4 2.4 1.3.1 2.3-.8 2.4-2.1z"/><path fill="#969696" d="M31.1 11.4c-3.9 0-7.1-3.2-7.1-7.1 0-1.6.5-3.1 1.5-4.3-3.5.4-6.2 3.4-6.2 7 3.2.2 5.7 2.8 5.7 6 0 .3 0 .6-.1.9.5.1.9.1 1.4.1 2.3 0 4.3-1.1 5.6-2.8-.2.2-.5.2-.8.2z"/></symbol><symbol viewBox="0 0 32 32" id="gel-icon-light-snow"><path d="M23 8.2h-.6c-.8-2.9-3.4-5-6.4-5-3.1 0-5.7 2.1-6.4 5H9c-2.7 0-4.9 2.2-4.9 4.9S6.3 18 9 18h3v-2.3H9c-1.4 0-2.6-1.2-2.6-2.6 0-1.4 1.2-2.6 2.6-2.6.9 0 1.8.5 2.2 1.3l2-1.2c-.4-.6-.9-1.2-1.5-1.6.4-2 2.2-3.5 4.3-3.5 2.4 0 4.4 2 4.4 4.4 0 .9-.3 1.8-.8 2.5h2.6c.2-.6.4-1.3.5-1.9h.4c1.4 0 2.6 1.2 2.6 2.6 0 1.4-1.2 2.6-2.6 2.6H20V18h3c2.7 0 4.9-2.2 4.9-4.9S25.7 8.2 23 8.2z"/><g fill="#A8A8A8"><path d="M17.4 20.1l-3.5-3.5.7-.7 3.5 3.5-.7.7"/><path d="M15.8 20.5l-.9-.3 1.3-4.7.9.3-1.3 4.7"/><path d="M13.8 19.1l-.3-.9 4.7-1.3.3.9-4.7 1.3"/></g></symbol><symbol viewBox="0 0 32 32" id="gel-icon-light-snow-shower"><path d="M20.1 4.8h-2.3V0h2.3v4.8m0 21.5h-2.3v-4.9h2.3v4.9m7.1-12V12H32v2.3h-4.8m-2.7 10.8l-2.4-4.2 2-1.2 2.4 4.2-2 1.2M26.7 10l-1.2-2 4.2-2.4 1.1 2-4.1 2.4m3 10.7l-4.2-2.4 1.2-2 4.1 2.4-1.1 2M24.1 6.5l-2-1.1 2.4-4.2 2 1.1-2.4 4.2" fill="#FCC342"/><path d="M19 8.2h-.6c-.8-2.9-3.4-5-6.4-5-3.1 0-5.7 2.1-6.4 5H5c-2.8 0-5 2.2-5 4.9S2.2 18 4.9 18H8v-2.3H4.9c-1.4 0-2.6-1.2-2.6-2.6 0-1.4 1.2-2.6 2.6-2.6.9 0 1.8.5 2.2 1.3l2-1.2c-.4-.6-.9-1.1-1.4-1.5.4-2 2.2-3.5 4.3-3.5 2.4 0 4.4 2 4.4 4.4 0 .9-.3 1.8-.8 2.5h2.6c.2-.6.4-1.3.5-1.9h.4c1.4 0 2.6 1.2 2.6 2.6 0 1.4-1.2 2.6-2.6 2.6H16v2.3h3c2.7 0 4.9-2.2 4.9-4.9 0-2.8-2.2-5-4.9-5z"/><g fill="#A8A8A8"><path d="M13.3 20.1l-3.5-3.5.7-.7 3.5 3.5-.7.7"/><path d="M11.8 20.5l-1-.3 1.3-4.7.9.3-1.2 4.7"/><path d="M9.7 19.1l-.3-.9 4.8-1.3.2.9-4.7 1.3"/></g></symbol><symbol viewBox="0 0 32 32" id="gel-icon-light-snow-shower-night"><path fill="#969696" d="M31 11.3c-3.9 0-7.1-3.2-7.1-7 0-1.6.5-3.1 1.5-4.3-3.5.4-6.2 3.4-6.2 6.9 3.2.2 5.7 2.8 5.7 6 0 .3 0 .6-.1.9.5.1.9.1 1.4.1 2.3 0 4.3-1.1 5.6-2.8-.2.2-.5.2-.8.2z"/><path d="M18.9 8.2h-.6c-.8-2.9-3.3-5-6.4-5-3.1 0-5.7 2.1-6.4 5h-.6C2.2 8.2 0 10.4 0 13.1S2.2 18 4.9 18H8v-2.3H4.9c-1.4 0-2.6-1.2-2.6-2.6 0-1.4 1.2-2.6 2.6-2.6.9 0 1.8.5 2.2 1.3l2-1.2c-.4-.6-.9-1.1-1.5-1.5.4-2 2.2-3.5 4.3-3.5 2.4 0 4.3 2 4.3 4.4 0 .9-.3 1.8-.8 2.5H18c.2-.6.4-1.3.5-1.9h.4c1.4 0 2.6 1.2 2.6 2.6 0 1.4-1.2 2.6-2.6 2.6h-3.1V18h3.1c2.7 0 4.9-2.2 4.9-4.9s-2.2-4.9-4.9-4.9z"/><g fill="#A8A8A8"><path d="M13.2 20l-3.4-3.4.7-.7 3.4 3.5-.7.6"/><path d="M11.7 20.5l-1-.3 1.3-4.7 1 .2-1.3 4.8"/><path d="M9.6 19.1l-.2-1 4.7-1.2.2.9-4.7 1.3"/></g></symbol><symbol viewBox="0 0 32 32" id="gel-icon-mist"><path d="M2.3 9.7h2.6l2 5.8 1.9-5.8h2.6v8.4H9.7v-5.9l-2.1 5.9H6.2l-2.1-5.9v5.9H2.3V9.7zm10.4 0h1.8v8.4h-1.8V9.7zm4.7 5.6c0 1.1.9 1.6 1.9 1.6.6 0 1.6-.2 1.6-1 0-.9-1.3-1.1-2.5-1.4-1.2-.3-2.5-.8-2.5-2.4 0-1.7 1.6-2.5 3.1-2.5 1.8 0 3.4.8 3.4 2.7h-1.8c-.1-1-.8-1.3-1.7-1.3-.6 0-1.3.2-1.3 1 0 .6.4.7 2.5 1.3.6.2 2.5.5 2.5 2.4 0 1.5-1.2 2.7-3.5 2.7-1.9 0-3.6-.9-3.6-3h1.9zm8.1-4H23V9.7h6.9v1.6h-2.5v6.8h-1.8v-6.8z"/></symbol><symbol viewBox="0 0 32 32" id="gel-icon-partly-cloudly-night"><path fill="#CECECE" d="M18.9 8.2h-.6c-.8-2.9-3.3-5-6.4-5-3.1 0-5.7 2.1-6.4 5h-.6C2.2 8.2 0 10.4 0 13.1S2.2 18 4.9 18h14c2.7 0 4.9-2.2 4.9-4.9s-2.2-4.9-4.9-4.9zm0 7.5h-14c-1.4 0-2.6-1.2-2.6-2.6s1.2-2.6 2.6-2.6c.9 0 1.8.5 2.2 1.3l2-1.2c-.4-.6-.9-1.1-1.5-1.5.4-2 2.2-3.5 4.3-3.5 2.4 0 4.4 2 4.4 4.4 0 .9-.3 1.8-.8 2.5h2.6c.2-.6.4-1.3.5-1.9h.4c1.4 0 2.6 1.2 2.6 2.6s-1.2 2.5-2.7 2.5z"/><path fill="#969696" d="M31 11.3c-3.9 0-7.1-3.2-7.1-7.1 0-1.6.5-3.1 1.5-4.3-3.5.4-6.2 3.4-6.2 7 3.2.2 5.7 2.8 5.7 6 0 .3 0 .6-.1.9.5.1.9.1 1.4.1 2.3 0 4.3-1.1 5.6-2.8-.2.2-.5.2-.8.2z"/></symbol><symbol viewBox="0 0 32 32" id="gel-icon-rain"><path d="M3 8.5c0 3 2.5 5.5 5.5 5.5 2.4 0 4.5-1.6 5.2-3.8L16 1 7 3.2C4.7 3.9 3 6 3 8.5zm19-.3c-2.3.7-4 2.8-4 5.3 0 3 2.5 5.5 5.5 5.5 2.4 0 4.5-1.6 5.2-3.8L31 6l-9 2.2zM1 25.5c0 3 2.5 5.5 5.5 5.5 2.4 0 4.5-1.6 5.2-3.8L14 18l-9 2.2c-2.3.7-4 2.8-4 5.3z"/></symbol><symbol viewBox="0 0 32 32" id="gel-icon-sandstorm"><path d="M1.4 7.9c0 .8.7 1.1 1.4 1.1.5 0 1.3-.1 1.3-.8 0-.7-1-.8-1.9-1.1-1-.2-2-.6-2-1.8C.2 4 1.5 3.4 2.6 3.4c1.4 0 2.6.6 2.6 2H3.9c0-.8-.6-1-1.3-1-.5 0-1 .2-1 .7 0 .5.3.6 2 1 .4.2 1.9.5 1.9 2 0 1.2-.9 2-2.7 2-1.5 0-2.8-.7-2.8-2.2h1.4zm6.7-4.3h1.5L12 10h-1.5L10 8.6H7.6L7.1 10H5.6l2.5-6.4zM8 7.5h1.7l-.9-2.3L8 7.5zm4.5-3.9H14l2.7 4.3V3.6H18V10h-1.4l-2.7-4.3V10h-1.3V3.6zm6.8 0h2.8c1.7 0 3 1 3 3.1 0 1.8-1 3.2-3 3.2h-2.8V3.6zm1.4 5.2H22c.8 0 1.6-.5 1.6-1.9 0-1.3-.5-2.1-1.9-2.1h-1v4zM1.4 15.9c0 .8.7 1.2 1.4 1.2.5 0 1.3-.1 1.3-.8 0-.7-1-.8-1.9-1.1-1-.2-2-.6-2-1.8 0-1.3 1.3-1.9 2.4-1.9 1.4 0 2.6.6 2.6 2H3.9c0-.8-.6-1-1.3-1-.5 0-1 .2-1 .7 0 .5.3.6 2 1 .5.1 1.9.4 1.9 1.9 0 1.2-.9 2-2.7 2-1.4 0-2.8-.7-2.8-2.3h1.4zm6.2-3.1h-2v-1.2H11v1.2H9V18H7.6v-5.2zm7-1.3c2 0 3.2 1.5 3.2 3.4 0 1.8-1.2 3.3-3.2 3.3s-3.2-1.5-3.2-3.3c0-2 1.2-3.4 3.2-3.4zm0 5.5c1.3 0 1.8-1.1 1.8-2.1 0-1.1-.5-2.2-1.8-2.2s-1.8 1.1-1.8 2.2c0 1 .5 2.1 1.8 2.1zm4-5.4h3.5c1.2 0 1.9.8 1.9 1.8 0 .7-.3 1.3-1 1.6.7.2.9.8 1 1.5 0 .4 0 1.1.3 1.5h-1.4c-.2-.4-.2-1-.2-1.5-.1-.7-.4-1-1.1-1H20V18h-1.4v-6.4zm1.4 2.9h1.6c.6 0 1-.3 1-.9 0-.6-.3-.9-1-.9H20v1.8zm5-2.9h2l1.5 4.4 1.4-4.4h2V18h-1.3v-4.5L29 18h-1.1l-1.6-4.5V18H25v-6.4z"/></symbol><symbol viewBox="0 0 32 32" id="gel-icon-sleet"><path d="M23 8.2h-.6c-.8-2.9-3.4-5-6.4-5-3.1 0-5.7 2.1-6.4 5H9c-2.7 0-4.9 2.2-4.9 4.9S6.3 18 9 18h3v-2.3H9c-1.4 0-2.6-1.2-2.6-2.6 0-1.4 1.2-2.6 2.6-2.6.9 0 1.8.5 2.2 1.3l2-1.2c-.4-.6-.9-1.2-1.5-1.6.4-2 2.2-3.5 4.3-3.5 2.4 0 4.4 2 4.4 4.4 0 .9-.3 1.8-.8 2.5h2.6c.2-.6.4-1.3.5-1.9h.4c1.4 0 2.6 1.2 2.6 2.6 0 1.4-1.2 2.6-2.6 2.6H20V18h3c2.7 0 4.9-2.2 4.9-4.9S25.7 8.2 23 8.2z"/><path fill="#68A5D8" d="M11.6 24.1l.4-4.7-4 2.3c-.7.4-1.2 1.2-1.2 2.1 0 1.3 1.1 2.4 2.4 2.4 1.3.1 2.3-.9 2.4-2.1z"/><g fill="#A8A8A8"><path d="M17.4 20.1l-3.5-3.5.7-.7 3.5 3.5-.7.7"/><path d="M15.8 20.5l-.9-.3 1.3-4.7.9.3-1.3 4.7"/><path d="M13.8 19.1l-.3-.9 4.7-1.3.3.9-4.7 1.3"/></g></symbol><symbol viewBox="0 0 32 32" id="gel-icon-sleet-shower"><path d="M20.1 4.8h-2.3V0h2.3v4.8m0 21.5h-2.3v-4.9h2.3v4.9m7.1-12V12H32v2.3h-4.8m-2.7 10.8l-2.4-4.2 2-1.2 2.4 4.2-2 1.2M26.7 10l-1.2-2 4.2-2.4 1.1 2-4.1 2.4m3 10.7l-4.2-2.4 1.2-2 4.1 2.4-1.1 2M24.1 6.5l-2-1.1 2.4-4.2 2 1.1-2.4 4.2" fill="#FCC342"/><path d="M19 8.2h-.6c-.8-2.9-3.4-5-6.4-5-3.1 0-5.7 2.1-6.4 5H5c-2.8 0-5 2.2-5 4.9S2.2 18 4.9 18H8v-2.3H4.9c-1.4 0-2.6-1.2-2.6-2.6 0-1.4 1.2-2.6 2.6-2.6.9 0 1.8.5 2.2 1.3l2-1.2c-.4-.6-.9-1.1-1.4-1.5.4-2 2.2-3.5 4.3-3.5 2.4 0 4.4 2 4.4 4.4 0 .9-.3 1.8-.8 2.5h2.6c.2-.6.4-1.3.5-1.9h.4c1.4 0 2.6 1.2 2.6 2.6 0 1.4-1.2 2.6-2.6 2.6H16v2.3h3c2.7 0 4.9-2.2 4.9-4.9 0-2.8-2.2-5-4.9-5z"/><path fill="#68A5D8" d="M7.6 24.1l.4-4.6-4 2.3c-.7.4-1.2 1.2-1.2 2.1 0 1.3 1.1 2.4 2.4 2.4 1.2 0 2.2-1 2.4-2.2z"/><g fill="#A8A8A8"><path d="M13.3 20.1l-3.5-3.5.7-.7 3.5 3.5-.7.7"/><path d="M11.8 20.5l-1-.3 1.3-4.7.9.3-1.2 4.7"/><path d="M9.7 19.1l-.3-.9 4.8-1.3.2.9-4.7 1.3"/></g></symbol><symbol viewBox="0 0 32 32" id="gel-icon-sleet-shower-night"><path fill="#969696" d="M31 11.3c-3.9 0-7.1-3.2-7.1-7 0-1.6.5-3.1 1.5-4.3-3.5.4-6.2 3.4-6.2 6.9 3.2.2 5.7 2.8 5.7 6 0 .3 0 .6-.1.9.5.1.9.1 1.4.1 2.3 0 4.3-1.1 5.6-2.8-.2.2-.5.2-.8.2z"/><path fill="#68A5D8" d="M7.5 23.8s0-.1 0 0l.4-4.6-4 2.3c-.7.4-1.2 1.2-1.2 2.1 0 1.3 1.1 2.4 2.4 2.4 1.3-.1 2.3-1 2.4-2.2z"/><path d="M18.9 8.2h-.6c-.8-2.9-3.3-5-6.4-5-3.1 0-5.7 2.1-6.4 5h-.6C2.2 8.2 0 10.4 0 13.1S2.2 18 4.9 18H8v-2.3H4.9c-1.4 0-2.6-1.2-2.6-2.6 0-1.4 1.2-2.6 2.6-2.6.9 0 1.8.5 2.2 1.3l2-1.2c-.4-.6-.9-1.1-1.5-1.5.4-2 2.2-3.5 4.3-3.5 2.4 0 4.3 2 4.3 4.4 0 .9-.3 1.8-.8 2.5H18c.2-.6.4-1.3.5-1.9h.4c1.4 0 2.6 1.2 2.6 2.6 0 1.4-1.2 2.6-2.6 2.6h-3.1V18h3.1c2.7 0 4.9-2.2 4.9-4.9s-2.2-4.9-4.9-4.9z"/><g fill="#A8A8A8"><path d="M13.2 20l-3.4-3.4.7-.7 3.4 3.4-.7.7"/><path d="M11.7 20.5l-1-.3 1.3-4.7 1 .2-1.3 4.8"/><path d="M9.6 19.1l-.2-1 4.7-1.2.2.9-4.7 1.3"/></g></symbol><symbol viewBox="0 0 32 32" id="gel-icon-snow"><path d="M30 19.1l-.5-1.9-6.4 1.7L18 16l5.1-2.9 6.4 1.7.5-1.9-4.5-1.2 4.9-2.8-1-1.8-4.9 2.8 1.2-4.5-1.9-.5-1.7 6.4-5.1 3V8.4l4.7-4.7-1.4-1.4L17 5.6V0h-2v5.6l-3.3-3.3-1.4 1.4L15 8.4v5.9l-5.1-3-1.7-6.4-1.9.5 1.2 4.5-4.9-2.8-1 1.8 4.9 2.8L2 12.9l.5 1.9 6.4-1.7L14 16l-5.1 2.9-6.4-1.7-.5 1.9 4.5 1.2-4.9 2.8 1 1.8 4.9-2.8-1.2 4.5 1.9.5 1.7-6.4 5.1-3v5.9l-4.7 4.7 1.4 1.4 3.3-3.3V32h2v-5.6l3.3 3.3 1.4-1.4-4.7-4.7v-5.9l5.1 3 1.7 6.4 1.9-.5-1.2-4.5 4.9 2.8 1-1.8-4.9-2.8"/></symbol><symbol viewBox="0 0 32 32" id="gel-icon-sunny"><g fill="#F7C843"><circle cx="16" cy="13.1" r="7.1"/><path d="M17.2 4.8h-2.4V0h2.4v4.8m-6.4 1.7L8.4 2.3l2-1.1 2.5 4.2-2.1 1.1m10.8 18.6l-2.5-4.2 2.1-1.2 2.4 4.2-2 1.2m5.2-4.4l-4.2-2.4 1.2-2 4.1 2.4-1.1 2M7.7 14.3H2.9V12h4.8v2.3m21.4 0h-4.8V12h4.8v2.3M5.2 20.7l-1.1-2 4.1-2.4 1.2 2-4.2 2.4M23.8 10l-1.2-2 4.2-2.4 1.1 2-4.1 2.4m-2.6-3.5l-2.1-1.1 2.5-4.2 2 1.1-2.4 4.2M10.4 25.1l-2-1.2 2.4-4.2 2.1 1.2-2.5 4.2m6.8 1.1h-2.4v-4.8h2.4v4.8M8.2 10L4.1 7.6l1.1-2L9.4 8l-1.2 2"/></g></symbol><symbol viewBox="0 0 32 32" id="gel-icon-sunny-intervals"><path d="M20.1 4.8h-2.3V0h2.3v4.8m0 21.5h-2.3v-4.9h2.3v4.9m7.1-12V12H32v2.3h-4.8m-2.7 10.8l-2.4-4.2 2-1.2 2.4 4.2-2 1.2M26.7 10l-1.2-2 4.2-2.4 1.1 2-4.1 2.4m3 10.7l-4.2-2.4 1.2-2 4.1 2.4-1.1 2M24.1 6.5l-2-1.1 2.4-4.2 2 1.1-2.4 4.2" fill="#FCC342"/><path fill="#CECECE" d="M19 8.2h-.6c-.8-2.9-3.4-5-6.4-5s-5.7 2.1-6.4 5H5c-2.8 0-5 2.2-5 4.9S2.2 18 4.9 18h14c2.7 0 4.9-2.2 4.9-4.9.1-2.7-2.1-4.9-4.8-4.9zm0 7.5H5c-1.4 0-2.6-1.2-2.6-2.6 0-1.4 1.2-2.6 2.6-2.6.9 0 1.8.5 2.2 1.3l2-1.2c-.5-.6-1-1.1-1.5-1.5.4-2 2.2-3.5 4.3-3.5 2.4 0 4.4 2 4.4 4.4 0 .9-.3 1.8-.8 2.5h2.6c.2-.6.4-1.3.5-1.9h.4c1.4 0 2.6 1.2 2.6 2.6-.1 1.4-1.3 2.5-2.7 2.5z"/></symbol><symbol viewBox="0 0 32 32" id="gel-icon-thunder-storm"><path d="M23 8.2h-.6c-.8-2.9-3.4-5-6.4-5s-5.7 2.1-6.4 5H9c-2.7 0-4.9 2.2-4.9 4.9S6.3 18 9 18h3v-2.3H9c-1.4 0-2.6-1.2-2.6-2.6 0-1.4 1.2-2.6 2.6-2.6.9 0 1.8.5 2.2 1.3l2-1.2c-.4-.6-.9-1.2-1.5-1.6.4-2 2.2-3.5 4.3-3.5 2.4 0 4.4 2 4.4 4.4 0 .9-.3 1.8-.8 2.5h2.6c.2-.6.4-1.3.5-1.9h.4c1.4 0 2.6 1.2 2.6 2.6 0 1.4-1.2 2.6-2.6 2.6H20V18h3c2.7 0 4.9-2.2 4.9-4.9S25.7 8.2 23 8.2z"/><path fill="#F7DF4D" d="M15.4 14.8L12 21.4h3.9l-2.8 7.2.2.2 6.3-9.4h-3.7l2.9-4.6"/></symbol><symbol viewBox="0 0 32 32" id="gel-icon-thundery-shower"><path d="M20.1 4.8h-2.3V0h2.3v4.8m0 21.5h-2.3v-4.9h2.3v4.9m7.1-12V12H32v2.3h-4.8m-2.7 10.8l-2.4-4.2 2-1.2 2.4 4.2-2 1.2M26.7 10l-1.2-2 4.2-2.4 1.1 2-4.1 2.4m3 10.7l-4.2-2.4 1.2-2 4.1 2.4-1.1 2M24.1 6.5l-2-1.1 2.4-4.2 2 1.1-2.4 4.2" fill="#FCC342"/><path d="M19 8.2h-.6c-.8-2.9-3.4-5-6.4-5s-5.7 2.1-6.4 5H5c-2.8 0-5 2.2-5 4.9S2.2 18 4.9 18H8v-2.3H4.9c-1.4 0-2.6-1.2-2.6-2.6 0-1.4 1.2-2.6 2.6-2.6.9 0 1.8.5 2.2 1.3l2-1.2c-.4-.6-.9-1.1-1.4-1.5.4-2 2.2-3.5 4.3-3.5 2.4 0 4.4 2 4.4 4.4 0 .9-.3 1.8-.8 2.5h2.6c.2-.6.4-1.3.5-1.9h.4c1.4 0 2.6 1.2 2.6 2.6 0 1.4-1.2 2.6-2.6 2.6H16v2.3h3c2.7 0 4.9-2.2 4.9-4.9 0-2.8-2.2-5-4.9-5z"/><path fill="#F7DF4D" d="M11.3 14.8L8 21.4h3.8L9 28.6l.3.2 6.2-9.4h-3.7l2.9-4.6"/></symbol><symbol viewBox="0 0 32 32" id="gel-icon-thundery-shower-night"><path fill="#F7DF4D" d="M11.3 14.8L8 21.4h3.8L9 28.6l.3.2 6.2-9.4h-3.7l2.9-4.6"/><path fill="#969696" d="M31.1 11.4c-3.9 0-7.1-3.2-7.1-7.1 0-1.6.5-3.1 1.5-4.3-3.5.4-6.1 3.4-6.2 7 3.2.2 5.7 2.8 5.7 6 0 .3 0 .6-.1.9.5.1.9.1 1.4.1 2.3 0 4.3-1.1 5.6-2.8-.2.2-.5.2-.8.2z"/><path d="M19 8.2h-.6c-.8-2.9-3.4-5-6.4-5s-5.7 2.1-6.4 5H5c-2.8 0-5 2.2-5 5 0 2.7 2.2 4.9 4.9 4.9H8v-2.3H4.9c-1.4 0-2.6-1.2-2.6-2.6s1.2-2.6 2.6-2.6c.9 0 1.8.5 2.2 1.3l2-1.2c-.4-.7-.9-1.2-1.4-1.6.4-2 2.2-3.5 4.3-3.5 2.4 0 4.4 2 4.4 4.4 0 .9-.3 1.8-.8 2.5h2.6c.2-.6.4-1.3.5-1.9h.4c1.4 0 2.6 1.2 2.6 2.6s-1.2 2.6-2.6 2.6H16v2.3h3c2.7 0 4.9-2.2 4.9-4.9-.1-2.8-2.2-5-4.9-5z"/></symbol><symbol viewBox="0 0 32 32" id="gel-icon-tropical-storm"><path d="M11.3 14.7s-.6-.8-1.2-2.2c-.3-.7-.5-1.7-.5-2.8 0-.6.1-1.1.2-1.7.1-.6.3-1.2.6-1.8s.6-1.2 1-1.7.9-1.1 1.4-1.5c.5-.5 1.1-.9 1.7-1.2.6-.3 1.2-.6 1.7-.8 1.2-.4 2.2-.6 2.9-.8.9-.2 1.3-.2 1.3-.2s-1.4.2-3.3.9c-1 .3-1.9.9-2.7 1.6-.8.7-1.5 1.5-2 2.3-.5.8-.7 1.7-.8 2.4s-.1 1.3 0 1.7c.2.9.5 1.3.5 1.3s.2-1 .9-2.4c.3-.7.9-1.5 1.8-2.2.8-.7 1.9-1.3 3.2-1.6.6-.2 1.3-.3 2-.3s1.4 0 2.1.1 1.4.3 2 .5c.6.2 1.2.5 1.7.8 1.1.6 1.9 1.2 2.5 1.7.4.5.7.8.7.8s-1.1-1-2.9-1.9c-.9-.5-1.9-.8-3-1-1.1-.2-2.1-.2-3 .1-.9.2-1.7.5-2.3.9-.6.4-1 .8-1.3 1.2-.5.6-.6 1.1-.6 1.1s.8-.5 2.3-.9c.8-.2 1.7-.2 2.8-.1 1.1.2 2.2.6 3.3 1.3.5.4 1.1.8 1.5 1.3.5.5.9 1 1.3 1.6.4.6.7 1.2.9 1.8.2.6.4 1.2.5 1.8.2 1.2.3 2.2.3 3V19s0-1.4-.4-3.4c-.2-1-.6-2-1.2-2.9-.5-.9-1.2-1.7-2-2.2-.8-.6-1.5-.9-2.2-1.1-.7-.2-1.2-.3-1.7-.2-.9.1-1.3.3-1.3.3s.9.3 2.1 1.2c.6.4 1.3 1.2 1.8 2.1s.9 2.1 1 3.4c.1.6.1 1.3 0 2s-.2 1.3-.4 2c-.2.6-.5 1.3-.8 1.8-.3.6-.7 1.1-1.1 1.5-.8.9-1.5 1.6-2.1 2.1s-.9.7-.9.7 1.1-.9 2.4-2.4c.6-.8 1.1-1.7 1.5-2.6.3-1 .5-2 .5-2.9 0-.9-.2-1.7-.5-2.3-.2-.6-.5-1.1-.8-1.4-.6-.6-1-.8-1-.8s.3.9.3 2.4c0 .8-.2 1.7-.6 2.7-.4 1-1.1 2-2.1 2.9-.5.4-1 .8-1.6 1.2-.6.3-1.2.6-1.9.8s-1.3.4-1.9.5c-.6.1-1.3.1-1.9.1-1.2-.1-2.2-.3-2.9-.4-.7-.2-1.1-.3-1.1-.3s1.4.3 3.3.4c1 0 2-.1 3-.4 1-.3 1.9-.8 2.6-1.3.7-.6 1.2-1.2 1.6-1.7.4-.6.6-1.1.6-1.5.1-.8 0-1.3 0-1.3s-.6.8-1.8 1.7c-.6.5-1.5.9-2.6 1.1-1.1.2-2.3.3-3.6 0-.6-.1-1.3-.3-1.9-.6-.6-.3-1.2-.6-1.8-1-.4-.5-.9-.9-1.4-1.4-.5-.5-.9-1-1.2-1.5-.7-1-1.1-2-1.4-2.6-.3-.7-.4-1.1-.4-1.1s.5 1.3 1.6 3c.5.8 1.3 1.6 2.1 2.2.8.6 1.7 1.1 2.6 1.3.9.2 1.7.3 2.4.3s1.2-.2 1.6-.4c.8-.4 1.1-.7 1.1-.7s-1 0-2.5-.4c-.8-.2-1.6-.7-2.5-1.4-.4-.4-.8-.8-1.2-1.3-.4-.5-.7-1-1-1.6-.2-.6-.5-1.3-.6-1.9-.2-.7-.3-1.4-.3-2.1 0-.7 0-1.4.1-2 .1-.7.3-1.3.5-1.9.4-1.2.9-2.1 1.3-2.8.4-.7.6-1 .6-1S8 3.2 7.4 5.1c-.4.9-.5 2-.5 3 0 1.1.2 2.1.6 3 .4.9.8 1.6 1.3 2.1s.9.9 1.3 1.1c.7.4 1.2.4 1.2.4z"/></symbol><symbol viewBox="0 0 32 32" id="gel-icon-white-cloud"><path fill="#CECECE" d="M23 8.2h-.6c-.8-2.9-3.3-5-6.4-5-3.1 0-5.7 2.1-6.4 5H9c-2.7 0-4.9 2.2-4.9 4.9S6.3 18 9 18h14c2.7 0 4.9-2.2 4.9-4.9S25.7 8.2 23 8.2zm0 7.5H9c-1.4 0-2.6-1.2-2.6-2.6s1.2-2.6 2.6-2.6c.9 0 1.8.5 2.2 1.3l2-1.2c-.4-.6-.9-1.2-1.5-1.6.4-2 2.2-3.5 4.3-3.5 2.4 0 4.4 2 4.4 4.4 0 .9-.3 1.8-.8 2.5h2.6c.2-.6.4-1.3.5-1.9h.4c1.4 0 2.6 1.2 2.6 2.6s-1.2 2.6-2.7 2.6z"/></symbol><symbol viewBox="0 0 32 32" id="gel-icon-wind"><path d="M0 5h2v27H0zm11-5L3 5.5 5.7 15 30 18.5l2-5.5L11 0zm1.8 3.5l5.5 3.4-2.7 7.5-6.4-.9 3.6-10zm9.9 6.1l4.8 3-1.2 3.4-5.7-.8 2.1-5.6z"/></symbol><symbol viewBox="0 0 32 32" id="gel-icon-wind-gust-info-a"><path d="M32 10H22v3h4.7l-8.3 9.4C16.7 24 14.5 25 12 25c-5 0-9-4-9-9s4-9 9-9c1.6 0 3.2.4 4.5 1.2L18 5.6c-1.8-1-3.8-1.6-6-1.6C5.4 4 0 9.4 0 16s5.4 12 12 12c3.3 0 6.2-1.3 8.4-3.4l.1-.1 8.5-9.6V20h3V10z"/></symbol><symbol viewBox="0 0 32 32" id="gel-icon-wind-gust-info-b"><path d="M18.5 5c-3.2 0-6.1 1.1-8.4 3l-5-5H11V0H0v11h3V5.1l5 5c-1.8 2.3-3 5.2-3 8.4C5 25.9 11.1 32 18.5 32S32 25.9 32 18.5 25.9 5 18.5 5m0 24C12.7 29 8 24.3 8 18.5S12.7 8 18.5 8 29 12.7 29 18.5 24.3 29 18.5 29"/></symbol></svg>