<svg xmlns="http://www.w3.org/2000/svg" xmlns:xlink="http://www.w3.org/1999/xlink"><symbol viewBox="0 0 48 32" id="gel-icon-3d"><path d="M0 0h48v32H0z"/><path fill="#FFF" d="M25 8h6.9c4.9 0 7.8 3 7.8 7.9 0 5.2-3 8.1-7.8 8.1H25V8zm4.2 12.4h2c3.2-.1 4.4-1.3 4.4-4.5 0-2.9-1.6-4.3-4.4-4.3h-2v8.8zm-14.1-6.2h1c1.2 0 2.6-.3 2.6-1.7 0-1-1-1.6-2.3-1.6-1.6 0-2.5.8-2.5 2.3h-3.7c.1-3.6 2.7-5.5 6.2-5.5 2.8 0 6.1 1.2 6.1 4.5 0 1.4-.8 2.9-2.3 3.2 1.9.5 2.8 1.8 2.8 3.7 0 3.7-3.4 5.2-6.6 5.2-3.8 0-6.9-1.9-6.6-6.1h3.7c0 1.9.9 2.9 2.9 2.9 1.4 0 2.6-.6 2.6-2 0-1.8-1.3-2.2-2.9-2.2h-1v-2.7z"/></symbol><symbol viewBox="0 0 48 32" id="gel-icon-audio-description"><path d="M0 0h48v32H0z"/><path fill="#FFF" d="M26 8h6.9c4.9 0 7.8 3 7.8 7.9 0 5.2-3 8.1-7.8 8.1H26V8zm4.2 12.4h2c3.2-.1 4.4-1.3 4.4-4.5 0-2.9-1.6-4.3-4.4-4.3h-2v8.8zM14 8h4.2l6 16h-4.3l-1-2.9h-5.6l-1 2.9H8l6-16zm.2 10h3.6L16 12.4 14.2 18z"/></symbol><symbol viewBox="0 0 32 32" id="gel-icon-continous-play"><path d="M24 0H0v24h24V0zm-3 21H3V3h18v18z"/><path d="M28 5h-2v21H5v2h23"/><path d="M30 8v22H8v2h24V8M8 6v12l9.6-6"/></symbol><symbol viewBox="0 0 32 32" id="gel-icon-exit-fullscreen"><path d="M28 12h-8V4M4 12h8V4m16 16h-8v8M4 20h8v8M1 0h30v2H1zm0 30h30v2H1z"/><path d="M0 0h2v32H0zm30 0h2v32h-2z"/></symbol><symbol viewBox="0 0 32 32" id="gel-icon-expand"><path d="M22 4v18H2V2h20m2-2H0v24h24V0zm-3 32h11V21"/></symbol><symbol viewBox="0 0 32 32" id="gel-icon-forward"><path d="M27 0h3v32h-3zm0 16L2 32v-8.2L15.3 16 2 8.2V0"/></symbol><symbol viewBox="0 0 32 32" id="gel-icon-fullscreen"><path d="M22 12v10H10V10h12m2-2H8v16h16V8zm-3-8h11v11M11 0H0v11m21 21h11V21M11 32H0V21"/></symbol><symbol viewBox="0 0 32 32" id="gel-icon-fx"><path d="M.3 7h13.3v3.8H4.9v3.7h7.4v3.6H4.9V25H.3V7zM20 15.5L14.1 7h5.5l3 5.6L25.9 7h5.3l-5.8 8.5 6.4 9.5H26l-3.4-6-3.6 6h-5.4l6.4-9.5z"/></symbol><symbol viewBox="0 0 44 32" id="gel-icon-fx-off"><path d="M0 7h13.3v3.8H4.7v3.7h7.4v3.6H4.7V25H0V7zm19.7 8.5L13.9 7h5.5l3 5.6L25.6 7H31l-5.8 8.5 6.4 9.5h-5.7l-3.4-6-3.7 6h-5.4l6.3-9.5zm24.3-4L42.5 10 38 14.5 33.5 10 32 11.5l4.5 4.5-4.5 4.5 1.5 1.5 4.5-4.5 4.5 4.5 1.5-1.5-4.5-4.5"/></symbol><symbol viewBox="0 0 48 32" id="gel-icon-hd"><path d="M0 0h48v32H0z"/><path fill="#FFF" d="M9 8h4.2v5.8h5.5V8h4.2v16h-4.2v-6.6h-5.5V24H9V8zm17 0h6.9c4.9 0 7.8 3 7.8 7.9 0 5.2-3 8.1-7.8 8.1H26V8zm4.2 12.4h2c3.2-.1 4.4-1.3 4.4-4.5 0-2.9-1.6-4.3-4.4-4.3h-2v8.8z"/></symbol><symbol viewBox="0 0 32 32" id="gel-icon-iplayer"><path d="M11 0H3v8h8V4.7L24 16 11 27.3V12H3v20h8l18-16"/></symbol><symbol viewBox="0 0 32 32" id="gel-icon-iplayer-radio"><path d="M21.5 6.2l-1.6 1.6c4.2 4.6 4.2 11.7 0 16.3l1.6 1.6c5.1-5.5 5.1-13.9 0-19.5z"/><path d="M26.2 1.5l-1.6 1.6c6.8 7.3 6.8 18.6 0 25.8l1.6 1.6c7.7-8.1 7.7-20.9 0-29zM5.7 3.7H0v5.7h5.7V7l9.8 9-9.8 9V13.2H0v15.1h5.7L19 16"/></symbol><symbol viewBox="0 0 32 32" id="gel-icon-last-watched"><path d="M10.5 18.5c0 3 2.5 5.5 5.5 5.5s5.5-2.5 5.5-5.5S19 13 16 13s-5.5 2.5-5.5 5.5"/><path d="M0 8v21h7l-1 3h15l-2-6H3V11h26v15h-8l1 3h10V8M4 4h24v2H4zm4-4h16v2H8z"/></symbol><symbol viewBox="0 0 32 32" id="gel-icon-listen"><path d="M21.4 4.8L20 6.2c2.5 2.5 4 6 4 9.8s-1.5 7.3-4 9.8l1.4 1.4C24.2 24.3 26 20.4 26 16c0-4.4-1.8-8.3-4.6-11.2z"/><path d="M25.6.5L24.2 2c3.6 3.6 5.8 8.6 5.8 14s-2.2 10.4-5.8 14l1.4 1.4C29.6 27.5 32 22 32 16S29.6 4.5 25.6.5zM16 4l-6 6H0v12h10l6 6"/></symbol><symbol viewBox="0 0 56 32" id="gel-icon-live"><path d="M0 0h56v32H0z"/><path fill="#FFF" d="M4 7.9h4.2v12.4h7.5v3.6H4v-16zm13 0h4.2v16H17v-16zm15.8 16H28l-5-16h4.3l3.1 11.9 3.1-11.9H38l-5.2 16zm6.2-16h12.7v3.3h-8.6V14H51v3.2h-7.8v3H52v3.6H39V7.9z"/></symbol><symbol viewBox="0 0 32 32" id="gel-icon-live-restart"><path d="M16 4h-1l2-2-2-2-6 6 6 6 2-2-2-2h1c5.5 0 10 4.5 10 10s-4.5 10-10 10S6 23.5 6 18H2c0 7.7 6.3 14 14 14s14-6.3 14-14S23.7 4 16 4"/><path d="M10 10L6 6l4-4-2-2-6 6 6 6"/></symbol><symbol viewBox="0 0 32 32" id="gel-icon-music"><path d="M12 6.6v14.9c-1.1-1-2.5-1.5-4-1.5-3.3 0-6 2.7-6 6s2.7 6 6 6 6-2.7 6-6V14.6l14-5.3v7.2c-1.1-1-2.5-1.5-4-1.5-3.3 0-6 2.7-6 6s2.7 6 6 6 6-2.7 6-6V0L12 6.6zM8 29c-1.7 0-3-1.3-3-3s1.3-3 3-3 3 1.3 3 3-1.3 3-3 3zm16-5c-1.7 0-3-1.3-3-3s1.3-3 3-3 3 1.3 3 3-1.3 3-3 3z"/></symbol><symbol viewBox="0 0 44 32" id="gel-icon-music-off"><path d="M10 6.6v14.9c-1.1-1-2.5-1.5-4-1.5-3.3 0-6 2.7-6 6s2.7 6 6 6 6-2.7 6-6V14.6l14-5.3v7.2c-1.1-1-2.5-1.5-4-1.5-3.3 0-6 2.7-6 6s2.7 6 6 6 6-2.7 6-6V0L10 6.6zM6 29c-1.7 0-3-1.3-3-3s1.3-3 3-3 3 1.3 3 3-1.3 3-3 3zm16-5c-1.7 0-3-1.3-3-3s1.3-3 3-3 3 1.3 3 3-1.3 3-3 3zm22-12.5L42.5 10 38 14.5 33.5 10 32 11.5l4.5 4.5-4.5 4.5 1.5 1.5 4.5-4.5 4.5 4.5 1.5-1.5-4.5-4.5"/></symbol><symbol viewBox="0 0 32 32" id="gel-icon-now-watching"><path d="M15 13v19l17-10m-19 2H0V0h4v20h9"/></symbol><symbol viewBox="0 0 32 32" id="gel-icon-parental"><circle cx="16" cy="16" r="16"/><path fill="#FFF" d="M23.4 24h-2.7l-.2-1.7c-1.1 1.5-3 2.1-4.5 2.1-4.8 0-8-3.7-8-8.3s3.1-8.3 8-8.3c3.3 0 6.8 1.8 7.2 5.8H19c-.1-1.4-1.5-2.2-3.2-2.2-2.7 0-3.7 2.4-3.7 4.7 0 2.4 1 4.7 3.7 4.7 2.1 0 3.4-1 3.7-2.4h-2.9v-3.1h6.7V24z"/></symbol><symbol viewBox="0 0 32 32" id="gel-icon-pause"><path d="M3 0h9v32H3zm17 0h9v32h-9z"/></symbol><symbol viewBox="0 0 32 32" id="gel-icon-play"><path d="M3 32l26-16L3 0"/></symbol><symbol viewBox="0 0 32 32" id="gel-icon-pop-out"><path d="M20 30H2V12h6v-2H0v22h22v-8h-2"/><path d="M28 4v14H14V4h14m4-4H10v22h22V0z"/></symbol><symbol viewBox="0 0 121 32" id="gel-icon-premier"><path d="M31.5 11.3h-3.3v3.6h3.5c1.3 0 1.9-.7 1.9-1.9 0-1.1-.9-1.7-2.1-1.7zm-15.5 0h-2.8v4.1H16c1.3 0 2.2-.5 2.2-2s-1-2.1-2.2-2.1zm90.4 0h-3.3v3.6h3.5c1.3 0 1.9-.7 1.9-1.9 0-1.1-.9-1.7-2.1-1.7z"/><path d="M0 0v32h121V0H0zm16.6 18.7h-3.4V24H9V8h7.6c3 0 5.8 1.4 5.8 5.2 0 3.9-2.3 5.5-5.8 5.5zM34.2 24c-.4-.5-.4-2.1-.5-2.6-.1-1.6-.4-3.3-2.3-3.3h-3.2V24H24V8h8.2c2.8 0 5.6 1.3 5.6 4.5 0 1.7-.8 3.4-2.5 4 1.7.4 2.2 2.3 2.3 3.8 0 .7.1 3 .7 3.6h-4.1zm19.1 0h-13V8H53v3.3h-8.6v2.8h7.8v3.2h-7.8v3h8.8V24zm20.3 0h-3.9V11.9L66.2 24H63l-3.4-12.1V24h-3.9V8h6.1l2.8 10.7L67.4 8h6.1v16zm7.1 0h-4.2V8h4.2v16zm15.8 0h-13V8h12.7v3.3h-8.6v2.8h7.8v3.2h-7.8v3h8.8V24zm12.6 0c-.4-.5-.4-2.1-.5-2.6-.1-1.6-.4-3.3-2.3-3.3h-3.2V24h-4.2V8h8.2c2.8 0 5.6 1.3 5.6 4.5 0 1.7-.8 3.4-2.5 4 1.7.4 2.2 2.3 2.3 3.8 0 .7.1 3 .7 3.6h-4.1z"/></symbol><symbol viewBox="0 0 32 32" id="gel-icon-preview"><path d="M16 12c-2.2 0-4 1.8-4 4s1.8 4 4 4 4-1.8 4-4-1.8-4-4-4z"/><path d="M21 7.4c-1.3-.7-2.8-1.2-4.3-1.3h-1.4c-1.6.1-3 .6-4.3 1.3C5.3 10.1 0 16 0 16s5.3 5.9 10.9 8.6c1.3.7 2.8 1.2 4.3 1.3h1.4c1.6-.1 3-.6 4.3-1.3 5.6-2.7 11-8.6 11-8.6S26.7 10.1 21 7.4zM16 23c-3.9 0-7-3.1-7-7s3.1-7 7-7 7 3.1 7 7-3.1 7-7 7z"/></symbol><symbol viewBox="0 0 32 32" id="gel-icon-recent-activity"><path d="M16 28C9.4 28 4 22.6 4 16S9.4 4 16 4c.3 0 .7 0 1 .1v-4c-.3-.1-.7-.1-1-.1C7.2 0 0 7.2 0 16s7.2 16 16 16c6.3 0 11.7-3.6 14.3-8.9l-3.5-2c-1.9 4.1-6 6.9-10.8 6.9z"/><path d="M15 6v10.6l8.8 5.1 1-1.8-7.8-4.5V6"/><circle cx="30" cy="16" r="2"/><circle cx="28" cy="9" r="2"/><circle cx="23" cy="4" r="2"/></symbol><symbol viewBox="0 0 32 32" id="gel-icon-record"><circle cx="16" cy="16" r="16"/><path fill="#FFF" d="M23.9 24l-3.2-5.9c1.8-.7 2.8-2.3 2.8-5 0-3.8-2.8-5.1-5.8-5.1h-7.6v16h4.2v-5.3h2.5l2.9 5.3h4.2zm-9.6-12.6h2.8c1.3 0 2.2.6 2.2 2.1s-.9 2-2.2 2h-2.8v-4.1z"/></symbol><symbol viewBox="0 0 32 32" id="gel-icon-replay"><path d="M25 18.5c0 5.2-4.3 9.5-9.5 9.5S6 23.7 6 18.5 10.3 9 15.5 9h.5V5h-.5C8 5 2 11 2 18.5S8 32 15.5 32 29 26 29 18.5V18h-4v.5z"/><path d="M18 0v14l12-7"/></symbol><symbol viewBox="0 0 32 32" id="gel-icon-rewind"><path d="M2 0h3v32H2zm3 16L30 0v8.2L16.7 16 30 23.8V32"/></symbol><symbol viewBox="0 0 48 32" id="gel-icon-sd"><path d="M0 0h48v32H0z"/><path fill="#FFF" d="M26 8h6.9c4.9 0 7.8 3 7.8 7.9 0 5.2-3 8.1-7.8 8.1H26V8zm4.2 12.4h2c3.2-.1 4.4-1.3 4.4-4.5 0-2.9-1.6-4.3-4.4-4.3h-2v8.8zm-17-1.8c.1 1.9 1.3 2.5 3 2.5 1.3 0 2.6-.4 2.6-1.6 0-1.4-2.3-1.7-4.6-2.3-2.3-.6-4.7-1.7-4.7-4.6C9.5 9 13 7.7 16 7.7c3.2 0 6.4 1.5 6.4 5.1h-4.2c.1-1.5-1.3-1.9-2.6-1.9-.9 0-2 .3-2 1.4 0 1.2 2.3 1.5 4.6 2.1 2.3.7 4.6 1.7 4.6 4.6 0 4-3.4 5.3-7 5.3-3.7 0-6.9-1.6-6.9-5.7h4.3z"/></symbol><symbol viewBox="0 0 32 32" id="gel-icon-series-catch-up"><path d="M10 5v22h22V5H10zm19 19H13V8h16v16zM5 27h3v-2H7V7h1V5H5M0 27h3v-2H2V7h1V5H0"/><path d="M17 11v10l9-5"/></symbol><symbol viewBox="0 0 32 32" id="gel-icon-series-stack"><path d="M4 6h22v22h2V4H4"/><path d="M8 0v2h22v22h2V0"/><path d="M0 32h24V8H0v24zm4-20h16v16H4V12z"/></symbol><symbol viewBox="0 0 56 32" id="gel-icon-sign-language-22"><path d="M0 0h56v32H0z"/><path fill="#FFF" d="M37.7 7.9h4.2v12.4h7.5v3.6H37.7v-16zM26.4 18.1c.1 1.9 1.3 2.5 3 2.5 1.3 0 2.6-.4 2.6-1.6 0-1.4-2.3-1.7-4.6-2.3-2.3-.7-4.7-1.7-4.7-4.7 0-3.5 3.5-4.9 6.5-4.9 3.2 0 6.4 1.5 6.4 5.1h-4.2c.1-1.5-1.3-1.9-2.6-1.9-.9 0-2 .3-2 1.4 0 1.2 2.3 1.5 4.6 2.1 2.3.6 4.6 1.7 4.6 4.6 0 4.1-3.4 5.3-7 5.3-3.7 0-6.9-1.6-6.9-5.7h4.3zM7.7 7.9h7.5c2.8 0 5.8.7 5.8 4 0 1.4-.8 2.6-2.1 3.2 1.7.5 2.8 2 2.8 3.8 0 3.8-2.8 5-6.2 5H7.7v-16zm4.1 6.3H15c.7 0 1.7-.4 1.7-1.5 0-1.2-.8-1.5-1.7-1.5h-3.2v3zm0 6.3h3.3c1.3 0 2.2-.5 2.2-1.8 0-1.4-1-1.9-2.2-1.9h-3.3v3.7z"/></symbol><symbol viewBox="0 0 48 32" id="gel-icon-sign-language-35"><path d="M0 32h48V0H0v32zm18.2-7.7c-3.7 0-6.9-1.6-6.9-5.7h4.2c.1 1.9 1.3 2.5 3 2.5 1.3 0 2.6-.4 2.6-1.6 0-1.4-2.3-1.7-4.6-2.3-2.3-.7-4.7-1.7-4.7-4.6 0-3.5 3.5-4.9 6.5-4.9 3.2 0 6.4 1.5 6.4 5.2h-4.2c.1-1.5-1.3-1.9-2.6-1.9-.9 0-2 .3-2 1.4 0 1.2 2.3 1.5 4.6 2.1 2.3.7 4.6 1.7 4.6 4.6 0 3.9-3.4 5.2-6.9 5.2m20.6-.3H27.2V8h4.2v12.4h7.5V24z"/></symbol><symbol viewBox="0 0 32 32" id="gel-icon-sound-off"><path d="M16.1 4l-6 6H.1v12h10l6 6m15.8-16.5L30.4 10l-4.5 4.5-4.5-4.5-1.5 1.5 4.5 4.5-4.5 4.5 1.5 1.5 4.5-4.5 4.5 4.5 1.5-1.5-4.5-4.5"/></symbol><symbol viewBox="0 0 32 32" id="gel-icon-subtitles"><path d="M0 0h32v32H0z"/><path fill="#FFF" d="M13.2 18.6c.1 1.9 1.3 2.5 3 2.5 1.3 0 2.6-.4 2.6-1.6 0-1.4-2.3-1.7-4.6-2.3-2.3-.6-4.7-1.7-4.7-4.6C9.5 9 13 7.7 16 7.7c3.2 0 6.4 1.5 6.4 5.1h-4.2c.1-1.5-1.3-1.9-2.6-1.9-.9 0-2 .3-2 1.4 0 1.2 2.3 1.5 4.6 2.1 2.4.6 4.8 1.7 4.8 4.6 0 4.1-3.4 5.3-7 5.3-3.7 0-6.9-1.6-6.9-5.7h4.1z"/></symbol><symbol viewBox="0 0 58 32" id="gel-icon-volume"><path d="M0 20h4v12H0zm6 0h4v12H6zm6 0h4v12h-4zm12 0h4v12h-4zm6 0h4v12h-4zm6 0h4v12h-4zm6 0h4v12h-4zm6 0h4v12h-4zm6 0h4v12h-4zm-36-8h4v20h-4z"/></symbol><symbol viewBox="0 0 48 32" id="gel-icon-widescreen"><path d="M0 0h48v32H0z"/><path fill="#FFF" d="M32.2 18.6c.1 1.9 1.3 2.5 3 2.5 1.3 0 2.6-.4 2.6-1.6 0-1.4-2.3-1.7-4.6-2.3-2.3-.6-4.7-1.7-4.7-4.6C28.5 9 32 7.7 35 7.7c3.2 0 6.4 1.5 6.4 5.1h-4.2c.1-1.5-1.3-1.9-2.6-1.9-.9 0-2 .3-2 1.4 0 1.2 2.3 1.5 4.6 2.1 2.3.7 4.6 1.7 4.6 4.6 0 4-3.4 5.3-7 5.3-3.7 0-6.9-1.6-6.9-5.7h4.3zM23.1 24H19l-2.2-11-2.2 11h-4.2L6 8h4.2l2.3 11.7L14.8 8h3.9l2.4 11.7L23.4 8h4.2l-4.5 16z"/></symbol></svg>