<svg xmlns="http://www.w3.org/2000/svg" xmlns:xlink="http://www.w3.org/1999/xlink"><symbol viewBox="0 0 32 32" id="gel-icon-10-wicket"><path d="M13.5 26.3c0-1.4 1.1-2.5 2.5-2.5s2.5 1.1 2.5 2.5V32h-5v-5.7zm15.8-11.4l-.7-1.1-2.1 1.2-.6-1-6.5 3.7.6 1.1-2.1 1.2.6 1.1 2.2-1.3.6 1.1 6.4-3.7-.6-1.1m-13 3.9L12 18.7l.6-1-6.5-3.8-.6 1.1-2.1-1.2-.7 1 2.2 1.3-.6 1.1 6.4 3.7.7-1.1 2.1 1.3M21.4 32h5.1l1.5-8.5v-.3c0-1.4-1.1-2.5-2.5-2.5-1.2 0-2.2.8-2.5 2L21.4 32z"/><circle cx="16" cy="10" r="7"/><path d="M13.2 8.5h-1.6v-1h.1c.5 0 .9-.1 1.2-.3.3-.2.5-.5.6-1h1.2V14h-1.6V8.5zm2.5.3c0-.5.1-.9.3-1.3s.4-.7.7-.9.8-.3 1.4-.3c.5 0 .9.1 1.2.2.3.1.6.4.7.7.2.3.3.7.4 1.2.1.5.1 1.1.1 1.8 0 .5 0 1.1-.1 1.6 0 .5-.1.9-.3 1.3-.2.4-.4.7-.7.9-.3.2-.8.3-1.4.3-.5 0-.9-.1-1.2-.2-.3-.1-.6-.3-.8-.6-.2-.3-.3-.7-.4-1.2s-.1-1.1-.1-1.8c.2-.7.2-1.2.2-1.7zm1.6 3.1c0 .3.1.6.1.7s.2.3.3.4c.1.1.2.1.4.1s.3 0 .4-.1c.1-.1.2-.2.3-.4s.1-.5.1-.8V8.5c0-.3-.1-.6-.1-.7-.1-.2-.2-.3-.3-.4-.1-.1-.2-.1-.4-.1s-.3 0-.4.1c-.1.1-.2.2-.3.4-.1.2-.1.5-.1.8v3.3z" fill="#FFF"/><path d="M10.7 32H5.6l-1.5-8.5v-.3c0-1.4 1.1-2.5 2.5-2.5 1.2 0 2.2.8 2.5 2l1.6 9.3z"/></symbol><symbol viewBox="0 0 32 32" id="gel-icon-100"><path fill="#1C1C1C" d="M0 0h32v32H0z"/><path d="M10 10h1v1h-1zm0 2h1v1h-1zm0 4h1v1h-1zm2-8h1v1h-1zm0 2h1v1h-1zm-2 12h1v1h-1zm2 0h1v1h-1zm0 2h1v1h-1zm2-16h1v1h-1zm2 2h1v1h-1zm-2 0h1v1h-1zm2 6h1v1h-1zm0 2h1v1h-1zm0 4h1v1h-1zm-2 0h1v1h-1zm0 2h1v1h-1zm-4-10h1v1h-1zm0 6h1v1h-1zm0-2h1v1h-1zm6-4h1v1h-1zm0-2h1v1h-1zm0 8h1v1h-1zM19 10h1v1h-1zm0 2h1v1h-1zm0 4h1v1h-1zm2-8h1v1h-1zm0 2h1v1h-1zm-2 12h1v1h-1zm2 0h1v1h-1zm0 2h1v1h-1zm2-16h1v1h-1zm2 2h1v1h-1zm-2 0h1v1h-1zm2 6h1v1h-1zm0 2h1v1h-1zm0 4h1v1h-1zm-2 0h1v1h-1zm0 2h1v1h-1zm-4-10h1v1h-1zm0 6h1v1h-1zm0-2h1v1h-1zm6-4h1v1h-1zm0-2h1v1h-1zm0 8h1v1h-1zM7 8h1v1H7zm0 2h1v1H7zm0 2h1v1H7zm0 4h1v1H7zm0 6h1v1H7zm0 2h1v1H7zm0-10h1v1H7zm0 6h1v1H7zm0-2h1v1H7zm-2-8h1v1H5z" fill="#FFE710"/></symbol><symbol viewBox="0 0 32 32" id="gel-icon-150"><path fill="#1C1C1C" d="M0 0h32v32H0z"/><path d="M10 10h1v1h-1zm0-2h1v1h-1zm6 0h1v1h-1zm-6 4h1v1h-1zm0 4h1v1h-1zm2 0h1v1h-1zm2 0h1v1h-1zm-2-8h1v1h-1zm0 2h1v1h-1zm-2 12h1v1h-1zm2 0h1v1h-1zm0 2h1v1h-1zm2-16h1v1h-1zm2 2h1v1h-1zm-2 0h1v1h-1zm2 6h1v1h-1zm0 2h1v1h-1zm0 4h1v1h-1zm-2 0h1v1h-1zm0 2h1v1h-1zm-4-10h1v1h-1zm6 6h1v1h-1zM19 10h1v1h-1zm0 2h1v1h-1zm0 4h1v1h-1zm2-8h1v1h-1zm0 2h1v1h-1zm-2 12h1v1h-1zm2 0h1v1h-1zm0 2h1v1h-1zm2-16h1v1h-1zm2 2h1v1h-1zm-2 0h1v1h-1zm2 6h1v1h-1zm0 2h1v1h-1zm0 4h1v1h-1zm-2 0h1v1h-1zm0 2h1v1h-1zm-4-10h1v1h-1zm0 6h1v1h-1zm0-2h1v1h-1zm6-4h1v1h-1zm0-2h1v1h-1zm0 8h1v1h-1zM7 8h1v1H7zm0 2h1v1H7zm0 2h1v1H7zm0 4h1v1H7zm0 6h1v1H7zm0 2h1v1H7zm0-10h1v1H7zm0 6h1v1H7zm0-2h1v1H7zm-2-8h1v1H5z" fill="#FFE710"/></symbol><symbol viewBox="0 0 32 32" id="gel-icon-200"><path fill="#1C1C1C" d="M0 0h32v32H0z"/><path d="M13 10h1v1h-1zm0 2h1v1h-1zm0 4h1v1h-1zm2-8h1v1h-1zm0 2h1v1h-1zm-2 12h1v1h-1zm2 0h1v1h-1zm0 2h1v1h-1zm2-16h1v1h-1zm2 2h1v1h-1zm-2 0h1v1h-1zm2 6h1v1h-1zm0 2h1v1h-1zm0 4h1v1h-1zm-2 0h1v1h-1zm0 2h1v1h-1zm-4-10h1v1h-1zm0 6h1v1h-1zm0-2h1v1h-1zm6-4h1v1h-1zm0-2h1v1h-1zm0 8h1v1h-1zM22 10h1v1h-1zm0 2h1v1h-1zm0 4h1v1h-1zm2-8h1v1h-1zm0 2h1v1h-1zm-2 12h1v1h-1zm2 0h1v1h-1zm0 2h1v1h-1zm2-16h1v1h-1zm2 2h1v1h-1zm-2 0h1v1h-1zm2 6h1v1h-1zm0 2h1v1h-1zm0 4h1v1h-1zm-2 0h1v1h-1zm0 2h1v1h-1zm-4-10h1v1h-1zm0 6h1v1h-1zm0-2h1v1h-1zm6-4h1v1h-1zm0-2h1v1h-1zm0 8h1v1h-1zM4 10h1v1H4zm2 6h1v1H6zm-2 2h1v1H4zm0 2h1v1H4zm2-2h1v1H6zm-2 4h1v1H4zm0 2h1v1H4zM8 8h1v1H8zm2 2h1v1h-1zm-2 0h1v1H8zm0 6h1v1H8zm2 6h1v1h-1zm0 2h1v1h-1zm-2-2h1v1H8zm-2 0h1v1H6zm2 2h1v1H8zm-2 0h1v1H6zM6 8h1v1H6zm2 6h1v1H8zm2 0h1v1h-1zm0-2h1v1h-1z" fill="#FFE710"/></symbol><symbol viewBox="0 0 32 32" id="gel-icon-250"><path fill="#1C1C1C" d="M0 0h32v32H0z"/><path d="M13 10h1v1h-1zm0-2h1v1h-1zm6 0h1v1h-1zm-6 4h1v1h-1zm0 4h1v1h-1zm2 0h1v1h-1zm2 0h1v1h-1zm-2-8h1v1h-1zm0 2h1v1h-1zm-2 12h1v1h-1zm2 0h1v1h-1zm0 2h1v1h-1zm2-16h1v1h-1zm2 2h1v1h-1zm-2 0h1v1h-1zm2 6h1v1h-1zm0 2h1v1h-1zm0 4h1v1h-1zm-2 0h1v1h-1zm0 2h1v1h-1zm-4-10h1v1h-1zm6 6h1v1h-1zM22 10h1v1h-1zm0 2h1v1h-1zm0 4h1v1h-1zm2-8h1v1h-1zm0 2h1v1h-1zm-2 12h1v1h-1zm2 0h1v1h-1zm0 2h1v1h-1zm2-16h1v1h-1zm2 2h1v1h-1zm-2 0h1v1h-1zm2 6h1v1h-1zm0 2h1v1h-1zm0 4h1v1h-1zm-2 0h1v1h-1zm0 2h1v1h-1zm-4-10h1v1h-1zm0 6h1v1h-1zm0-2h1v1h-1zm6-4h1v1h-1zm0-2h1v1h-1zm0 8h1v1h-1zM4 10h1v1H4zm2 6h1v1H6zm-2 2h1v1H4zm0 2h1v1H4zm2-2h1v1H6zm-2 4h1v1H4zm0 2h1v1H4zM8 8h1v1H8zm2 2h1v1h-1zm-2 0h1v1H8zm0 6h1v1H8zm2 6h1v1h-1zm0 2h1v1h-1zm-2-2h1v1H8zm-2 0h1v1H6zm2 2h1v1H8zm-2 0h1v1H6zM6 8h1v1H6zm2 6h1v1H8zm2 0h1v1h-1zm0-2h1v1h-1z" fill="#FFE710"/></symbol><symbol viewBox="0 0 32 32" id="gel-icon-300"><path fill="#1C1C1C" d="M0 0h32v32H0z"/><path d="M13 10h1v1h-1zm0 2h1v1h-1zm0 4h1v1h-1zm2-8h1v1h-1zm0 2h1v1h-1zm-2 12h1v1h-1zm2 0h1v1h-1zm0 2h1v1h-1zm2-16h1v1h-1zm2 2h1v1h-1zm-2 0h1v1h-1zm2 6h1v1h-1zm0 2h1v1h-1zm0 4h1v1h-1zm-2 0h1v1h-1zm0 2h1v1h-1zm-4-10h1v1h-1zm0 6h1v1h-1zm0-2h1v1h-1zm6-4h1v1h-1zm0-2h1v1h-1zm0 8h1v1h-1zM22 10h1v1h-1zm0 2h1v1h-1zm0 4h1v1h-1zm2-8h1v1h-1zm0 2h1v1h-1zm-2 12h1v1h-1zm2 0h1v1h-1zm0 2h1v1h-1zm2-16h1v1h-1zm2 2h1v1h-1zm-2 0h1v1h-1zm2 6h1v1h-1zm0 2h1v1h-1zm0 4h1v1h-1zm-2 0h1v1h-1zm0 2h1v1h-1zm-4-10h1v1h-1zm0 6h1v1h-1zm0-2h1v1h-1zm6-4h1v1h-1zm0-2h1v1h-1zm0 8h1v1h-1zM4 10h1v1H4zm2 6h1v1H6zm-2 6h1v1H4zM8 8h1v1H8zm2 2h1v1h-1zm-2 0h1v1H8zm0 6h1v1H8zm2 2h1v1h-1zm-2 0h1v1H8zm2 4h1v1h-1zm-2 0h1v1H8zm0 2h1v1H8zm-2 0h1v1H6zM6 8h1v1H6zm2 6h1v1H8zm2 0h1v1h-1zm0-2h1v1h-1zm0 8h1v1h-1z" fill="#FFE710"/></symbol><symbol viewBox="0 0 32 32" id="gel-icon-5-wicket"><circle cx="16" cy="10" r="7"/><path d="M13.5 26.3c0-1.4 1.1-2.5 2.5-2.5s2.5 1.1 2.5 2.5V32h-5v-5.7zm15.8-11.4l-.7-1.1-2.1 1.2-.6-1-6.5 3.7.6 1.1-2.1 1.2.6 1.1 2.2-1.3.6 1.1 6.4-3.7-.6-1.1m-13 3.9L12 18.7l.6-1-6.5-3.8-.6 1.1-2.1-1.2-.7 1 2.2 1.3-.6 1.1 6.4 3.7.7-1.1 2.1 1.3M21.4 32h5.1l1.5-8.5v-.3c0-1.4-1.1-2.5-2.5-2.5-1.2 0-2.2.8-2.5 2L21.4 32zm-10.7 0H5.6l-1.5-8.5v-.3c0-1.4 1.1-2.5 2.5-2.5 1.2 0 2.2.8 2.5 2l1.6 9.3z"/><path fill="#FFF" d="M15.1 7.6L15 9.4c.1-.2.3-.4.6-.4.2-.1.5-.1.9-.1s.7.1.9.2c.2.1.4.3.6.6.1.2.2.5.3.8.1.3.1.6.1.9 0 .4 0 .8-.1 1.2s-.2.7-.4.9c-.2.3-.4.4-.8.6-.3.1-.7.2-1.2.2s-.9-.1-1.2-.2c-.3-.1-.5-.3-.7-.5-.2-.2-.3-.5-.3-.7-.1-.3-.1-.5-.1-.7V12H15v.4c0 .1 0 .3.1.4.1.1.1.2.2.3s.2.1.4.1c.3 0 .6-.1.7-.4.1-.3.2-.6.2-1.1v-.8c0-.2-.1-.4-.1-.5l-.3-.3c-.1-.1-.3-.1-.4-.1-.2 0-.4.1-.5.2-.1.1-.2.3-.2.5h-1.4l.3-4.2h4v1.2h-2.9z"/></symbol><symbol viewBox="0 0 32 32" id="gel-icon-50"><path fill="#1C1C1C" d="M0 0h32v32H0z"/><path d="M8 10h1v1H8zm0-2h1v1H8zm6 0h1v1h-1zm-6 4h1v1H8zm0 4h1v1H8zm2 0h1v1h-1zm2 0h1v1h-1zm-2-8h1v1h-1zm0 2h1v1h-1zM8 22h1v1H8zm2 0h1v1h-1zm0 2h1v1h-1zm2-16h1v1h-1zm2 2h1v1h-1zm-2 0h1v1h-1zm2 6h1v1h-1zm0 2h1v1h-1zm0 4h1v1h-1zm-2 0h1v1h-1zm0 2h1v1h-1zM8 14h1v1H8zm6 6h1v1h-1zM17 10h1v1h-1zm0 2h1v1h-1zm0 4h1v1h-1zm2-8h1v1h-1zm0 2h1v1h-1zm-2 12h1v1h-1zm2 0h1v1h-1zm0 2h1v1h-1zm2-16h1v1h-1zm2 2h1v1h-1zm-2 0h1v1h-1zm2 6h1v1h-1zm0 2h1v1h-1zm0 4h1v1h-1zm-2 0h1v1h-1zm0 2h1v1h-1zm-4-10h1v1h-1zm0 6h1v1h-1zm0-2h1v1h-1zm6-4h1v1h-1zm0-2h1v1h-1zm0 8h1v1h-1z" fill="#FFE710"/></symbol><symbol viewBox="0 0 32 32" id="gel-icon-alerts"><path d="M12 28h8v4h-8zm14-10v-6c-.2-4.6-3.6-8.4-8-9.3V0h-4v2.7c-4.4.9-7.8 4.7-8 9.3v6l-6 8h32l-6-8z"/></symbol><symbol viewBox="0 0 32 32" id="gel-icon-all-teams"><path d="M10.5 7C12.4 7 14 5.4 14 3.5S12.4 0 10.5 0 7 1.6 7 3.5 8.6 7 10.5 7zm11 0C23.4 7 25 5.4 25 3.5S23.4 0 21.5 0 18 1.6 18 3.5 19.6 7 21.5 7zM5 21c1.9 0 3.5-1.6 3.5-3.5C8.6 15.6 7 14 5 14c-1.9 0-3.5 1.6-3.5 3.5S3.1 21 5 21zM2 32h6l2-10H0m12.5-4.5c0 1.9 1.6 3.5 3.5 3.5s3.5-1.6 3.5-3.5S17.9 14 16 14s-3.5 1.6-3.5 3.5zM13 32h6l2-10H11m12.5-4.5c0 1.9 1.6 3.5 3.5 3.5s3.5-1.6 3.5-3.5S28.9 14 27 14s-3.5 1.6-3.5 3.5zM22 22l2 10h6l2-10m-11.1-7h1.2c.7-1.4 2-2.4 3.6-2.8l.8-4.2h-10l.8 4.1c1.6.4 2.9 1.5 3.6 2.9zm-11 0h1.2c.7-1.4 2-2.4 3.6-2.8l.8-4.2h-10l.8 4.1c1.6.4 2.9 1.5 3.6 2.9z"/></symbol><symbol viewBox="0 0 32 32" id="gel-icon-american-football"><path d="M.5 18.6c-1.2 6.3.2 11.6.3 11.9l.2.6.5.2c.1 0 2.8.8 6.6.8 1.6 0 3.3-.1 5.2-.5L.5 18.6zm31-5.2c1.2-6.3-.2-11.6-.3-11.9L31 .9l-.5-.2c-.1 0-2.8-.8-6.7-.8-1.6 0-3.3.1-5.2.5l12.9 13zm-16.2-12c-2.9 1-5.8 2.7-8.5 5.3-2.7 2.7-4.3 5.6-5.4 8.5l15.3 15.3c2.9-1 5.8-2.7 8.5-5.3 2.7-2.7 4.3-5.6 5.4-8.5L15.3 1.4zm1.8 9.5l-1.6-1.6-2.8 2.7 1.6 1.6-.7.7-1.6-1.6-2.8 2.8 1.6 1.6-.7.7-1.6-1.6-1.1 1.1-.8-.8 1.1-1.1-1.6-1.6.7-.7 1.6 1.6 2.8-2.8-1.6-1.6.7-.7 1.6 1.6 2.8-2.8-1.6-1.6.7-.7 1.6 1.6 1.1-1.1.8.8-1.1 1.1 1.6 1.6-.7.8z"/></symbol><symbol viewBox="0 0 32 32" id="gel-icon-archery"><path d="M24.9 7h2.6l3-3h-4V0l-3 3v2.6l-2.3 2.3c-1.6-1.4-3.6-2.3-5.7-2.7V3h-4v2.2c-5.7 1-10 5.9-10 11.8 0 4.4 2.4 8.2 5.9 10.3L4.9 32h3.4l1.8-3.5c1.1.3 2.2.5 3.4.5 1.2 0 2.3-.2 3.4-.5l1.9 3.5h3.4l-2.5-4.7c3.5-2.1 5.8-5.9 5.8-10.3 0-2.2-.6-4.3-1.7-6.1l-2.2 2.2c.6 1.2.9 2.5.9 3.9 0 5-4 9-9 9s-9-4-9-9 4-9 9-9c2.1 0 4.1.7 5.6 2l-1.4 1.4c-1.2-.9-2.6-1.4-4.2-1.4-3.9 0-7 3.1-7 7s3.1 7 7 7 7-3.1 7-7c0-.8-.2-1.6-.4-2.4l-.8.8c.1.5.2 1 .2 1.6 0 3.3-2.7 6-6 6s-6-2.7-6-6 2.7-6 6-6c1.3 0 2.5.4 3.5 1.1l-2.2 2.2c-.4-.2-.8-.3-1.3-.3-1.7 0-3 1.3-3 3s1.3 3 3 3c1.3 0 2.4-.8 2.8-2h-2.4l11-11z"/></symbol><symbol viewBox="0 0 32 32" id="gel-icon-athletics"><path d="M23.1 13.3L26 15l3-5-1-1-2 3-2.2-2.7m-12.4 14L4 25l-1 2 10-1 5-4.4-4-1.4"/><path d="M22.6 7.5L22 7l-4-2-7 2-1 6.4 1.4.1 1.2-5L16 8l1 6-2 5 9 3-1 9 2 1 2-12-6-3m1.5-12h.1l2.1-3.6C24.3.6 23.5 0 22.5 0 21.1 0 20 1.1 20 2.5S21.1 5 22.5 5z"/></symbol><symbol viewBox="0 0 32 32" id="gel-icon-bad-light-stops-play"><path d="M0 0h32v32H0z"/><circle fill="#FFE710" cx="11.5" cy="10.5" r="1"/><circle fill="#FFE710" cx="8.5" cy="10.5" r="1"/><circle fill="#FFE710" cx="8.5" cy="7.5" r="1"/><circle fill="#FFE710" cx="11.5" cy="7.5" r="1"/><circle fill="#FFE710" cx="11.5" cy="4.5" r="1"/><circle fill="#FFE710" cx="8.5" cy="4.5" r="1"/><path fill="#B3B3B3" d="M0 28h32v4H0zm11 0H9l.7-16h.6"/><path fill="#FFF" d="M26 25.9V32h1.9v-7.1c0-.5-.4-.9-.9-.9s-.9.4-.9.9v.1H25v-.1c0-.5-.4-.9-.9-.9s-.9.4-.9.9v.1H22v-.1c0-.5-.4-.9-.9-.9s-.9.4-.9.9V32h1.9v-6.1h1.2V32H25v-6.1h1z"/></symbol><symbol viewBox="0 0 32 32" id="gel-icon-badminton"><path d="M24 15V8h-7l-2-8L4.9 16.5 6 17.6 8.2 14l2 2-2.6 3.3.8.7 2.6-3.3 1.8 1.8-2.9 2.9.7.7 2.9-2.9 1.8 1.8-3.3 2.6.7.7 3.3-2.6 2 2-3.6 2.3 1.1 1.1L32 17l-8-2zm-2.2-5.5L17 14.3l-2.4-2.4 1.9-2.4h5.3zm.7.7v5.3l-2.4 1.9-2.4-2.4 4.8-4.8zm-8.1-6.4l1.3 5.1-1.8 2.3-2.5-2.5 3-4.9zm-3.5 11.4l-2.1-2.1 2.1-3.5 2.4 2.4-2.4 3.2zm.7.7l2.4-3.2 2.3 2.3-2.8 2.8-1.9-1.9zm2.6 2.6l2.8-2.8 2.3 2.3-3.2 2.4-1.9-1.9zm4.7 4.7l-2.1-2.1 3.2-2.4 2.4 2.4-3.5 2.1zm1.9-5.1l2.3-1.8 5.1 1.3-4.9 3-2.5-2.5zM2 20.1C-.7 22.8-.7 27.3 2 30c1.4 1.4 3.2 2 4.9 2 1.8 0 3.6-.7 5-2l1.4-1.4-9.9-9.9L2 20.1zm8.5 8.4C9.6 29.5 8.3 30 7 30c-1.3 0-2.6-.5-3.5-1.5-1.9-2-2-5.1 0-7.1l7 7.1z"/></symbol><symbol viewBox="0 0 32 32" id="gel-icon-baseball"><path d="M27.2 4.6l-.7-.7C23.7 1.5 20 0 16 0S8.3 1.5 5.5 4c-.3.2-.5.4-.8.6C1.8 7.5 0 11.6 0 16c0 8.8 7.2 16 16 16s16-7.2 16-16c0-4.5-1.8-8.5-4.8-11.4zM1.5 16c0-4 1.7-7.7 4.3-10.3.7.7 1.2 1.4 1.8 2.2l-1.2.6.6 1.3 1.3-.6c.5.9.9 1.9 1.1 2.9.1.2.1.4.1.6l-1.3.1.1 1.5 1.5-.1c.2 1.3.2 2.5 0 3.7l-1.3-.4-.4 1.5 1.4.4c-.3 1.2-.7 2.4-1.3 3.5l-1.1-.8-.9 1.2 1.2.8c-.5.8-1.1 1.5-1.7 2.1C3.2 23.7 1.5 20 1.5 16zM16 30.5c-3.6 0-6.9-1.3-9.4-3.5.7-.7 1.3-1.4 1.8-2.2l1.2.9.9-1.2-1.3-.9c.6-1.2 1.1-2.5 1.4-3.8l1.4.2.4-1.4-1.6-.4c.2-1.3.2-2.7 0-4.1l1.5-.1-.1-1.5-1.6.1c-.1-.3-.1-.5-.2-.8-.3-1.1-.7-2.1-1.2-3.1l1.4-.6-.6-1.3-1.5.7C7.9 6.6 7.3 5.8 6.6 5c2.5-2.2 5.8-3.5 9.4-3.5 3.6 0 6.9 1.3 9.4 3.5-.7.8-1.4 1.6-2 2.5L22 6.8l-.6 1.4 1.4.6c-.5 1-.9 2-1.2 3.1-.1.3-.1.5-.2.8l-1.6-.1-.2 1.4 1.5.1c-.2 1.4-.2 2.7 0 4.1l-1.6.4.4 1.4 1.5-.4c.3 1.3.8 2.6 1.4 3.8l-1.3.9.9 1.2 1.2-.9c.5.8 1.1 1.6 1.8 2.3-2.5 2.3-5.8 3.6-9.4 3.6zm10.2-4.2c-.6-.7-1.2-1.4-1.7-2.2l1.2-.8-.9-1.2-1.1.8c-.6-1.1-1-2.3-1.3-3.5l1.4-.4-.4-1.4-1.3.4c-.2-1.2-.2-2.5 0-3.7l1.5.1.1-1.5-1.3-.1c0-.2.1-.4.1-.6.3-1 .7-2 1.1-2.9l1.4.5.6-1.4-1.2-.6c.5-.8 1.1-1.6 1.8-2.2 2.7 2.6 4.4 6.3 4.4 10.3-.1 4.1-1.8 7.8-4.4 10.4z"/></symbol><symbol viewBox="0 0 32 32" id="gel-icon-basketball"><path d="M7.2 14.1c-1.9-1.5-4.6-1.6-6.6 0l-.6.5c-.3 3.2.4 6.4 2 9.2 1.2-3.5 3-6.8 5.2-9.7zM12.4.4C9.8 1 7.3 2.3 5.2 4.2L11 9.9c.6-.6 1.3-1.2 1.9-1.7-1.8-2.2-2-5.4-.5-7.8z"/><path d="M14.1.7c-1.6 1.9-1.6 4.6 0 6.6 3-2.2 6.2-4 9.7-5.2C21 .5 17.7-.1 14.6.1l-.5.6zM8.2 12.9c.5-.7 1.1-1.3 1.7-1.9L4.2 5.2C2.3 7.3 1 9.8.4 12.4c2.4-1.5 5.5-1.3 7.8.5zm6.9-4.6c.5.3 1 .6 1.6.8l15 4c-.6-3.1-2-6-4.4-8.4-.6-.6-1.3-1.1-1.9-1.6-3.7 1.1-7.2 2.9-10.3 5.2zm1.3 2.2c-.9-.2-1.7-.7-2.4-1.2-.7.5-1.3 1.1-1.9 1.7l15.8 15.8C31 23.4 32.4 19 32 14.7l-15.6-4.2zM11 12c-.6.6-1.2 1.3-1.7 1.9.6.7 1 1.6 1.2 2.4l4.2 15.6c4.3.4 8.7-1 12.1-4.1L11 12zm-2 4.8c-.2-.6-.4-1.1-.8-1.6-2.2 3.1-4 6.5-5.1 10.2.5.7 1 1.3 1.6 1.9 2.4 2.4 5.3 3.8 8.4 4.4L9 16.8z"/></symbol><symbol viewBox="0 0 32 32" id="gel-icon-bowls"><path d="M5.4 15.8c1.7-4.1 5.5-7.1 10.1-7.5C15.2 4.4 12 1.2 8 1.2 3.9 1.2.5 4.6.5 8.7c0 3.3 2 6 4.9 7.1zm26.1-6.1c0-3-2.5-5.5-5.5-5.5-2.8 0-5.1 2.1-5.4 4.7l1.5.6c.1-2.1 1.8-3.9 4-3.9s4 1.8 4 4c0 2-1.5 3.7-3.5 3.9.3.4.5.9.8 1.4 2.3-.4 4.1-2.6 4.1-5.2z"/><circle cx="14" cy="20.8" r="2.5"/><path d="M16.5 9.8C10.7 9.8 6 14.5 6 20.2s4.7 10.5 10.5 10.5C22.3 30.8 27 26 27 20.2S22.3 9.8 16.5 9.8zM14 24.2c-1.9 0-3.5-1.6-3.5-3.5s1.6-3.5 3.5-3.5 3.5 1.6 3.5 3.5c0 2-1.6 3.5-3.5 3.5z"/></symbol><symbol viewBox="0 0 32 32" id="gel-icon-boxing"><path d="M17.2 15.9l-3.8-1.3-.1.1-.8 2.5v.2l2.9 1-.3.9-1.6-.5c.1 1.1.8 2.2 2 2.5.3.1.6.2.9.2 1.2 0 2.3-.8 2.7-2 .5-1.5-.4-3.1-1.9-3.6zM0 31h6l1.1-1.8-4.4-6.9M31.9 5.4c-.3-1.3-1.5-2.1-2.8-2.1-.2 0-.5 0-.7.1l-3.9 1.1.8 2.8 3-.8.3 1-1.6.4c.4.7 1.2 1.1 2.1 1.1.2 0 .5 0 .7-.1 1.6-.4 2.5-2 2.1-3.5zm-17.2-.6l1.8-2.1c-.6-1-1.7-1.6-3-1.6C11.6 1 10 2.6 10 4.5c0 .4.1.8.2 1.2l4.5-.9z"/><path d="M6 8l-2 3-1 9 7 11h7l-6-10v-4l1-3 3-4 8.8-2.2-.9-3.1"/></symbol><symbol viewBox="0 0 32 32" id="gel-icon-boxing-alt"><path d="M14 25.98L12.02 24 14 22.02 15.98 24z"/><path d="M28 9h-3v5l-2 2V4l-4-4H7L3 4v12l3 7v9h16v-6l7-7v-9l-1-1zM17 19l-2 2 2 2v2l-2 2 2 2v1h-1l-2-2-2 2h-1v-1l2-2-2-2v-2l2-2-2-2v-1h1l2 2 2-2h1v1zm5-10l-3 2H7L4 9V5l3 4h12l3-4v4z"/></symbol><symbol viewBox="0 0 32 32" id="gel-icon-bronze-medal"><g fill="#C19555"><circle cx="16" cy="21" r="6"/><path d="M16 0H4l6 6m8-6l-7 7 5 5L28 0"/></g></symbol><symbol viewBox="0 0 32 32" id="gel-icon-canoeing"><path d="M19 13c-1.7 0-3 1.3-3 3 0 .3 0 .6.1.8l1.8 1.5 4-3.2c-.4-1.2-1.6-2.1-2.9-2.1z"/><path d="M22.6 11.1h-.2l2.2 8.1L20 22l-1.8-1.5-1.9 2.3L20 25l5.1-3.9.5 1.8-1.4 2.4.7 2.6.1-.1 3 1 2.1-.7L29 24l-2.4-1.4-3.2-11.8"/><path d="M7 27.8l3 1 3-1 3 1s3.1-1 3-1c-1.7-1.4-3.8-2.3-6-2.6v-.7l2-2.5 2-2.5-3-2.5v-2l2-3 6.1-2.3.9-.4-.6-2.1 1.4-2.4L22.5 0l-4.8 1.3L19 6.1l2.5 1.4.1.5-7.6 2L2.2 28.2l1.8.6 3-1zm24 2.1l-3 1-3-1-3 1-3-1-3 1-3-1-3 1-3-1-3 1-3-1-1 .4v1l1-.3 3 1 3-1 3 1 3-1 3 1 3-1 3 1 3-1 3 1 3-1 1 .3v-1"/></symbol><symbol viewBox="0 0 32 32" id="gel-icon-champagne-moment"><path d="M3 23.1l-.7.7.7-.7-.7.7c-.4.4-.5.8-.1 1.2l4.4 4.4c.4.4.9.4 1.3 0l.1-.1.6-.6L3 23.1zm16.8-12.6l-2.4 2.4s-1.2 1.2-2.7 2c-1.5.8-4.3 2-5.5 2.7-1.2.7-2 1.4-2.7 1.9l5.5 5.6.1-.1c.5-.7 1.2-1.5 1.9-2.7.7-1.2 2-3.9 2.8-5.3.8-1.5 2-2.6 2-2.6l2.5-2.4-1.5-1.5z" fill="#4E7A22"/><path fill="#FFF" d="M14.8 21.4c-.2-.1-2.2-.7-3-1.5-.8-.8-1.4-2.8-1.5-3l.9-.3c.2.5.7 2 1.3 2.6.5.5 2 1.1 2.6 1.3l-.3.9z"/><path fill="#CCC" d="M25.566 5.908l.707.707-3.606 3.606-.707-.705zM26.1 14.9c-.6 0-1.2-.2-1.6-.7-.8-.8-.8-2 0-2.7l.7.7c-.2.2-.3.4-.3.7 0 .2.1.5.3.7.5.5 1.3.5 1.8 0 .7-.7.7-1.8 0-2.4-.9-.9-2.7-1-3.6-.1l-.7-.7c.6-.6 1.5-.9 2.5-.9s1.9.4 2.5 1c1.1 1.1 1.1 2.8 0 3.9-.4.3-1 .5-1.6.5zm-4.2-5.5l-.7-.7c.8-.9.8-2.6-.1-3.5-.7-.7-1.8-.7-2.4 0-.5.5-.5 1.3 0 1.8l-.7.7c-.9-.9-.9-2.3 0-3.2 1.1-1.1 2.8-1.1 3.9 0 .6.6 1 1.5 1 2.5-.1.9-.4 1.8-1 2.4z"/><path d="M8.6 28.7L3 23.1l3.5-3.5 5.5 5.6"/><path fill="#C7B299" d="M28 6.8l1-1.5c.2.1.5.1.7-.1l.2-.2c.3-.3.3-.7 0-1l-1-1c-.3-.3-.7-.2-.9 0l-.2.2c-.2.2-.2.5-.1.7l-1.5.9 1.8 2z"/></symbol><symbol viewBox="0 0 32 32" id="gel-icon-checkered-flag"><path d="M0 3h17v1H0zm0 21h17v1H0zm17-3h15v1H17zM15 0h17v1H15zM1 4h4v4H1z"/><path fill="#FFF" d="M5 4h4v4H5zM1 8h4v4H1z"/><path d="M9 4h4v4H9zM5 8h4v4H5z"/><path fill="#FFF" d="M9 8h4v4H9z"/><path d="M13 8h4v4h-4z"/><path fill="#FFF" d="M13 4h4v4h-4z"/><path d="M1 12h4v4H1z"/><path fill="#FFF" d="M5 12h4v4H5zm-4 4h4v4H1z"/><path d="M9 12h4v4H9zm-4 4h4v4H5z"/><path fill="#FFF" d="M9 16h4v4H9z"/><path d="M13 16h4v4h-4z"/><path fill="#FFF" d="M13 12h4v4h-4z"/><path d="M1 20h4v4H1zM27 1h4v4h-4z"/><path fill="#FFF" d="M27 5h4v4h-4z"/><path d="M27 9h4v4h-4zm-4-4h4v4h-4zm0 8h4v4h-4z"/><path fill="#FFF" d="M27 13h4v4h-4z"/><path d="M27 17h4v4h-4zM19 1h4v4h-4z"/><path fill="#FFF" d="M19 5h4v4h-4z"/><path d="M19 9h4v4h-4z"/><path fill="#FFF" d="M19 13h4v4h-4z"/><path d="M19 17h4v4h-4z"/><path fill="#FFF" d="M5 20h4v4H5z"/><path d="M9 20h4v4H9z"/><path fill="#FFF" d="M13 20h4v4h-4zM23 1h4v4h-4zm0 8h4v4h-4zm0 8h4v4h-4z"/><path d="M18 5h1v4h-1z"/><path fill="#FFF" d="M18 1h1v4h-1z"/><path fill="#FFF" d="M15 1h4v2h-4z"/><path d="M18 13h1v4h-1z"/><path fill="#FFF" d="M17 9h2v4h-2zm1 8h1v4h-1z"/><path d="M0 3h1v27H0zm17 0h1v21h-1zm15 18h-1V0h1"/><path fill="#1C1C1C" d="M18 3l-3-3v3"/><path d="M17 25v-1h1"/></symbol><symbol viewBox="0 0 32 32" id="gel-icon-close-of-play"><path fill="#4E7A22" d="M0 28h32v4H0z"/><path d="M30 22v-3H19v.7L15.9 16H13l-2.9 2.9.2 2.3.4 3.2-2.9-6.7-1.1 1.1 1.9 7.3 2.4.7V32h8.9l-1-5.9.9-4.1m-5-7.8c-1 .2-2 0-2.7-.5l1.1-6.3h.1c1.9-.4 3.8.7 4.2 2.6.3 1.9-.9 3.8-2.7 4.2zM9 15.7c0-.5-.3-1-.8-1.1-.1-.3-.3-.6-.6-.9-1-1-2.6-1-3.6 0s-1 2.6 0 3.6h.1c-.9 1.2-1.4 2.3-1 2.7.5.5 2.1-.3 3.6-1.8.3-.2.5-.4.6-.6l.3-.3c.2-.1.3-.3.4-.4.6-.1 1-.6 1-1.2z"/></symbol><symbol viewBox="0 0 32 32" id="gel-icon-cricket"><path d="M3.3 21.7l1.4 1.4L2.8 25c.4.6.8 1.1 1.3 1.6L26.6 4c-.5-.5-1-.9-1.6-1.3l-1.9 1.9-1.4-1.4 1.6-1.6c-6-3-13.5-2.1-18.5 3-5 5-6 12.5-3 18.6l1.5-1.5zm17-17l1.4 1.4-2.8 2.8-1.4-1.4 2.8-2.8zM16 8.9l1.4 1.4-2.8 2.8-1.4-1.4L16 8.9zm-4.2 4.3l1.4 1.4-2.8 2.8L8.9 16l2.9-2.8zm-4.3 4.2l1.4 1.4-2.8 2.8-1.4-1.4 2.8-2.8zm22.8-8.6l-1.6 1.6L27.3 9l1.9-2c-.4-.6-.8-1.1-1.3-1.6L5.4 28c.5.5 1 .9 1.6 1.3l1.9-1.9 1.4 1.4-1.6 1.6c6 3 13.5 2.1 18.5-3 5.1-5.1 6.1-12.6 3.1-18.6zM11.7 27.3l-1.4-1.4 2.8-2.8 1.4 1.4-2.8 2.8zm4.3-4.2l-1.4-1.4 2.8-2.8 1.4 1.4-2.8 2.8zm4.2-4.3l-1.4-1.4 2.8-2.8L23 16l-2.8 2.8zm4.3-4.2l-1.4-1.4 2.8-2.8 1.4 1.4-2.8 2.8z"/></symbol><symbol viewBox="0 0 32 32" id="gel-icon-cycling"><path d="M17 13.2l-.5.1v2.8l-.1.2-1.1 4.1L20 15m9.9-6.8c.1-.2.1-.5.1-.7C30 6.1 28.9 5 27.5 5S25 6.1 25 7.5c0 .7.3 1.3.7 1.8l4.2-1.1z"/><path d="M23 14h6v-1l-5-1-1-4-2-2-9 2-2 3 1.6 5.7-.3 1.6c-1-1.9-3-3.3-5.3-3.3-3.3 0-6 2.7-6 6s2.7 6 6 6c1.5 0 2.9-.6 4-1.5l3-2.5 2-7.1V12l6-1 2 3zM6 25.5c-2.5 0-4.5-2-4.5-4.5s2-4.5 4.5-4.5 4.5 2 4.5 4.5-2 4.5-4.5 4.5z"/><path d="M26 15c-3.3 0-6 2.7-6 6s2.7 6 6 6 6-2.7 6-6-2.7-6-6-6zm0 10.5c-2.5 0-4.5-2-4.5-4.5s2-4.5 4.5-4.5 4.5 2 4.5 4.5-2 4.5-4.5 4.5z"/></symbol><symbol viewBox="0 0 32 32" id="gel-icon-darts"><path d="M20.2 15H27l5-5-3.8-3.8M0 31.3v.7h.7l5-4.9-.8-.8M32 1l-1-1-4.5 4.5L22 0l-5 5v8l-7.5 6.8 2.6 2.6L26.9 6M6 23l-1 2 2 2 2-1 .1-.1 2.5-2.5-3-3"/></symbol><symbol viewBox="0 0 32 32" id="gel-icon-disability-sports"><path d="M27.5 16.9c-1.4 0-2.7.7-3.5 1.7l-4.7-3-.5.8 2.3 1.4h-8.2c0-.2-.1-.3-.1-.5L11.5 19v.4c0 2.8-2.2 5-5 5s-5-2.2-5-5 2.2-5 5-5c1 0 2 .3 2.8.9L7 19.9l1 1 4-5 4-2v-4l-2-1-10 4.5c-2.3 1-4 3.3-4 6 0 3.6 2.9 6.5 6.5 6.5 3.4 0 6.2-2.7 6.5-6h11.2l3.4 2.1.5-.8-3.3-2.1c.6-.8 1.6-1.2 2.7-1.2 1.9 0 3.5 1.6 3.5 3.5s-1.6 3.5-3.5 3.5-3.5-1.6-3.5-3.5v-.5h-1v.5c0 2.5 2 4.5 4.5 4.5s4.5-2 4.5-4.5-2-4.5-4.5-4.5z"/><path d="M19.8 12.4l3.7-3.7c-.1-.4-.4-.7-.6-1-1.1-1.1-2.9-1.1-4 0s-1.1 2.9 0 4c.2.4.5.6.9.7z"/></symbol><symbol viewBox="0 0 32 31.9" id="gel-icon-diving"><path d="M31 29.8l-3 1-3-1-3 1-3-1-3 1-3-1-3 1-3-1-3 1-3-1-1 .3v1.1l1-.3 3 1 3-1 3 1 3-1 3 1 3-1 3 1 3-1 3 1 3-1 1 .3v-1.1M25 23l1.4-9.3-3.9.5.5 9.8m5-12v-1h-1.2L28 3l-3-3h-4L10 9v3l1.4 2.1L28 12zm-9-2l3-4 .3 5H17l2-1zm-7.6 7.8c.1-.2.1-.5.1-.7 0-.3-.1-.6-.2-.9-.1-.2-.1-.3-.2-.5 0-.1-.1-.2-.1-.2-.3-.5-.8-.8-1.3-1.1-.4-.3-.8-.4-1.2-.4-1.7 0-3 1.4-3 3 0 .8.3 1.5.8 2l5.1-1.2z"/></symbol><symbol viewBox="0 0 32 32" id="gel-icon-drinks-break"><path opacity=".2" fill="#0087FF" d="M4 9.4L5.6 7h2.7L10 9.4v.6H4m6 17H4v-8l.8-2h-.7c-.1 0-.1-.1-.1-.1V16h6v.9c0 .1 0 .1-.1.1h-.8l.9 1.9V27c.1 0 0 0 0 0z"/><path d="M11 16.9V9.1L8.8 6H5L3 9.1v7.8c0 .4.2.7.4.9l-.4.8V27c0 .6.4 1 1 1h6c.6 0 1-.4 1-1v-8.1l-.4-1.1c.2-.2.4-.6.4-.9zM4 9.4L5.6 7h2.7L10 9.4v.6H4v-.6zM10 27H4v-8l.8-2h-.7c-.1 0-.1-.1-.1-.1V16h6v.9c0 .1 0 .1-.1.1h-.8l.9 1.9V27c.1 0 0 0 0 0z"/><path opacity=".2" fill="#0087FF" d="M14.9 18l.6 9h7l.6-9"/><path d="M23.4 28h-8.8l-1-14h1l.9 13h7l.9-13h1"/><path d="M16.5 26.2l-.9-.5 7.1-14.5 6.1-1.1.2 1-5.7 1M9 5.4c0 .3-.3.6-.6.6H5.6c-.3 0-.6-.3-.6-.6v-.8c0-.3.3-.6.6-.6h2.7c.4 0 .7.3.7.6v.8z"/></symbol><symbol viewBox="0 0 32 32" id="gel-icon-drivers"><path d="M31.9 18c.1-.7.1-1.3.1-2 0-8.8-7.2-16-16-16S0 7.2 0 16c0 .7.1 1.3.1 2H9l5 5v4.8C9.7 27.1 6.1 24 4.7 20H.5c1.8 6.9 8 12 15.5 12s13.7-5.1 15.5-12h-4.2c-1.4 4-5 7.1-9.3 7.8V23l5-5h8.9zM8 15H3C3.6 8.3 9.2 3 16 3s12.4 5.3 13 12v1-1h-5l-4-4h-8l-4 4zm8 4c-1.7 0-3-1.3-3-3s1.3-3 3-3 3 1.3 3 3-1.3 3-3 3z"/><circle cx="16" cy="16" r="2"/></symbol><symbol viewBox="0 0 32 32" id="gel-icon-drop-catch"><path d="M11.9 26.9l.4.4-.5.5c.1.2.2.3.4.5l6.3-6.3c-.1-.1-.3-.2-.5-.4l-.5.5-.4-.4.4-.4c-1.7-.9-3.8-.6-5.2.8-1.4 1.4-1.7 3.5-.8 5.2l.4-.4zm4.8-4.8l.4.4-.8.8-.4-.4.8-.8zm-1.2 1.2l.4.4-.8.8-.4-.4.8-.8zm-1.2 1.2l.4.4-.8.8-.4-.4.8-.8zm-1.2 1.2l.4.4-.8.8-.4-.4.8-.8zm6.4-2.4l-.4.4-.4-.4.5-.5c-.1-.2-.2-.3-.4-.5l-6.3 6.3c.1.1.3.2.5.4l.5-.5.4.4-.4.4c1.7.9 3.8.6 5.2-.8 1.4-1.4 1.7-3.5.8-5.2zm-5.2 5.2l-.4-.4.8-.8.4.4-.8.8zm1.2-1.2l-.4-.4.8-.8.4.4-.8.8zm1.2-1.2l-.4-.4.8-.8.4.4-.8.8zm1.2-1.2l-.4-.4.8-.8.4.4-.8.8z" fill="#C1272D"/><path fill="#1C1C1C" d="M13 15.8h.9v4H13zm3 3.4h-1v-4.6h1m1 1.2h1v4h-1z"/><path fill="#4E7A22" d="M20.4 28c-.9 2-2.8 3-4.9 3s-4-1-4.9-3H0v4h32v-4H20.4z"/><path d="M14 6.7L6 5.3l-3.3 6 .5.7L6 10.4l-.7 3.4L6.8 17h3.9l3.3-6.5M7.3 4L14 5.3l.7-4.3-6.8-1m8.8 6.7l8-1.4 3.3 6-.5.7-2.8-1.6.6 3.4-1.4 3.2H20l-3.3-6.5M23.3 4l-6.6 1.3L16 1l6.8-1"/></symbol><symbol viewBox="0 0 32 32" id="gel-icon-equestrian"><path d="M6.6 23.1L0 20.6V32h7.6M6.7 5.2c.2 0 .4.1.6.1h.1l2.2-3.7C9.3.6 8.4 0 7.4 0 5.9 0 4.7 1.2 4.7 2.6c0 .8.4 1.6 1 2 .3.3.7.5 1 .6zM29 23h3v-1.5h-3.7"/><path d="M30 9h-3s-10 0-13.7 7.7L8 14V8L7 7 3 5 1 8l1 6-2 5 8 3 1 9 2 1h8l2-5 .9-6.4-16-2.9.1-.7.1-.5L27 20h5V7l-2 2zm-2.9 10l-4.4-.7L24 15c.2 1.5 1.3 2.7 2.8 2.9l.5 1.1h-.2zm2.9-4h-1v-2l1 1v1z"/></symbol><symbol viewBox="0 0 32 32" id="gel-icon-fencing"><path d="M25.422 31.95l-2.398-4.158 2.6-1.5 2.397 4.16zM19.9 21c-2.4 1.8-3.1 5.1-1.6 7.8l10.4-6c-1.5-2.6-4.8-3.7-7.5-2.5l-3.8-6.5-.9 1.5 3.4 5.7z"/><path d="M22.5 3V0L16 11.3 9.5 0v3l5.7 9.8-4.3 7.5c-2.8-1.2-6-.1-7.5 2.5l10.4 6c1.5-2.6.8-6-1.6-7.8L22.5 3zM4 30.5L6.6 32 9 27.8l-2.6-1.5"/></symbol><symbol viewBox="0 0 32 32" id="gel-icon-fixtures"><path d="M24 13h4v4h-4zM22 0h2v5h-2zM8 0h2v5H8zm11 13h4v4h-4zm-5 0h4v4h-4zm-5 0h4v4H9zm15 5h4v4h-4zm-5 0h4v4h-4zm-5 0h4v4h-4zm-5 0h4v4H9zm-5 0h4v4H4zm15 5h4v4h-4zm-5 0h4v4h-4zm-5 0h4v4H9zm-5 0h4v4H4z"/><path d="M25 2v4h-4V2H11v4H7V2H0v7h32V2m-2 28H2V11H0v21h32V11h-2"/></symbol><symbol viewBox="0 0 32 32" id="gel-icon-fixtures-results"><path d="M2.4 10h-2v17h12v-2h-10m23-15h2v4h-2zm-1-2h3V2h-5v4h-4V2h-9v4h-4V2h-5v6h2"/><path d="M21.4 2V0h-2v5h2m-13-3V0h-2v5h2m11 9.2l-.4-1.5c-2.5.7-4.7 2.3-6 4.5l1.4.8c1-1.8 2.8-3.2 5-3.8M10 15.8l1.4.8c1.6-2.5 4-4.5 7-5.3L18 9.8c-3.4.9-6.2 3.1-8 6M21.4 20h2v5h-2z"/><path d="M29.6 20l2.1-2.1-3.2-3.2-2 2.1.9.9c-.8-.7-1.8-1.1-2.9-1.4V16c0-1.1-.9-2-2-2s-2 .9-2 2v.3c-3.5.9-6 4-6 7.7 0 4.4 3.6 8 8 8s8-3.6 8-8c0-1.8-.6-3.5-1.7-4.9l.8.9zm-7.2 10c-3.3 0-6-2.7-6-6s2.7-6 6-6 6 2.7 6 6-2.7 6-6 6"/></symbol><symbol viewBox="0 0 32 32" id="gel-icon-football"><path d="M10.8 14.4l2 6h6.3l2-6-5.1-3.7"/><path d="M16 0C7.2 0 0 7.2 0 16s7.2 16 16 16 16-7.2 16-16S24.8 0 16 0zm11.3 25l-.3-2.3-5.3 1.1-2.7 4.7 2.1 1c-1.6.6-3.3 1-5.1 1-1.8 0-3.5-.3-5.1-.9l2.1-1-2.7-4.7L5 22.7l-.3 2.4c-2-2.5-3.2-5.6-3.2-9.1v-.6l1.6 1.7 3.7-4-.6-5.5-2.3.5C5.8 5.2 8.7 3 12.1 2L11 4.1l5 2.2 5-2.2L19.8 2c3.4.9 6.4 3.1 8.3 6l-2.3-.4-.6 5.4 3.7 4 1.6-1.7v.7c0 3.4-1.2 6.6-3.2 9z"/></symbol><symbol viewBox="0 0 32 32" id="gel-icon-formula-1"><path d="M14.3 8h3.4l.8 2H23V6H9v4h4.5"/><path d="M31 14h-4l-1 1v3l-3-1v-1l-1-2h2v-2h-2l-1 1v1h-2l-2-5h-2l-2 5h-2v-1l-1-1H8v2h2l-1 2v1l-3 1v-3l-1-1H1l-1 1v10l1 1h4l1-1v-2h4l1 1h10l1-1h4v2l1 1h4l1-1V15l-1-1zm-16-2h2l1 2h-4l1-2zm-9 7h3-3zm5 2H6v-1h6l-1 1zm6-1h-2l-2-3h6l-2 3zm9 1h-5l-1-1h6v1zm0-2h-3 3z"/></symbol><symbol viewBox="0 0 32 32" id="gel-icon-gaelic-games"><path d="M20.9 28.1l2.7-4.7-4-4.2-2.7 3.6M23 31l1 1h6l2-2v-4l-7-1-2.8 4.9M32 2l-2-2-14 15.2L2 0 0 2v2h3l10.4 14-5 5.4 2.7 4.7L29 4h3M7 25l-7 1v4l2 2h6l1-1 .8-1.1"/><path d="M19.5 1.5C18.5.5 17.2 0 16 0c-1.3 0-2.6.5-3.5 1.5-1.9 2-1.9 5.1 0 7.1 1 1 2.3 1.5 3.5 1.5s2.6-.5 3.5-1.5c2-2 2-5.2 0-7.1zm-5.4 5.4l.2.1c.5.5 1.2.8 1.9.8s1.4-.3 1.9-.8.8-1.2.8-1.9-.3-1.4-.8-1.9c-.1 0-.1-.1-.2-.1l-2.5-1.9c.2 0 .4-.1.5-.1 1 0 2 .4 2.7 1.1.9.8 1.3 1.8 1.3 2.8 0 1-.4 2-1.1 2.7-.8.8-1.8 1.2-2.8 1.2s-2-.4-2.8-1.1c-.9-.9-1.3-2.2-1.1-3.4l2 2.5zM17.3 4c.3.3.5.7.5 1.1 0 .4-.2.8-.5 1.1-.6.6-1.6.6-2.3 0l-.1-.1-2.3-3 .6-.9c.3-.3.6-.5.9-.7L17.3 4z"/></symbol><symbol viewBox="0 0 32 32.1" id="gel-icon-game-set-match"><path d="M3.9 8.1l-1.4-3 .3-.6 1.5 1.7.4-.1.4-.9.3.6.1 1.7m22.2 3.4l1.2-1.1-.8-.5-.4.1-.3-.2-.4-.6-.3.1-.4 1.7M9.5 32l-.7-5.7-1.9-5.8-2-6.4-.7-4.6 1.6-.7 4 10.3L13 21l3.1.3 5.2-4.2 4.6-5.9 1.4.5-3.7 7.3-4.6 5.2-.1 2.4-.6 5.4"/><path d="M13.6 18.6c1 .2 2 0 2.8-.5l-1.1-6.3h-.1c-1.9-.4-3.8.7-4.2 2.6-.5 1.9.7 3.8 2.6 4.2zm4-17.8c.7.1 1.4.4 2.1.8 2.1 1.2 3.2 3.3 2.4 4.6-.5.9-1.7 1.2-3.1 1-.7-.1-1.4-.4-2.1-.8-2.1-1.2-3.2-3.3-2.4-4.6.4-.9 1.6-1.3 3.1-1m.1-.7c-1.7-.3-3.2.2-3.8 1.3-.9 1.7.3 4.2 2.7 5.6.8.4 1.6.7 2.3.8 1.7.3 3.2-.2 3.8-1.3 1-1.7-.3-4.2-2.7-5.6-.8-.4-1.6-.7-2.3-.8z"/><path d="M19.8 7.9v-.7c2.1-.1 5.1.2 5.9.6l-.4.6c-.5-.3-3.3-.6-5.5-.5z"/><path d="M25.3 8.4c-.7-.4-2.5-2.9-3.5-4.8l.6-.3c1 2 2.7 4.2 3.2 4.5l-.3.6zm4.2 1.6l-.4.7L26 8.9l.4-.7"/><path d="M25.7 7.9l-.3.6-.7-.4.4-.6"/></symbol><symbol viewBox="0 0 32 32" id="gel-icon-generic-events"><path d="M0 21h5v2H0v2h5v2H0v3h9v-5h6v5h2v-5h6v5h9v-3h-5v-2h5v-2h-5v-2h5v-2H0m2-6l-2 2v2h32v-2l-2-2M5 2h1v10H5zm19 0h1v10h-1zM11 4l2-2H7v4h6m19-4h-6v4h6l-2-2"/></symbol><symbol viewBox="0 0 32 32" id="gel-icon-generic-goal"><path fill="#FFF" d="M16 27.3c-5.7 0-10.3-4.6-10.3-10.3S10.3 6.7 16 6.7 26.3 11.3 26.3 17 21.7 27.3 16 27.3z"/><path d="M16 7.4c5.3 0 9.6 4.3 9.6 9.6s-4.3 9.6-9.6 9.6-9.6-4.3-9.6-9.6 4.3-9.6 9.6-9.6M16 6C9.9 6 5 10.9 5 17s4.9 11 11 11 11-4.9 11-11S22.1 6 16 6z"/><path d="M0 0v16h2v-4h3c.5-.9 1.3-2.6 2-3.3V7h2c.8-.5 2-1.3 3-1.6V2h3v3h2V2h3v3.3c.9.3 2.2 1.1 3 1.6h2v1.7c.7.8 1.5 2.3 2 3.3h3v4h2V0H0zm5 10H2V7h3v3zm0-5H2V2h3v3zm5 0H7V2h3v3zm15 0h-3V2h3v3zm5 5h-3V7h3v3zm0-5h-3V2h3v3zM16 24.6c-4.2 0-7.6-3.4-7.6-7.6h.7c0 3.8 3.1 6.9 6.9 6.9v.7z"/></symbol><symbol viewBox="0 0 32 32" id="gel-icon-generic-sport"><path d="M29.5 0h-1L26 5h-7l-2.5-5h-1L13 5H6L3.5 0h-1L0 5v14h4v-3h3v3h2v-3h6v3h2v-3h6v3h2v-3h3v3h4V5l-2.5-5zM16 1.2L17.9 5h-3.8L16 1.2zm-13 0L4.9 5H1.1L3 1.2zM11 9H2V7h10l-1 2zm1.1 0l1-2h5.8l1 2h-7.8zM30 9h-9l-1-2h10v2zm-2.9-4L29 1.2 30.9 5h-3.8z"/></symbol><symbol viewBox="0 0 32 32" id="gel-icon-goal"><path d="M0 0v16h2v-4h3c.5-.9 1.3-2.6 2-3.3V7h2c.8-.5 2-1.3 3-1.6V2h3v3h2V2h3v3.3c.9.3 2.2 1.1 3 1.6h2v1.7c.7.8 1.5 2.3 2 3.3h3v4h2V0H0zm5 10H2V7h3v3zm0-5H2V2h3v3zm5 0H7V2h3v3zm15 0h-3V2h3v3zm5 5h-3V7h3v3zm0-5h-3V2h3v3z"/><circle fill="#FFF" cx="16" cy="16.7" r="10"/><path d="M12.6 15.6l1.3 4h4.2l1.3-4-3.4-2.5"/><path d="M16 6C9.9 6 5 10.9 5 17s4.9 11 11 11 11-4.9 11-11S22.1 6 16 6zm7.8 17.2l-.2-1.6-3.7.8-1.9 3.2 1.5.7c-1.1.4-2.3.7-3.5.7-1.2 0-2.4-.2-3.5-.6l1.5-.7-1.9-3.2-3.7-.8-.2 1.6C6.9 21.5 6 19.4 6 17v-.4l1.1 1.2L9.7 15l-.4-3.7-1.6.3c1.3-2 3.3-3.5 5.7-4.1l-.8 1.4 3.4 1.5 3.4-1.5-.8-1.4c2.4.5 4.4 2 5.7 4l-1.6-.3-.4 3.7 2.5 2.8 1.1-1.2v.5c.1 2.3-.8 4.5-2.1 6.2z"/></symbol><symbol viewBox="0 0 32 32" id="gel-icon-goal-medal"><g fill="#FFD324"><circle cx="16" cy="21" r="6"/><path d="M16 0H4l6 6m8-6l-7 7 5 5L28 0"/></g></symbol><symbol viewBox="0 0 32 32" id="gel-icon-golf"><path d="M16 0C10.2 0 5.5 4.7 5.5 10.5S10.2 21 16 21s10.5-4.7 10.5-10.5S21.8 0 16 0zm0 19.5c-5 0-9-4-9-9s4-9 9-9 9 4 9 9-4 9-9 9zM12.5 24l2 2v6h1l2-2v-4l2-2v-1h-7"/></symbol><symbol viewBox="0 0 32 32" id="gel-icon-gossip"><path d="M0 24v6l6-6h12V10H0v14zm10.1-1.9H7.5v-2.6h2.6v2.6zm-1-10.2c1.8 0 3.5.9 3.5 2.9 0 1.4-.7 1.8-1.7 2.5-.7.5-.9.7-.9 1.5H7.7v-.7c0-1.1.6-1.6 1.1-1.9.6-.4 1.1-.7 1.1-1.4 0-.5-.4-.9-.9-.9-.8 0-1.2.5-1.2 1.2v.3H5.4c0-2.2 1.5-3.5 3.7-3.5z"/><path d="M14 2v6h6v8h6l6 6V2H14zm9.1 2h2.5v2.5l-.6 4.2h-1.2l-.6-4.2V4zm2.5 10H23v-2.6h2.6V14z"/></symbol><symbol viewBox="0 0 32 32" id="gel-icon-gymnastics"><path d="M0 27v3l6 2h20l6-2v-3H21v-3h4v2h1v-2l-1-1h-4l-1 1v3H7v-3h4v2h1v-2l-1-1H7l-1 1v3M8 5.5C8 4.1 6.9 3 5.5 3 4.2 3 3.1 4 3 5.3L5.2 8h.7l2-2c.1-.2.1-.4.1-.5zM12 8l3.7-1 1.4-2L10 6l-5 5v2l2 4 1.4 5H10l-1-6-1-3 2 2 19 6.4 1-1.4-12-6 6-14h-2l-7 11"/></symbol><symbol viewBox="0 0 32 32" id="gel-icon-handball"><path d="M27 0c-1.9 0-3.5 1.6-3.5 3.5 0 .6.2 1.1.4 1.6L21.5 8l-5-2-4-1h-4l-4 1-3 4 1 1 4-3h2l1 1v9l10 14h2l-5-10-1-6-1-2 3-4 5 1 4-6-1.4-1.3-.5.6c-.1-.2-.1-.5-.1-.8C24.5 2.1 25.6 1 27 1s2.5 1.1 2.5 2.5c0 1.1-.8 2.1-1.8 2.4L27 7c1.9 0 3.5-1.6 3.5-3.5S28.9 0 27 0zM10.5 28h4.3l-5.2-7.3"/><path d="M12.9 3.5l1.2.3c.2-.4.4-.8.4-1.3C14.5 1.1 13.4 0 12 0c-.2 0-.3 0-.5.1l-.7 3.4h2.1z"/></symbol><symbol viewBox="0 0 32 32" id="gel-icon-headlines"><path d="M4 20h14v3H4zm0 5h14v3H4zM4 4h24v13H4z"/><path d="M0 0v32h21l11-11V0H0zm22 28v-6h6l-6 6zm8-8H20v10H2V2h28v18z"/></symbol><symbol viewBox="0 0 32 32" id="gel-icon-hockey"><path d="M11.6 23.9l5.3-1.1L13 18m9-12h.4v-.1L24.8 2C24.4.8 23.3 0 22 0c-1.7 0-3 1.3-3 3s1.3 3 3 3z"/><path d="M29.8 30.5c-.2 0-.4-.1-.4-.1L19.7 20 18 17l3-7V8l-4-2h-2l-8 6-1 2v7.5L0 24v2l4.6-.9L0 32h2l8-8 2-8 5-4-1.4 3.5L15 17l13.3 14.4c.4.4.9.6 1.5.6 1.2 0 2.1-.9 2.2-2h-1.5c-.2.3-.4.5-.7.5z"/><path d="M30 28c1.1 0 2-.9 2-2s-.9-2-2-2-2 .9-2 2 .9 2 2 2zm0-3c.6 0 1 .4 1 1s-.4 1-1 1-1-.4-1-1 .4-1 1-1z"/></symbol><symbol viewBox="0 0 32 32" id="gel-icon-horse-racing"><path d="M17 31.5l1-1-3-6-3.7-.6M0 12.1v4.6l3.5-3.3M32 11.5l-.9-1-2.3 2.4 1.2.6"/><path d="M18.6 14.2L8.5 4.5H5l-5 4v2l6.3 2.4L0 18.7v1.8l17.9 3h.1l7 5 1-1-6-6-5-2 3.6-5.3zM6 9.5l2-2 3 2-2 1-3-1zm24.1-.1L22 .5v3l-7.9 4.3 5.7 5.5c.9.8 2 1.2 3.2 1.2 1.1 0 2.3-.4 3.2-1.2l.5-.5 3.4-3.4zM26 6.5l.7.7-.7.7-1.4-1.4H26zm-.1 5.7l-.4.4c-1.5 1.2-3.8 1.1-5.2-.1l-.3-.4 1.5-2c.1.1.2.3.3.4 1 1 2.4 1.3 3.7.8l.9.4-.5.5zM12.2 6h.7l1.8-3.6c-.4-.8-1.2-1.3-2.2-1.3-1.4 0-2.5 1.1-2.5 2.5v.5L12.2 6z"/></symbol><symbol viewBox="0 0 32 32" id="gel-icon-ice-hockey"><path d="M6 16.5l-6 15h2l7.7-11.7 3 3L7 31.5h2l7.3-7.3-9.7-8.7m13.4-9h.2l2.5-4.3c-.5-1-1.5-1.7-2.7-1.7-1.7 0-3 1.3-3 3s1.3 3 3 3zm4.8 22L20 24.2V9.8l-2.6 4.7 1.1 8.4-.7-.6-3.8-4.8 5-9-7-4H5v7.6l19.6 17.7.4.8h7v-2h-7.2zm-17-15.2l-1.3-1.2.5-4.6h4l-3.2 5.8z"/></symbol><symbol viewBox="0 0 32 32" id="gel-icon-interval"><path d="M15.6 8.8c-5.2 0-9.3 4.2-9.3 9.3 0 5.2 4.2 9.3 9.3 9.3 5.2 0 9.3-4.2 9.3-9.3 0-5.1-4.2-9.3-9.3-9.3zm0 16.2c-3.8 0-6.8-3.1-6.8-6.8 0-3.8 3.1-6.8 6.8-6.8s6.8 3.1 6.8 6.8c0 3.7-3.1 6.8-6.8 6.8z"/><path d="M22.738 8.005l3.04 3.04-2.05 2.05-3.04-3.04zM17.7 6.7c0-1.2-1-2.2-2.2-2.2-1.2 0-2.2 1-2.2 2.2s1 2.2 2.2 2.2c1.3-.1 2.2-1.1 2.2-2.2zm-2.1 1.4c-.8 0-1.4-.6-1.4-1.4 0-.8.6-1.4 1.4-1.4s1.4.6 1.4 1.4c0 .7-.6 1.4-1.4 1.4z"/><path fill="#C1272D" d="M15.6 12.7c3 0 5.5 2.5 5.5 5.5s-2.5 5.5-5.5 5.5"/></symbol><symbol viewBox="0 0 32 32" id="gel-icon-its-sunny"><path fill="#3F7693" d="M0 0h32v32H0z"/><g fill="#F8D34C"><circle cx="16" cy="13.1" r="7.1"/><path d="M17.2 4.8h-2.4V0h2.4v4.8m-6.3 1.7L8.5 2.3l2-1.1 2.4 4.1-2 1.2m10.6 18.4l-2.4-4.1 2-1.2 2.4 4.2-2 1.1m5.2-4.3l-4.1-2.4 1.1-2 4.2 2.4-1.2 2m-19-6.4H2.9v-2.3h4.8v2.3m21.4 0h-4.8v-2.3h4.8v2.3M5.3 20.6l-1.2-2 4.2-2.4 1.1 2-4.1 2.4M23.7 9.9l-1.1-2 4.1-2.4 1.2 2-4.2 2.4m-2.6-3.4l-2-1.2 2.4-4.1 2 1.1-2.4 4.2M10.5 24.9l-2-1.1 2.4-4.2 2 1.2-2.4 4.1m6.7 1.2h-2.4v-4.8h2.4v4.8M8.3 9.9L4.1 7.5l1.2-2 4.1 2.4-1.1 2"/></g><path fill="#4E7A22" d="M0 28h32v4H0z"/><path d="M26 25.9V32h1.9v-7.1c0-.5-.4-.9-.9-.9s-.9.4-.9.9v.1H25v-.1c0-.5-.4-.9-.9-.9s-.9.4-.9.9v.1H22v-.1c0-.5-.4-.9-.9-.9s-.9.4-.9.9V32h1.9v-6.1h1.2V32H25v-6.1h1z"/></symbol><symbol viewBox="0 0 32 32" id="gel-icon-judo"><path d="M29 19l3-6-1-1-5 7v.4l4.5 4.9M13 12h7l8.4-5L27 6l-8 3-1.8-.6"/><path d="M8 14l5-4 6-5 5.4-3L23 1l-9 3-9 5-2 2v5l7 3 4 3v7l2 2h7l8-4-13-14h-2l8 12-2 1h-4l-2-5M2.5 17h-.1c-.3 0-.6.1-.8.2-.9.4-1.6 1.3-1.6 2.3 0 .9.5 1.7 1.2 2.1L5 19.2c0-.2-.1-.4-.2-.6-.1-.3-.3-.5-.4-.7-.5-.6-1.1-.9-1.9-.9z"/><path d="M13 25.5v-.1c0-.5-.2-1-.5-1.4-.1-.2-.2-.3-.4-.4l-4 1.3c-.1.1-.1.4-.1.6 0 1.4 1.1 2.5 2.5 2.5.8 0 1.5-.4 2-1 .3-.4.5-.9.5-1.4v-.1z"/></symbol><symbol viewBox="0 0 32 32" id="gel-icon-leagues-competitions"><path d="M9 29v3h14v-3m1-27V0H8v2H1v7l5 5h2v2l5 5 .6 3.4L11 27h10l-2.6-2.6.6-3.4 5-5v-2h2l5-5V2h-7zM8 12H6.8L3 8.2V4h5v8zm21-3.8L25.2 12H24V4h5v4.2z"/></symbol><symbol viewBox="0 0 56 32" id="gel-icon-live-scores"><path d="M0 0h56v32H0z"/><path d="M4 7.9h4.2v12.4h7.5v3.6H4v-16zm13 0h4.2v16H17v-16zm15.8 16H28l-5-16h4.3l3.1 11.9 3.1-11.9H38l-5.2 16zm6.2-16h12.7v3.3h-8.6V14H51v3.2h-7.8v3H52v3.6H39V7.9z" fill="#FFF"/></symbol><symbol viewBox="0 0 32 32" id="gel-icon-man-of-the-match"><path d="M3.9 8.2L2.5 5.1l.4-.5 1.4 1.6h.4l.4-1 .4.6v1.8M27.8 11L29 9.8l-.8-.5-.4.1-.4-.1-.4-.6-.2.1-.4 1.7"/><path fill="#4E7A22" d="M0 28h32v4H0z"/><path d="M9.5 32l-.7-5.7L7 20.6l-2.1-6.5-.6-4.6 1.6-.6 3.9 10.2 3.2 2 3.2.3 5.2-4.2 4.6-6 1.3.5-3.6 7.3-4.6 5.3-.2 2.4-.5 5.3"/><path d="M13.7 18.7c1 .2 2 0 2.8-.5l-1.1-6.4h-.1c-1.9-.4-3.8.8-4.2 2.7-.5 1.9.7 3.8 2.6 4.2z"/></symbol><symbol viewBox="0 0 32 31.9" id="gel-icon-man-of-the-series"><path d="M0 27.9h32v4H0zM0 20h32v4H0zm0-8h32v4H0zm0-8h32v4H0z" fill="#4E7A22"/><path d="M0 23.9h32v4H0zM0 16h32v4H0zm0-8h32v4H0zm0-8h32v4H0z" fill="#6C9148"/><path fill="#FFF" d="M27.8 10.9L29 9.7l-.8-.5-.4.1-.3-.1-.4-.6-.3.1-.4 1.7"/><g fill="#FFF"><path d="M3.9 8.1L2.6 5l.3-.5 1.5 1.6h.4l.3-1 .4.6v1.8m4.1 24.4l-.7-5.6L7 20.5 4.9 14l-.6-4.6 1.6-.6 4 10.2 3.2 1.9 3.1.4 5.2-4.2 4.6-6 1.3.5-3.6 7.3-4.6 5.2-.1 2.5-.6 5.3"/><path d="M13.7 18.6c1 .2 2 0 2.8-.5l-1.1-6.3h-.1c-1.9-.4-3.8.7-4.2 2.6-.5 1.8.7 3.7 2.6 4.2z"/></g></symbol><symbol viewBox="0 0 32 32" id="gel-icon-medal-table"><path d="M23 11l5-11h-9l-1.9 4.2 3.1 6.8M18 11L13 0H4l5 11m7.5 2C11.3 13 7 17.3 7 22.5s4.3 9.5 9.5 9.5 9.5-4.3 9.5-9.5-4.3-9.5-9.5-9.5m0 17C12.4 30 9 26.6 9 22.5s3.4-7.5 7.5-7.5 7.5 3.4 7.5 7.5-3.4 7.5-7.5 7.5"/></symbol><symbol viewBox="0 0 32.1 32" id="gel-icon-modern-pentathlon"><path d="M26.3 13.3l2.9 1.6 2.9-5-1-1-2 3-2.2-2.6M14.7 23.5l-7.4 1.8-.9 2 10-1.2 4.9-4.5-4.1-1.2"/><path d="M25.7 7.5l-.6-.5L21 5.1l-6.9 2.1-.9 6.3 1.4.2 1.1-5 3.4-.6 1.1 6-1.9 5 9 2.9-.9 9 2.1 1 1.8-12.1-6.1-2.9m1.3-12h.1l2.1-3.6C27.3.6 26.5 0 25.5 0 24.1 0 23 1.2 23 2.5 23 3.9 24.2 5 25.5 5z"/><circle cx="2" cy="2.4" r="2"/><circle cx="8" cy="2.3" r="2"/><circle cx="2.2" cy="12.4" r="2"/><circle cx="8.2" cy="12.3" r="2"/><circle cx="5.1" cy="7.3" r="2"/></symbol><symbol viewBox="0 0 32 32" id="gel-icon-moto-gp"><path d="M5.5 18c-1.5 0-2.7-.9-3.2-2.2v-.1c-.2-.3-.3-.8-.3-1.2 0-1.1.5-2 1.3-2.7.6-.5 1.4-.8 2.2-.8 1.5 0 2.8.9 3.3 2.3l2.2.6C10.6 11.1 8.3 9 5.5 9 2.5 9 0 11.5 0 14.5S2.5 20 5.5 20c2.1 0 3.8-1.1 4.8-2.8l-2.2-.4c-.6.7-1.6 1.2-2.6 1.2z"/><path d="M3.5 15l8 1.4 1-1.1L4 13m23.8-3.8L30 7l-1-3-3-3-3-1-3 3 7 3-10 4-3 2 2 2-5 5h9l1.5-2.2c.9 1.9 2.8 3.2 5 3.2.6 0 1.1-.1 1.7-.3C30.4 19 32 17 32 14.5c0-2.6-1.8-4.8-4.2-5.3zM26.5 18c-1.9 0-3.4-1.6-3.4-3.5v-.1L24 13l1.3-1.3.7 3.3h1l1-3 .4-.4c.9.6 1.6 1.7 1.6 2.9 0 1.9-1.6 3.5-3.5 3.5z"/><path d="M13 11l3.2-2.2 5.3-2.2L20 5h-6l-2 2-3-1-2-2H2L1 5l9 3"/></symbol><symbol viewBox="0 0 32 32" id="gel-icon-netball"><path d="M4 18h3v14H4zm4 0v3l2.5 9h1.4l-.8-3H15v3h1v-3h4v3h1v-3h3.9l-.8 3h1.4l2.5-9v-3H8zm7 8h-4.2l-.5-2H15v2zm0-3h-5v.1L9.4 21H15v2zm5 3h-4v-2h4v2zm0-3h-4v-2h4v2zm5.2 3H21v-2h4.7l-.5 2zm.8-2.9l-5-.1v-2h5.6l-.6 2.1zM18 16c4.4 0 8-3.6 8-8s-3.6-8-8-8-8 3.6-8 8 3.6 8 8 8zm2-1.8l-5.3-5.3 2.2-.6 4.9 4.9c-.5.5-1.2.8-1.8 1zM18 8zm6.5 0c0 1.8-.7 3.4-1.9 4.6l-1.3-1.3 1.9-7.2c.8 1.1 1.3 2.4 1.3 3.9zm-2.1-4.8l-1.9 7.2-1.6-1.6L20.7 2c.6.3 1.2.7 1.7 1.2zM18 1.5c.6 0 1.1.1 1.7.2l-.5 1.8-7.2 2c1-2.4 3.3-4 6-4zM11.5 8c0-.5.1-1 .2-1.4l7.2-1.9-.6 2.2-6.8 1.8V8zm2 1.2l5.2 5.3c-.3 0-.5.1-.8.1-3 0-5.5-2-6.3-4.8l1.9-.6z"/></symbol><symbol viewBox="0 0 32 32" id="gel-icon-new-ball"><path d="M4.3 9.9l.4.4-.6.6c.1.2.2.3.4.5l6.6-6.6c-.2-.1-.3-.3-.5-.4L10 5l-.3-.5.5-.5c-1.8-.8-4-.5-5.5.9-1.4 1.5-1.7 3.7-.8 5.4l.4-.4zm5-5l.4.4-.8.9-.4-.4.8-.9zM8 6.2l.4.4-.8.8-.4-.4.8-.8zM6.8 7.4l.4.4-.8.8-.4-.4.8-.8zM5.6 8.7l.4.4-.9.8-.4-.4.9-.8zm6.6-2.6l-.5.5-.4-.4.6-.6c-.1-.2-.2-.3-.4-.5L5 11.7c.2.1.3.3.5.4l.5-.6.4.4-.5.5c1.8.9 3.9.6 5.4-.9 1.5-1.4 1.8-3.6.9-5.4zm-5.4 5.4l-.4-.4.8-.8.4.4-.8.8zM8 10.3l-.4-.4.8-.8.4.4-.8.8zm1.3-1.2l-.4-.4.8-.8.4.4-.8.8zm1.2-1.3l-.4-.4.8-.8.4.4-.8.8z" fill="#C1272D"/><path d="M14.4 24.3l.7.7-1 1c.2.3.4.5.6.8L26 15.5c-.3-.2-.5-.4-.8-.6l-1 1-.7-.7.8-.8c-3-1.5-6.8-1-9.3 1.5s-3 6.3-1.5 9.3l.9-.9zm8.5-8.5l.7.7-1.4 1.4-.7-.7 1.4-1.4zm-2.1 2.1l.7.7-1.4 1.4-.7-.7 1.4-1.4zm-2.1 2.2l.7.7-1.4 1.4-.7-.7 1.4-1.4zm-2.1 2.1l.7.7-1.4 1.4-.7-.7 1.4-1.4zm11.3-4.4l-.8.8-.7-.7 1-1c-.2-.3-.4-.5-.6-.8L15.5 27.5c.3.2.5.4.8.6l1-1 .7.7-.8.8c3 1.5 6.8 1 9.3-1.5 2.5-2.5 2.9-6.3 1.4-9.3zm-9.2 9.3l-.7-.7 1.4-1.4.7.7-1.4 1.4zm2.1-2.1l-.7-.7 1.4-1.4.7.7-1.4 1.4zm2.1-2.1l-.7-.7 1.4-1.4.7.7-1.4 1.4zm2.1-2.2l-.7-.7 1.4-1.4.7.7-1.4 1.4z"/><path fill="#C1272D" d="M14.2 28.8L11 26.2l-.2 1.3c-4.1-1.4-6.9-5.3-6.9-9.7 0-.4-.3-.7-.7-.7s-.7.3-.7.7c0 5 3.3 9.5 8 11.1l-.2 1.4 3.9-1.5z"/><path d="M21.5 3.1l.2-1.4-3.8 1.5L21 5.8l.2-1.3c4.1 1.4 6.9 5.3 6.9 9.7 0 .4.3.7.7.7s.7-.3.7-.7c0-5.1-3.3-9.6-8-11.1z"/></symbol><symbol viewBox="0 0 32 32" id="gel-icon-ouch"><path fill="#C1272D" d="M27.6 18.2L32 16l-4.4-2.2 1.3-1.9-2.9-.6L28 7l-6.6 1.6-.3-1.8-2 1.2-3-4L13 8l-2.1-1.2-.3 1.8L4 7l2 4.3-2.9.6 1.3 1.9L0 16l4.4 2.2-1.3 1.9 2.9.6L4 25l6.6-1.6.3 1.8 2-1.2 3 4 3.1-4 2.1 1.2.3-1.8L28 25l-2-4.3 2.9-.6"/><path d="M5.2 16.2c0-.5.1-.9.2-1.2.1-.2.3-.5.4-.7.2-.2.4-.3.7-.4.3-.1.6-.2 1-.2.7 0 1.3.2 1.7.7s.6 1 .6 1.8-.2 1.4-.6 1.8c-.4.4-1 .6-1.7.6s-1.3-.2-1.7-.6c-.4-.5-.6-1.1-.6-1.8zm1 0c0 .5.1.9.4 1.2s.6.4.9.4c.4 0 .7-.1.9-.4.2-.3.4-.7.4-1.2s-.1-.9-.4-1.2c-.2-.3-.6-.4-1-.4s-.7.1-1 .4c-.1.2-.2.6-.2 1.2zm4.5-2.4h1v3.4c0 .2.1.3.3.5.2.1.4.2.6.2.3 0 .5-.1.6-.2.1-.1.2-.2.2-.4v-3.4h1v2.5c0 .6 0 1-.1 1.2-.1.2-.1.4-.3.6-.1.2-.3.3-.6.4-.2.1-.5.1-.9.1-.5 0-.8-.1-1-.2-.2-.1-.4-.2-.6-.4-.1-.2-.2-.3-.3-.5-.1-.3-.1-.7-.1-1.2v-2.6zm7.9 3l.9.3c-.1.5-.4.9-.7 1.2-.3.3-.8.4-1.3.4-.6 0-1.1-.2-1.6-.6-.4-.4-.6-1-.6-1.8s.2-1.4.6-1.8c.4-.4.9-.7 1.6-.7.6 0 1.1.2 1.4.5.2.2.4.5.5.9l-.9.2c-.1-.2-.2-.4-.4-.6-.2-.1-.4-.2-.7-.2-.4 0-.6.1-.9.4-.2.3-.3.7-.3 1.2 0 .6.1 1 .3 1.3.2.3.5.4.8.4.3 0 .5-.1.7-.2.4-.3.6-.6.6-.9zm1.9 1.7v-4.7h1v1.9h1.9v-1.9h1v4.7h-1v-2.1h-1.9v2.1h-1zm5.2-1.2l-.2-2.4v-1.1h1v1.1l-.2 2.4h-.6zm-.2 1.2v-.9h.9v.9h-.9z" fill="#FFF"/></symbol><symbol viewBox="0 0 32 32" id="gel-icon-pole-position"><path d="M27 23.1v-9h-4v4h-4.6l-.5-5.4.1-.1V9.1h1l3 2h3v-6h-6v-1h-6v1H7v6h3l3-2h1v3.4l.1.1-.5 5.4H8.9 9v-4H5v9h4v-4l4 3-.5 4.5-1.5 1.6-1-1H5v2h4l-2 3h7v-2h-1l2-3h2l2 3h-1v2h7l-2-3h4v-2h-5l-1 1-1.5-1.5-.5-4.5 4-3v4h4zm-14-3l-1-1h1v1zm6 0v-1h1l-1 1z"/><path d="M29.1 0H2v11h2V2h24v9h2V0"/></symbol><symbol viewBox="0 0 32 32" id="gel-icon-rain-stops-play"><path fill="#3F7693" d="M0 0h32v32H0z"/><path fill="#B3B3B3" d="M0 28h32v4H0z"/><path d="M23 8.7h-.6c-.8-2.9-3.4-5-6.4-5-3.1 0-5.7 2.1-6.4 5H9c-2.8 0-5 2.2-5 4.9s2.2 4.9 4.9 4.9H12v-2.3H8.9c-1.4 0-2.6-1.2-2.6-2.6 0-1.4 1.2-2.6 2.6-2.6.9 0 1.8.5 2.2 1.3l2-1.2c-.4-.6-.9-1.2-1.5-1.6C12.1 7.6 13.9 6 16 6c2.4 0 4.4 2 4.4 4.4 0 .9-.3 1.8-.8 2.5h2.6c.2-.6.4-1.3.5-1.9h.4c1.4 0 2.6 1.2 2.6 2.6 0 1.4-1.2 2.6-2.6 2.6H20v2.3h3c2.7 0 4.9-2.2 4.9-4.9S25.7 8.7 23 8.7z"/><path d="M11.6 24.6s0-.1 0 0l.4-4.7-4 2.3c-.7.4-1.2 1.2-1.2 2.1 0 1.3 1.1 2.4 2.4 2.4 1.2.1 2.2-.9 2.4-2.1zm6.5-5.7s.1-.1 0 0l.4-4.7-4 2.3c-.7.4-1.2 1.2-1.2 2.1 0 1.3 1.1 2.4 2.4 2.4 1.3 0 2.3-.9 2.4-2.1z" fill="#5996CB"/><path d="M26 25.9V32h1.9v-7.1c0-.5-.4-.9-.9-.9s-.9.4-.9.9v.1H25v-.1c0-.5-.4-.9-.9-.9s-.9.4-.9.9v.1H22v-.1c0-.5-.4-.9-.9-.9s-.9.4-.9.9V32h1.9v-6.1h1.2V32H25v-6.1h1z"/></symbol><symbol viewBox="0 0 32 32" id="gel-icon-red-flag"><path d="M0 3h1v27H0z"/><path fill="#C00" d="M1 3h16v22H1z"/><path fill="#C00" d="M15 0h17v21H15z"/><path fill="#FFF" d="M18 24l-1 1V3h1"/><path fill="#1C1C1C" d="M18 3l-3-3v3"/></symbol><symbol viewBox="0 0 32 31.7" id="gel-icon-results"><path d="M27.29 8.8l4.243 4.243-2.828 2.828-4.242-4.24zm-5.69-.6c0-1.4-1.1-2.5-2.5-2.5s-2.5 1.1-2.5 2.5 1.1 2.5 2.5 2.5 2.5-1.2 2.5-2.5zm-2.5 1.5c-.8 0-1.5-.7-1.5-1.5s.7-1.5 1.5-1.5 1.5.7 1.5 1.5-.7 1.5-1.5 1.5z"/><path d="M19.1 10.7c-5.8 0-10.5 4.7-10.5 10.5s4.7 10.5 10.5 10.5S29.6 27 29.6 21.2s-4.7-10.5-10.5-10.5zm0 18c-4.1 0-7.5-3.4-7.5-7.5s3.4-7.5 7.5-7.5 7.5 3.4 7.5 7.5-3.4 7.5-7.5 7.5zM12.2 1.9L11.5 0C7 1.6 3.2 4.7.5 8.5l1.6 1.2c2.5-3.6 6-6.3 10.1-7.8zm.6 1.9c-3.7 1.3-6.9 3.8-9 7.1L5.4 12c1.9-2.9 4.8-5.1 8.1-6.3l-.7-1.9zm2.1 5.6l-.7-1.9c-2.9 1.1-5.4 3-7.1 5.6l1.6 1.1c1.5-2.1 3.6-3.9 6.2-4.8z"/><path d="M18.6 15.7h2v6h-2z"/></symbol><symbol viewBox="0 0 32 32" id="gel-icon-rowing"><path d="M17.5 18.9L16 21h2l1.1-1.4M28 29.9l-3-1-3 1-3-1-3 1-3-1-3 1-3-1-3 1-3-1-1 .4v1l1-.3 3 1 3-1 3 1 3-1 3 1 3-1 3 1 3-1 3 1 3-1 1 .3v-1l-1-.4m-21-1.1l3-1 1 .4-8.4-13.5-.9.4L9.6 22H0"/><path d="M28 9l-5-4-16 8 .8 1.4L15 12l4-2 6 5v1l-9-3-4 8h2l3-4 9 4h4l2-2v-3M16.2 27.8l2.8-1 3 1 3-1 3 1 3-1 1 .4V22H12.6m6-16.5c.7-.9.9-2.1.2-3.2C18 1 16.3.6 15 1.4 14.2 2 13.7 3 13.8 4l3.7 2 1.1-.5z"/></symbol><symbol viewBox="0 0 32 32" id="gel-icon-rugby-league"><path d="M29.7 2.3C28.2.8 26.1 0 23.5 0c-1.1 0-2.3.1-3.5.4-4.2 1-8.6 3.6-12.3 7.3C4 11.4 1.4 15.8.4 20c-1 4.1-.3 7.6 1.8 9.7C3.8 31.2 5.9 32 8.5 32c1.1 0 2.3-.1 3.5-.4 4.2-1 8.6-3.6 12.3-7.3 3.7-3.7 6.3-8 7.3-12.3.9-4.1.3-7.6-1.9-9.7zm.4 9.4c-.9 3.9-3.4 8-6.9 11.5-3.5 3.5-7.6 5.9-11.5 6.9-1.1.3-2.2.4-3.2.4-1.9 0-3.5-.5-4.7-1.4l4.1-8.2-1.1-1.1-4.1 8.1c-1.3-1.8-1.6-4.4-.8-7.6.9-3.9 3.4-8 6.9-11.5 3.5-3.5 7.6-5.9 11.5-6.9 1.1-.3 2.2-.4 3.2-.4 1.7 0 3.2.4 4.4 1.2L20 7l1.1 1.1 8-4.3c1.4 1.8 1.8 4.6 1 7.9z"/><path d="M15.3 7l-8.2 8.2 5.8 5.8 1.4-1.4-4.1-4.1L17 8.6"/></symbol><symbol viewBox="0 0 32 32" id="gel-icon-rugby-sevens"><path d="M29.7 2.3C28.2.8 26.1 0 23.5 0c-1.1 0-2.3.1-3.5.4-4.2 1-8.6 3.6-12.3 7.3C4 11.4 1.4 15.8.4 20c-1 4.1-.3 7.6 1.8 9.7C3.8 31.2 5.9 32 8.5 32c1.1 0 2.3-.1 3.5-.4 4.2-1 8.6-3.6 12.3-7.3 3.7-3.7 6.3-8 7.3-12.3.9-4.1.3-7.6-1.9-9.7zm.4 9.4c-.9 3.9-3.4 8-6.9 11.5s-7.6 5.9-11.5 6.9c-1.1.3-2.2.4-3.2.4-1.9 0-3.5-.5-4.7-1.4l4.1-8.2-1.1-1.1-4.1 8.1c-1.3-1.8-1.6-4.4-.8-7.6.9-3.9 3.4-8 6.9-11.5 3.5-3.5 7.6-5.9 11.5-6.9 1.1-.3 2.2-.4 3.2-.4 1.7 0 3.2.4 4.4 1.2L20 7l1.1 1.1 8-4.3c1.4 1.8 1.8 4.6 1 7.9z"/><path d="M17.2 14.6c-.8.3-1.6.8-2.3 1.3s-1.4 1.1-2.1 1.7c-.6.6-1.2 1.2-1.6 1.8l-2-1.4c1.1-1.3 2.4-2.4 3.8-3.2 1.4-.9 3-1.5 4.6-1.9l-4.3-3.1 1.2-1.7 6.2 4.5-1.1 1.4c-.8.1-1.6.3-2.4.6z"/></symbol><symbol viewBox="0 0 32 32" id="gel-icon-rugby-union"><path d="M29.7 2.3C28.2.8 26.1 0 23.5 0c-1.1 0-2.3.1-3.5.4-4.2 1-8.6 3.6-12.3 7.3C4 11.4 1.4 15.8.4 20c-1 4.1-.3 7.6 1.8 9.7C3.8 31.2 5.9 32 8.5 32c1.1 0 2.3-.1 3.5-.4 4.2-1 8.6-3.6 12.3-7.3 3.7-3.7 6.3-8 7.3-12.3.9-4.1.3-7.6-1.9-9.7zm.4 9.4c-.9 3.9-3.4 8-6.9 11.5-3.5 3.5-7.6 5.9-11.5 6.9-1.1.3-2.2.4-3.2.4-1.9 0-3.5-.5-4.7-1.4l4.1-8.2-1.1-1.1-4.1 8.1c-1.3-1.8-1.6-4.4-.8-7.6.9-3.9 3.4-8 6.9-11.5 3.5-3.5 7.6-5.9 11.5-6.9 1.1-.3 2.2-.4 3.2-.4 1.7 0 3.2.4 4.4 1.2L20 7l1.1 1.1 8-4.3c1.4 1.8 1.8 4.6 1 7.9z"/><path d="M15.5 16.3c-.7.7-1.2 1.1-1.5 1.3-.3.2-.7.3-1.2.3s-.9-.3-1.4-.8c-.5-.5-.7-.9-.8-1.4-.1-.5 0-.9.3-1.3.2-.3.6-.7 1.3-1.5l4.5-4.5L15 6.7l-4.4 4.4c-.9.9-1.6 1.7-1.9 2.3-.2.4-.4.9-.4 1.4s0 1.1.3 1.7c.2.6.7 1.3 1.5 2.1.7.7 1.3 1.1 1.8 1.3s1.1.3 1.7.3c.5 0 1-.2 1.5-.5s1.3-1 2.2-2l4.4-4.4-1.7-1.6-4.5 4.6z"/></symbol><symbol viewBox="0 0 32 32" id="gel-icon-sailing"><path d="M19.5 6v19h8m-9-21l-1-4h-1l-3 5-.9 2h2.9v1h-3.3l-1.7 4h3v1h-3.3l-1.1 4h3.4v1H8.9l-1.4 5h11m-14 5v3h1l.9-2.8 6.1.8h1v3h2l3-3h6l3-3h-22"/></symbol><symbol viewBox="0 0 32 32" id="gel-icon-shooting"><path fill="none" d="M15.4 5.6l.4-.1-.2-.6h-.2"/><path d="M12.3 1.2C11.8.4 10.9 0 9.9 0 8.4.2 7.3 1.4 7.5 2.9c0 .2.1.4.1.6h3.6l1.1-2.3zm3.1 4.4v-.7h.2L21 3.7l10.6-2.2-.2-.5-.2-1-18.8 4-.7.4-1.2.6H4.4L3.1 6.4l3.4 2.8"/><path d="M15.9 7.1l-.5.9-.7-.4-8.4 3.3L2.7 8l1.7 8-1 7-3 9h2.4l4.1-9 1.2-3.9 2.3 3.9 1.7 9h2.3l-1-9-2-8-1-3 1-2 5.1 1 2.3-5.5-2.4.5"/></symbol><symbol viewBox="0 0 32 32" id="gel-icon-silver-medal"><g fill="#AAA"><circle cx="16" cy="21" r="6"/><path d="M16 0H4l6 6m8-6l-7 7 5 5L28 0"/></g></symbol><symbol viewBox="0 0 32 32" id="gel-icon-six"><path fill="#1C1C1C" d="M0 0h32v32H0z"/><path d="M22 12h1v1h-1zm0 8h1v1h-1zm4-8h1v1h-1zm-4 2h1v1h-1zm4 0h1v1h-1zm-4 4h1v1h-1zm4 0h1v1h-1zM20 8h1v1h-1zm8 0h1v1h-1zm-8 16h1v1h-1zm8 0h1v1h-1zm-8-2h1v1h-1zm8 0h1v1h-1zm-8-12h1v1h-1zm8 0h1v1h-1zm-2 10h1v1h-1zm-2-4h1v1h-1zm0-2h1v1h-1zm0 4h1v1h-1zM13 8h1v1h-1zm0 16h1v1h-1zm2-16h1v1h-1zm2 0h1v1h-1zm0 16h1v1h-1zm-2-14h1v1h-1zm0 12h1v1h-1zm0 2h1v1h-1zm0-12h1v1h-1zm0 4h1v1h-1zm0-2h1v1h-1zm0 6h1v1h-1zm0-2h1v1h-1zM4 10h1v1H4zm0 2h1v1H4zm2-4h1v1H6zm0 2h1v1H6zM4 22h1v1H4zm2 0h1v1H6zm0 2h1v1H6zM8 8h1v1H8zm2 2h1v1h-1zm-2 0h1v1H8zm2 8h1v1h-1zm0 4h1v1h-1zm-2 0h1v1H8zm0 2h1v1H8zM4 14h1v1H4zm2 2h1v1H6zm2 0h1v1H8zm2 4h1v1h-1z" fill="#FFE710"/></symbol><symbol viewBox="0 0 32 30.4" id="gel-icon-snooker"><circle cx="11" cy="19.4" r="2"/><circle cx="16" cy="19.4" r="2"/><circle cx="21" cy="19.4" r="2"/><circle cx="13.5" cy="14.4" r="2"/><circle cx="18.5" cy="14.4" r="2"/><circle cx="13.5" cy="24.4" r="2"/><circle cx="18.5" cy="24.4" r="2"/><circle cx="23.4" cy="24.4" r="2"/><circle cx="8.5" cy="24.4" r="2"/><circle cx="16" cy="9.4" r="2"/><path d="M31.3 26.1L18.8 1.9C18.3.8 17.3 0 16 0s-2.3.8-2.8 1.9L.7 26c-.2.4-.3.9-.3 1.3 0 1.7 1.3 3 3 3h25.3c1.7 0 3-1.3 3-3-.1-.4-.2-.8-.4-1.2zM3.4 27.4l12.4-24h.4l12.4 24H3.4z"/></symbol><symbol viewBox="0 0 32 31.9" id="gel-icon-sports-data"><path d="M8 15.9c0-3.7 2.6-6.8 6-7.7V0C6.1 1 0 7.7 0 15.9c0 3.7 1.3 7.1 3.4 9.8L9.1 20C8.4 18.7 8 17.3 8 15.9M18 0v8.1c3.4.9 6 4 6 7.7 0 4.4-3.6 8-8 8-1.5 0-2.9-.4-4.1-1.1l-5.7 5.7c2.7 2.1 6.1 3.4 9.8 3.4 8.8 0 16-7.2 16-16C32 7.7 25.9 1 18 0"/></symbol><symbol viewBox="0 0 32 32" id="gel-icon-sports-personality"><path d="M23.5 11h8V8h-8V6h7V3h-7V0h-19v14h5.6L4.5 28h-4v4h26v-4h-4l-5.6-14h6.6v-3zm-11-7h3v3h-3V4zm-5 3V4h3v3h-3zm-1 21l5.2-8.2.8 8.2h-6zm14 0h-6l.8-8.2 5.2 8.2zm0-21h-3V4h3v3z"/></symbol><symbol viewBox="0 0 32 32" id="gel-icon-squash"><path d="M19.8 16.5h-.5l2.3-2.3 1.3 1.3c.2-.2.5-.4.8-.6l-1.4-1.4 2.3-2.3 2.5 2.5c-.1.1-.2.2-.4.3.7 0 1.3.2 1.9.4l.4-.4c3.6-3.6 4-9 1-12-1.4-1.4-3.2-2-5.1-2C22.5 0 20 1 18 3c-2.5 2.5-4.2 6.5-4 9.8l-2.6 6.5-3.8 3.8-.6-.6-7 6.9L2.6 32l6.9-6.9-.5-.6 4-4 6.4-2.6h.5c.5 0 1-.1 1.5-.1.2-.6.5-1.2.9-1.7-1 .3-1.8.4-2.5.4zm-1.8-.2c-.5-.2-1-.4-1.5-.8-.4-.4-.6-.9-.8-1.4l2.8-2.8 2.3 2.3-2.8 2.7zm3.5-3.5l-2.3-2.3 2.3-2.3 2.3 2.3-2.3 2.3zm-3-3l-2-2c.5-1 1-2 1.7-2.9l2.6 2.6-2.3 2.3zm3.7-2.3l2.3-2.3 2.3 2.3-2.3 2.3-2.3-2.3zm5.7 5.5l-.1.1-2.6-2.6 2.3-2.3 2.2 2.2c-.4.9-1 1.8-1.8 2.6zm2.6-5.3c0 .6-.2 1.2-.4 1.7l-1.9-1.9 2.1-2.1c.2.7.2 1.5.2 2.3zm-.6-3.3l-2.4 2.4-2.3-2.3 2.4-2.4c.5.2 1 .5 1.3.9.4.5.7.9 1 1.4zm-3.4-2.7l-2 2-1.9-1.9c.8-.2 1.5-.4 2.3-.4.6.1 1.1.2 1.6.3zm-4.9.6l2.2 2.2-2.3 2.3-2.6-2.6.1-.1c.8-.8 1.7-1.4 2.6-1.8zm-5.9 8c.1-.5.2-1 .4-1.4l1.7 1.7-2.3 2.3c0-.9 0-1.7.2-2.6zm-1.6 7.6l.9-2.1c.2.2.3.5.6.7.2.2.5.4.7.6l-2.2.8z"/><path d="M26.5 15C24 15 22 17 22 19.5s2 4.5 4.5 4.5 4.5-2 4.5-4.5-2-4.5-4.5-4.5zM25 19c-.6 0-1-.4-1-1s.4-1 1-1 1 .4 1 1-.5 1-1 1zm3 0c-.6 0-1-.4-1-1s.4-1 1-1 1 .4 1 1-.5 1-1 1z"/></symbol><symbol viewBox="0 0 32 32" id="gel-icon-standings-tables"><path d="M0 9.5h12l-6-9m0 31l6-9H0m15-20h17v5H15zm0 22h17v5H15zm0-11h17v5H15zm-15 0h12v5H0z"/></symbol><symbol viewBox="0 0 32 32" id="gel-icon-swimming"><path d="M1.2 12.7l2.8.9 3-1 3 1 3-1 3 1 3-1 3 1V10l-1-3-7-7h-2L5 7l1 1 7-4 2 3v1m10 4.6l3 1 1.6-.5c.2-.5.4-1 .4-1.6C30 9.6 28.4 8 26.5 8S23 9.6 23 11.5c0 .6.2 1.2.4 1.6l1.6-.5zm6 2.1l-3 1-3-1-3 1-3-1-3 1-3-1-3 1-3-1-3 1-3-1-1 .3v1.1l1-.4 3 1 3-1 3 1 3-1 3 1 3-1 3 1 3-1 3 1 3-1 1 .4V15"/></symbol><symbol viewBox="0 0 32 32" id="gel-icon-synchronised-swimming"><path d="M21.3 13.2c0 .6-.2 1.1-.5 1.5l-2.5.7-.5.2-.8-4s.2-.2.4-.3c.4-.3.9-.5 1.5-.5 1.3-.1 2.4 1 2.4 2.4zm-9.9 2.3c0 .6-.2 1.1-.5 1.5l-2.5.7-.5.1-.8-4s.2-.2.4-.3c.3-.3.8-.5 1.4-.5 1.4 0 2.5 1.1 2.5 2.5zM31 26.9l-3 1-3-1-3 1-3-1-3 1-3-1-3 1-3-1-3 1-3-1-1 .4v1l1-.3 3 1 3-1 3 1 3-1 3 1 3-1 3 1 3-1 3 1 3-1 1 .3v-1"/><path d="M19 17l1 1-5 2-5 2-2 3.3-1-.3-3 1-3-1 2-5v-8l1-8 1 1v7l1 7h6"/><path d="M21 19l-4 5-1 2-3-1-3 1v-1l1-2m2-6v-6l1-8 1 1v8l1 4m12-2l1 1-7 3-1.6-1.6.6-.2"/></symbol><symbol viewBox="0 0 32 32" id="gel-icon-table-tennis"><path d="M27.3 21c.1-.1.2-.2.4-.3C32.9 15.4 33.5 7.6 29 3 24.5-1.5 16.6-.9 11.4 4.3 8.5 7.1 7.1 10.6 7 14v7l-7 7 4 4 7-7h7.1c-.1.3-.1.6-.1 1 0 3.3 2.7 6 6 6s6-2.7 6-6c0-2.1-1.1-3.9-2.7-5zm-16.9 2.5L4 29.9 2.1 28l6.3-6.3V16l3.4 3.4-2.2 2.2.7.7 2.2-2.2 3.4 3.4h-5.5zm13.6 7c-2.5 0-4.5-2-4.5-4.5s2-4.5 4.5-4.5 4.5 2 4.5 4.5-2 4.5-4.5 4.5z"/></symbol><symbol viewBox="0 0 32 32" id="gel-icon-taekwondo"><path d="M3.7 12l-1.2 3-1 2 1 1 2-2 1.3-1.7-.2-.2M3.7 4.6l.4-.1L6.5 4V.5C6.1.2 5.6 0 5 0 3.8 0 2.8.9 2.6 2c0 .2-.1.3-.1.5 0 .9.5 1.7 1.2 2.1z"/><path d="M13.5 10l-2-2 5-1 4.1-2H8.5l-4 1-1 2v1.6l3.2 3.5 3.8 1.9-2 5-1 12h2l2-10 4-6 7-7 8-5V2"/></symbol><symbol viewBox="0 0 32 32" id="gel-icon-tennis"><path d="M10.7 9.2c-.6 1-1.3 1.8-2.1 2.5l-.1.1c-.6.6-1.1 1.2-1.5 1.9-2.1 3.6-.8 8.2 2.7 10.2 1.7 1 3.8 1.3 5.7.7 1.9-.5 3.6-1.8 4.6-3.5.4-.6.6-1.3.8-2l.1-.3c.2-1.1.6-2.1 1.1-3.1 1.3-2.2 3.3-3.8 5.8-4.4 1.2-.3 2.3-.4 3.5-.3C30 7.4 27.6 4.2 24 2.1 20-.2 15.3-.6 11.2.8c1.1 2.6 1 5.7-.5 8.4z"/><path d="M28.2 13.2c-1.9.5-3.6 1.8-4.6 3.5-.3.6-.6 1.2-.8 1.9l-.1.6c-.2 1-.6 2-1.1 3-1.3 2.2-3.3 3.8-5.8 4.4-2.5.7-5 .3-7.2-.9-4.5-2.6-6.1-8.4-3.5-13 .5-.9 1.2-1.7 2-2.4l.3-.3c.5-.5 1-1.1 1.4-1.7 1.2-2.1 1.3-4.6.4-6.7C6.4 2.8 3.9 5 2.1 8-2.3 15.6.3 25.4 8 29.9c7.7 4.4 17.4 1.8 21.9-5.9 2-3.4 2.5-7.3 1.9-10.9-1.2-.2-2.4-.2-3.6.1z"/></symbol><symbol viewBox="0 0 32 32" id="gel-icon-touch-down"><path fill="#FFF" d="M19 21h-6l-4 5v6h14v-6"/><path fill="#FFF" d="M19 21h-6l-4 5v6h14v-6"/><path d="M18 6V.7l-.6-.7L16 3.3l-.6.4-1.1-1.4-.3 1L15.3 6"/><path d="M14 6V.7l.6-.7L16 3.3l.6.4 1-1.4.4 1L16.7 6M26 7l-1.3 9.7-3.4 3.3H11l-3.3-3.3L6 7H4v12l3 4 2 3 4-5h6l4 5 2-3 3-4V7"/><path d="M16 8l-4 1.4v4.9c.2 2.1 1.9 3.7 4 3.7s3.8-1.6 4-3.7V9.4L16 8z"/><path fill="#FFF" d="M19 10l-3-1-3 1v-.1V12h6v-2"/><path d="M9 26v6h2v-8.5m2-2.5l-1 1.2V32h2V21m2 0h-1v11h2V21m2 0h-1v11h2v-9.8m1 9.8h2v-6l-2-2.5"/></symbol><symbol viewBox="0 0 32 32" id="gel-icon-transfers"><path d="M15.5 11l7.5 7.5V14h2v8h-8v-2h4.7L14 12.4v7.7c0 6.1 3.8 10.5 9 12 5.2-1.4 9-5.9 9-12v-9H15.5z"/><path d="M13.5 9H18V0l-4 2-5-2-5 2-4-2v9c0 6.1 3.8 10.5 9 12 1.1-.3 2.1-.7 3-1.3v-9.4L7.6 6 9 4.6 13.5 9z"/></symbol><symbol viewBox="0 0 32 32" id="gel-icon-triathlon"><circle cx="2" cy="2" r="2"/><circle cx="2" cy="10" r="2"/><circle cx="7" cy="6" r="2"/><path d="M26.1 13.3L29 15l3-5-1-1-2 3-2.2-2.7m-12.4 14L7 25l-1 2 10-1 5-4.4-4-1.4"/><path d="M25.6 7.5L25 7l-4-2-7 2-1 6.4 1.4.1 1.2-5L19 8l1 6-2 5 9 3-1 9 2 1 2-12-6-3m1.5-12h.1l2.1-3.6C27.3.6 26.5 0 25.5 0 24.1 0 23 1.1 23 2.5S24.1 5 25.5 5z"/></symbol><symbol viewBox="0 0 32 32" id="gel-icon-try"><path d="M2 14v8h5l8-8m2 1l-7 7h20v-7" fill="#4E7A22"/><path fill="#FFF" d="M26.8 13.7c-.5 0-.9-.2-1.2-.6-.4-.5-.5-1.1-.2-1.8.2-.7.7-1.3 1.3-1.9.6-.5 1.4-.9 2.1-1h.6c.5 0 .9.2 1.2.6.4.5.5 1.1.2 1.8-.2.7-.7 1.3-1.3 1.9-.6.5-1.4.9-2.1 1-.2.1-.4.1-.6 0z"/><path d="M30.6 8.7c-.3-.4-.8-.6-1.4-.6h-.7c-.8.1-1.7.5-2.4 1.2-.7.6-1.3 1.4-1.5 2.2-.3.8-.2 1.6.3 2.1.3.4.8.6 1.3.6h.7c.8-.1 1.7-.5 2.4-1.2.7-.6 1.3-1.4 1.5-2.2.3-.9.2-1.6-.2-2.1zm-4.3 4.5c-.2 0-.5-.1-.7-.3-.2-.3-.2-.7-.1-1.2.2-.6.6-1.2 1.2-1.7.7-.5 1.3-.9 2-1h.5c.3 0 .5.1.7.3.2.3.2.7.1 1.2-.2.6-.6 1.2-1.2 1.7s-1.3.8-1.9.9c-.3.1-.5.1-.6.1m1.4-10.7c1.4-.5 2.9.3 3.3 1.7l-3.7 3.2c-.6-.3-1.2-.9-1.4-1.6-.4-1.4.4-2.9 1.8-3.3zM8 2H6.7l2 6.8 3.3-.3"/><path d="M23.3 8l-6.5 2.3-3.3-.8L7 10 1.3 0H0l5 13 11 2h5.5l-.8-1.6m4.2-.9l1.8-3L25.3 8h-.6L22 13.3l.7 1.7H32v-1.7"/></symbol><symbol viewBox="0 0 32 32" id="gel-icon-umpire-review"><path fill="#4E7A22" d="M0 28.1h32V32H0z"/><path fill="#FFF" d="M23 32v-7.1l-4.4-3.2 4.4-.3v-1.8L8.9 18.4l-2.3 2.3 2.4 4V32"/><path fill="#0F0F0F" d="M24 18.9l-6.4-.5c1.4-.7 2.3-2.2 2.4-3.7V12h3v-1.1l-3-.4V9.1l-4-2.3-4 2.3v1.4l-3 .4V12h3v2.8c.1 1.3.8 2.6 2 3.4l-5.1-.4-3.2 2.8L8 24.9V32h1v-7.3l-2.3-4L9 18.5l14 1v1.9l-13.7.8.1.7 4.2-.2-.9.9h.8l-.1.5-.6-.1.5 1 2.8.9 1.8-1.8-1.6-1.6 3.2-.2 3.5 2.6V31h-1.5l-4.2-4.6 1.1-1.2 3.3 1.2.2-.6-3.7-1.4-1.9 2.2 4.8 5.4H24v-7.4l-3.2-2.4L24 22v-3.1z"/><path fill="#FFF" d="M19.1 9.4L16 7.8l-3.1 1.6v1l3.1-.1 3.1.1v-1"/><path d="M24.7 18.9h3.9l.1 3.3-.6-.6-.3.4.6.4-1.1.4-2.6-1.4"/></symbol><symbol viewBox="0 0 32 32" id="gel-icon-volleyball"><path d="M6.5 13L6 7H4.5v10l5.4-2.4-2.2-2.2m4.9-3.5c.7-.2 1.2-.6 1.6-1.2L11.5 4c-1.3.3-2.2 1.7-1.8 3s1.6 2.3 2.9 1.9zM20.5 6c1.7 0 3-1.3 3-3s-1.3-3-3-3-3 1.3-3 3 1.4 3 3 3zm0-5c1.1 0 2 .9 2 2s-.9 2-2 2-2-.9-2-2 .9-2 2-2z"/><path d="M13.5 26l-10 4.7V32l13-3.4 2-10.6-1-6h5l6-3-1-1.5-5 2.1-6-.6-6 2-1.4.7 2.3 2.2 3.1 3.1-1 3"/><path d="M6.5 24.5V26l6-1.5v-3"/></symbol><symbol viewBox="0 0 35 32" id="gel-icon-water-polo"><path d="M8.5 5C10.4 5 12 6.5 12 8.5c0 .6-.2 1.1-.4 1.6L14 13l5-2 4-.9h4l4 2 3 2.9-1 1-4-3h-2l-1 1v9l-1 1-3-1-3 1 1-3 1-2-3-4-5 1-4-6 1.4-1.3.5.6c0-.3.1-.6.1-.8C11 7.1 9.9 6 8.5 6S6 7.1 6 8.5c0 1.1.8 2.1 1.8 2.4l.7 1.1C6.6 12 5 10.4 5 8.5S6.6 5 8.5 5z"/><path d="M21.6 8.5l-1.2.3c-.3-.4-.4-.8-.4-1.3C20 6.1 21.1 5 22.5 5h.5l.7 3.4h-2.1zM34 25l-3 1-3-1-3 1-3-1-3 1-3-1-3 1-3-1-3 1-6-2-1 .3v1.1l1-.4 6 2 3-1 3 1 3-1 3 1 3-1 3 1 3-1 3 1 3-1 1 .4v-1.1"/></symbol><symbol viewBox="0 0 32 32" id="gel-icon-weightlifting"><path d="M31 4V1l-1-1h-2l-1 1v7l1 1h2l1-1V5h1V4M2 0L1 1v3H0v1h1v3l1 1h2l1-1V1L4 0m10.8 11.8c.3.2.7.2 1 .2.8 0 1.6-.5 2-1.2.6-1.1.1-2.5-1-3-.3-.2-.7-.2-1-.2h-.2L13.9 11c.2.3.5.6.9.8z"/><path d="M6 5h1l2 5 3 5 1 4-4 6v7h2l1-6 3.4-3 1.8 3.5L21 32h2l-2.3-6.1L19 19v-2l1-2 3-5 2-5h1V4H6v1zm2.6 0h14.8L21 9l-2 3-2 1h-2l-2-1-2-3-2.4-4z"/></symbol><symbol viewBox="0 0 32 32" id="gel-icon-wicket"><path d="M10.4 11.5l.6.6-.8.8c.2.2.3.5.6.7l9.9-9.9c-.2-.2-.5-.4-.7-.5l-.9.8-.6-.6.7-.7c-2.7-1.3-6-.8-8.2 1.3-2.2 2.2-2.6 5.5-1.3 8.1l.7-.6zm7.4-7.4l.6.6-1.2 1.2-.6-.6 1.2-1.2zM16 5.9l.6.6-1.2 1.2-.6-.6L16 5.9zm-1.9 1.9l.6.6-1.2 1.2-.6-.6 1.2-1.2zm-1.8 1.8l.6.6-1.2 1.2-.7-.5 1.3-1.3zm9.9-3.8l-.7.7-.6-.6.8-.8c-.2-.2-.3-.5-.5-.7l-9.9 9.9c.2.2.5.4.7.6l.8-.8.6.6-.7.7c2.6 1.3 5.9.9 8.1-1.3 2.3-2.3 2.7-5.6 1.4-8.3zm-8.1 8.1l-.6-.6 1.2-1.2.6.6-1.2 1.2zm1.9-1.8l-.6-.6 1.2-1.2.6.6-1.2 1.2zm1.8-1.9l-.6-.6 1.2-1.2.7.6-1.3 1.2zm1.9-1.8l-.6-.6 1.2-1.2.6.6-1.2 1.2zm9.6 6.5l-.7-1.1-2.1 1.2-.6-1-6.5 3.7.6 1.1-2.1 1.2.6 1.1 2.2-1.3.6 1.1 6.4-3.7-.6-1.1m-13 3.9L12 18.7l.6-1-6.5-3.8-.6 1.1-2.1-1.2-.7 1 2.2 1.3-.6 1.1 6.4 3.7.7-1.1 2.1 1.3m5 5c0-1.4-1.1-2.4-2.5-2.4s-2.5 1-2.5 2.4V26H13v6h6v-6h-.5v.1zM5.5 32h5.1L9 22.7v.3c-.3-2-1.3-2.2-2.5-2.2-1.4 0-2.5 1-2.5 2.4v.2-.4c0 1 0 .4.1.5L5.5 32zM28 23c0-1.5-1.1-2.3-2.5-2.3-1.2 0-2.2.3-2.5 2.3v-.2L21.4 32h5.1l1.4-8.2v-.5l.1-.3z"/></symbol><symbol viewBox="0 0 32 32" id="gel-icon-winter-sports"><path d="M25.5 4.4c-1.4 0-2.5 1.1-2.5 2.5 0 1.2.9 2.2 2 2.5l3-2.9c-.2-1.2-1.2-2.1-2.5-2.1zM4 4.6l-.4 1.1 1 .3 1-3.1-1-.3-.3 1L2 2.9v1l2 .7"/><path d="M23.9 10.4l.4 1.2 2.3.8H23l-2-6-3-2-6.7 1.7-4.9-1.7-.3.9 13.2 4.5 2.8 5.5 7-2v-1.2l-5.2-1.7z"/><path d="M30.6 27.7c0 .1-.1.1-.1.1h-.2l-16.4-5.6 5.5-7.9-1.4-2.6-1.7-1.3L9.2 8l-.2.4v3l3 2 3 1-3.1 7.2L0 17.5v1.6l28.6 9.8 1.2.4c.2.1.3.1.5.1.3 0 .6-.1.8-.2.4-.2.7-.6.9-1l-1.4-.5z"/></symbol><symbol viewBox="0 0 32 31.9" id="gel-icon-world-record"><path fill="#1C1C1C" d="M0 0h32v31.9H0z"/><path fill="#FFE710" d="M2 8h1v1H2zm2 0h1v1H4zm-2 2h1v1H2zm2 0h1v1H4zm-2 2h1v1H2zm2 0h1v1H4zm-2 2h1v1H2zm2 0h1v1H4zm-2 2h1v1H2zm2 0h1v1H4zm-2 2h1v1H2zm2 0h1v1H4zm-2 2h1v1H2zm2 0h1v1H4zm0 2h1v1H4zm2-2h1v1H6zm2 0h1v1H8zm2 0h1v1h-1zm-2-2h1v1H8zm2 0h1v1h-1zm-2-2h1v1H8zm2 0h1v1h-1zm-4 6h1v1H6zM16 8h1v1h-1zm-2 0h1v1h-1zm2 2h1v1h-1zm-2 0h1v1h-1zm2 2h1v1h-1zm-2 0h1v1h-1zm2 2h1v1h-1zm-2 0h1v1h-1zm2 2h1v1h-1zm-2 0h1v1h-1zm2 2h1v1h-1zm-2 0h1v1h-1zm2 2h1v1h-1zm-2 0h1v1h-1zm0 2h1v1h-1zm-2-2h1v1h-1zm0 2h1v1h-1zM19 8h1v1h-1zm0 2h1v1h-1zm0 2h1v1h-1zm0 2h1v1h-1zm0 2h1v1h-1zm0 2h1v1h-1zm0 2h1v1h-1zm0 2h1v1h-1zM21 8h1v1h-1zm0 2h1v1h-1zm0 2h1v1h-1zm0 2h1v1h-1zm0 2h1v1h-1zm0 2h1v1h-1zm0 2h1v1h-1zm0 2h1v1h-1zM23 8h1v1h-1zm0 2h1v1h-1zm0 4h1v1h-1zm0 2h1v1h-1zm2-8h1v1h-1zm0 2h1v1h-1zm0 4h1v1h-1zm0 2h1v1h-1zM27 10h1v1h-1zm0 2h1v1h-1zm0 2h1v1h-1zm0 4h1v1h-1zm0 2h1v1h-1zm0 2h1v1h-1zm2-12h1v1h-1zm0 2h1v1h-1zm0 2h1v1h-1zm0 4h1v1h-1zm0 2h1v1h-1zm0 2h1v1h-1z"/></symbol><symbol viewBox="0 0 32 32" id="gel-icon-wrestling"><path d="M15.5 5c.2-1 .7-2 1.5-2.6V.5c-.4-.3-.9-.5-1.5-.5C14.1 0 13 1.1 13 2.5S14.1 5 15.5 5zm-2.9 11.3l-3.5-2.7L7 15l-1 7-6 10h3l6.3-8.3m1.3.8l-.8 1.1L9 32h2l3-8-.8-5.3m5.5-11.5l.3-.4 3-1v-.3C22 4.1 20.9 3 19.5 3S17 4.1 17 5.5l1.7 1.7zM30 24l1.5-6.1-4 5.6-.8 1.8L30 32h2"/><path d="M31 14l-4-6-4-1-3 1-3 5-1.9.4 2.8-4.8-2.4-2.5V6H12l-4.5 4.5 6.4 4.9L18 15l3-3 3 1 1 2-3 7-2 10h2l4-9 5-7"/></symbol><symbol viewBox="0 0 32 32" id="gel-icon-yellow-flag"><path d="M0 3h1v27H0z"/><path fill="#FFD324" d="M1 3h16v22H1z"/><path fill="#FFD324" d="M15 0h17v21H15z"/><path fill="#FFF" d="M18 24l-1 1V3h1"/><path fill="#1C1C1C" d="M18 3l-3-3v3"/></symbol></svg>