<svg xmlns="http://www.w3.org/2000/svg" xmlns:xlink="http://www.w3.org/1999/xlink"><symbol viewBox="0 0 32 32" id="gel-icon-baking"><path d="M16.5 14h-13v12h13V14zM10 24c-2.21 0-4-1.79-4-4s1.79-4 4-4 4 1.79 4 4-1.79 4-4 4z"/><path d="M10.5 20l-.25-3H9.5v3m10-14c-.48 3.4-4.637 6-9.5 6C5.142 12 .988 9.394.5 6h19zm3 0h9v20h-9zm5-1l1-1V0h-3v4l1 1m0 22l-1 1v4h3v-4l-1-1"/></symbol><symbol viewBox="0 0 32 32" id="gel-icon-biscuits-sweets-treats"><path d="M28.494.002h-8.988l-2.006 2v28l2.006 2h8.988l2.006-2v-28l-2.006-2zm-7.485 29a1.5 1.5 0 1 1 0-3 1.5 1.5 0 0 1 0 3zm-.03-8.012a1.5 1.5 0 1 1 .002-3 1.5 1.5 0 0 1 0 3zm.02-6.988a1.5 1.5 0 1 1 0-3 1.5 1.5 0 0 1 0 3zm0-8a1.5 1.5 0 1 1 0-3 1.5 1.5 0 0 1 0 3zm6.008 23.01a1.5 1.5 0 0 1 0-3c.83 0 1.5.67 1.5 1.5s-.67 1.5-1.5 1.5zM27 21.007a1.5 1.5 0 1 1 0-3 1.5 1.5 0 0 1 0 3zm0-7.005a1.5 1.5 0 1 1 0-3 1.5 1.5 0 0 1 0 3zm.007-8c-.828 0-1.5-.657-1.5-1.485 0-.828.672-1.515 1.5-1.515a1.5 1.5 0 0 1 0 3zM11.332.875c-1.14-.146-1.848-.883-3.22-.877-1.45.006-2.4.762-3.566.93-1.166.168-2.548-.254-2.868.067-.95.948 2.093 5.02 4.447 7.075-2.463 1.155-4.24 4.335-4.24 8.077 0 3.636 1.68 6.74 4.032 7.975-2.32 2.107-5.156 5.963-4.235 6.884.32.32 1.7-.1 2.867.066 1.164.168 2.114.924 3.566.93 1.37.006 2.078-.73 3.22-.877 1.272-.164 2.924.243 3.286-.12.987-.987-1.868-4.803-4.208-6.89 2.35-1.238 4.02-4.338 4.02-7.97 0-3.738-1.774-6.917-4.234-8.074 2.375-2.036 5.438-6.06 4.42-7.076-.363-.36-2.014.046-3.288-.118z"/></symbol><symbol viewBox="0 0 32 32" id="gel-icon-chefs-tips"><path fill="#0D0D0D" d="M23.848 5.094C22.498 2.096 19.5 0 16 0S9.502 2.096 8.152 5.094C3.525 5.898 0 9.91 0 14.77c0 4.582 3.145 8.4 7.385 9.497V32h17.23v-7.733C28.856 23.17 32 19.352 32 14.77c0-4.86-3.525-8.872-8.152-9.676zm.266 17.236l-1.5.39V26H9.387v-1.41c.153.01.304.025.46.025 2.34 0 4.39-.922 6.154-2.688V19.24c-1.31 2.028-3.56 3.392-6.153 3.392a6.916 6.916 0 0 1-1.636-.22l-.323-.082C4.42 21.434 2 18.324 2 14.77c0-3.81 2.732-7.05 6.496-7.705l1.045-.182.438-.97C11.048 3.538 13.41 2 16 2s4.953 1.536 6.023 3.914l.436.97 1.043.18A7.816 7.816 0 0 1 30 14.77c0 3.554-2.42 6.664-5.886 7.56z"/></symbol><symbol viewBox="0 0 32 32" id="gel-icon-cooking-ingredients"><path d="M15 19h2v4.025h-2z"/><path d="M26 14l-1-1H7l-1 1v17l1 1h18l1-1V14zM16 29c-3.534 0-6.5-2.965-6.5-6.5S12.466 16 16 16s6.5 2.965 6.5 6.5S19.534 29 16 29zM31 0c-.77 5.438-7.22 10-15 10C8.227 10 1.78 5.43 1 0c4.688 0 23 .02 30 0z"/></symbol><symbol viewBox="0 0 32 32" id="gel-icon-dairy"><path d="M27.5 22c0-4.418-2.292-8-5.5-8s-5.5 3.582-5.5 8h11zm1 4.008V24h-13v2.008l3 2.992v1h-1l-1 1v1h11v-1l-1-1h-1v-1m-10 1v-1l-2-2v-5h1c0-1.9.364-3.52 1-5v-6l-2-6V4h-8v1l-2 6v19l2 2h8l1-1 1-1z"/><path d="M28.5 26.008V24h-13v2.008l3 2.992v1h-1l-1 1v1h11v-1l-1-1h-1v-1m-11-27h-10V1l1-1h8l1 1"/></symbol><symbol viewBox="0 0 32 32" id="gel-icon-drinks"><path d="M9.5 7h10v7h-10V7zm-2-2v25.586L8.914 32h11.172l1.414-1.414V5h-14z"/><path d="M14.583 15.333l-1.93-.52L16.968 0H24.5v2h-6"/></symbol><symbol viewBox="0 0 32 32" id="gel-icon-fast-food-1"><path d="M23.566 5.697a27.568 27.568 0 0 0-11.443 6.848A25.567 25.567 0 0 0 6.07 22.75L31.513 32l-7.95-26.303zm-4.232 7.807a1.984 1.984 0 0 1 2.538-1.184 1.984 1.984 0 0 1 1.182 2.54 1.978 1.978 0 0 1-2.536 1.18 1.976 1.976 0 0 1-1.184-2.536zm-5.287 9.677a3.46 3.46 0 0 1-2.077-4.437 3.467 3.467 0 0 1 4.442-2.07 3.472 3.472 0 0 1 2.07 4.44 3.466 3.466 0 0 1-4.435 2.07zm9.773 3.723a2.482 2.482 0 0 1-1.487-3.176 2.476 2.476 0 0 1 3.17-1.48 2.472 2.472 0 0 1 1.48 3.17 2.472 2.472 0 0 1-3.163 1.486z"/><path d="M11.026 10.826A27.538 27.538 0 0 1 22.99 3.79L21.843 0A31.464 31.464 0 0 0 8.225 8.026 31.46 31.46 0 0 0 .485 20.72l3.72 1.35a27.566 27.566 0 0 1 6.82-11.245z"/></symbol><symbol viewBox="0 0 32 32" id="gel-icon-fast-food-2"><path d="M0 8h17v2H0zm32 18c0 2.08-1.493 5-4 5H14c-2.515 0-5-2.92-5-5h12l3 3 3-3h5z"/><path d="M6 26v-2c0-3.086 4.296-7 8-7h1.325L16 10H1l2 21h6.46C7.98 29.595 6 27.677 6 26z"/><path d="M27 19H14c-2.515 0-5 2.914-5 5h23c0-2.086-2.493-5-5-5zM6.944 16.262l1.993-.162L7.367.75 5.5 2.44"/></symbol><symbol viewBox="0 0 32 32" id="gel-icon-fish-chicken-meat"><path d="M32 14c0-7.456-6.013-14-7.5-14S17 6.544 17 14c0 5.92 4.07 10.624 6.268 12.314L17.938 32h13.125l-5.33-5.686C27.93 24.624 32 19.92 32 14zm-9.375-6c0-1.104.84-2 1.875-2s1.875.896 1.875 2-.84 2-1.875 2-1.875-.896-1.875-2zM4.99 23h5v5.568h-5z"/><path d="M9.5 26.88c-.814 0-1.53.386-2 .978a2.548 2.548 0 0 0-2-.98A2.56 2.56 0 0 0 5.5 32c.814 0 1.53-.387 2-.98.47.593 1.186.98 2 .98a2.56 2.56 0 0 0 0-5.12zM10 21s5-6.316 5-13.5C15 3.744 11.638.002 7.505 0 3.373.002 0 3.744 0 7.5 0 14.684 4.997 21 4.997 21H10z"/></symbol><symbol viewBox="0 0 32 32" id="gel-icon-fruit-veg"><path d="M11.07 1.356C10.67.558 9.884 0 8.85 0S7.025.558 6.626 1.356C5.256 1.57 4.18 2.64 4.18 3.934c0 1.22 1.193 2.274 2.448 2.566V12h4.443V6.5c1.256-.292 2.413-1.346 2.413-2.566 0-1.294-1.043-2.363-2.412-2.578zM21.294 9v1.678c1-1.384 3.265-1.72 4.02-1.72.167 0 .18.017.205.042.135.137.03 1.922-1.048 3-.626.626-1.506.902-2.147 1.002L24.438 13c2.23.296 4.98 2.06 4.98 6.03 0 4.006-2.603 8.97-6.02 8.97-1.09 0-1.743-.5-2.033-.5-.393 0-1.004.5-2.063.5-3.078 0-6.125-5.066-6.125-8.97 0-4.06 2.67-5.79 4.933-6.023l2.184-.003V9h1z"/><path d="M11.177 19.03c0-3.455 1.418-5.632 3.22-6.84.002-.063.007-.126.007-.19 0-1.473-1.508-3.398-3.334-3.98-.72-.228-1.492-.31-2.24-.31-.736-.002-1.493.066-2.202.29-1.828.577-3.334 2.52-3.334 4 0 3.434 3.275 15.912 3.744 18 .235 1.046.84 2 1.81 2s1.543-.983 1.777-2.008c.112-.49.805-3.568 1.46-6.487-.575-1.465-.908-3.017-.908-4.476z"/></symbol><symbol viewBox="0 0 32 32" id="gel-icon-in-season"><path d="M27 9.067V0l-5.5 4.84L16 0l-5.5 4.84L5 0v9.067C5 17.012 9.347 21.327 14.874 22H15v6.592L2 21.056v4.204L13.664 32H17V21.996c5.583-.6 10-4.936 10-12.93z"/><path d="M19.085 27.373v4.184L30 25.25v-4.188"/></symbol><symbol viewBox="0 0 32 32" id="gel-icon-recommended-wine"><path d="M28.804 8.702c-.002-.478.013-.96-.02-1.434l-.068-.904L17.816.05l-.836.404c-.42.203-.822.454-1.23.686l13.054 7.562zm-19.1 3.882c.488 2.584 1.957 4.698 4.13 5.953a8.288 8.288 0 0 0 4.187 1.126c4.193 0 8.35-3.132 10.107-7.614A11.97 11.97 0 0 0 28.71 10H9.547c-.05.872-.002 1.74.156 2.58z"/><path d="M10.198 27.752l6.54-11.326h-2.31L8.47 26.752l-4.274-2.466-1 1.732 10.278 5.934 1-1.733"/></symbol><symbol viewBox="0 0 32 32" id="gel-icon-required-techniques"><path fill="none" d="M16.356 6.392L4.978 18.008h22.755"/><path fill="#0D0D0D" d="M17.777 4.97l2.116-2.117 7.11 7.11 1.424-1.42-7.11-7.112L19.892.01 18.47 1.43l-2.114 2.117L12.8 7.103l-8.534 8.533-.712.71L0 19.904h7.11l12.09 12.09h2L32 21.19v-2L17.777 4.97zm-12.8 13.038l11.38-11.616 11.376 11.616H4.978z"/></symbol><symbol viewBox="0 0 32 32" id="gel-icon-techniques-skill-rating"><circle fill="#0D0D0D" cx="6" cy="26" r="4.5"/><circle fill="#0D0D0D" cx="16" cy="26" r="4.5"/><circle fill="#0D0D0D" cx="26" cy="26" r="4.5"/><circle fill="#0D0D0D" cx="6" cy="16" r="4.5"/><circle fill="#0D0D0D" cx="16" cy="16" r="4.5"/><path fill="#0D0D0D" d="M26 13.5a2.5 2.5 0 0 1 0 5 2.5 2.5 0 0 1 0-5m0-2c-2.486 0-4.5 2.014-4.5 4.5s2.014 4.5 4.5 4.5 4.5-2.014 4.5-4.5-2.014-4.5-4.5-4.5z"/><circle fill="#0D0D0D" cx="6" cy="6" r="4.5"/><path fill="#0D0D0D" d="M16 3.5a2.5 2.5 0 0 1 0 5 2.5 2.5 0 0 1 0-5m0-2c-2.486 0-4.5 2.014-4.5 4.5s2.014 4.5 4.5 4.5 4.5-2.014 4.5-4.5-2.014-4.5-4.5-4.5zm10 2a2.5 2.5 0 0 1 0 5 2.5 2.5 0 0 1 0-5m0-2c-2.486 0-4.5 2.014-4.5 4.5s2.014 4.5 4.5 4.5 4.5-2.014 4.5-4.5-2.014-4.5-4.5-4.5z"/></symbol><symbol viewBox="0 0 32 32" id="gel-icon-tins-jars-packets"><path d="M25 2a2 2 0 0 1-2 2H9a2 2 0 0 1 0-4h14a2 2 0 0 1 2 2zm-1 4H8L6 8.016l.016 22L8 32h16l2-2V8l-2-2zM10 26l-2 1V10l2 1v15z"/></symbol><symbol viewBox="0 0 32 32" id="gel-icon-vegetarian-a"><circle cx="16" cy="16" r="16"/><path fill="#FFF" d="M18.328 25h-4.79L7.453 9h4.343l4.183 11.985h.042L20.205 9h4.342l-6.22 16z"/></symbol><symbol viewBox="0 0 32 32" id="gel-icon-vegetarian-b"><path d="M16 2c7.72 0 14 6.28 14 14s-6.28 14-14 14S2 23.72 2 16 8.28 2 16 2m0-2C7.164 0 0 7.163 0 16s7.164 16 16 16 16-7.163 16-16S24.836 0 16 0z"/><path d="M18.328 25h-4.79L7.453 9h4.343l4.183 11.985h.042L20.205 9h4.342l-6.22 16z"/></symbol><symbol viewBox="0 0 32 32" id="gel-icon-western-food"><path d="M24 32h-3V18.033L19 17V2l1-2h4v32zM13 0h1v11l-1 2-1 1v18H9V14.086l-1-1.03L7 11V0h1v9h1V0h1v9h1V0h1v9h1"/></symbol></svg>