<svg xmlns="http://www.w3.org/2000/svg" xmlns:xlink="http://www.w3.org/1999/xlink"><symbol viewBox="0 0 32 32" id="gel-icon-exit"><path d="M8 0v5l2-2V2h20v28H10v-1l-2-2v5h24V0"/><path d="M12 4L0 16l12 12 4-4-5.4-5H27v-6H10.6L16 8"/></symbol><symbol viewBox="0 0 32 32" id="gel-icon-keyboard"><path d="M0 6.5v19h32v-19H0zm18 3h3v3h-3v-3zm0 5h3v3h-3v-3zm-5-5h3v3h-3v-3zm0 5h3v3h-3v-3zm-5-5h3v3H8v-3zm0 5h3v3H8v-3zm-2 8H3v-3h3v3zm0-5H3v-3h3v3zm0-5H3v-3h3v3zm17 10H8v-3h15v3zm6 0h-4v-5h-2v-3h6v8zm0-10h-6v-3h6v3z"/></symbol><symbol viewBox="0 0 32 32" id="gel-icon-microphone"><path d="M18 24h-4v5H9v3h14v-3h-5m6-17v3.8L21.4 21H10.6L8 15.8V12H6v4.2L9.4 23h13.2l3.4-6.8V12m-4-6l-3-6h-6l-3 6v6h12"/><path d="M20 19l2-4v-1H10v1l2 4"/></symbol><symbol viewBox="0 0 32 32" id="gel-icon-mouse"><path d="M10.2 9.1V16h5.6l-.1-1.4c-.4-2.8-2.6-5.1-5.5-5.5zm-2 0c-2.8.4-5.1 2.7-5.5 5.5 0 0 0 .5-.1 1.4h5.6V9.1zm7.9 8.9H2.4c-.3 2.9-.7 6.5-.7 6.5 0 4.1 3.4 7.5 7.5 7.5s7.5-3.4 7.5-7.5l-.6-6.5z"/><path d="M28.8 16h-.4c-2.8-.2-5.1-2.6-5.1-5.5v-3c0-4.1-3.4-7.5-7.5-7.5S8.2 3.4 8.2 7.5V9h2V7.5c0-3 2.5-5.5 5.5-5.5s5.5 2.5 5.5 5.5v3c0 3.9 3 7.2 6.9 7.5h2.1v-2h-1.4z"/></symbol><symbol viewBox="0 0 32 32" id="gel-icon-movement-off"><path d="M28 .1l-4 4H4v14h4v-10h12L2.5 25.6 4 27.1 29.5 1.6M25 22.1h-7l3.2-3.2-2.4-2.5-7.8 7.7 7.8 7.8 2.4-2.5-3.2-3.3h11v-20l-4 4"/></symbol><symbol viewBox="0 0 32 32" id="gel-icon-movement-on"><path d="M28.5 2h-25v14h4V6h17v14h-7l3.5-3.5-2.5-2.5-8 8 8 8 2.5-2.5-3.5-3.5h11"/></symbol><symbol viewBox="0 0 32 32" id="gel-icon-rotate-device-to-play-game-l-to-p"><path d="M21 29H7v-8h11v-2H4v12h20v-4h-3"/><path d="M20 5v20h12V5H20zm10 17h-8V8h8v14zM11.5 9h.5l-3 3 2 2 6.5-6.5L11 1 9 3l3 3h-.5C5.1 6 0 11.1 0 17.5v.5h3v-.5C3 12.8 6.8 9 11.5 9z"/></symbol><symbol viewBox="0 0 32 32" id="gel-icon-rotate-device-to-play-game-p-to-l"><path d="M3 7h8v11h2V4H1v20h4v-3H3"/><path d="M7 20v12h20V20H7zm17 10H10v-8h14v8zm-1-18.5v.5l-3-3-2 2 6.5 6.5L31 11l-2-2-3 3v-.5C26 5.1 20.9 0 14.5 0H14v3h.5c4.7 0 8.5 3.8 8.5 8.5z"/></symbol><symbol viewBox="0 0 32 32" id="gel-icon-switch-controlled"><ellipse fill="#E92224" cx="16" cy="24" rx="12" ry="6"/><path d="M21 6l-3 3V2h-4v7l-3-3-2.5 2.5L16 16l7.5-7.5"/></symbol><symbol viewBox="0 0 32 32" id="gel-icon-webcam"><path d="M7.5 27l-3 5h23l-3-5"/><circle cx="16" cy="12.5" r="3.5"/><path d="M16 25c6.9 0 12.5-5.6 12.5-12.5S22.9 0 16 0 3.5 5.6 3.5 12.5 9.1 25 16 25zm0-19c3.6 0 6.5 2.9 6.5 6.5S19.6 19 16 19s-6.5-2.9-6.5-6.5S12.4 6 16 6z"/></symbol></svg>