<svg xmlns="http://www.w3.org/2000/svg" xmlns:xlink="http://www.w3.org/1999/xlink"><symbol viewBox="0 0 32 32" id="gel-icon-games-console"><path d="M8 7.5c-1.9 0-3.5 1.6-3.5 3.5s1.6 3.5 3.5 3.5 3.5-1.6 3.5-3.5S9.9 7.5 8 7.5z"/><path d="M24 3c-2 0-3.9.8-5.3 2h-5.4C11.9 3.8 10 3 8 3c-4.4 0-8 3.6-8 8v18h6l6.4-10h7.1L26 29h6V11c0-4.4-3.6-8-8-8zm0 2c1.1 0 2 .9 2 2s-.9 2-2 2-2-.9-2-2 .9-2 2-2zM8 17c-3.3 0-6-2.7-6-6s2.7-6 6-6 6 2.7 6 6-2.7 6-6 6zm12-4c-1.1 0-2-.9-2-2s.9-2 2-2 2 .9 2 2-.9 2-2 2zm4 4c-1.1 0-2-.9-2-2s.9-2 2-2 2 .9 2 2-.9 2-2 2zm4-4c-1.1 0-2-.9-2-2s.9-2 2-2 2 .9 2 2-.9 2-2 2z"/></symbol><symbol viewBox="0 0 32 32" id="gel-icon-mobile"><path d="M22 0v2H6v30h20V0h-4zm-9 28h-3v-2h3v2zm0-4h-3v-2h3v2zm0-4h-3v-2h3v2zm5 8h-4v-2h4v2zm0-4h-4v-2h4v2zm0-4h-4v-2h4v2zm4 8h-3v-2h3v2zm0-4h-3v-2h3v2zm0-4h-3v-2h3v2zm0-5H10V6h12v9z"/></symbol><symbol viewBox="0 0 32 32" id="gel-icon-mobile-smart"><path d="M6 0v32h20V0H6zm8 2h4v1h-4V2zm3 28h-2v-2h2v2zm7-3H8V4h16v23z"/></symbol><symbol viewBox="0 0 32 32" id="gel-icon-pc"><path d="M28 4v14H4V5h25m3-4H0v21h32V1zm-5.9 26l2.3 2H3.6l2.3-2h20.2m.9-2H5l-5 4v2h32v-2l-5-4z"/></symbol><symbol viewBox="0 0 32 32" id="gel-icon-radio"><path d="M30 7V1H2v6H0v24h32V7h-2zM4 3h24v4H4V3zm2 18c-1.1 0-2-.9-2-2s.9-2 2-2 2 .9 2 2-.9 2-2 2zm0-6c-1.1 0-2-.9-2-2s.9-2 2-2 2 .9 2 2-.9 2-2 2zm14 12c-4.4 0-8-3.6-8-8s3.6-8 8-8 8 3.6 8 8-3.6 8-8 8z"/></symbol><symbol viewBox="0 0 32 32" id="gel-icon-set-top-box"><path d="M16 4c4.7 0 9 1.7 12.3 4.5L29.6 7C25.9 3.9 21.2 2 16 2S6.1 3.9 2.4 7l1.3 1.5C7 5.7 11.3 4 16 4"/><path d="M6.3 11.5L7.7 13c2.3-1.9 5.2-3 8.3-3 3.2 0 6.1 1.1 8.3 3l1.3-1.5C23 9.3 19.7 8 16 8s-7 1.3-9.7 3.5M7 21c-1.1 0-2 .9-2 2s.9 2 2 2 2-.9 2-2-.9-2-2-2"/><path d="M0 18v12h4l2-2h19l2 2h5V18H0zm7 8c-1.7 0-3-1.3-3-3s1.3-3 3-3 3 1.3 3 3-1.3 3-3 3m13-2h-2v-2h2v2zm4 0h-2v-2h2v2zm4 0h-2v-2h2v2z"/></symbol><symbol viewBox="0 0 32 32" id="gel-icon-smart-watch"><path d="M22 5H10l1-5h10m0 32H11l-1-5h12m1-20H9L7 9v14l2 2h14l2-2V9l-2-2zm0 15.3l-.7.7H9.8l-.8-.8V9.8l.8-.8h12.4l.8.8v12.5z"/></symbol><symbol viewBox="0 0 32 32" id="gel-icon-tablet"><path d="M2 0v32h28V0H2zm16 30h-4v-2h4v2zm8-4H6V4h20v22z"/></symbol><symbol viewBox="0 0 32 32" id="gel-icon-tv"><path d="M32 26V1H0v25h12v2.5H6V31h20v-2.5h-6V26h12zm-20-3.8H4V4.8h24v17.5H12z"/></symbol></svg>