<svg xmlns="http://www.w3.org/2000/svg" viewBox="0 0 78 52">
  <g fill="none">
    <polygon fill="#FFD141" points="0 0 78 0 78 52 0 52"/>
    <path fill="#000" d="M6.96194567,18.405101 C6.60201399,18.1481713 6.20644826,17.9452512 5.78780087,17.8027799 C5.33796618,17.6477521 4.85382205,17.5028901 4.33536851,17.3681939 C4.03039583,17.2957629 3.75210826,17.2195197 3.50431797,17.1394644 C3.28313923,17.0670947 3.06881799,16.9752428 2.86387535,16.8649889 C2.69989448,16.7730601 2.56110374,16.6421255 2.45978655,16.4837731 C2.17640918,15.9710049 2.34390657,15.32614 2.8410024,15.0160921 C3.28407454,14.7744409 3.78567666,14.6609204 4.2896226,14.6882465 C4.85711382,14.6904311 5.42202675,14.764728 5.97078448,14.9093517 C6.50819474,15.0491567 7.02202175,15.2675332 7.49564785,15.5574186 L7.49564785,13.498853 C7.02086471,13.2533817 6.5158762,13.0713807 5.99365743,12.9575265 C5.43481947,12.8289437 4.86305934,12.7649884 4.2896226,12.7669186 C3.68715902,12.759412 3.08661779,12.8364044 2.50553245,12.9956481 C2.01421141,13.1292086 1.55249271,13.354248 1.14459189,13.6589637 C0.783632418,13.9413175 0.49379729,14.3042641 0.298292715,14.7187437 C0.0946396839,15.1552561 -0.00704201711,15.6323779 0.000944356508,16.1139937 C-0.00976836631,16.5465337 0.0707650734,16.9764783 0.23729818,17.3758182 C0.39736266,17.7308021 0.640575411,18.0420098 0.94635965,18.2831119 C1.29861775,18.5592586 1.69231734,18.7779806 2.11288013,18.9311788 C2.63388393,19.1270869 3.16753111,19.2875631 3.71017452,19.4115108 C3.97702561,19.4725053 4.23116951,19.5411242 4.47260621,19.6173673 C4.69301419,19.685264 4.9052422,19.7773147 5.10542451,19.8918428 C5.27836966,19.984324 5.42822243,20.1146308 5.54382273,20.2730586 C5.65544504,20.4494173 5.7112479,20.6553564 5.70393339,20.8639432 C5.71618925,21.2699102 5.50561168,21.6501197 5.15498257,21.8551044 C4.66775152,22.1168483 4.11744649,22.2382586 3.5653125,22.2058229 C2.34243162,22.2055918 1.14333291,21.8678918 0.100060476,21.2299104 L0.100060476,23.3037246 C1.16685428,23.833763 2.33984864,24.1152816 3.53100307,24.1271508 C4.95675033,24.1271508 6.06227628,23.8298024 6.85139308,23.2274814 C7.98585919,22.2660894 8.35203963,20.6725838 7.75106247,19.3123947 C7.56719608,18.9462662 7.29782785,18.629824 6.96575783,18.3898523 L6.96194567,18.405101 Z M17.0298561,13.9258148 C16.2712366,13.3082451 15.1657106,13.0032724 13.7399634,13.0032724 L9.89349551,13.0032724 L9.89349551,23.9136699 L12.1807906,23.9136699 L12.1807906,20.1739425 L13.7513999,20.1739425 C15.1771471,20.1739425 16.2712366,19.8689698 17.0336683,19.2514001 C17.8168404,18.5938488 18.2412767,17.6034976 18.1773158,16.5828892 C18.2400427,15.5624945 17.8158347,14.5726759 17.0336683,13.9143783 L17.0298561,13.9258148 Z M15.2610146,17.924769 C14.7730363,18.2381337 14.1962561,18.3840015 13.6179743,18.3402943 L12.1693541,18.3402943 L12.1693541,14.8331085 L13.6179743,14.8331085 C14.19668,14.7905296 14.7734942,14.9377443 15.2610146,15.2524459 C15.9875031,15.9936125 15.9875031,17.1797903 15.2610146,17.9209568 L15.2610146,17.924769 Z M28.839923,14.3032185 C28.3607188,13.8004063 27.7761946,13.4098557 27.1282638,13.1595709 C26.4108632,12.8908652 25.6487887,12.7614808 24.8829025,12.7783551 C24.120737,12.7614391 23.3623993,12.8908482 22.6489777,13.1595709 C22.0038377,13.4109554 21.4220277,13.8014319 20.9449428,14.3032185 C20.4641513,14.8192465 20.0955159,15.4293122 19.8622898,16.0949329 C19.35388,17.6217907 19.35388,19.2722787 19.8622898,20.7991365 C20.0957312,21.4663732 20.4672377,22.0768908 20.9525672,22.5908509 C21.4314015,23.0905599 22.0127218,23.4807077 22.656602,23.7344985 C23.365129,24.0135129 24.1215154,24.1508022 24.8829025,24.1385873 C25.6479739,24.1504303 26.4080308,24.0131798 27.1206395,23.7344985 C27.7668011,23.4808171 28.3506335,23.0907286 28.8322987,22.5908509 C29.3176282,22.0768908 29.6891346,21.4663732 29.922576,20.7991365 C30.4309858,19.2722787 30.4309858,17.6217907 29.922576,16.0949329 C29.6878621,15.4300142 29.3194011,14.8202371 28.839923,14.3032185 L28.839923,14.3032185 Z M27.0901422,21.1651037 C26.5236898,21.7780196 25.7270193,22.1265411 24.8924329,22.1265411 C24.0578465,22.1265411 23.261176,21.7780196 22.6947236,21.1651037 C22.1686457,20.5246611 21.9094189,19.6402403 21.9094189,18.4622833 C21.9094189,17.2843264 22.1686457,16.4037178 22.6947236,15.7670873 C23.2640931,15.1593866 24.0596774,14.8145692 24.8924329,14.8145692 C25.7251885,14.8145692 26.5207727,15.1593866 27.0901422,15.7670873 C27.6162201,16.4037178 27.8754469,17.2919507 27.8754469,18.4622833 C27.8754469,19.632616 27.6162201,20.5246611 27.0901422,21.1651037 L27.0901422,21.1651037 Z M40.1200998,18.309797 C40.4762519,17.7673483 40.6572277,17.1286105 40.6385534,16.4799609 C40.7023881,15.4844133 40.2752834,14.5205803 39.4949058,13.8991297 C38.7121426,13.3018915 37.591368,13.0032724 36.1325821,13.0032724 L32.2136832,13.0032724 L32.2136832,23.9136699 L34.5009783,23.9136699 L34.5009783,19.9299643 L36.5023614,19.9299643 C36.8950138,20.5932799 37.2762296,21.2527833 37.6574455,21.9160989 C38.0386613,22.5794145 38.4198771,23.24273 38.7744079,23.9136699 L41.3666756,23.9136699 C40.4822549,22.3888065 39.5724197,20.9084183 38.6371702,19.4725053 C39.2341346,19.2336949 39.7482614,18.8255736 40.1162876,18.2983605 L40.1200998,18.309797 Z M35.9953444,18.1001283 L34.470481,18.1001372 L34.470481,14.8331085 L35.9953444,14.8331085 C37.5202077,14.8331085 38.2826394,15.3782472 38.2826394,16.4685245 C38.2826394,17.5588018 37.5202077,18.1026697 35.9953444,18.1001283 L35.9953444,18.1001283 Z M41.8126982,13.0032724 L41.8126982,15.0313407 L45.2436408,15.0313407 L45.2436408,23.9136699 L47.5690574,23.9136699 L47.5690574,15.0313407 L51,15.0313407 L51,13.0032724 L41.8126982,13.0032724 Z M39.7922542,-1.95399252e-14 L30.909925,-1.95399252e-14 L30.909925,8.35243915 L39.7922542,8.35243915 L39.7922542,-1.95399252e-14 Z M38.0386613,6.71702318 L37.9852911,6.74370828 C37.2773177,7.10299147 36.4917479,7.28236324 35.697996,7.26597399 L35.697996,7.26597399 C34.7207688,7.30767241 33.7712644,6.93534486 33.0828553,6.24050337 C32.5680143,5.71010318 32.2725454,5.00479047 32.2556169,4.2658053 C32.2421385,3.39640139 32.6031974,2.56318847 33.2467781,1.97851023 C33.9427364,1.3827214 34.8356089,1.06743004 35.7513662,1.09408947 C36.493008,1.11195641 37.2242736,1.27244657 37.9052358,1.56679712 L37.9624181,1.58967007 L37.9624181,2.71044465 L37.8251804,2.63420148 C37.1964962,2.26250458 36.4816347,2.0614498 35.7513662,2.05094124 C34.3713649,2.05094124 33.3725794,2.96204711 33.3687672,4.18574997 C33.364955,5.40945283 34.3332433,6.30149791 35.7856757,6.30912222 C36.5360839,6.28888077 37.2670859,6.06628734 37.9014236,5.66486745 L38.0424735,5.5771878 L38.0386613,6.71702318 Z M29.5604209,-1.95399252e-14 L20.6780917,-1.95399252e-14 L20.6780917,8.35243915 L29.5604209,8.35243915 L29.5604209,-1.95399252e-14 Z M26.9376559,6.65602864 C26.453168,7.03750349 25.8452989,7.22746258 25.2298089,7.18973082 L23.0111327,7.18973082 L23.0111327,1.18558128 L24.9172119,1.18558128 C25.4691529,1.15272738 26.0133233,1.32822234 26.4420753,1.67734971 C26.7521445,1.95467353 26.9284191,2.3516384 26.9262194,2.76762703 C26.9353516,3.05938039 26.848282,3.34604021 26.6784291,3.58342894 C26.5378482,3.75697907 26.3608595,3.89752895 26.1599756,3.99514205 C26.9124348,4.13658735 27.4609509,4.78874753 27.4713581,5.55431485 C27.4700183,5.98285692 27.2838262,6.38997858 26.9605289,6.67127727 L26.9376559,6.65602864 Z M26.0722959,4.85668986 C25.7725284,4.67792783 25.4256297,4.59419366 25.0773226,4.61652387 L24.0861614,4.61652387 L24.0861614,6.25956416 L25.111632,6.25956416 C25.4654567,6.29016679 25.8185146,6.19277153 26.1066054,5.98508875 C26.26363,5.84350894 26.3501282,5.63981952 26.3429592,5.42851362 C26.349321,5.19921373 26.2387539,4.98238727 26.049423,4.8528777 L26.0722959,4.85668986 Z M25.5157208,3.46143987 C25.7121581,3.31806769 25.8191886,3.08231117 25.7978205,2.84005804 C25.8117433,2.64790352 25.7373727,2.45987196 25.5957761,2.32922881 C25.369563,2.16284093 25.0900396,2.08549706 24.8104715,2.11193578 L24.0861614,2.11193578 L24.0861614,3.66729642 L24.5855542,3.66729642 C24.910554,3.69193487 25.2352729,3.6160784 25.5157208,3.45000339 L25.5157208,3.46143987 Z M10.4500706,8.35243915 L19.3285877,8.35243915 L19.3285877,-1.95399252e-14 L10.4500706,-1.95399252e-14 L10.4500706,8.35243915 Z M12.7792995,1.18558128 L14.6853787,1.18558128 C15.2373196,1.15272738 15.7814901,1.32822234 16.2102421,1.67734971 C16.5165333,1.95065064 16.6913388,2.34188222 16.690574,2.7523784 C16.7017411,3.04439793 16.6144758,3.33170212 16.4427837,3.5681803 C16.304384,3.74237667 16.1284704,3.88310751 15.9281423,3.97989341 C16.6790886,4.12293501 17.2256653,4.77468392 17.2357127,5.53906622 C17.2258093,5.97312472 17.0266627,6.38116634 16.690574,6.65602864 C16.2060861,7.03750349 15.598217,7.22746258 14.982727,7.18973082 L12.7792995,7.18973082 L12.7792995,1.18558128 Z M15.2838876,3.47287634 C15.4803248,3.32950416 15.5873554,3.09374765 15.5659873,2.85149451 C15.5835209,2.65545867 15.5088437,2.46242504 15.3639429,2.32922881 C15.1377298,2.16284093 14.8582063,2.08549706 14.5786382,2.11193578 L13.8543281,2.11193578 L13.8543281,3.66729642 L14.3537209,3.66729642 C14.6787207,3.69193487 15.0034396,3.6160784 15.2838876,3.45000339 L15.2838876,3.47287634 Z M16.1149381,5.41707715 C16.1183507,5.18753987 16.0067547,4.97150135 15.8175897,4.84144122 C15.5194427,4.67023502 15.1769783,4.5919195 14.8340529,4.61652387 L13.8543281,4.61652387 L13.8543281,6.25956416 L14.8797988,6.25956416 C15.2336235,6.29016679 15.5866813,6.19277153 15.8747721,5.98508875 C16.0310859,5.84269402 16.1185798,5.63993023 16.1149381,5.42851362 L16.1149381,5.41707715 Z" transform="translate(14 14)"/>
  </g>
</svg>
