<svg xmlns="http://www.w3.org/2000/svg" width="32" height="32" viewBox="0 0 32 32"><title>alarm</title><polygon points="17 17.4 17 11 15 11 15 18.6 21.6 22.4 22.6 20.7 17 17.4"/><path d="M29.2,9A6,6,0,0,0,18.8,3Z"/><path d="M2.8,9A6,6,0,0,1,13.2,3Z"/><path d="M29,17.5C29,10.3,23.2,4,16,4h0C8.8,4,3,10.3,3,17.5a13.6,13.6,0,0,0,3.4,9L4,29l2.8,2.9,2.7-2.7a12.9,12.9,0,0,0,12.9,0L25.2,32,28,29.2l-2.4-2.7A13.6,13.6,0,0,0,29,17.5ZM6.5,18a10,10,0,0,1,2.8-7A9.7,9.7,0,0,1,16,8h0a9.7,9.7,0,0,1,9.5,9.8A9.6,9.6,0,0,1,16,27.4,9.4,9.4,0,0,1,6.5,18Z"/></svg>