<svg xmlns="http://www.w3.org/2000/svg" width="32" height="32" viewBox="0 0 32 32"><title>pinterest</title><path d="M16,0A16,16,0,0,0,9.6,30.7,14,14,0,0,1,9.9,27l2.1-8.7a6.1,6.1,0,0,1-.5-2.5c0-2.4,1.4-4.1,3.1-4.1A2.1,2.1,0,0,1,16.6,14c0,1.5-.9,3.7-1.4,5.7a2.5,2.5,0,0,0,2.5,3.1c3,0,5.1-3.9,5.1-8.5s-2.4-6.1-6.7-6.1a7.6,7.6,0,0,0-7.9,7.7,4.6,4.6,0,0,0,1.1,3.1.8.8,0,0,1,.2.9l-.3,1.3a.5.5,0,0,1-.8.4c-2.2-.9-3.3-3.4-3.3-6.1,0-4.5,3.8-10,11.4-10s10.1,4.4,10.1,9.2c0,6.3-3.5,11-8.6,11a4.6,4.6,0,0,1-3.9-2l-1.1,4.4a13.3,13.3,0,0,1-1.6,3.4A16,16,0,1,0,16,0Z"/></svg>