<svg xmlns="http://www.w3.org/2000/svg" width="32" height="32" viewBox="0 0 32 32"><title>ferry</title><polygon points="6 10 26 10 24 6 28 6 26 3 19 3 19 0 13 0 13 3 6 3 4 6 8 6 6 10"/><polygon points="13 21 10 20 10 22 13 22 13 21"/><polygon points="19.3 15 12.7 15 11.8 18 20.2 18 19.3 15"/><path d="M7,27.8l3,1,3-1,3,1,3-1,3,1,3-1,2.4.8L32,12H0L4.6,28.6ZM9,24V19h1.5l.6-1.8L12,14h8l.9,3.2.5,1.6V19H23v7H21V24H11v2H9Z"/><polygon points="19 22 22 22 22 20 19 21 19 22"/><polygon points="31 29.9 28 30.9 25 29.9 22 30.9 19 29.9 16 30.9 13 29.9 10 30.9 7 29.9 4 30.9 1 29.9 0 30.3 0 31.3 1 31 4 32 7 31 10 32 13 31 16 32 19 31 22 32 25 31 28 32 31 31 32 31.3 32 30.3 31 29.9"/></svg>