<svg xmlns="http://www.w3.org/2000/svg" width="48" height="32" viewBox="0 0 48 32"><title>closed-caption</title><path d="M48,32H0V0H48ZM19.1,17.5a4.2,4.2,0,0,1-.9,2.3,2.7,2.7,0,0,1-2.1.9,3.5,3.5,0,0,1-1.7-.4,3.2,3.2,0,0,1-1.1-1,4.6,4.6,0,0,1-.6-1.5,7.2,7.2,0,0,1-.2-1.7,7.9,7.9,0,0,1,.2-1.8,4.7,4.7,0,0,1,.7-1.5,3.2,3.2,0,0,1,1.1-1,3.5,3.5,0,0,1,1.7-.4l1,.2.9.5.7.7a2.4,2.4,0,0,1,.3.9V14H23v-.4a6.5,6.5,0,0,0-.8-2.5,6,6,0,0,0-1.5-1.8,6.7,6.7,0,0,0-2.1-1.1,8.4,8.4,0,0,0-5.7.3,7,7,0,0,0-2.4,1.8,7.9,7.9,0,0,0-1.5,2.6,9.8,9.8,0,0,0-.5,3.2,9.5,9.5,0,0,0,.5,3.2,7.7,7.7,0,0,0,1.5,2.6,7,7,0,0,0,2.4,1.7,8.1,8.1,0,0,0,3.2.6,7.8,7.8,0,0,0,2.7-.4,6.3,6.3,0,0,0,2.1-1.3,6.5,6.5,0,0,0,1.5-2.1,9.2,9.2,0,0,0,.7-2.9V17H19.2ZM35.7,17v.5a4.2,4.2,0,0,1-.9,2.3,2.7,2.7,0,0,1-2.1.9,3.5,3.5,0,0,1-1.7-.4,3.2,3.2,0,0,1-1.1-1,4.6,4.6,0,0,1-.6-1.5,7.2,7.2,0,0,1-.2-1.7,7.9,7.9,0,0,1,.2-1.8,4.7,4.7,0,0,1,.7-1.5,3.2,3.2,0,0,1,1.1-1,3.5,3.5,0,0,1,1.7-.4l1,.2.9.5.7.7a2.4,2.4,0,0,1,.3.9V14h3.9v-.4a6.5,6.5,0,0,0-.8-2.5,6,6,0,0,0-1.5-1.8,6.7,6.7,0,0,0-2.1-1.1,8.4,8.4,0,0,0-5.7.3A7,7,0,0,0,27,10.2a7.9,7.9,0,0,0-1.5,2.6,9.8,9.8,0,0,0-.5,3.2,9.5,9.5,0,0,0,.5,3.2A7.7,7.7,0,0,0,27,21.9a7,7,0,0,0,2.4,1.7,8.1,8.1,0,0,0,3.2.6,7.8,7.8,0,0,0,2.7-.4,6.3,6.3,0,0,0,2.1-1.3,6.5,6.5,0,0,0,1.5-2.1,9.2,9.2,0,0,0,.7-2.9V17Z"/></svg>