<svg xmlns="http://www.w3.org/2000/svg" width="60" height="32" viewBox="0 0 60 32"><title>live-pulse</title><path d="M21.3,9.5H24V20.3h6.5v2.4H21.3Z"/><path d="M34.6,22.6H31.8V9.5h2.7Z"/><path d="M45.5,9.5h2.8L43.9,22.6H41.3L36.9,9.5h2.9l2.8,9.9Z"/><path d="M59.7,11.8H52.7v2.8h6.4v2.3H52.7v3.4H60v2.4H50.1V9.5h9.6Z"/><path d="M8.6,9.5A6.5,6.5,0,1,1,2.2,16,6.5,6.5,0,0,1,8.6,9.5m0-2.2A8.6,8.6,0,1,0,17.3,16,8.6,8.6,0,0,0,8.6,7.4Z"/><path d="M8.6,11.7A4.3,4.3,0,1,1,4.3,16a4.3,4.3,0,0,1,4.3-4.3"/></svg>