<svg xmlns="http://www.w3.org/2000/svg" width="56" height="32" viewBox="0 0 56 32"><title>sign-language</title><path d="M56,32H0V0H56ZM37.7,23.9H49.3V20.3H41.9V7.9H37.7ZM22.3,18.1c0,4.1,3.3,5.7,6.9,5.7s7-1.3,7-5.3-2.3-4-4.6-4.6-4.6-.9-4.6-2.1,1.1-1.4,2-1.4,2.6.5,2.6,1.9h4.2c0-3.6-3.2-5.1-6.4-5.1S22.7,8.5,22.7,12s2.4,4,4.7,4.6S32,17.6,32,19s-1.3,1.6-2.6,1.6-2.9-.6-3-2.5ZM7.7,23.9h7.7c3.4,0,6.2-1.2,6.2-5a3.8,3.8,0,0,0-2.8-3.8,3.6,3.6,0,0,0,2.1-3.2c0-3.3-3-4.1-5.8-4H7.7Zm4.2-12.8h3.2c.9,0,1.7.4,1.7,1.5a1.6,1.6,0,0,1-1.7,1.5H11.8Zm0,5.8h3.3c1.3,0,2.2.5,2.2,1.9s-.9,1.8-2.2,1.8H11.8Z"/></svg>