<svg xmlns="http://www.w3.org/2000/svg" width="32" height="32" viewBox="0 0 32 32"><title>childrens-5-mins</title><path d="M15.4,6a13,13,0,1,0,13,13A13,13,0,0,0,15.4,6Zm0,22.5A9.5,9.5,0,1,1,24.9,19,9.5,9.5,0,0,1,15.4,28.5Z"/><rect x="24.1" y="5.4" width="4" height="6" transform="translate(1.7 20.9) rotate(-45)"/><path d="M18.4,3a3,3,0,1,0-3,3A3,3,0,0,0,18.4,3Zm-3,2a2,2,0,1,1,2-2A2,2,0,0,1,15.4,5Z"/><path d="M16,17.3a2.3,2.3,0,0,0-1.8.7h0l.4-2.1h3.8V14.4H13.2l-.9,5H14a1.5,1.5,0,0,1,1.4-.7,1.6,1.6,0,0,1,1.6,1.7,1.6,1.6,0,0,1-1.6,1.8,1.5,1.5,0,0,1-1.5-1.4H12c0,1.9,1.6,2.9,3.4,2.9a3.3,3.3,0,0,0,3.4-3.3A2.8,2.8,0,0,0,16,17.3Z"/></svg>