<svg xmlns="http://www.w3.org/2000/svg" width="32" height="32" viewBox="0 0 32 32"><title>childrens-30-mins</title><path d="M15.4,6a13,13,0,1,0,13,13A13,13,0,0,0,15.4,6Zm0,22.5A9.5,9.5,0,1,1,24.9,19,9.5,9.5,0,0,1,15.4,28.5Z"/><rect x="24.1" y="5.4" width="4" height="6" transform="translate(1.7 20.9) rotate(-45)"/><path d="M18.4,3a3,3,0,1,0-3,3A3,3,0,0,0,18.4,3Zm-3,2a2,2,0,1,1,2-2A2,2,0,0,1,15.4,5Z"/><path d="M13.4,18.6h0a1.8,1.8,0,0,0,1.3-1.9c0-1.6-1.6-2.5-3.1-2.5a3,3,0,0,0-3.1,3.1h1.8a1.4,1.4,0,0,1,1.4-1.6,1.2,1.2,0,0,1,1.3,1.2c0,1-1.1,1.2-1.9,1.1v1.3c.9,0,2.1,0,2.1,1.4a1.4,1.4,0,0,1-1.5,1.4c-1.1,0-1.6-.8-1.6-1.8H8.3a3.1,3.1,0,0,0,3.4,3.3,3.1,3.1,0,0,0,3.4-3A2,2,0,0,0,13.4,18.6Z"/><path d="M19.1,14.2c-1.8,0-3.3,1.1-3.3,4.7s1.5,4.8,3.3,4.8,3.4-1.1,3.4-4.8S20.9,14.2,19.1,14.2Zm0,7.9c-1.5,0-1.5-2.2-1.5-3.2s0-3.2,1.5-3.2,1.5,2.2,1.5,3.2S20.6,22.2,19.1,22.2Z"/></svg>