<svg xmlns="http://www.w3.org/2000/svg" width="32" height="32" viewBox="0 0 32 32"><title>childrens-15-mins</title><path d="M15.4,6a13,13,0,1,0,13,13A13,13,0,0,0,15.4,6Zm0,22.5A9.5,9.5,0,1,1,24.9,19,9.5,9.5,0,0,1,15.4,28.5Z"/><rect x="24.1" y="5.4" width="4" height="6" transform="translate(1.7 20.9) rotate(-45)"/><path d="M15.4,6a3,3,0,1,0-3-3A3,3,0,0,0,15.4,6Zm0-5a2,2,0,1,1-2,2A2,2,0,0,1,15.4,1Z"/><path d="M8.6,16.2v1.4h2.3v5.9h1.8V14.4H11.3C11.1,15.8,9.9,16.2,8.6,16.2Z"/><path d="M18.1,17.3a2.3,2.3,0,0,0-1.8.7h0l.4-2.1h3.8V14.4H15.3l-.9,5h1.7a1.5,1.5,0,0,1,1.4-.7A1.6,1.6,0,0,1,19,20.4a1.6,1.6,0,0,1-1.6,1.8A1.5,1.5,0,0,1,16,20.8H14.1c0,1.9,1.6,2.9,3.4,2.9a3.3,3.3,0,0,0,3.4-3.3A2.8,2.8,0,0,0,18.1,17.3Z"/></svg>