<svg xmlns="http://www.w3.org/2000/svg" width="32" height="32" viewBox="0 0 32 32"><title>craft-and-cooking</title><circle cx="16" cy="27" r="3" fill="none"/><circle cx="10" cy="17" r="1" fill="none"/><circle cx="5" cy="27" r="3" fill="none"/><rect x="23" y="6" width="9" height="20"/><polygon points="28 5 29 4 29 0 26 0 26 4 27 5 28 5"/><polygon points="27 27 26 28 26 32 29 32 29 28 28 27 27 27"/><path d="M14,15,17.9,2.1a1.5,1.5,0,0,0-.8-2,1.5,1.5,0,0,0-2,.8L11.6,9.3,14,15Z"/><path d="M16,22l-1.3.2L5.9,1A1.5,1.5,0,0,0,3,1.5a1.4,1.4,0,0,0,0,.3L8,17,6.3,22.2,5,22a5.1,5.1,0,1,0,3.3,1.3L10,20l2.6,3.4A5,5,0,1,0,16,22ZM5,30a3,3,0,1,1,3-3A3,3,0,0,1,5,30Zm5-12a1,1,0,1,1,1-1A1,1,0,0,1,10,18Zm6,12a3,3,0,1,1,3-3A3,3,0,0,1,16,30Z"/></svg>