<svg xmlns="http://www.w3.org/2000/svg" width="32" height="32" viewBox="0 0 32 32"><title>dress-up</title><path d="M0,27.6l1.2-.4h0l1.1-.3h.3l1-.2h.4l.9-.2H16l.9.2h2l.7.2,1.7.5L10.6.1S-.1,27.6,0,27.6ZM8.1,14.8a1.3,1.3,0,1,1-1.3,1.3A1.3,1.3,0,0,1,8.1,14.8Zm2.6,8A1.3,1.3,0,1,1,12,21.5,1.3,1.3,0,0,1,10.7,22.8ZM5.4,20.7A1.3,1.3,0,1,1,4.1,22,1.3,1.3,0,0,1,5.4,20.7Zm10.5.1a1.3,1.3,0,1,1-1.3,1.3A1.3,1.3,0,0,1,15.9,20.7Zm-2.8-5.8a1.3,1.3,0,1,1-1.3,1.3A1.3,1.3,0,0,1,13.2,14.9ZM12,11.1a1.3,1.3,0,1,1-1.3-1.3A1.3,1.3,0,0,1,12,11.1Z"/><path d="M10.7,27.8A32.1,32.1,0,0,0,.6,29.5H.3c1.2,1.4,5.3,2.4,10.2,2.4s9-1,10.2-2.4h-.3A29,29,0,0,0,10.7,27.8Z"/><polygon points="32 4.7 27.6 4 25.7 0.1 23.7 4 19.3 4.6 22.5 7.7 21.7 12.1 25.6 10 27.5 11 27.5 11.1 29.5 12.1 28.8 7.8 32 4.7"/><polygon points="23.6 13.4 23.6 31.8 27.6 31.8 27.6 13.5 25.6 12.4 23.6 13.4"/></svg>