<svg xmlns="http://www.w3.org/2000/svg" width="32" height="32" viewBox="0 0 32 32"><title>events</title><rect x="26.3" y="10.1" width="2" height="4"/><polygon points="3.3 10.1 1.3 10.1 1.3 25.1 1.3 27.1 3.3 27.1 13.3 27.1 13.3 25.1 3.3 25.1 3.3 10.1"/><polygon points="25.3 8.1 28.3 8.1 28.3 2.1 23.3 2.1 23.3 5.1 23.3 6.1 22.3 6.1 20.3 6.1 19.3 6.1 19.3 5.1 19.3 2.1 10.3 2.1 10.3 5.1 10.3 6.1 9.3 6.1 7.3 6.1 6.3 6.1 6.3 5.1 6.3 2.1 1.3 2.1 1.3 8.1 3.3 8.1 25.3 8.1"/><polygon points="22.3 2.1 22.3 0.1 20.3 0.1 20.3 2.1 20.3 5.1 22.3 5.1 22.3 2.1"/><polygon points="9.3 2.1 9.3 0.1 7.3 0.1 7.3 2.1 7.3 5.1 9.3 5.1 9.3 2.1"/><polygon points="19.3 12.1 23.7 17.7 30.7 16.5 26.8 22.5 30.1 28.8 23.2 26.8 18.2 31.9 17.9 24.8 11.6 21.6 18.2 19.2 19.3 12.1" fill="#000100"/></svg>