<svg xmlns="http://www.w3.org/2000/svg" width="32" height="32" viewBox="0 0 32 32"><title>family-activities</title><path d="M18.1,19.1v.3a7.8,7.8,0,0,0,3.7.9,7.6,7.6,0,1,0-7.7-7.6,7.4,7.4,0,0,0,0,.8A6,6,0,0,1,18.1,19.1Z"/><path d="M29.5,21.9H17.4a6.1,6.1,0,0,1-1.2,1.6H18L19.9,30H32Z"/><ellipse cx="12" cy="19.1" rx="4.5" ry="4.4"/><polygon points="7.6 25.1 5.9 30 18.2 30 16.5 25.1 7.6 25.1"/><path d="M12.3,7.4a1.7,1.7,0,1,0-.6-2.3h0l-.8-3-3.4.9A1.7,1.7,0,1,1,5,4.7a1.7,1.7,0,0,1,.1-1.2l-3.3.8.8,3.3a1.7,1.7,0,1,0,.5,2L4,12.9l3.2-.8a1.7,1.7,0,1,1,2.6-.7l3.3-.9-.8-3Z"/></svg>