<svg xmlns="http://www.w3.org/2000/svg" width="32" height="32" viewBox="0 0 32 32"><title>how-to</title><path d="M15.1,11.7a1.3,1.3,0,0,1,1-.4,1.1,1.1,0,0,1,.8.2.9.9,0,0,1,.3.7c0,.3-.2.6-.7,1l-1.6,1.4a2.8,2.8,0,0,0-.5.9,3.7,3.7,0,0,0-.2,1.3v.3h3.1a2.1,2.1,0,0,1,.2-1,4.1,4.1,0,0,1,1-1A6.6,6.6,0,0,0,20,13.5a2.5,2.5,0,0,0,.4-1.3,3,3,0,0,0-1.5-2.6,5.1,5.1,0,0,0-2.9-.7,4.8,4.8,0,0,0-3.4,1.1,4.2,4.2,0,0,0-1.3,2.8l3.2.4A2.2,2.2,0,0,1,15.1,11.7Z"/><rect x="14" y="17.9" width="3.3" height="2.89"/><path d="M2,0V32H30V0ZM18,30H14V28h4Zm8-4H6V4H26Z"/></svg>