<svg xmlns="http://www.w3.org/2000/svg" width="32" height="32" viewBox="0 0 32 32"><title>physical-development</title><circle cx="13" cy="2" r="2"/><circle cx="8.5" cy="2" r="1.5"/><circle cx="4.5" cy="3" r="1.5"/><circle cx="1.5" cy="5.5" r="1.5"/><path d="M12,18V15l1-1.4h0A5.5,5.5,0,1,0,3,10.5,5.4,5.4,0,0,0,3.2,12L6.7,23.4h0a3.7,3.7,0,1,0,6.7-3.2Z"/><circle cx="19" cy="8" r="2"/><circle cx="23.5" cy="8" r="1.5"/><circle cx="27.5" cy="9" r="1.5"/><circle cx="30.5" cy="11.5" r="1.5"/><path d="M23.5,11A5.5,5.5,0,0,0,19,19.6h0L20,21v3l-1.4,2.3a3.7,3.7,0,1,0,6.7,3.2h0L28.8,18a5.5,5.5,0,0,0-5.3-7Z"/></svg>