<svg xmlns="http://www.w3.org/2000/svg" width="32" height="32" viewBox="0 0 32 32"><title>platform</title><rect x="8.5" y="25.5" width="11.7" height="6.54"/><rect x="20.3" y="18.9" width="11.7" height="6.54"/><path d="M14.2,18.1l1,6.5h1.4l-.2-7.7-4-2.2L13.6,9s1.8,3.5,3.6,2.4,2.5-4.9,2.5-4.9l-1.2-.6-2,3.3L15.1,7a4.4,4.4,0,0,0-3.6-2.1C9.3,4.6,6.9,6.5,6.9,6.5A11.2,11.2,0,0,0,4.1,9.1,13.4,13.4,0,0,0,1.9,13l1.1.6,2.6-3.3L8.4,8.4l-1.3,6-1,3.4L0,20.1l.6,1.3,7.6-1.8L10.1,17Z"/><circle cx="12.3" cy="2" r="2" transform="matrix(1, -0.03, 0.03, 1, -0.06, 0.39)"/></svg>