<svg xmlns="http://www.w3.org/2000/svg" width="32" height="32" viewBox="0 0 32 32"><title>pre-school</title><path d="M5.5,12l-1-5.3h0A2,2,0,0,0,.5,7l1.1,5.5A2,2,0,0,0,5.5,12"/><path d="M15.5,11a2,2,0,0,0,2-1.9h0l1-6.7h0a1.3,1.3,0,0,0,.1-.4,2,2,0,0,0-4-.1h0l-1,6.7h0a2,2,0,0,0,2,2.3"/><path d="M21.5,13a2,2,0,0,0,1.5-.7l3.1-5.2A2,2,0,0,0,23,4.7h0l-.3.5L19.9,9.8h0A2,2,0,0,0,21.5,13"/><path d="M7.8,9.3A1.9,1.9,0,0,0,9.6,11a1.9,1.9,0,0,0,1.9-1.6V1.9h0a2,2,0,0,0-4,.1l.3,7.3Z"/><path d="M29.5,20h-.6L21.5,23a2,2,0,0,1-2-2V17.5A4.5,4.5,0,0,0,15.2,13H11.5l-9,5,1,9s1,5,6,5h2V29l-2-2V25a2.9,2.9,0,0,1,3-3l1.2.2.5.3A3.3,3.3,0,0,1,15.5,25v2l-2,1v4h1s2.5,0,9-4l7.2-4.4A2,2,0,0,0,29.5,20"/></svg>