<svg xmlns="http://www.w3.org/2000/svg" width="32" height="32" viewBox="0 0 32 32"><title>reading-and-writing</title><rect x="8" width="18" height="9"/><path d="M30,0H28V9h2a2,2,0,0,0,2-2V2A2,2,0,0,0,30,0Z"/><polygon points="4 2 0 4.5 4 7 4 2"/><rect x="4" y="17" width="9" height="2"/><path d="M16,14l-2-2H0V32H14l2-2,2,2H32V12H18ZM15,30H2V14H15Zm15,0H17V14H30Z"/><rect x="4" y="21" width="9" height="2"/><rect x="4" y="25" width="9" height="2"/><rect x="19" y="17" width="9" height="2"/><rect x="19" y="21" width="9" height="2"/><rect x="19" y="25" width="9" height="2"/></svg>