<svg xmlns="http://www.w3.org/2000/svg" width="32" height="32" viewBox="0 0 32 32"><title>school-age</title><path d="M0,6v5H0a3,3,0,0,0,3,3H29a3,3,0,0,0,3-3V6Z"/><path d="M11.5,3.5A.5.5,0,0,1,12,3h9a.5.5,0,0,1,.5.5V4h3V3.5A3.5,3.5,0,0,0,21,0H12A3.5,3.5,0,0,0,8.5,3.5V4h3Z"/><polygon points="25 19 27 19 27 25 25 25 25 28 23.5 29 22 28 22 25 20 25 20 19 22 19 22 16 10 16 10 19 12 19 12 25 10 25 10 28 8.5 29 7 28 7 25 5 25 5 19 7 19 7 16 1 16 1 32 31 32 31 16 25 16 25 19"/><rect x="7" y="21" width="3" height="2"/><rect x="22" y="21" width="3" height="2"/></svg>