<svg xmlns="http://www.w3.org/2000/svg" width="32" height="32" viewBox="0 0 32 32"><title>science-experiments</title><path d="M27.7,24.3,20.6,12.7a2.1,2.1,0,0,1-.4-.8V4.8a9.2,9.2,0,0,1,1.1-3.3A1,1,0,0,0,20.4,0h-9a1,1,0,0,0-.8,1.6,9.5,9.5,0,0,1,1.1,3.3V12a1.5,1.5,0,0,1-.3.8L5.2,22.7c-.7,1-1.3,2.2-1.3,2.2-1,2-1.1,3.7-.3,5S7.6,32,8.4,32H23.3a7,7,0,0,0,2.9-.3,4,4,0,0,0,2.6-2.5C29.5,26.9,27.9,24.5,27.7,24.3Zm-.9,4.3a2.1,2.1,0,0,1-1.4,1.2h-.1a11.6,11.6,0,0,1-2.6.1H8.4c-1.1,0-2.6-.3-3.2-1.1s-.1-2.1.4-3,.6-1.1,1.2-2l6.2-9.8a3.4,3.4,0,0,0,.6-2V4.8h0A13.9,13.9,0,0,0,13.1,2h5.8a8,8,0,0,0-.7,2.7V12a3.7,3.7,0,0,0,.7,1.8L26,25.4C26.4,25.9,27.2,27.4,26.9,28.5Z" fill-rule="evenodd"/><path d="M21.7,21.4l-2.4-4-.2.2a2.3,2.3,0,0,1-2.1.6,3.2,3.2,0,0,1-1.4-.8l-1.1-.8c-1-.5-1.8.3-2.3,1.3-1.7,2.9-3.7,5.3-5.3,8.5-.8,1.3.2,2,.9,2h16c.8,0,1.1-1.1.7-1.7S22.8,23.3,21.7,21.4Zm-7.8,4.2a1.5,1.5,0,1,1,.8-2A1.5,1.5,0,0,1,13.9,25.6Zm1.2-4.1a1.3,1.3,0,1,1,1.7.7A1.3,1.3,0,0,1,15.1,21.5Zm5.7,3.8a1.9,1.9,0,1,1-1.6-2.1A1.9,1.9,0,0,1,20.8,25.3Z" fill-rule="evenodd"/></svg>