<svg xmlns="http://www.w3.org/2000/svg" width="32" height="32" viewBox="0 0 32 32"><title>send-ins</title><path d="M30.9,18.3,32,7.4,27.9,7,26.7,2.5l-12,3.2L2.1,4.6,1.7,9.2,0,9.7l1.2,4.4L.2,25l4,.4,1.1,4.1,11-2.9L30,27.8l.5-5.1,1.5-.4Zm-2.7,7.3L2.4,23.2,3.9,6.8,29.8,9.2Z"/><circle cx="15.6" cy="12.5" r="1.8" transform="translate(1.6 26.8) rotate(-84.1)"/><polygon points="15.4 21.5 15.5 21.5 13.1 15.8 8.9 20.9 15.2 21.5 15.4 21.5"/><polygon points="17.1 20.8 22.3 21.3 19.8 13.6 15.5 16.8 17.1 20.8"/></svg>