<svg xmlns="http://www.w3.org/2000/svg" width="32" height="32" viewBox="0 0 32 32"><title>sport</title><path d="M12.5,17.2A14.7,14.7,0,0,1,17,12.7l-3.2-2.4L10.2,13l1.4,4.2Z"/><path d="M4.4,18.9v1.9a11.7,11.7,0,0,1-3-7.2c0-.2,0-.3,0-.5l1.4,1.3L5.4,11,4.7,6.6l-1.9.5A11.7,11.7,0,0,1,9.2,1.8L8.4,3.6l4.1,1.6,3.9-2-1-1.6a11.8,11.8,0,0,1,7,4.5l-1.9-.2-.2,4.4h0l2.7-.5,2.4-.3a12.9,12.9,0,1,0-16,16.1,18.9,18.9,0,0,1,.3-2.5l.2-1.3h0v-.2L8.8,19.5Z"/><path d="M11.8,30.9v.3h.3a17,17,0,0,0,4.3.5,17.9,17.9,0,0,0,3.3-.3l-8.3-8.3A18.1,18.1,0,0,0,11.8,30.9Z"/><path d="M31.5,12.2v-.3H31a17.2,17.2,0,0,0-4.3-.5,17.8,17.8,0,0,0-3.3.3l8.3,8.3A18,18,0,0,0,31.5,12.2Z"/><path d="M21.9,12.9l-.8-.8A14.6,14.6,0,0,0,12.2,21l.8.8,8.3,8.3.8.8a14.6,14.6,0,0,0,8.9-8.9l-.8-.8Zm.5,5.3-1-1L19.5,19l1,1-.5.5-1-1-1.8,1.8,1,1-.5.5-1-1.1-.7.7-.5-.5.7-.7-1-1,.5-.5,1,1,1.8-1.8-1-1,.5-.5,1,1,1.8-1.8-1-1,.5-.5,1,1,.7-.7.5.5-.7.7,1,1Z"/></svg>