<svg xmlns="http://www.w3.org/2000/svg" width="32" height="32" viewBox="0 0 32 32"><title>target</title><path d="M15.1,5.7a11.2,11.2,0,0,1,6.4,2.9l2.6-2.5V3.3l3-3.3V4.4h4.9l-3.3,3H25.8L13.7,19.7l2.7.2a3.3,3.3,0,1,1-3.1-4.4,3.3,3.3,0,0,1,1.4.3L17,13.3a6.5,6.5,0,0,0-3.8-1.2A6.6,6.6,0,1,0,19.6,17l.9-.9a7.8,7.8,0,1,1-2.6-3.6L19.4,11A9.9,9.9,0,0,0,3.3,18.7v.2c0,.3,0,.5,0,.8v1.9l.2.7v.2a10.1,10.1,0,0,0,2.2,3.3l1.5,1.3a9.8,9.8,0,0,0,5.5,1.7h.6a10,10,0,0,0,7.6-4.3h0l.4-.7H22l.3-.7v-.2l.2-.6V19.6c0-.3,0-.5,0-.8h0a9.8,9.8,0,0,0-1-4.3L24.6,12a14.3,14.3,0,0,1,1.8,6.3h0v.3A13.1,13.1,0,0,1,22.6,28h0l-.2.2-.5.4A13,13,0,0,1,13.2,32a13.2,13.2,0,0,1-7.9-2.7L5,29l-.4-.3a13.1,13.1,0,0,1-4.6-10,13.5,13.5,0,0,1,11-13A15,15,0,0,1,15.1,5.7Z"/></svg>