<svg xmlns="http://www.w3.org/2000/svg" width="32" height="32" viewBox="0 0 32 32"><title>curriculum-key-fact</title><rect x="12" y="26" width="8" height="2"/><polygon points="13 32 19 32 20 30 12 30 13 32"/><rect x="15" width="2" height="2"/><rect x="27" y="12" width="2" height="2"/><rect x="3" y="12" width="2" height="2"/><rect x="5" y="3" width="2" height="2"/><rect x="25" y="3" width="2" height="2"/><rect x="6" y="21" width="2" height="2"/><rect x="24" y="21" width="2" height="2"/><path d="M16,4A8.5,8.5,0,0,0,9.8,18.3,8.1,8.1,0,0,1,12,24h8a8.1,8.1,0,0,1,2.2-5.7A8.5,8.5,0,0,0,16,4Zm4.7,12.9A9.7,9.7,0,0,0,18.2,22H13.8a9.7,9.7,0,0,0-2.5-5,6.5,6.5,0,1,1,9.5,0Z"/></svg>