<svg xmlns="http://www.w3.org/2000/svg" width="32" height="32" viewBox="0 0 32 32"><title>quiz</title><circle cx="4" cy="28" r="4" transform="translate(-0.1 0) rotate(-0.3)"/><path d="M17,7.3c-3.3,0-4.5,2.7-4.5,5.5s1.2,5.4,4.5,5.4c.5,0,1.3.1,1.5-.1l-1.9-1.7,1.7-1.8,2.2,1.9a6.1,6.1,0,0,0,1-3.7C21.5,10,20.3,7.3,17,7.3Z"/><path d="M16.9,0C8.7,0,2,5.9,2,13.1S8.8,26,17.1,26,32,20.1,32,12.9,25.2,0,16.9,0Zm7.9,20.4-1.7,1.7L21,20.3a8.1,8.1,0,0,1-4,.9c-5.1,0-8.1-3.7-8.1-8.4s3-8.5,8.1-8.5,8.1,3.7,8.1,8.5A8.7,8.7,0,0,1,23,18.8Z"/></svg>