<svg xmlns="http://www.w3.org/2000/svg" width="32" height="32" viewBox="0 0 32 32"><title>tv-channels</title><polygon points="23 4 23 10 32 9 32 1 23 4"/><polygon points="0 9 9 10 9 4 0 1 0 9"/><rect x="12" y="4" width="8" height="6"/><polygon points="23 19 32 20 32 12 23 13 23 19"/><polygon points="0 20 9 19 9 13 0 12 0 20"/><rect x="12" y="13" width="8" height="6"/><polygon points="23 28 32 31 32 23 23 22 23 28"/><polygon points="0 31 9 28 9 22 0 23 0 31"/><rect x="12" y="22" width="8" height="6"/></svg>