<svg xmlns="http://www.w3.org/2000/svg" width="32" height="32" viewBox="0 0 32 32"><title>digg</title><path d="M5.7,6.5a.4.4,0,0,0-.4.4v3.7H.4A.4.4,0,0,0,0,11V21.7H8.2a.4.4,0,0,0,.4-.4c0-.4,0-14.8,0-14.8ZM5.4,18.9a.4.4,0,0,1-.4.4H3.1V13.4a.4.4,0,0,1,.4-.4H5.4Z"/><path d="M9.5,11V21.7h2.8a.4.4,0,0,0,.4-.4V10.6H9.9A.4.4,0,0,0,9.5,11Z"/><path d="M9.9,6.5a.4.4,0,0,0-.4.4v2h2.8a.4.4,0,0,0,.4-.4v-2Z"/><path d="M23.8,10.6a.4.4,0,0,0-.4.4V21.7h5.4v1.4h-5a.4.4,0,0,0-.4.4v2h8.2a.4.4,0,0,0,.4-.4V10.6Zm5,8.3a.4.4,0,0,1-.4.4H26.5V13.4a.4.4,0,0,1,.4-.4h1.9Z"/><path d="M14.1,10.6a.4.4,0,0,0-.4.4V21.7h5.4v1.4h-5a.4.4,0,0,0-.4.4v2H22a.4.4,0,0,0,.4-.4c0-.4,0-14.5,0-14.5Zm5,8.3a.4.4,0,0,1-.4.4H16.9V13.4a.4.4,0,0,1,.4-.4h1.9Z"/></svg>