<svg xmlns="http://www.w3.org/2000/svg" width="32" height="32" viewBox="0 0 32 32"><title>google-plus</title><polygon points="32 14.2 27.8 14.2 27.8 10 25.6 10 25.6 14.2 21.4 14.2 21.4 16.3 25.6 16.3 25.6 20.5 27.8 20.5 27.8 16.3 32 16.3 32 14.2"/><path d="M18.6,1.7H16.1A6.7,6.7,0,0,1,19,7.2c0,3.1-1.8,4.6-3.6,6a2.9,2.9,0,0,0-1.2,2.1A2.3,2.3,0,0,0,15.3,17l1.5,1.2c1.9,1.6,3.6,3,3.6,5.9s-4,8-11.4,8S0,29.1,0,26a6,6,0,0,1,3.3-5.1c2.7-1.6,6.2-1.8,8.2-1.9a4.3,4.3,0,0,1-1.3-2.8,3.7,3.7,0,0,1,.4-1.6H9.2A6.7,6.7,0,0,1,2.1,8,7.4,7.4,0,0,1,4.6,2.2C7,.2,10.1,0,12.4,0h8.9ZM7.4,20.8c-.9.3-3.7,1.3-3.7,4.3s3,5.1,7.5,5.1,6.3-1.9,6.3-4.5-1.4-3.3-4.7-5.5h-1a17.5,17.5,0,0,0-4.5.7M9.8,1.5a3.9,3.9,0,0,0-3,1.3A5.1,5.1,0,0,0,5.9,6c0,2.8,1.7,7.5,5.3,7.5a4.5,4.5,0,0,0,2.9-1.3,4,4,0,0,0,1.1-3c0-3-1.8-7.7-5.4-7.7"/></svg>