<svg xmlns="http://www.w3.org/2000/svg" width="32" height="32" viewBox="0 0 32 32"><title>instagram</title><path d="M16,2.9h6.5a8.9,8.9,0,0,1,3,.6,5,5,0,0,1,1.8,1.2,5,5,0,0,1,1.2,1.8,8.9,8.9,0,0,1,.6,3c.1,1.7.1,2.2.1,6.5s0,4.8-.1,6.5a8.9,8.9,0,0,1-.6,3,5.3,5.3,0,0,1-3,3,8.9,8.9,0,0,1-3,.6H9.5a8.9,8.9,0,0,1-3-.6,5,5,0,0,1-1.8-1.2,5,5,0,0,1-1.2-1.8,8.9,8.9,0,0,1-.6-3c-.1-1.7-.1-2.2-.1-6.5s0-4.8.1-6.5a8.9,8.9,0,0,1,.6-3A5,5,0,0,1,4.7,4.7,5,5,0,0,1,6.6,3.5a8.9,8.9,0,0,1,3-.6H16M16,0H9.4A11.7,11.7,0,0,0,5.5.8,7.8,7.8,0,0,0,2.7,2.7,7.8,7.8,0,0,0,.8,5.5,11.7,11.7,0,0,0,.1,9.4C0,11.1,0,11.7,0,16s0,4.9.1,6.6a11.7,11.7,0,0,0,.7,3.9,7.8,7.8,0,0,0,1.8,2.8,7.8,7.8,0,0,0,2.8,1.8,11.7,11.7,0,0,0,3.9.7H22.6a11.7,11.7,0,0,0,3.9-.7,8.2,8.2,0,0,0,4.7-4.7,11.7,11.7,0,0,0,.7-3.9c.1-1.7.1-2.3.1-6.6s0-4.9-.1-6.6a11.7,11.7,0,0,0-.7-3.9,7.8,7.8,0,0,0-1.8-2.8A7.8,7.8,0,0,0,26.5.8,11.7,11.7,0,0,0,22.6.1Z"/><path d="M16,7.8A8.2,8.2,0,1,0,24.2,16,8.2,8.2,0,0,0,16,7.8Zm0,13.5A5.3,5.3,0,1,1,21.3,16,5.3,5.3,0,0,1,16,21.3Z"/><circle cx="24.5" cy="7.5" r="1.9"/></svg>