<svg xmlns="http://www.w3.org/2000/svg" width="32" height="32" viewBox="0 0 32 32"><title>reddit</title><path d="M16.1,10.7H16a.5.5,0,0,1-.4-.7l2.2-7.2a.5.5,0,0,1,.6-.4l6.1,1.5a.5.5,0,0,1-.3,1.1L18.7,3.6l-2.1,6.7A.5.5,0,0,1,16.1,10.7Z"/><path d="M26.9,7.9a3,3,0,1,1,2.9-3A3,3,0,0,1,26.9,7.9Zm0-4.9a1.9,1.9,0,1,0,1.9,1.9A1.9,1.9,0,0,0,26.9,3Z"/><path d="M2.3,18.6H2.1a3.6,3.6,0,0,1,1.5-6.9,3.6,3.6,0,0,1,2.7,1.3.5.5,0,0,1-.1.8,7.9,7.9,0,0,0-3.3,4.5.5.5,0,0,1-.3.4Zm1.2-5.9a2.5,2.5,0,0,0-2.5,2.5,2.6,2.6,0,0,0,.9,2,9,9,0,0,1,3-4A2.5,2.5,0,0,0,3.6,12.7Z"/><path d="M29.5,18.6h-.3a.5.5,0,0,1-.3-.4,7.8,7.8,0,0,0-3.3-4.5.5.5,0,0,1-.1-.8,3.5,3.5,0,0,1,2.8-1.4,3.6,3.6,0,0,1,1.3,7Zm-2.7-5.4a8.9,8.9,0,0,1,3,4.1,2.6,2.6,0,0,0-1.4-4.6A2.5,2.5,0,0,0,26.9,13.2Z"/><path d="M15.9,29.1c-7.9,0-14.3-4.3-14.3-9.6a6.8,6.8,0,0,1,.2-1.5.5.5,0,0,1,1.1.2,5.6,5.6,0,0,0-.2,1.3c0,4.7,5.9,8.6,13.2,8.6s13.2-3.8,13.2-8.6a5.6,5.6,0,0,0-.1-1.2.5.5,0,0,1,1.1-.2,6.6,6.6,0,0,1,.2,1.5C30.2,24.8,23.8,29.1,15.9,29.1Z"/><path d="M26.1,13.8h-.3a17.1,17.1,0,0,0-9.8-2.8,17.2,17.2,0,0,0-9.7,2.8.5.5,0,0,1-.6-.9,18.1,18.1,0,0,1,10.3-3,18.2,18.2,0,0,1,10.4,3,.5.5,0,0,1,.1.8Z"/><path d="M2.3,18.6H2.2a.5.5,0,0,1-.4-.6,8.9,8.9,0,0,1,3.8-5.1.5.5,0,0,1,.6.9,7.9,7.9,0,0,0-3.3,4.5A.5.5,0,0,1,2.3,18.6Z"/><path d="M29.5,18.6a.5.5,0,0,1-.5-.4,7.8,7.8,0,0,0-3.3-4.5.5.5,0,1,1,.6-.9A8.9,8.9,0,0,1,30.1,18a.5.5,0,0,1-.4.6Z"/><path d="M11.2,15.4a2.3,2.3,0,0,0-2.2,2.3,2.3,2.3,0,0,0,2.2,2.2,2.2,2.2,0,0,0,2.2-2.2A2.3,2.3,0,0,0,11.2,15.4Z"/><path d="M20.9,15.4a2.3,2.3,0,0,0-2.2,2.3,2.3,2.3,0,0,0,2.2,2.2,2.2,2.2,0,0,0,2.2-2.2A2.3,2.3,0,0,0,20.9,15.4Z"/><path d="M16,25.6c-2.4,0-4.1-.5-5.1-1.6a.5.5,0,1,1,.8-.8c.9.9,2.3,1.3,4.4,1.3a.5.5,0,1,1,0,1.1Z"/><path d="M16,25.6a.5.5,0,0,1,0-1.1c2.1,0,3.5-.4,4.4-1.3a.5.5,0,1,1,.8.8C20.1,25.1,18.4,25.6,16,25.6Z"/></svg>