<svg xmlns="http://www.w3.org/2000/svg" width="32" height="32" viewBox="0 0 32 32"><title>dairy</title><path d="M27.5,22c0-4.4-2.3-8-5.5-8s-5.5,3.6-5.5,8Z"/><polygon points="28.5 26 28.5 24 15.5 24 15.5 26 18.5 29 18.5 30 17.5 30 16.5 31 16.5 32 27.5 32 27.5 31 26.5 30 25.5 30 25.5 29 28.5 26"/><path d="M15.5,30V29l-2-2V22h1a12.4,12.4,0,0,1,1-5V11l-2-6V4h-8V5l-2,6V30l2,2h8l1-1Z"/><polygon points="28.5 26 28.5 24 15.5 24 15.5 26 18.5 29 18.5 30 17.5 30 16.5 31 16.5 32 27.5 32 27.5 31 26.5 30 25.5 30 25.5 29 28.5 26"/><polygon points="14.5 2 4.5 2 4.5 1 5.5 0 13.5 0 14.5 1 14.5 2"/></svg>