<svg xmlns="http://www.w3.org/2000/svg" xmlns:xlink="http://www.w3.org/1999/xlink"><symbol viewBox="0 0 32 32" id="gel-icon-a-roads"><path d="M18.7 32H32L20 0h-3.4l.5 6h-2.2l.5-6h-3.3L0 32h13.3l.6-9h4.2l.6 9zm-4.6-14l.7-8h2.5l.7 8h-3.9z"/></symbol><symbol viewBox="0 0 32 32" id="gel-icon-accident-or-general-incident"><path d="M16 2L0 30h32L16 2zm2 25h-4v-4h4v4zm-4-6V11h4v10h-4z"/></symbol><symbol viewBox="0 0 32 32" id="gel-icon-bicycle"><path d="M23.3 7.5H27v-2h-5.3l1.2 4H12.2L11.8 8l2.2-.5v-1H9v2l1.8-.4.5 1.6-3.1 5.2c-.7-.3-1.4-.4-2.2-.4-3.3 0-6 2.7-6 6s2.7 6 6 6c2.6 0 4.8-1.7 5.7-4H9.4c-.7 1.2-2 2-3.4 2-2.2 0-4-1.8-4-4s1.8-4 4-4c.4 0 .8.1 1.1.2L5 20.2v1.3h10.1l8.5-9.4.8 2.6c-2.5.7-4.4 3-4.4 5.8 0 3.3 2.7 6 6 6s6-2.7 6-6c0-3.2-2.5-5.7-5.6-6l.6 2.1c1.7.5 3 2 3 3.8 0 2.2-1.8 4-4 4s-4-1.8-4-4c0-1.1.4-2.1 1.2-2.8.5-.5 1.1-.8 1.8-1l1.4 4.8h1L23.3 7.5zm-10 4h8.1l-6.1 6.7-2-6.7zm-7.3 9l2-3.4c1.2.7 2 2 2 3.4H6zm6 0c0-2.2-1.2-4.1-2.9-5.1l2.2-3.7 2.4 7.9.3 1h-2z"/></symbol><symbol viewBox="0 0 32 32" id="gel-icon-bus"><path d="M29 7.5v-6H3v6H0v5h2v-3l1-1v20h1v2h4v-2h16v2h4v-2h1v-20l1 1v3h2v-5h-3zm-20 19l-4-1v-1h4v2zm3-8H5v-13h22v17h-8l-7-4zm11 6h4v1l-4 1v-2z"/></symbol><symbol viewBox="0 0 32 32" id="gel-icon-car"><path d="M30 12L27 2H5L2 12H0v18h4v-3h24v3h4V12h-2zM6.5 4h19l1.9 7h-23l2.1-7zM3 19v-4l6 2v2H3zm24 6H5l-1-1h24l-1 1zm2.1-6H23v-2l6.1-2v4z"/></symbol><symbol viewBox="0 0 32 32" id="gel-icon-commercial-flight"><path d="M12.2 23.4l5.5-5.6L26.4 32l1-1-4.6-18.2 5.9-6 2.6-4.2.7-2.3-.3-.3-2.3.7-4.2 2.6-6 5.9L1 4.6l-1 1 14.2 8.7-5.6 5.5-1.4-.3-5-.9-1.3 1.3 3.9 2 1.2.6h-.1l-1.6 4.8.4.4 4.8-1.6V26l.6 1.2 2 3.9 1.3-1.3-.9-5"/></symbol><symbol viewBox="0 0 32 32" id="gel-icon-congestion-traffic"><path d="M30 8l-3-8H11L8 8H6v2h16.4l.5 1.3L25 17h3v3h4V8h-2zM10.4 7l1.9-5h13.5l1.9 5H10.4zM30 13h-5v-1.5l5-1.5v3z"/><path d="M26 20h-2l-3-8H5l-3 8H0v12h4v-3h18v3h4V20zM7 25H2v-3l5 1.5V25zm-2.6-6l1.9-5h13.5l1.9 5H4.4zM24 25h-5v-1.5l5-1.5v3z"/></symbol><symbol viewBox="0 0 32 32" id="gel-icon-disruption"><path d="M32 1H0v18h6L3 31h4l3-12h11l4 12h4l-4-12h7V1zM2 3h5l-5 7.8V3zm3 14l9-14h7l-9 14H5zm25-4.7L27 17h-8l9-14h2v9.3z"/></symbol><symbol viewBox="0 0 32 32" id="gel-icon-ferry"><path d="M6 10h20l-2-4h4l-2-3h-7V0h-6v3H6L4 6h4m5 15l-3-1v2h3m6.3-7h-6.6l-.9 3h8.4"/><path d="M7 27.8l3 1 3-1 3 1 3-1 3 1 3-1 2.4.8L32 12H0l4.6 16.6 2.4-.8zM9 24v-5h1.5l.6-1.8 1-3.2h8l.9 3.2.5 1.6.1.2H23v7h-2v-2H11v2H9v-2z"/><path d="M19 22h3v-2l-3 1m12 8.9l-3 1-3-1-3 1-3-1-3 1-3-1-3 1-3-1-3 1-3-1-1 .4v1l1-.3 3 1 3-1 3 1 3-1 3 1 3-1 3 1 3-1 3 1 3-1 1 .3v-1"/></symbol><symbol viewBox="0 0 32 32" id="gel-icon-fuel-and-petrol"><path d="M21 11V0H5v29H2v3h22v-3h-3V13m-2 3H7V4h12v12z"/><path d="M26 27.4l-3-3V14h-2v-2h4v11.6l1 1 1-1V8.4l-3.7-3.7 1.4-1.4L29 7.6v16.8"/></symbol><symbol viewBox="0 0 32 32" id="gel-icon-motorcycle"><path d="M5.5 19C7.4 19 9 20.6 9 22.5S7.4 26 5.5 26 2 24.4 2 22.5 3.6 19 5.5 19m0-2c-3 0-5.5 2.5-5.5 5.5S2.5 28 5.5 28s5.5-2.5 5.5-5.5S8.5 17 5.5 17m21 2c1.9 0 3.5 1.6 3.5 3.5S28.4 26 26.5 26 23 24.4 23 22.5s1.6-3.5 3.5-3.5m0-2c-3 0-5.5 2.5-5.5 5.5s2.5 5.5 5.5 5.5 5.5-2.5 5.5-5.5-2.5-5.5-5.5-5.5"/><path fill-rule="evenodd" clip-rule="evenodd" d="M5 22v2h10l8.4-8.4 2.7 7.8 1.6-.5L25 14l3-2v-2h-2l-1-3h-6v2h4v2l-7 1-3 3-2-2H3v2l10 3"/></symbol><symbol viewBox="0 0 32 32" id="gel-icon-road-works"><path d="M24 27L18 0h-4L8 27l-8 3v2h32v-2l-8-3zm-12.9-5l2.7-12h4.4l2.7 12h-9.8z"/></symbol><symbol viewBox="0 0 32 32" id="gel-icon-traffic-cameras"><path d="M9 32h4.9V20.2L9 17.3M5.7 0L0 9.9l22.2 12.8 1.9-3.3 6.5-1.7 1.4-2.5"/></symbol><symbol viewBox="0 0 32 32" id="gel-icon-train"><path d="M23 0c-4.5 0-7.1 3.1-9 5L4 15h4l-3 3H1l-1 1 8 8h5v-4h19V0h-9zm-3 13h-7v-3l5-5h2v8zm6 0h-4V5h4v8z"/><path d="M15 27.6c0 2.4 2.1 4.4 4.5 4.4 2 0 3.6-1.3 4.2-3h4.1c.6 1.7 2.2 3 4.2 3v-7H15v2.6z"/></symbol><symbol viewBox="0 0 32 32" id="gel-icon-tram-and-metro"><path fill="none" d="M16 7l2-5h-4l2 5M7 25l4 1v-2H7m0-14h2v9H7zm16 0h2v9h-2zm-2 16l4-1v-1h-4"/><path d="M25 7h-7l2-5h1l1 1h3l-3-3H10L7 3h3l1-1h1l2 5H7L5 9v18l2 2v1h2v2h2v-2h10v2h2v-2h2v-1l2-2V9l-2-2zm-7-5l-2 5-2-5h4zM7 10h2v9H7v-9zm4 16l-4-1v-1h4v2zm0-16h10v12H11V10zm14 15l-4 1v-2h4v1zm0-6h-2v-9h2v9z"/></symbol><symbol viewBox="0 0 32 32" id="gel-icon-tube-a"><path d="M18 4.2c-.6-.1-1.3-.2-2-.2s-1.4.1-2 .2V6h4V4.2zM7 10v6h3l2-2V7H9m5 0h4v7h-4z"/><circle cx="8.5" cy="19.5" r="1.5"/><path d="M16 0C7.2 0 0 7.2 0 16s7.2 16 16 16 16-7.2 16-16S24.8 0 16 0zm9 23v3h-2v-3H9v3H7v-3H4V11l1-2.1s3.9-5.8 10.9-5.8c7.1 0 10.9 5.8 10.9 5.8L28 11v12h-3z"/><circle cx="23.5" cy="19.5" r="1.5"/><path d="M25 16v-6l-2-3h-3v7l2 2"/></symbol><symbol viewBox="0 0 32 32" id="gel-icon-tube-b"><path fill-rule="evenodd" clip-rule="evenodd" d="M32 13h-3.4C27.3 7.3 22.1 3 16 3S4.7 7.3 3.4 13H0v6h3.4C4.7 24.7 9.9 29 16 29s11.3-4.3 12.6-10H32v-6zM16 8c3.3 0 6.2 2.1 7.4 5H8.6c1.2-2.9 4.1-5 7.4-5zm0 16c-3.3 0-6.2-2.1-7.4-5h14.8c-1.2 2.9-4.1 5-7.4 5z"/></symbol><symbol viewBox="0 0 32 32" id="gel-icon-walking"><path d="M12.2 24l-4.8 7.2 1.7.8 6.1-7v-1.7l-3-3.1m8-6.2l3.6 3 .8-1-3.4-4-1.3-2.3-.6 3.1"/><path d="M17.2 16l1.6-8.5-.6-.5-4-1-5 3-1.4 6.8 1.4.2 1.4-5.2 1.6-.8 1 4-1 4 5.5 5.7 2.5 8.3h2l-2-10M19.1 4.9c.1 0 .1 0 0 0V.4c-.8-.5-1.8-.5-2.7 0-1.3.7-1.7 2.3-1 3.6.9 1.2 2.5 1.7 3.7.9z"/></symbol></svg>