<svg xmlns="http://www.w3.org/2000/svg" xmlns:xlink="http://www.w3.org/1999/xlink"><symbol viewBox="0 0 32 32" id="gel-icon-add"><path d="M31.5 13.5h-13V.5h-5v13H.5v5h13v13h5v-13h13z" id="aLayer_2"/></symbol><symbol viewBox="0 0 32 32" id="gel-icon-blog"><path d="M7 18.6v6h6l.7-.6-6-6"/><path d="M26-.4L9.3 16.4l6 6L26 11.6v18H2v-24h12v-2H0v28h28v-22l4-4"/></symbol><symbol viewBox="0 0 32 32" id="gel-icon-comments"><path d="M0 0v32l8-8h24V0H0zm4 10h18v4H4v-4zm24 10H4v-4h24v4zm0-12H4V4h24v4z"/></symbol><symbol viewBox="0 0 32 32" id="gel-icon-digg"><path fill="none" d="M3.1 13.4v5.9H5s.4 0 .4-.4V13H3.5s-.4 0-.4.4z"/><path d="M5.7 6.5s-.4 0-.4.4v3.7h-5s-.4 0-.4.4v10.7h8.2s.4 0 .4-.4V6.5H5.7zm-.3 12.4c0 .4-.4.4-.4.4H3.1v-5.9c0-.4.4-.4.4-.4h1.9v5.9zM9.5 11v10.7h2.8s.4 0 .4-.4V10.6H9.9s-.4 0-.4.4zm.4-4.5s-.4 0-.4.4v2h2.8s.4 0 .4-.4v-2H9.9zm13.9 4.1s-.4 0-.4.4v10.7h5.4v1.4h-5s-.4 0-.4.4v2h8.2s.4 0 .4-.4V10.6h-8.2zm5 8.3c0 .4-.4.4-.4.4h-1.9v-5.9c0-.4.4-.4.4-.4h1.9v5.9zm-14.7-8.3s-.4 0-.4.4v10.7h5.4v1.4h-5s-.4 0-.4.4v2H22s.4 0 .4-.4V10.6h-8.3zm5.1 8.3c0 .4-.4.4-.4.4h-1.9v-5.9c0-.4.4-.4.4-.4h1.9v5.9z"/></symbol><symbol viewBox="0 0 32 32" id="gel-icon-facebook"><path d="M12.1 32V17H8v-5.4h4.1V7c0-3.6 2.4-7 8-7 2.2 0 3.9.2 3.9.2l-.1 5.1h-3.6c-2 0-2.3.9-2.3 2.4v3.9h6l-.3 5.4H18v15h-5.9z"/></symbol><symbol viewBox="0 0 32 32" id="gel-icon-favourites"><path d="M13 3h19v6H13zm4 10h15v6H17zm-4 10h19v6H13zm1-9H9V9H5v5H0v4h5v5h4v-5h5"/></symbol><symbol viewBox="0 0 32 32" id="gel-icon-feedback"><path d="M14 2v6h6v8h6l6 6V2H14zm16 12h-8v-2h8v2zm0-4h-8V8h8v2zm0-4H16V4h14v2z"/><path d="M0 24v6l6-6h12V10H0v14zm2-12h14v2H2v-2zm0 4h10v2H2v-2zm0 4h12v2H2v-2z"/></symbol><symbol viewBox="0 0 32 32" id="gel-icon-google-plus"><path d="M32 14.2h-4.2V10h-2.2v4.2h-4.2v2.1h4.2v4.2h2.2v-4.2H32M18.6 1.7h-2.5C17 2.5 19 4 19 7.2c0 3.1-1.8 4.6-3.6 6-.6.5-1.2 1.1-1.2 2.1 0 .9.6 1.4 1.1 1.8l1.5 1.2c1.9 1.6 3.6 3 3.6 5.9 0 3.9-4 8-11.4 8-6.1-.2-9-3.1-9-6.2 0-1.5.8-3.6 3.3-5.1 2.7-1.6 6.2-1.8 8.2-1.9-.6-.8-1.3-1.5-1.3-2.8 0-.7.2-1.1.4-1.6-.5 0-.9.1-1.4.1-4.5 0-7.1-3.3-7.1-6.6 0-1.9.6-4.2 2.4-5.8C7 .2 10.1 0 12.4 0h8.9l-2.7 1.7zM7.4 20.8c-.9.3-3.7 1.3-3.7 4.3s3 5.1 7.5 5.1c4.1 0 6.3-1.9 6.3-4.5 0-2.1-1.4-3.3-4.7-5.5h-1c-.3-.1-2.6 0-4.4.6M9.8 1.5c-1.1 0-2.3.4-3 1.3-.7.9-.9 2.1-.9 3.2 0 2.8 1.7 7.5 5.3 7.5 1.1 0 2.2-.6 2.9-1.3 1-1 1.1-2.2 1.1-3 0-3-1.8-7.7-5.4-7.7" fill="#010101"/></symbol><symbol viewBox="0 0 32 32" id="gel-icon-instagram"><path fill-rule="evenodd" clip-rule="evenodd" d="M28.3 13.5h-2.8c.2.8.3 1.6.3 2.5 0 5.4-4.4 9.8-9.8 9.8S6.2 21.4 6.2 16c0-.8.1-1.7.3-2.5H3.7V27c0 .7.6 1.2 1.2 1.2H27c.7 0 1.2-.5 1.2-1.2V13.5zm0-8.6c0-.7-.6-1.2-1.2-1.2h-3.7c-.7 0-1.2.6-1.2 1.2v3.7c0 .7.5 1.2 1.2 1.2h3.7c.7 0 1.2-.6 1.2-1.2V4.9zM16 9.9c-3.4 0-6.1 2.7-6.1 6.1 0 3.4 2.8 6.1 6.1 6.1s6.1-2.8 6.1-6.1c0-3.4-2.7-6.1-6.1-6.1M28.3 32H3.7c-2 0-3.7-1.7-3.7-3.7V3.7C0 1.7 1.7 0 3.7 0h24.6c2 0 3.7 1.6 3.7 3.7v24.6c0 2-1.7 3.7-3.7 3.7"/></symbol><symbol viewBox="0 0 32 32" id="gel-icon-linkedin"><path d="M7.3 31.5V10.6H.4v20.9h6.9zM3.8 7.7c2.4 0 3.9-1.6 3.9-3.6S6.2.5 3.9.5C1.5.5 0 2.1 0 4.1s1.5 3.6 3.8 3.6zm7.3 23.8H18V19.8c0-.6 0-1.3.2-1.7.5-1.2 1.6-2.5 3.5-2.5 2.5 0 3.5 1.9 3.5 4.7v11.2H32v-12c0-6.4-3.4-9.4-7.9-9.4-3.7 0-5.3 2.1-6.2 3.5v-3H11c.2 1.9.1 20.9.1 20.9z"/></symbol><symbol viewBox="0 0 32 32" id="gel-icon-love-loved-state"><path d="M29.4 4.3c-3.5-3.5-9-3.5-12.5 0-.3.4-.6.7-.9 1.1-.3-.4-.6-.7-.9-1.1-3.5-3.5-9-3.5-12.5 0s-3.5 9 0 12.5L16 30.2l13.4-13.4c3.5-3.4 3.5-9 0-12.5z"/></symbol><symbol viewBox="0 0 32 32" id="gel-icon-love-unlove-state"><path d="M29.3 3.8C27.4 1.9 25 1 22.6 1c-2.4 0-4.8 1-6.6 2.8C14.2 2 11.8 1 9.4 1 7 1 4.6 1.9 2.7 3.8-.9 7.5-1 13.6 3 17.7c4.5 4.6 11.7 12 13 13.3 1.3-1.3 8.5-8.7 13-13.3 4-4.1 3.9-10.2.3-13.9zm-3.2 10.9L16 24.7l-10.1-10c-1-1-1.6-2.4-1.6-3.8S4.9 8 5.9 7s2.4-1.6 3.8-1.6c1.5 0 2.7.5 4 1.3.4.3 2.3 1.8 2.3 1.8s1.9-1.5 2.2-1.8c1.3-.9 2.5-1.3 4-1.3S25 6 26.1 7c1 1 1.6 2.4 1.6 3.8s-.6 2.9-1.6 3.9z"/></symbol><symbol viewBox="0 0 32 32" id="gel-icon-my-radio"><path d="M30 7V1H2v6H0v24h12l2-5h11l2 5h5V7h-2zM6 21c-1.1 0-2-.9-2-2s.9-2 2-2 2 .9 2 2-.9 2-2 2zm0-6c-1.1 0-2-.9-2-2s.9-2 2-2 2 .9 2 2-.9 2-2 2zm13.5 9c-3.6 0-6.5-2.9-6.5-6.5s2.9-6.5 6.5-6.5 6.5 2.9 6.5 6.5-2.9 6.5-6.5 6.5zM28 7H4V3h24v4z"/></symbol><symbol viewBox="0 0 32 32" id="gel-icon-pinterest"><path d="M16 0C7.2 0 0 7.2 0 16c0 6.6 3.9 12.2 9.6 14.7 0-1.1 0-2.5.3-3.7.3-1.3 2.1-8.7 2.1-8.7s-.5-1-.5-2.5c0-2.4 1.4-4.1 3.1-4.1 1.5 0 2.2 1.1 2.2 2.4 0 1.5-.9 3.7-1.4 5.7-.4 1.7.9 3.1 2.5 3.1 3 0 5.1-3.9 5.1-8.5 0-3.5-2.4-6.1-6.7-6.1-4.9 0-7.9 3.6-7.9 7.7 0 1.4.4 2.4 1.1 3.1.3.4.3.5.2.9-.1.3-.3 1-.3 1.3-.1.4-.4.6-.8.4-2.2-.9-3.3-3.4-3.3-6.1 0-4.5 3.8-10 11.4-10 6.1 0 10.1 4.4 10.1 9.2 0 6.3-3.5 11-8.6 11-1.7 0-3.4-.9-3.9-2 0 0-.9 3.7-1.1 4.4-.3 1.2-1 2.5-1.6 3.4 1.4.4 3 .7 4.5.7 8.8 0 16-7.2 16-16S24.8 0 16 0z"/></symbol><symbol viewBox="0 0 32 32" id="gel-icon-recommend"><path d="M16 28C9.4 28 4 22.6 4 16S9.4 4 16 4c3.1 0 6 1.2 8.1 3.2l-8.7 10.4-5.4-3.8-3 3.5 8.8 6.8 11-13.1 2.8-3.3C26.8 3.1 21.8 0 16 0 7.2 0 0 7.2 0 16s7.2 16 16 16 16-7.2 16-16h-4c0 6.6-5.4 12-12 12"/></symbol><symbol viewBox="0 0 32 32" id="gel-icon-share"><path d="M6.8 22.2c1.6 0 3-.7 4-1.8l9 4.8c-.1.4-.2.8-.2 1.3 0 3 2.5 5.5 5.5 5.5s5.5-2.4 5.5-5.5-2.5-5.5-5.5-5.5c-1.6 0-3 .7-4 1.8l-9.5-5.2-.1-2.8 9.7-5.5c1 1 2.3 1.5 3.8 1.5 3 0 5.5-2.5 5.5-5.5S28.2 0 25.2 0s-5.5 2.4-5.5 5.5c0 .6.1 1.1.2 1.6l-9.3 5.7c-1-.9-2.3-1.5-3.8-1.5-3 0-5.5 2.4-5.5 5.5.1 2.9 2.5 5.4 5.5 5.4z"/></symbol><symbol viewBox="0 0 32 32" id="gel-icon-sign-in"><g><path d="M1 1v30h30V1H1zm19.8 22.6L19.5 21h-7l-1.4 2.6C8.7 22 7 19.2 7 16c0-5 4-9 9-9s9 4 9 9c0 3.2-1.7 6-4.2 7.6z"/><circle cx="16" cy="16" r="3.5"/></g></symbol><symbol viewBox="0 0 32 32" id="gel-icon-sign-out"><path d="M1 1v30h30V1H1zm21.1 21.6l-.5-1.1c1.4-1.4 2.3-3.4 2.3-5.6 0-4.3-3.5-7.9-7.9-7.9s-7.9 3.7-7.9 8c0 2.7 1.4 5.2 3.5 6.6l.8-1.6h7l1.3 2.6c-1.3.9-2.9 1.4-4.7 1.4-5 0-9-4-9-9s4-9 9-9 9 4 9 9c0 2.6-1.1 5-2.9 6.6zM19.5 16c0 1.9-1.6 3.5-3.5 3.5s-3.5-1.6-3.5-3.5 1.6-3.5 3.5-3.5 3.5 1.6 3.5 3.5z"/></symbol><symbol viewBox="0 0 32 32" id="gel-icon-status"><g id="sLayer_2"><path d="M0 2v30l6-6h26V9.6L24.4 2H0z"/><path class="sst3" d="M5 16.6h5v5H5zm8 0h5v5h-5zm8 0h5v5h-5z"/></g></symbol><symbol viewBox="0 0 32 32" id="gel-icon-stumble-upon"><path d="M16 0C7.2 0 0 7.2 0 16s7.2 16 16 16 16-7.2 16-16S24.8 0 16 0zm0 13c-.8 0-1.5.7-1.6 1.5v3.1c-.1 2.2-1.9 3.9-4.1 3.9-2.2 0-4-1.7-4.1-3.9V16h2.5v1.6c0 .8.7 1.5 1.5 1.5s1.5-.6 1.5-1.5v-3.1c.1-2.2 1.9-3.9 4.1-3.9 2.2 0 4 1.7 4 3.9l-1.5.4-1-.4c.2-.9-.5-1.5-1.3-1.5zm9.7 4.6c-.1 2.2-1.9 3.9-4.1 3.9-2.2 0-4-1.7-4.1-3.9V16l1 .4L20 16v1.6c0 .8.7 1.5 1.5 1.5s1.5-.6 1.5-1.5V16h2.5v1.6z"/></symbol><symbol viewBox="0 0 32 32" id="gel-icon-subscribe-to-podcast"><path d="M22 6c2.2 0 4.2.9 5.7 2.3l1.4-1.4C27.3 5.1 24.8 4 22 4s-5.3 1.1-7.1 2.9l1.4 1.4C17.8 6.9 19.8 6 22 6"/><path d="M22 2c3.3 0 6.3 1.3 8.5 3.5L32 4.1C29.4 1.6 25.9 0 22 0c-3.9 0-7.4 1.6-9.9 4.1l1.4 1.4C15.7 3.3 18.7 2 22 2m-8 10H9V7H5v5H0v4h5v5h4v-5h5m12-2c0 2.2-1.8 4-4 4s-4-1.8-4-4 1.8-4 4-4 4 1.8 4 4m-10 5h12l-3 13h-6"/></symbol><symbol viewBox="0 0 32 32" id="gel-icon-terms-conditions"><path d="M25 4v3h1v22H6V7h3v2h14V3h-4c0-1.7-1.3-3-3-3s-3 1.3-3 3H9v1H3v28h26V4h-4z"/><path d="M11.5 16.2l-2 2.3 5.3 4.5 7.5-9-2.3-1.9-5.5 6.6"/></symbol><symbol viewBox="0 0 32 32" id="gel-icon-trending"><path d="M2.9 26.3L0 23.5l13.1-13.1 5.7 5.7 5.7-5.8L20 5.7h12v12l-4.6-4.6-8.6 8.6-5.7-5.6z" id="wLayer_2"/></symbol><symbol viewBox="0 0 32 32" id="gel-icon-tumblr"><path d="M18 0v8.2h6.3V13h-6.4v8.3c0 1.9.2 2.8.4 3.3s.5.9 1 1.2c.5.3 1 .4 1.8.4.4 0 1.4-.1 2.5-.6l1.5 4.6c-.6.5-1.5 1.1-2.9 1.5-1.2.2-2 .3-3.2.3-1.4 0-2.3-.2-3.4-.6-1.1-.4-1.8-.9-2.6-1.6-.8-.7-1.3-1.4-1.7-2.2-.5-.8-1-2.2-1.1-3.8V13H7V8.8c1.2-.4 2.1-1 3-1.8 1.2-1.1 1.7-2 2.1-2.9.5-1 .9-2.5 1.1-4.1H18z"/></symbol><symbol viewBox="0 0 32 32" id="gel-icon-twitter"><path d="M32 6.1c-1.2.5-2.4.9-3.8 1 1.4-.8 2.4-2.1 2.9-3.6-1.3.8-2.7 1.3-4.2 1.6C25.7 3.8 24 3 22.2 3c-3.6 0-6.6 2.9-6.6 6.6 0 .5.1 1 .2 1.5-5.5-.3-10.3-2.9-13.6-6.9-.6 1-.9 2.1-.9 3.3 0 2.3 1.2 4.3 2.9 5.5-1.1 0-2.1-.3-3-.8v.1c0 3.2 2.3 5.8 5.3 6.4-.6.1-1.1.2-1.7.2-.4 0-.8 0-1.2-.1.8 2.6 3.3 4.5 6.1 4.6-2.2 1.8-5.1 2.8-8.2 2.8-.5 0-1.1 0-1.6-.1 3 1.8 6.5 2.9 10.2 2.9 12.1 0 18.7-10 18.7-18.7v-.9c1.2-.9 2.3-2 3.2-3.3z"/></symbol></svg>