<svg xmlns="http://www.w3.org/2000/svg"><symbol viewBox="0 0 32 32" id="gel-icon-15-mins"><title>15-mins</title><g id="15-mins-Layer_2"><path d="M15.4 6c-7.2 0-13 5.8-13 13s5.8 13 13 13 13-5.8 13-13-5.8-13-13-13zm0 22.5c-5.2 0-9.5-4.3-9.5-9.5s4.3-9.5 9.5-9.5 9.5 4.3 9.5 9.5-4.3 9.5-9.5 9.5z"/><path d="M25.378 4.88L29.62 9.12l-2.828 2.828-4.243-4.242z"/><path d="M15.4 6c1.7 0 3-1.3 3-3s-1.3-3-3-3-3 1.3-3 3 1.3 3 3 3zm0-5c1.1 0 2 .9 2 2s-.9 2-2 2-2-.9-2-2 .9-2 2-2z"/><path d="M8.6 16.2v1.4h2.3v5.9h1.8v-9.1h-1.5c-.1 1.4-1.3 1.8-2.6 1.8z"/><path d="M18.1 17.3c-.7 0-1.3.2-1.8.7l.4-2.1h3.8v-1.5h-5.1l-.9 5h1.7c.4-.5.7-.7 1.4-.7 1 0 1.6.8 1.6 1.7 0 .9-.6 1.8-1.6 1.8-.8 0-1.4-.6-1.5-1.4h-1.8c0 1.9 1.6 2.9 3.4 2.9 1.8 0 3.4-1.4 3.4-3.3-.2-1.7-1.2-3.1-3-3.1z"/></g></symbol><symbol viewBox="0 0 32 32" id="gel-icon-30-mins"><title>30-mins</title><g id="30-mins-Layer_2"><path d="M15.4 6c-7.2 0-13 5.8-13 13s5.8 13 13 13 13-5.8 13-13-5.8-13-13-13zm0 22.5c-5.2 0-9.5-4.3-9.5-9.5s4.3-9.5 9.5-9.5 9.5 4.3 9.5 9.5-4.3 9.5-9.5 9.5z"/><path d="M25.378 4.88l4.243 4.243-2.828 2.828L22.55 7.71z"/><path d="M18.4 3c0-1.7-1.3-3-3-3s-3 1.3-3 3 1.3 3 3 3 3-1.3 3-3zm-3 2c-1.1 0-2-.9-2-2s.9-2 2-2 2 .9 2 2-.9 2-2 2z"/><path d="M13.4 18.6c.8-.3 1.3-1 1.3-1.9 0-1.6-1.6-2.5-3.1-2.5-1.9 0-3.1 1.3-3.1 3.1h1.8c0-.9.5-1.6 1.4-1.6.7 0 1.3.4 1.3 1.2 0 1-1.1 1.2-1.9 1.1v1.3c.9 0 2.1 0 2.1 1.4 0 .9-.7 1.4-1.5 1.4-1.1 0-1.6-.8-1.6-1.8H8.3c0 2.1 1.3 3.3 3.4 3.3 1.8 0 3.4-1.1 3.4-3-.1-.9-.7-1.8-1.7-2z"/><path d="M19.1 14.2c-1.8 0-3.3 1.1-3.3 4.7s1.5 4.8 3.3 4.8c1.8 0 3.4-1.1 3.4-4.8 0-3.5-1.6-4.7-3.4-4.7zm0 8c-1.5 0-1.5-2.2-1.5-3.2 0-.9 0-3.2 1.5-3.2s1.5 2.2 1.5 3.2c0 .9 0 3.2-1.5 3.2z"/></g></symbol><symbol viewBox="0 0 32 32" id="gel-icon-5-mins"><title>5-mins</title><g id="5-mins-Layer_2"><path d="M15.4 6c-7.2 0-13 5.8-13 13s5.8 13 13 13 13-5.8 13-13-5.8-13-13-13zm0 22.5c-5.2 0-9.5-4.3-9.5-9.5s4.3-9.5 9.5-9.5 9.5 4.3 9.5 9.5-4.3 9.5-9.5 9.5z"/><path d="M25.378 4.88l4.243 4.242-2.828 2.83-4.242-4.244z"/><path d="M18.4 3c0-1.7-1.3-3-3-3s-3 1.3-3 3 1.3 3 3 3 3-1.3 3-3zm-3 2c-1.1 0-2-.9-2-2s.9-2 2-2 2 .9 2 2-.9 2-2 2z"/><path d="M16 17.3c-.7 0-1.3.2-1.8.7l.4-2.1h3.8v-1.5h-5.1l-.9 5H14c.4-.5.7-.7 1.4-.7 1 0 1.6.8 1.6 1.7 0 .9-.6 1.8-1.6 1.8-.8 0-1.4-.6-1.5-1.4H12c0 1.9 1.6 2.9 3.4 2.9 1.8 0 3.4-1.4 3.4-3.3 0-1.7-1-3.1-2.8-3.1z"/></g></symbol><symbol viewBox="0 0 32 32" id="gel-icon-60-mins"><title>60-mins</title><g id="60-mins-Layer_2"><path d="M15.4 6c-7.2 0-13 5.8-13 13s5.8 13 13 13 13-5.8 13-13-5.8-13-13-13zm0 22.5c-5.2 0-9.5-4.3-9.5-9.5s4.3-9.5 9.5-9.5 9.5 4.3 9.5 9.5-4.3 9.5-9.5 9.5z"/><path d="M25.378 4.88L29.62 9.12l-2.828 2.828-4.242-4.242z"/><path d="M15.4 6c1.7 0 3-1.3 3-3s-1.3-3-3-3-3 1.3-3 3 1.3 3 3 3zm0-5c1.1 0 2 .9 2 2s-.9 2-2 2-2-.9-2-2 .9-2 2-2z"/><path d="M12.3 17.4c-.9 0-1.5.3-2.1 1 .1-1 .4-2.8 1.7-2.8.6 0 1.1.5 1.2 1.1H15c-.2-1.6-1.4-2.5-3-2.5-2.6 0-3.6 2.5-3.6 4.8s.7 4.7 3.5 4.7c1.9 0 3.2-1.5 3.2-3.3 0-.7-.2-1.5-.7-2-.5-.7-1.3-1-2.1-1zm-.4 4.8c-.9 0-1.5-.8-1.5-1.7 0-.9.5-1.7 1.5-1.7.9 0 1.4.9 1.4 1.7 0 .8-.5 1.7-1.4 1.7z"/><path d="M19 14.2c-1.8 0-3.3 1.1-3.3 4.7s1.5 4.8 3.3 4.8c1.8 0 3.4-1.1 3.4-4.8-.1-3.5-1.6-4.7-3.4-4.7zm0 8c-1.5 0-1.5-2.2-1.5-3.2 0-.9 0-3.2 1.5-3.2s1.5 2.2 1.5 3.2c0 .9 0 3.2-1.5 3.2z"/></g></symbol><symbol viewBox="0 0 32 32" id="gel-icon-activity-themes"><title>activity-themes</title><g id="activity-themes-Layer_2"><path d="M0 0h8v8H0z"/><path d="M0 12h8v8H0z"/><path d="M0 24h8v8H0z"/><path d="M11 0h21v8H11z"/><path d="M11 24h21v8H11z"/><path d="M11 12h21v8H11z"/></g></symbol><symbol viewBox="0 0 32 32" id="gel-icon-animals-and-nature"><title>animals-and-nature</title><g id="animals-and-nature-Layer_2"><path d="M5.7 16.2c1.8-.7 2.4-3.3 1.5-6-1-2.6-3.2-4.2-5-3.5-1.8.7-2.4 3.3-1.5 6 1 2.6 3.2 4.2 5 3.5z"/><ellipse transform="matrix(.345 -.939 .939 .345 7.62 33.814)" cx="28" cy="11.4" rx="5.1" ry="3.4"/><path d="M12 10.1c1.9-.3 3.1-2.7 2.7-5.5-.4-2.8-2.2-4.8-4.1-4.6-1.8.3-3 2.8-2.6 5.5.3 2.8 2.2 4.9 4 4.6z"/><path d="M20.1 10.1c1.9.2 3.6-1.9 3.9-4.7.3-2.8-1-5.2-2.9-5.4-1.9-.2-3.6 1.9-3.9 4.7-.2 2.8 1 5.2 2.9 5.4z"/><path d="M22.1 20c.1-.3.1-.6.1-.9 0-3.4-2.7-6.1-6.1-6.1-3.3 0-6.1 2.7-6.1 6.1 0 .3 0 .5.1.8-3.2.2-5.7 2.8-5.7 6.1 0 3.4 2.7 6.1 6.1 6.1 2.1 0 4-1.1 5.1-2.8 1.1 1.7 3 2.8 5.1 2.8 3.4 0 6.1-2.7 6.1-6.1-.2-2.9-2.1-5.3-4.7-6z"/></g></symbol><symbol viewBox="0 0 32 32" id="gel-icon-apps"><title>apps</title><g id="apps-Layer_2"><path d="M0 14h14V0H0v14zM3 2l8 5-8 5V2z"/><path d="M18 14h14V0H18v14zm2-2v-2l2 2h-2zm4-1l-3-3 6-6 3 3-6 6z"/><path d="M0 32h14V18H0v14zm2-11h1v-1h2v1h7v8H2v-8z"/><path d="M18 32h14V18H18v14zm3-11l2.6.5L25 19l1.4 2.5L29 21l-.5 2.6L31 25l-2.5 1.4.5 2.6-2.6-.5L25 31l-1.4-2.5-2.6.5.5-2.6L19 25l2.5-1.4L21 21z"/><path d="M8 22c-1.7 0-3 1.3-3 3s1.3 3 3 3 3-1.3 3-3-1.3-3-3-3m0 5c-1.1 0-2-.9-2-2s.9-2 2-2 2 .9 2 2-.9 2-2 2"/></g></symbol><symbol viewBox="0 0 32 32" id="gel-icon-babies-and-toddlers"><title>babies-and-toddlers</title><g id="babies-and-toddlers-Layer_2"><path d="M26.8 17.9L13.4 4.5c-.8-.8-1.8-1.2-2.8-1.2-.9 0-1.8.3-2.6 1L.5 11.7v2.8l8.9-8.8c.3-.2.7-.4 1.2-.4s1 .2 1.4.6l.7.7L1.1 18.2c-.8.8-.8 2 0 2.8l9.2 9.2c.4.4.9.6 1.4.6.5 0 1-.2 1.4-.6l11.6-11.6.7.7c.8.8.8 2 0 2.8l-8.8 8.6h2.9l7.3-7.2.1-.1c1.5-1.4 1.5-3.9-.1-5.5zM11.7 28.8l-9.2-9.2 1.8-1.8h18.4l-11 11z"/><path d="M28.5 9.8l3-5-2-2-5 3-4-4c-.8-.8-2.2-.8-3 0l-2 2 12 12 2-2 .1-.1c.8-.8.7-2.2-.1-3l-1-.9z"/></g></symbol><symbol viewBox="0 0 32 32" id="gel-icon-baby"><title>baby</title><g id="baby-Layer_2"><path d="M17.8 22H29l3-11h-3.2z"/><path d="M23.2 11H0l3 11h12L32 5V2.2z"/><path d="M15 0H9C4 0 0 4 0 9h15V0z"/><path d="M9 24c-2.2 0-4 1.8-4 4s1.8 4 4 4 4-1.8 4-4-1.8-4-4-4zm0 6c-1.1 0-2-.9-2-2s.9-2 2-2 2 .9 2 2-.9 2-2 2z"/><path d="M22 24c-2.2 0-4 1.8-4 4s1.8 4 4 4 4-1.8 4-4-1.8-4-4-4zm0 6c-1.1 0-2-.9-2-2s.9-2 2-2 2 .9 2 2-.9 2-2 2z"/></g></symbol><symbol viewBox="0 0 32 32" id="gel-icon-be-on-a-show"><title>be-on-a-show</title><g id="be-on-a-show-Layer_2"><path d="M16.3 14.5c2.4 0 4.3-1.9 4.3-4.3s-1.9-4.3-4.3-4.3S12 7.8 12 10.2s1.9 4.3 4.3 4.3z"/><path d="M20.6 16.1H12l-1.6 4.8h11.8z"/><path d="M32 26V1H0v25h12v2.5H6V31h20v-2.5h-6V26h12zm-20-3.8H4V4.8h24v17.5H12z"/></g></symbol><symbol viewBox="0 0 32 32" id="gel-icon-behind-the-scenes"><title>behind-the-scenes</title><g id="behind-the-scenes-Layer_2"><path d="M1.1 11.6c-.1 0-.1 0 0 0H0v1c0 1 .5 1 1 1h2.2v6h2v-8H1.1z"/><path d="M32 11.6h-4.8v8h2v-6h1.7c.6 0 1 0 1-1v-1h.1z"/><path d="M23.5 3.9H8.9V2.5H6.8v17.9h1.4l6.1 3.6-6 3.5c-.5.3-.6.9-.4 1.4.2.3.5.5.9.5.2 0 .3 0 .5-.1l7-4.1 7 4.1c.2.1.3.1.5.1.3 0 .7-.2.9-.5.3-.5.1-1.1-.4-1.4l-6-3.6 6.1-3.6h1.3V2.5h-2.2v1.4zm-7.2 19l-4.2-2.5h8.4l-4.2 2.5zm7.2-5.5H8.9v-6.6h14.6v6.6z"/></g></symbol><symbol viewBox="0 0 32 32" id="gel-icon-being-creative"><title>being-creative</title><g id="being-creative-Layer_2"><path d="M0 12h12v20H0z"/><path d="M28.2 0l-1.6 6c-1.6.7-2.9 2.3-3.5 4.4-.5 1.8-.3 3.7.4 5l5.3 1.4c1.3-.8 2.4-2.3 2.8-4.1.2-.7.3-1.3.3-2C32.4 6 31 1.9 28.2 0z"/><path d="M18 32h8l1.8-13-4.4-1.2z"/><path d="M6 0L2 7h8z"/></g></symbol><symbol viewBox="0 0 32 32" id="gel-icon-birthdays-and-parties"><title>birthdays-and-parties</title><g id="birthdays-and-parties-Layer_2"><path d="M15 7l2-.4c.8-.3 1.1-1.9.8-3.6-.2-1-1.3-3.2-2.1-3.1l-.2 2.4c-.7.3-1.2 1.4-1.2 2.5 0 .9.3.6.7 2.2z"/><path d="M27.8 30V16h-9.2V9.9h-5V16H4.2v14H.7v2h30.5v-2h-3.4zm-2.1 0H6.3v-4h19.3v4zm0-7.5H6.3v-4h19.3v4z"/></g></symbol><symbol viewBox="0 0 32 32" id="gel-icon-cbbc-songs"><title>cbbc-songs</title><g id="cbbc-songs-Layer_2"><path d="M15.1 12.2v11.6c-.8-.7-1.9-1.2-3.1-1.2-2.6 0-4.7 2.1-4.7 4.7S9.4 32 12 32s4.7-2.1 4.7-4.7v-8.8l10.9-4.1V20c-.8-.7-1.9-1.2-3.1-1.2-2.6 0-4.7 2.1-4.7 4.7s2.1 4.7 4.7 4.7 4.7-2.1 4.7-4.7V7l-14.1 5.2zm-3.2 17.5c-1.3 0-2.3-1.1-2.3-2.3 0-1.3 1-2.3 2.3-2.3 1.3 0 2.3 1.1 2.3 2.3.1 1.2-1 2.3-2.3 2.3zm12.5-3.9c-1.3 0-2.3-1.1-2.3-2.3 0-1.3 1.1-2.3 2.3-2.3 1.3 0 2.3 1.1 2.3 2.3.1 1.2-1 2.3-2.3 2.3z"/><path d="M10.4 15.4V7.3l5-1.9V0L9.1 2.3v10.3c-.7-.6-1.5-1-2.5-1-2.1 0-3.7 1.7-3.7 3.7S4.6 19 6.6 19c2.1.2 3.8-1.5 3.8-3.6zm-3.8 1.9c-1 0-1.9-.8-1.9-1.9 0-1 .8-1.9 1.9-1.9 1 0 1.9.8 1.9 1.9 0 1-.8 1.9-1.9 1.9z"/></g></symbol><symbol viewBox="0 0 32 32" id="gel-icon-cbeebies-information"><title>cbeebies-information</title><path d="M16 0C7.2 0 0 7.2 0 16s7.2 16 16 16 16-7.2 16-16S24.8 0 16 0zm2 25h-4V13h4v12zm0-14h-4V7h4v4z" id="cbeebies-information-Layer_2"/></symbol><symbol viewBox="0 0 32 32" id="gel-icon-character-profiles"><title>character-profiles</title><g id="character-profiles-Layer_2"><path d="M0 .5v23.1h32V.5H0zm16 3.1c2.7 0 4.9 2.2 4.9 4.9s-2.2 4.9-4.9 4.9-4.9-2.2-4.9-4.9 2.2-4.9 4.9-4.9zM9.3 20.5l1.8-5.3h9.7l1.8 5.3H9.3z"/><path d="M0 27.5h32v3.9H0z"/></g></symbol><symbol viewBox="0 0 32 32" id="gel-icon-chats"><title>chats</title><path d="M0 0v32l8-8h24V0H0zm4 10h18v4H4v-4zm24 10H4v-4h24v4zm0-12H4V4h24v4z" id="chats-Layer_2"/></symbol><symbol viewBox="0 0 32 32" id="gel-icon-communication"><title>communication</title><g id="communication-Layer_2"><path d="M20 16h6l6 6V2H14v6h6z"/><path d="M0 30l6-6h12V10H0z"/></g></symbol><symbol viewBox="0 0 32 32" id="gel-icon-cooking"><title>cooking</title><g id="cooking-Layer_2"><path d="M17 6h9v20h-9z"/><path d="M21.8 5L23 3.5V0h-3v3.5l.8 1.5z"/><path d="M20.8 27l-.8.5V32h3v-4.5l-1.2-.5z"/><path d="M9.6 0C7.6 0 6 2.5 6 5.6s1.6 5.6 3.6 5.6 3.6-2.5 3.6-5.6S11.6 0 9.6 0z"/><path d="M9.5 13.5c-.5 0-1.4-.1-1.4-.2V31c0 .5.6 1 1.5 1s1.5-.4 1.5-1V13.2c-.1.2-1 .3-1.6.3z"/></g></symbol><symbol viewBox="0 0 32 32" id="gel-icon-craft-and-cooking"><title>craft-and-cooking</title><g id="craft-and-cooking-Layer_2"><circle fill="none" cx="16" cy="27" r="3"/><circle fill="none" cx="10" cy="17" r="1"/><circle fill="none" cx="5" cy="27" r="3"/><path d="M23 6h9v20h-9z"/><path d="M28 5l1-1V0h-3v4l1 1z"/><path d="M27 27l-1 1v4h3v-4l-1-1z"/><path d="M14 15l3.9-12.9c.3-.8 0-1.6-.8-2-.8-.3-1.7 0-2 .8l-3.5 8.4L14 15z"/><path d="M16 22c-.5 0-.9.1-1.3.2L5.9 1c-.2-.6-.7-1-1.4-1C3.7 0 3 .7 3 1.5v.3L8 17l-1.7 5.2c-.4-.1-.9-.2-1.3-.2-2.8 0-5 2.2-5 5s2.2 5 5 5 5-2.2 5-5c0-1.5-.7-2.8-1.7-3.7L10 20l2.6 3.4c-1 .9-1.6 2.2-1.6 3.6 0 2.8 2.2 5 5 5s5-2.2 5-5-2.2-5-5-5zM5 30c-1.7 0-3-1.3-3-3s1.3-3 3-3 3 1.3 3 3-1.3 3-3 3zm5-12c-.6 0-1-.4-1-1s.4-1 1-1 1 .4 1 1-.4 1-1 1zm6 12c-1.7 0-3-1.3-3-3s1.3-3 3-3 3 1.3 3 3-1.3 3-3 3z"/></g></symbol><symbol viewBox="0 0 32 32" id="gel-icon-dance-moves"><title>dance-moves</title><g id="dance-moves-Layer_2"><path d="M14.8 6.9c1.3 0 2.4-1.1 2.4-2.4 0-1.3-1.1-2.4-2.4-2.4-1.3 0-2.4 1.1-2.4 2.4-.1 1.3 1 2.4 2.4 2.4z"/><path d="M18.9 11.3L21 7.5l2.9-6L22.5 0l-5.2 8.3s-2.3-.1-4.7.4c0 0-2.7.7-3.8 1.7 0 0-.1 0-.3.3-.1.1-.1.2-.2.4-.3.8-.5 2.4-.2 5.8h2s-1-4.7 1.9-5.3c0 0 .9 7 .8 7.6L8.5 29.6l-.5 1 2 1.4 6.2-10.8 3.3 2.6.4 8.1H22l.4-9.8-4.7-4.1 1.2-6.7z"/></g></symbol><symbol viewBox="0 0 32 32" id="gel-icon-dress-up"><title>dress-up</title><g id="dress-up-Layer_2"><path d="M0 27.6c.4-.1.8-.3 1.2-.4.4-.1.8-.2 1.1-.3.1 0 .2 0 .3-.1.3-.1.6-.2 1-.2.1 0 .2-.1.4-.1.3-.1.6-.1.9-.2.1 0 .3 0 .4-.1.3 0 .5-.1.8-.1.2 0 .3 0 .5-.1.2 0 .5-.1.7-.1h.6c.2 0 .4 0 .6-.1H12.5c.3 0 .6 0 .9.1h.4c.3 0 .5.1.8.1h.3c.4 0 .7.1 1.1.1h.1c.3 0 .6.1.9.2.1 0 .2 0 .3.1.2 0 .4.1.6.1.1 0 .2 0 .3.1.2 0 .4.1.6.1.1 0 .1 0 .2.1.2.1.5.1.7.2 1.1.3 1.7.5 1.7.5L10.6.1S-.1 27.6 0 27.6zm8.1-12.8c.7 0 1.3.6 1.3 1.3 0 .7-.6 1.3-1.3 1.3-.7 0-1.3-.6-1.3-1.3 0-.7.6-1.3 1.3-1.3zm2.6 8c-.7 0-1.3-.6-1.3-1.3 0-.7.6-1.3 1.3-1.3.7 0 1.3.6 1.3 1.3 0 .7-.6 1.3-1.3 1.3zm-5.3-2.1c.7 0 1.3.6 1.3 1.3s-.6 1.3-1.3 1.3-1.3-.6-1.3-1.3.6-1.3 1.3-1.3zm10.5 0c.7 0 1.3.6 1.3 1.3 0 .7-.6 1.3-1.3 1.3-.7 0-1.3-.6-1.3-1.3 0-.7.6-1.3 1.3-1.3zm-2.7-5.8c.7 0 1.3.6 1.3 1.3s-.6 1.3-1.3 1.3c-.7 0-1.3-.6-1.3-1.3s.5-1.3 1.3-1.3zM12 11.1c0 .7-.6 1.3-1.3 1.3s-1.3-.6-1.3-1.3.6-1.3 1.3-1.3 1.3.6 1.3 1.3z"/><path d="M10.7 27.8c-3.4 0-6.8.5-10.1 1.6l-.3.1c1.2 1.4 5.3 2.4 10.2 2.4 4.9 0 9-1 10.2-2.4l-.3-.1s-3.9-1.6-9.7-1.6z"/><path d="M32 4.7L27.6 4 25.7.1l-2 3.9-4.4.6 3.2 3.1-.8 4.4 3.9-2.1 1.9 1v.1l2 1-.7-4.3z"/><path d="M23.6 13.4v18.4h4V13.5l-2-1.1z"/></g></symbol><symbol viewBox="0 0 32 32" id="gel-icon-emotions-and-behaviour"><title>emotions-and-behaviour</title><path d="M30 12.5c0-.9-.1-1.8-.3-2.7-1-4.6-4.6-8.3-9.1-9.4-1-.3-2-.4-3.1-.4h-.6C10.3.4 5 5.8 5 12.5v.5l-1 3-2 2v2l2 1 1 7 6 1 1 3h14l-1.9-8.9C27.6 20.9 30 17 30 12.5zm-7.8.3s-.2.3-.6.7l-1.9 2.3-2 2.1-1.8-1.9-2-2.4c-.4-.4-.5-.7-.6-.8-.3-.5-.6-1.2-.6-1.9 0-1.4 1.1-2.5 2.5-2.5.9 0 1.7.5 2.1 1.2l.4.7.4-.7c.5-.8 1.2-1.2 2.1-1.2 1.4 0 2.5 1.1 2.5 2.5.1.7-.1 1.4-.5 1.9z" id="emotions-and-behaviour-Layer_2"/></symbol><symbol viewBox="0 0 32 32" id="gel-icon-entertainment"><title>entertainment</title><g id="entertainment-Layer_2"><path d="M28.5 10L27 13.8h-3.4L25 10h-3.2l-1.5 3.8H17l1.5-3.8h-3.2l-1.5 3.8h-3.3L12 10H8.8l-1.1 2.8-2.2-2.2.9-.3-2.7-3.4-1.5.5V32h27.7V10h-1.4zM26 26.3H6v-1.9h20v1.9zm0-4.8H6v-1.9h20v1.9z"/><path d="M18.3 6.9l-2.6-3.5-2.8.9 2.5 3.4z"/><path d="M28.5 3.9L27.4 0l-2.6.8 2.6 3.4z"/><path d="M12.4 8.6L9.8 5.2l-3 .8 2.6 3.5z"/><path d="M24.3 5.1l-2.6-3.4-2.9.8L21.4 6z"/></g></symbol><symbol viewBox="0 0 32 32" id="gel-icon-events"><title>events</title><g id="events-Layer_2"><path d="M26.3 10.1h2v4h-2z"/><path d="M3.3 10.1h-2v17h12v-2h-10z"/><path d="M25.3 8.1h3v-6h-5v4h-4v-4h-9v4h-4v-4h-5v6h2z"/><path d="M22.3 2.1v-2h-2v5h2z"/><path d="M9.3 2.1v-2h-2v5h2z"/><path fill="#000100" d="M19.3 12.1l4.4 5.6 7-1.2-3.9 6 3.3 6.3-6.9-2-5 5.1-.3-7.1-6.3-3.2 6.6-2.4z"/></g></symbol><symbol viewBox="0 0 32 32" id="gel-icon-family-activities"><title>family-activities</title><g id="family-activities-Layer_2"><path d="M18.1 19.1v.3c1.1.6 2.3.9 3.7.9 4.3 0 7.7-3.4 7.7-7.6 0-4.2-3.5-7.6-7.7-7.6-4.3 0-7.7 3.4-7.7 7.6v.8c2.4.8 4 3 4 5.6z"/><path d="M29.5 21.9H17.4c-.3.6-.7 1.1-1.2 1.6H18l1.9 6.4H32l-2.5-8z"/><path d="M12 23.5c2.5 0 4.5-2 4.5-4.4 0-2.4-2-4.4-4.5-4.4s-4.5 2-4.5 4.4c.1 2.4 2.1 4.4 4.5 4.4z"/><path d="M7.6 25.1L5.9 30h12.3l-1.7-4.9z"/><path d="M12.3 7.4c.4.2.8.3 1.3.2.9-.2 1.4-1.1 1.2-2-.2-.9-1.2-1.4-2-1.2-.4.1-.8.4-1 .8v-.1l-.8-3-3.5.8c.3.2.6.5.7.9.2.9-.3 1.8-1.2 2-.9.3-1.8-.2-2-1.1-.1-.4 0-.8.1-1.2l-3.3.9.8 3.2c-.3-.2-.8-.4-1.3-.2-.9.2-1.4 1.2-1.2 2 .2.9 1.2 1.4 2 1.2.5-.1.9-.5 1.1-.9l.8 3.2 3.2-.8c-.3-.2-.5-.5-.6-.9-.2-.9.3-1.8 1.2-2 .9-.2 1.8.3 2 1.2.1.4.1.7-.1 1.1l3.3-.9-.8-3 .1-.2z"/></g></symbol><symbol viewBox="0 0 32 32" id="gel-icon-family-learning-and-education"><title>family-learning-and-education</title><g id="family-learning-and-education-Layer_2"><path d="M16.1 5.1L0 13l1.7.8v6.5c-.9.3-1.5 1.2-1.5 2.2 0 1.3 1.1 2.3 2.3 2.3 1.3 0 2.3-1.1 2.3-2.3 0-.9-.6-1.8-1.4-2.1v-5.6l4.1 2s8.2-4.5 17.2 0L32 13 16.1 5.1z"/><path d="M16.2 18c-4.7 0-8.5 1.3-8.5 2.9v3.2c0 1.6 3.8 2.9 8.5 2.9s8.5-1.3 8.5-2.9v-3.3c-.1-1.6-3.9-2.8-8.5-2.8z"/></g></symbol><symbol viewBox="0 0 32 32" id="gel-icon-fan-clubs"><title>fan-clubs</title><g id="fan-clubs-Layer_2"><path d="M16 17.7c3.7 0 6.7-3 6.7-6.7s-3-6.7-6.7-6.7-6.7 3-6.7 6.7c.1 3.7 3 6.7 6.7 6.7z"/><path d="M6.6 19.7c2 0 3.6-1.1 4.5-2.8-1.7-1.4-2.7-3.5-2.7-5.8 0-.4 0-.8.1-1.2-.6-.3-1.3-.4-1.9-.4-2.8 0-5.1 2.3-5.1 5.1s2.3 5.1 5.1 5.1z"/><path d="M8.9 19.8l-2.7 7.8h19.6l-2.7-7.8z"/><path d="M30.1 21.5h-5.3l1.9 5.6H32z"/><path d="M1.9 21.5L0 27.1h5.3l1.9-5.6z"/><path d="M21 16.9c.8 1.7 2.5 2.8 4.5 2.8 2.8 0 5.1-2.3 5.1-5.1s-2.3-5.1-5.1-5.1c-.7 0-1.4.1-2 .4.1.4.1.8.1 1.2.1 2.3-1 4.4-2.6 5.8z"/></g></symbol><symbol viewBox="0 0 32 32" id="gel-icon-feeling-good"><title>feeling-good</title><g id="feeling-good-Layer_2"><path d="M16 6C10.5 6 6 10.5 6 16s4.5 10 10 10 10-4.5 10-10S21.5 6 16 6zm0 17c-2.8 0-5-2.2-5-5h10c0 2.8-2.2 5-5 5z"/><path d="M15 0h2v4h-2z"/><path d="M15 28h2v4h-2z"/><path d="M8.855 1.656l2 3.464-1.73 1-2.002-3.464z"/><path d="M23.12 30.37l-2-3.465 1.733-1 2 3.464z"/><path d="M2.67 7.142l3.463 2-1 1.732-3.464-2z"/><path d="M29.386 24.874l-3.464-2 1-1.732 3.464 2z"/><path d="M2.654 24.847l-1-1.732 3.465-2 1 1.733z"/><path d="M29.342 7.108l1 1.732-3.464 2-1-1.732z"/><path d="M8.873 30.363l-1.732-1L9.143 25.9l1.73 1z"/><path d="M23.12 1.663l1.73 1-2 3.464-1.73-1z"/><path d="M28 15h4v2h-4z"/><path d="M0 15h4v2H0z"/></g></symbol><symbol viewBox="0 0 32 32" id="gel-icon-festivals-and-celebrations"><title>festivals-and-celebrations</title><g id="festivals-and-celebrations-Layer_2"><path d="M16.3 7.1l-7.9 5.3 2.9 2.9 7.9-5.3z"/><path d="M20.2 11l-7.9 5.3 2.9 2.9 7.9-5.3z"/><path d="M2.4 0v10L12.5 0z"/><path d="M12.4 3.3L5.8 9.9l1.6 1.6 8-5.3z"/><path d="M20.8 21.6l5-4.9-1.6-1.6-7.9 5.3 1.3 1.3L27.9 32l1.7-1.7z"/></g></symbol><symbol viewBox="0 0 32 32" id="gel-icon-funny"><title>funny</title><g id="funny-Layer_2"><path d="M30.9 15.8s-1.1-7.4-8.6-3.4c0 0-.1 0-.2.1 0-3.5 1.4-7.5 6.7-8.8 0 0-4-4.8-8.7-2.9 0 0-6.5 2.5-5.8 10.3-.3-.4-.5-.6-.5-.6C4.9 1.4 0 11.7 0 11.7c4-.1 6.4 1.6 7.7 3.8v9.4h16.6V18c1.3-1.8 3.4-3.3 6.6-2.2z"/><circle cx="2.3" cy="16.6" r="2.3"/><path d="M29.7 18.2c-1.3 0-2.3 1-2.3 2.3 0 1.3 1 2.3 2.3 2.3 1.3 0 2.3-1 2.3-2.3 0-1.2-1-2.3-2.3-2.3z"/><path d="M27.4 7.8c0 1.3 1 2.3 2.3 2.3 1.3 0 2.3-1 2.3-2.3 0-1.3-1-2.3-2.3-2.3-1.3 0-2.3 1.1-2.3 2.3z"/><path d="M7.8 26.7h16.6v4.9H7.8z"/></g></symbol><symbol viewBox="0 0 32 32" id="gel-icon-game-control"><title>game-control</title><g id="game-control-Layer_2"><path d="M8 7.5c-1.9 0-3.5 1.6-3.5 3.5s1.6 3.5 3.5 3.5 3.5-1.6 3.5-3.5S9.9 7.5 8 7.5z"/><path d="M24 3c-2 0-3.9.8-5.3 2h-5.4C11.9 3.8 10 3 8 3c-4.4 0-8 3.6-8 8v18h6l6-10h8l6 10h6V11c0-4.4-3.6-8-8-8zm0 2c1.1 0 2 .9 2 2s-.9 2-2 2-2-.9-2-2 .9-2 2-2zM8 17c-3.3 0-6-2.7-6-6s2.7-6 6-6 6 2.7 6 6-2.7 6-6 6zm12-4c-1.1 0-2-.9-2-2s.9-2 2-2 2 .9 2 2-.9 2-2 2zm4 4c-1.1 0-2-.9-2-2s.9-2 2-2 2 .9 2 2-.9 2-2 2zm4-4c-1.1 0-2-.9-2-2s.9-2 2-2 2 .9 2 2-.9 2-2 2z"/></g></symbol><symbol viewBox="0 0 32 32" id="gel-icon-how-to"><title>how-to</title><g id="how-to-Layer_2"><path d="M15.1 11.7c.2-.2.6-.4 1-.4s.6.1.8.2c.2.2.3.4.3.7 0 .3-.2.6-.7 1-.8.7-1.4 1.1-1.6 1.4-.2.3-.4.6-.5.9-.1.3-.2.7-.2 1.3v.3h3.1c0-.4.1-.8.2-1 .1-.3.5-.6 1-1 .8-.6 1.3-1.1 1.6-1.6.3-.4.4-.9.4-1.3 0-1.1-.5-2-1.5-2.6-.7-.5-1.7-.7-2.9-.7-1.5 0-2.6.4-3.4 1.1-.7.7-1.2 1.6-1.3 2.8l3.2.4c.1-.8.2-1.3.5-1.5z"/><path d="M14 17.9h3.3v2.9H14z"/><path d="M2 0v32h28V0H2zm16 30h-4v-2h4v2zm8-4H6V4h20v22z"/></g></symbol><symbol viewBox="0 0 32 32" id="gel-icon-incredible-world"><title>incredible-world</title><path d="M29.2 12.1C29.2 6 24.2 1 18.1 1S6.9 6 6.9 12.1c0 6.2 5 11.2 11.2 11.2 2.3 0 4.4-.7 6.1-1.8l1.3 1.7c-2.6 1.8-5.8 2.6-9 2.2-3.5-.4-6.6-2.2-8.9-5-2.2-2.8-3.2-6.3-2.8-9.8.4-3.6 2.2-6.7 5-9L8.6 0C5.4 2.6 3.3 6.2 2.9 10.3c-.5 4.1.7 8.1 3.2 11.3 2.6 3.2 6.2 5.2 10.2 5.7.3 0 .6 0 .9.1V30h-4.9v2h10.8v-2h-3.9v-2.6c3-.2 5.9-1.3 8.4-3.3l.8-.6-2.6-3.2c2.1-2.1 3.4-5 3.4-8.2zm-10 8.1c-.2.4-.4.7-.7 1.1h-.4c-2 0-3.9-.7-5.4-1.8l.4-.4c.3-.3.3-.4-.1-.7-.4-.4-.7-.8-1.1-1.2-.1-.1 0-.2-.1-.2-.1-.4-.1-.8-.2-1.2-.2-.6-.5-1.2-.7-1.7-.1-.4-.2-.8-.2-1.2.1-.8.4-1 1-.5s1.2 1.1 1.8 1.7c.4.4.9.7 1.3 1.1.3.2.6.2 1 0 .1-.1.3-.2.4-.2.4-.2.9-.5 1.3-.7.6-.2 1.1.2 1.2.8 0 .3 0 .6-.1.9l-.6 2.1c-.1.2-.1.4-.1.6 0 .2.1.3.3.1.2-.1.3-.2.4-.4.2-.1.3-.1.4.1.3.5.5 1.1.2 1.7zm3.1-10.3l-1.2.9c-.7.5-1.4.9-2.3 1-.9.1-1.6-.1-2-1-.3-.6-.5-1.2-.7-1.8-.3-.8-.5-1.7-.8-2.5-.1-.5-.2-.9-.3-1.4 0-.4.1-.9.6-1.1.4-.2.7 0 1.1.3.8.6 1.4 1.3 2 2 .5.6 1 1 1.8 1.2.2.1.5.1.7.3.5.3.8.6 1 1.2.1.4.3.5.6.4.5-.2 1-.4 1.6-.6.6-.2 1.2-.2 1.7-.1.2.1.4.1.6.2.4 1 .6 2.1.6 3.3 0 1.5-.4 2.9-1 4.2-.8.2-1.4-.1-1.6-.9-.1-.5-.2-1.1-.1-1.6.1-.6.4-1.3.6-1.9.1-.5.2-.9.4-1.4.1-.3-.1-.5-.4-.5-.3-.1-.6-.1-.9-.1-.3 0-.5 0-.8-.1-.5-.3-.8-.3-1.2 0z" id="incredible-world-Layer_2"/></symbol><symbol viewBox="0 0 32 32" id="gel-icon-interviews"><title>interviews</title><g id="interviews-Layer_2"><path d="M7.1 18.5l2.6 4.4 14.2-6-3.4-6.6z"/><path d="M0 23.3l1.5 2.9 7.2-3-2.3-3.9z"/><path d="M31.1 8.4c-1.6-2.5-4.9-3.3-7.4-1.9-.1 0-.1.1-.2.1-.9.5-1.7 1.3-2.2 2.2-.1.1-.1.4 0 .5 1.2 2.5 2.5 4.9 3.7 7.4.1.2.2.3.4.3 1.7.3 3.3-.3 4.5-1.4 2.2-1.7 2.8-4.8 1.2-7.2z"/></g></symbol><symbol viewBox="0 0 32 32" id="gel-icon-just-for-fun"><title>just-for-fun</title><g id="just-for-fun-Layer_2"><path d="M18.5 19.2c5.1-1.4 8.1-6.6 6.7-11.6C23.8 2.5 18.6-.5 13.6.9 8.5 2.2 5.5 7.4 6.8 12.5c1.4 5 6.6 8 11.7 6.7zm2.3-7.7c.6 2.4-.8 4.9-3.2 5.5-2.4.6-4.9-.8-5.5-3.2l8.7-2.3z"/><path d="M25.5 21.5h-19l-3 10h25z"/></g></symbol><symbol viewBox="0 0 32 32" id="gel-icon-learning-areas"><title>learning-areas</title><g id="learning-areas-Layer_2"><path d="M30 12.5c0-.9-.1-1.8-.3-2.7-1-4.6-4.6-8.3-9.1-9.4-1-.3-2-.4-3.1-.4h-.6C10.3.4 5 5.8 5 12.5v.5l-1 3-2 2v2l2 1 1 7 6 1 1 3h14l-1.9-8.9C27.6 20.9 30 17 30 12.5zM25 14h-2.2c-.1.5-.4 1-.7 1.5l1.3 1.3-2.1 2.1-1.3-1.5c-.3.2-.6.3-.9.4V20h-3v-2.2c-.5-.1-.9-.3-1.4-.6l-1.8 1.7-2.1-2.1 1.9-1.9-.3-.9H10v-3h2.2l.3-.9-1.8-1.8 2.2-2.1 1.7 1.7c.4-.2.9-.4 1.3-.6V5h3v2.2c.3.1.6.2.9.4l1.3-1.5 2.1 2.1-1.3 1.3c.3.4.5.9.7 1.5H25v3z"/><circle cx="17.5" cy="12.5" r="2.5"/></g></symbol><symbol viewBox="0 0 32 32" id="gel-icon-make-a-picture"><title>make-a-picture</title><g id="make-a-picture-Layer_2"><path d="M24.2 2.1c.5 1.1.8 2.5.9 3.9v20.2H6.8V6h7.6c.5-1.1 1.3-2 2.2-2.6l.4-1.3H3V32h26V2.1h-4.8zM18 30h-4v-2h4v2z"/><path d="M12.8 23.2h5.7l1.3-9.3-3.2-.8z"/><path d="M16.7 10.9l3.7 1c.9-.6 1.7-1.6 2-2.9.1-.5.2-.9.2-1.4C23 4.2 22 1.3 20 0l-1.1 4.3c-1.1.5-2.1 1.6-2.5 3.2-.4 1.2-.2 2.5.3 3.4z"/></g></symbol><symbol viewBox="0 0 32 32" id="gel-icon-maths-and-puzzles"><title>maths-and-puzzles</title><g id="maths-and-puzzles-Layer_2"><path d="M27.2 17c.5-.5.8-1.2.8-2 0-1.7-1.3-3-3-3s-3 1.3-3 3c0 .8.3 1.5.8 2H18v5.8c.5-.5 1.2-.8 2-.8 1.7 0 3 1.3 3 3s-1.3 3-3 3c-.8 0-1.5-.3-2-.8V32h14V17h-4.8z"/><path d="M12 14c-.8 0-1.5.3-2 .8V9h4.8c-.5-.5-.8-1.2-.8-2 0-1.7 1.3-3 3-3s3 1.3 3 3c0 .8-.3 1.5-.8 2H24V0H0v24h10v-4.8c.5.5 1.2.8 2 .8 1.7 0 3-1.3 3-3s-1.3-3-3-3z"/></g></symbol><symbol viewBox="0 0 32 32" id="gel-icon-music-and-art"><title>music-and-art</title><g id="music-and-art-Layer_2"><path d="M18 32h8l2-13-5-1z"/><path d="M28 0l-1.5 6.1c-1.9.4-3.6 2.4-4.1 5-.3 1.9 0 3.7.8 4.9h.1l4.9 1h.1c2.1-.4 3.7-4 3.7-8.5C32 6 30.2 0 28 0z"/><path d="M20 1.3L10 5v16.5c-1.1-1-2.5-1.5-4-1.5-3.3 0-6 2.7-6 6s2.7 6 6 6 6-2.7 6-6V13l8-3V1.3zM6 29c-1.7 0-3-1.3-3-3s1.3-3 3-3 3 1.3 3 3-1.3 3-3 3z"/></g></symbol><symbol viewBox="0 0 32 32" id="gel-icon-music-and-dance"><title>music-and-dance</title><path d="M12 6.6v14.9c-1.1-1-2.5-1.5-4-1.5-3.3 0-6 2.7-6 6s2.7 6 6 6 6-2.7 6-6V14.6l14-5.3v7.2c-1.1-1-2.5-1.5-4-1.5-3.3 0-6 2.7-6 6s2.7 6 6 6 6-2.7 6-6V0L12 6.6zM8 29c-1.7 0-3-1.3-3-3s1.3-3 3-3 3 1.3 3 3-1.3 3-3 3zm16-5c-1.7 0-3-1.3-3-3s1.3-3 3-3 3 1.3 3 3-1.3 3-3 3z" id="music-and-dance-Layer_2"/></symbol><symbol viewBox="0 0 32 32" id="gel-icon-news"><title>news</title><g id="news-Layer_2"><path d="M4 20h14v3H4z"/><path d="M4 25h14v3H4z"/><path d="M4 4h24v13H4z"/><path d="M0 0v32h21l11-11V0H0zm22 28v-6h6l-6 6zm8-8H20v10H2V2h28v18z"/></g></symbol><symbol viewBox="0 0 32 32" id="gel-icon-parenting-help"><title>parenting-help</title><g id="parenting-help-Layer_2"><path d="M15 18v.4c1.3.7 2.9 1.1 4.5 1.1 5.2 0 9.5-4.3 9.5-9.5S24.7.5 19.5.5 10 4.8 10 10v1c2.9 1 5 3.8 5 7z"/><path d="M29 21.5H14.1c-.4.7-.9 1.4-1.5 2h2.2l2.4 8H32l-3-10z"/><path d="M7.5 23.5c3 0 5.5-2.5 5.5-5.5s-2.5-5.5-5.5-5.5S2 15 2 18s2.5 5.5 5.5 5.5z"/><path d="M2 25.5l-2 6h15l-2-6z"/></g></symbol><symbol viewBox="0 0 32 32" id="gel-icon-phonics"><title>phonics</title><g id="phonics-Layer_2"><path d="M17 17v15h15V17H17zm11.3 10c-.2.5-.5.9-.9 1.2-.4.3-.8.6-1.2.8s-1 .3-1.6.3c-.7 0-1.3-.1-1.9-.4-.6-.2-1-.6-1.4-1-.4-.4-.7-.9-.9-1.5-.2-.6-.3-1.2-.3-1.9s.1-1.3.3-1.9c.2-.6.5-1.1.9-1.5.4-.4.9-.8 1.4-1 .6-.3 1.2-.4 1.9-.4.5 0 1 .1 1.4.2.5.1.9.4 1.2.6.4.3.7.6.9 1 .2.4.4.9.4 1.4h-2c0-.2-.1-.4-.2-.6-.1-.2-.3-.4-.5-.5-.2-.1-.4-.3-.6-.3-.2-.1-.5-.1-.7-.1-.5 0-.8.1-1.2.3-.3.2-.6.4-.8.7-.2.3-.3.6-.4 1-.1.4-.1.8-.1 1.2 0 .4 0 .8.1 1.1.1.4.2.7.4 1 .2.3.5.5.8.7.3.2.7.3 1.2.3.6 0 1.1-.2 1.5-.6.3-.4.6-.9.6-1.5h2c.1.4-.1 1-.3 1.4z"/><path d="M16.2 5.1L15 8.5h2.4l-1.1-3.4z"/><path d="M23.9 0h-15v15h15V0zm-5.2 12.1L18 10h-3.5l-.7 2.1h-2l3.5-9.2h2.1l3.5 9.2h-2.2z"/><path d="M8.9 27.2l.3-.3c.1-.2.1-.4.1-.6 0-.5-.1-.8-.4-1s-.6-.3-1-.3H5.7v2.5h2.2c.2 0 .4 0 .6-.1s.3-.1.4-.2z"/><path d="M8.6 23.3c.3-.2.4-.4.4-.8 0-.2 0-.4-.1-.5l-.3-.3c-.1-.1-.3-.1-.4-.2H5.7v2.2h2.1c.3-.1.6-.2.8-.4z"/><path d="M0 32h15V17H0v15zm3.6-12.2H8c.4 0 .8 0 1.2.1s.7.2.9.4c.3.2.5.4.6.7s.2.7.2 1.1c0 .5-.1.9-.3 1.2-.2.3-.5.6-.9.8.6.2 1 .5 1.3.9.3.4.4.9.4 1.5 0 .5-.1.9-.3 1.2-.2.3-.4.6-.7.8-.3.2-.7.4-1 .5-.4.1-.8.2-1.2.2H3.6v-9.4z"/></g></symbol><symbol viewBox="0 0 32 32" id="gel-icon-physical-development"><title>physical-development</title><g id="physical-development-Layer_2"><circle cx="13" cy="2" r="2"/><circle cx="8.5" cy="2" r="1.5"/><circle cx="4.5" cy="3" r="1.5"/><circle cx="1.5" cy="5.5" r="1.5"/><path d="M12 18v-3l1-1.4c.6-.9 1-1.9 1-3.1 0-3-2.5-5.5-5.5-5.5S3 7.5 3 10.5c0 .5.1 1 .2 1.5l3.5 11.4c.5 1.5 1.9 2.6 3.5 2.6 2.1 0 3.7-1.7 3.7-3.8 0-.7-.2-1.4-.6-2L12 18z"/><circle cx="19" cy="8" r="2"/><circle cx="23.5" cy="8" r="1.5"/><circle cx="27.5" cy="9" r="1.5"/><circle cx="30.5" cy="11.5" r="1.5"/><path d="M23.5 11c-3 0-5.5 2.5-5.5 5.5 0 1.1.4 2.2 1 3.1l1 1.4v3l-1.4 2.3c-.4.6-.6 1.2-.6 2 0 2.1 1.7 3.8 3.7 3.8 1.7 0 3-1.1 3.5-2.6L28.8 18c.1-.5.2-1 .2-1.5 0-3-2.5-5.5-5.5-5.5z"/></g></symbol><symbol viewBox="0 0 32 32" id="gel-icon-platform"><title>platform</title><g id="platform-Layer_2"><path d="M8.5 25.5h11.7V32H8.5z"/><path d="M20.3 18.9H32v6.5H20.3z"/><path d="M14.2 18.1l1 6.5h1.4l-.2-7.7-4-2.2L13.6 9s1.8 3.5 3.6 2.4c1.6-1 2.5-4.9 2.5-4.9l-1.2-.6-2 3.3L15.1 7c-1.4-2.2-3.6-2.1-3.6-2.1-2.2-.3-4.6 1.6-4.6 1.6s-1.2.7-2.8 2.6C2.6 11 1.9 13 1.9 13l1.1.6 2.6-3.3 2.8-1.9-1.3 6-1 3.4L0 20.1l.6 1.3 7.6-1.8 1.9-2.6 4.1 1.1z"/><circle cx="12.3" cy="2" r="2"/></g></symbol><symbol viewBox="0 0 32 32" id="gel-icon-pop-songs"><title>pop-songs</title><g id="pop-songs-Layer_2"><path d="M10 13.8v10.7c0-.7-1.6-1.1-2.7-1.1-2.4 0-4.2 1.9-4.2 4.3s2 4.3 4.4 4.3c2.4 0 4.5-1.9 4.5-4.3v-8.2l9.8-3.8v5.1c-1-.7-1.8-1.1-2.9-1.1-2.4 0-4.3 1.9-4.3 4.3s1.7 4.3 4.1 4.3c2.4 0 4.1-1.9 4.1-4.3V9L10 13.8zm-2.6 16c-1.2 0-2.1-1-2.1-2.1s1-2.1 2.1-2.1c1.2 0 2.1 1 2.1 2.1s-.9 2.1-2.1 2.1zm11.5-3.5c-1.2 0-2.1-1-2.1-2.1s1-2.1 2.1-2.1 2.1 1 2.1 2.1-.9 2.1-2.1 2.1z"/><path d="M8.8 5l-.2 3.7 2.9 2.2-3.5 1-1.2 3.4-2-3-3.7-.1 2.3-2.9-1-3.5 3.4 1.3z"/><path d="M28.1 0l-.2 3.7 3 2.2-3.6 1-1.2 3.4-2-3.1h-3.6l2.2-2.9-1-3.5 3.4 1.3z"/><path d="M14.4.7l1.2 2.4 2.6.4-1.9 1.9.4 2.6-2.3-1.2L12 8l.4-2.6-1.9-1.9 2.7-.4z"/><path d="M26.1 12.5l1.9 1.4 2.2-.7-.8 2.2 1.3 1.9-2.3-.1-1.4 1.9-.6-2.2-2.2-.8 1.9-1.3z"/></g></symbol><symbol viewBox="0 0 32 32" id="gel-icon-pre-school"><title>pre-school</title><g id="pre-school-Layer_2"><path d="M5.5 12l-1-5.3c-.1-1-1-1.7-2-1.7-1.1 0-2 .9-2 2l1.1 5.5c.2.9 1 1.5 1.9 1.5 1.1 0 2-.9 2-2"/><path d="M15.5 11c1.1 0 1.9-.8 2-1.9l1-6.7c0-.1.1-.2.1-.4 0-1.1-.9-2-2-2s-1.9.9-2 1.9l-1 6.7v.3c-.1 1.2.8 2.1 1.9 2.1"/><path d="M21.5 13c.6 0 1.2-.3 1.5-.7l3.1-5.2c.2-.3.3-.7.3-1.1 0-1.1-.9-2-2-2-.6 0-1.2.3-1.5.7l-.3.5-2.7 4.5c-.3.3-.4.8-.4 1.2 0 1.2.9 2.1 2 2.1"/><path d="M7.8 9.3c.1 1 .9 1.7 1.8 1.7s1.7-.7 1.9-1.6V1.9c0-1.1-.9-1.9-2-1.9s-2 .9-2 2l.3 7.3z"/><path d="M29.5 20c-.2 0-.4 0-.6.1L21.5 23c-1.1 0-2-.9-2-2v-3.5c0-2.4-1.9-4.4-4.3-4.5h-3.7l-9 5 1 9s1 5 6 5h2v-3l-2-2v-2s0-3 3-3c.5 0 .9.1 1.2.2.2.1.4.2.5.3 1.2.8 1.2 2.5 1.2 2.5v2l-2 1v4h1s2.5 0 9-4l7.2-4.4c.5-.4.8-.9.8-1.6.1-1.1-.8-2-1.9-2"/></g></symbol><symbol viewBox="0 0 32 32" id="gel-icon-printable"><title>printable</title><path d="M26 12V5l-5-5H6v12H0v12.1L5.9 30H6v2h20v-2h.1l5.9-5.9V12h-6zM8 12V2h12.2L24 5.8V18H8v-6zm0 18v-5h16v5H8z" id="printable-Layer_2"/></symbol><symbol viewBox="0 0 32 32" id="gel-icon-puzzles"><title>puzzles</title><path d="M27.1 12.9c1 .3 2 .1 3-.4 1.9-1.1 2.5-3.5 1.4-5.4-1.1-1.9-3.5-2.5-5.4-1.4-.9.5-1.6 1.4-1.8 2.3l-.1-.2-3.6-6.3-7.1 4.1c.9.3 1.6.9 2.1 1.7 1.1 1.9.4 4.3-1.4 5.4-1.9 1.1-4.3.4-5.4-1.4-.5-.9-.6-1.8-.4-2.7l-6.9 3.9 3.9 6.8c-1.1-.4-2.4-.3-3.4.3C.1 20.7-.5 23.1.5 25c1.1 1.9 3.5 2.5 5.4 1.4 1.1-.6 1.7-1.6 1.9-2.8l3.9 6.8 6.8-3.9c-.8-.3-1.4-.9-1.9-1.6-1.1-1.9-.4-4.3 1.4-5.4 1.9-1.1 4.3-.4 5.4 1.4.4.8.6 1.6.5 2.5l7-4-3.6-6.3-.2-.2z" id="puzzles-Layer_2"/></symbol><symbol viewBox="0 0 32 32" id="gel-icon-quick-play"><title>quick-play</title><g id="quick-play-Layer_2"><path d="M15.4 6c-7.2 0-13 5.8-13 13s5.8 13 13 13 13-5.8 13-13-5.8-13-13-13zm0 22.5c-5.2 0-9.5-4.3-9.5-9.5s4.3-9.5 9.5-9.5 9.5 4.3 9.5 9.5-4.3 9.5-9.5 9.5z"/><path d="M25.378 4.88l4.244 4.242-2.827 2.83-4.245-4.24z"/><path d="M18.4 3c0-1.7-1.3-3-3-3s-3 1.3-3 3 1.3 3 3 3 3-1.3 3-3zm-3 2c-1.1 0-2-.9-2-2s.9-2 2-2 2 .9 2 2-.9 2-2 2z"/><path d="M11.9 24l9.9-4.8-9.9-4.9z"/></g></symbol><symbol viewBox="0 0 32 32" id="gel-icon-quiz"><title>quiz</title><g id="quiz-Layer_2"><path d="M4 24c-2.2 0-4 1.8-4 4s1.8 4 4 4 4-1.8 4-4-1.8-4-4-4z"/><path d="M17 7.3c-3.3 0-4.5 2.7-4.5 5.5 0 2.7 1.2 5.4 4.5 5.4.5 0 1.3.1 1.5-.1l-1.9-1.7 1.7-1.8 2.2 2c.6-.8 1-2 1-3.7 0-2.9-1.2-5.6-4.5-5.6z"/><path d="M16.9 0C8.7 0 2 5.9 2 13.1 2 20.2 8.8 26 17.1 26S32 20.1 32 12.9C32 5.8 25.2 0 16.9 0zm7.9 20.4l-1.7 1.7-2.1-1.8c-1.1.6-2.4.9-4 .9-5.1 0-8.1-3.7-8.1-8.4 0-4.8 3-8.5 8.1-8.5s8.1 3.7 8.1 8.5c0 2.3-.8 4.4-2.1 5.9l1.8 1.7z"/></g></symbol><symbol viewBox="0 0 32 32" id="gel-icon-reading-and-writing"><title>reading-and-writing</title><g id="reading-and-writing-Layer_2"><path d="M8 0h18v9H8z"/><path d="M30 0h-2v9h2c1.1 0 2-.9 2-2V2c0-1.1-.9-2-2-2z"/><path d="M4 2L0 4.5 4 7z"/><path d="M4 17h9v2H4z"/><path d="M16 14l-2-2H0v20h14l2-2 2 2h14V12H18l-2 2zm-1 16H2V14h13v16zm15 0H17V14h13v16z"/><path d="M4 21h9v2H4z"/><path d="M4 25h9v2H4z"/><path d="M19 17h9v2h-9z"/><path d="M19 21h9v2h-9z"/><path d="M19 25h9v2h-9z"/></g></symbol><symbol viewBox="0 0 32 32" id="gel-icon-school-age"><title>school-age</title><g id="school-age-Layer_2"><path d="M0 6v5c0 1.6 1.3 3 3 3h26c1.7 0 3-1.3 3-3V6H0z"/><path d="M11.5 3.5c0-.3.2-.5.5-.5h9c.3 0 .5.2.5.5V4h3v-.5C24.5 1.6 22.9 0 21 0h-9c-1.9 0-3.5 1.6-3.5 3.5V4h3v-.5z"/><path d="M25 19h2v6h-2v3l-1.5 1-1.5-1v-3h-2v-6h2v-3H10v3h2v6h-2v3l-1.5 1L7 28v-3H5v-6h2v-3H1v16h30V16h-6z"/><path d="M7 21h3v2H7z"/><path d="M22 21h3v2h-3z"/></g></symbol><symbol viewBox="0 0 32 32" id="gel-icon-science-experiments"><title>science-experiments</title><g fill-rule="evenodd" clip-rule="evenodd" id="science-experiments-Layer_2"><path d="M27.7 24.3l-7.1-11.5c-.3-.4-.4-.8-.4-.8V4.8c0-.9.7-2.5 1.1-3.3.2-.3.2-.7 0-1-.2-.3-.5-.5-.9-.5h-9c-.4 0-.7.2-.9.5-.2.3-.1.7.1 1 .7 1 1 2.6 1.1 3.3V12c0 .4-.2.8-.3.8l-6.3 9.9c-.7 1-1.3 2.2-1.3 2.2-1 2-1.1 3.7-.3 5 1.2 1.9 4 2.1 4.8 2.1h.1s11.2-.1 14 0h.6c1.8 0 2.6-.2 2.9-.3 1.7-.6 2.3-1.7 2.6-2.5 1-2.3-.6-4.7-.8-4.9zm-.8 4.2c-.2.5-.6 1-1.4 1.2 0 0-.1 0-.1.1-.1 0-.8.2-2.6.1H8.6c-1.1 0-2.6-.3-3.2-1.1-.5-.8-.1-2.1.4-3 0 0 .6-1.1 1.2-2l6.2-9.8c.1-.1.6-.9.6-2V4.7c0-.1-.2-1.3-.7-2.6h5.8c-.3.8-.7 1.9-.7 2.7V12c0 .1.1.9.7 1.8L26 25.4c.4.5 1.2 2 .9 3.1z"/><path d="M21.7 21.4c-.8-1.3-1.6-2.7-2.4-4-.1.1-.1.2-.2.2-.6.5-1.3.8-2.1.6-.5-.1-.9-.4-1.4-.8-.3-.3-.7-.6-1.1-.8-1-.5-1.8.3-2.3 1.3-1.7 2.9-3.7 5.3-5.3 8.5-.8 1.3.2 2 .9 2h16c.8 0 1.1-1.1.7-1.7-.9-1.7-1.7-3.4-2.8-5.3zm-7.8 4.2c-.8.3-1.7 0-2-.8-.3-.8 0-1.7.8-2 .8-.3 1.7 0 2 .8.3.8 0 1.7-.8 2zm1.2-4.1c-.3-.7 0-1.4.7-1.7.7-.3 1.4 0 1.7.7.3.7 0 1.4-.7 1.7-.6.2-1.4-.1-1.7-.7zm5.7 3.8c-.2 1-1.1 1.7-2.1 1.6-1-.2-1.7-1.1-1.6-2.1.2-1 1.1-1.7 2.1-1.6 1 .1 1.7 1 1.6 2.1z"/></g></symbol><symbol viewBox="0 0 32 32" id="gel-icon-send-ins"><title>send-ins</title><g id="send-ins-Layer_2"><path d="M30.9 18.3l1-10.9-4-.4-1.2-4.5-12 3.2L2.1 4.6l-.4 4.6-1.7.5 1.2 4.4L.2 25l4 .4 1.1 4.1 11-2.9L30 27.8l.5-5.1 1.5-.4-1.1-4zm-2.7 7.3L2.4 23.2 3.9 6.8l25.9 2.5-1.6 16.3z"/><path d="M15.5 14.2c1 .1 1.8-.6 1.9-1.6.1-1-.6-1.8-1.6-1.9-1-.1-1.8.6-1.9 1.6-.1 1 .6 1.8 1.6 1.9z"/><path d="M15.4 21.5h.1l-2.4-5.7-4.2 5.1 6.3.6z"/><path d="M17.1 20.8l5.2.5-2.5-7.7-4.3 3.2z"/></g></symbol><symbol viewBox="0 0 32 32" id="gel-icon-shows-information"><title>shows-information</title><g id="shows-information-Layer_2"><path d="M8 15.5c0 3.6 2.9 6.5 6.5 6.5s6.5-2.9 6.5-6.5S18.1 9 14.5 9 8 11.9 8 15.5z"/><path d="M0 1v26h7l-1 4h17l-2-7H3V4h26v20h-6l1 3h8V1z"/></g></symbol><symbol viewBox="0 0 38 32" id="gel-icon-sneak-peeks"><title>sneak-peeks</title><g id="sneak-peeks-Layer_2"><path d="M19 11.3c-2.6 0-4.7 2.1-4.7 4.7s2.1 4.7 4.7 4.7 4.7-2.1 4.7-4.7-2.1-4.7-4.7-4.7z"/><path d="M25 5.7c-1.5-.9-3.3-1.4-5.1-1.6h-1.8c-1.9.1-3.6.7-5.1 1.6C6.3 9 0 16 0 16s6.3 7 13 10.3c1.5.9 3.3 1.4 5.1 1.6h1.8c1.9-.1 3.6-.7 5.1-1.6C31.7 23 38 16 38 16S31.7 9 25 5.7zm-6 18.6c-4.6 0-8.3-3.7-8.3-8.3 0-4.6 3.7-8.3 8.3-8.3s8.3 3.7 8.3 8.3c0 4.6-3.7 8.3-8.3 8.3z"/></g></symbol><symbol viewBox="0 0 32 32" id="gel-icon-special-needs"><title>special-needs</title><g id="special-needs-Layer_2"><path d="M16 22.5l1-2h5v-3h-5.8l-4-4.8c-.7-.8-1.1-1.5-1.1-1.5-.7-1-1.1-2.5-1.1-3.8 0-2.7 2.2-4.9 4.9-4.9 1.7 0 3.3.9 4.2 2.4l.9 1.4.9-1.4c.9-1.5 2.5-2.4 4.2-2.4 2.7 0 4.9 2.2 4.9 4.9 0 1.3-.4 2.8-1.1 3.8 0 0-.4.6-1.1 1.4L24 17.2v3.1l5.3-6.3c.8-1 1.3-1.7 1.3-1.7.9-1.4 1.4-3.2 1.4-4.9C32 3.6 28.9.5 25.1.5c-2 0-3.8.8-5.1 2.2C18.7 1.3 16.9.5 14.9.5 11.1.5 8 3.6 8 7.4c0 1.7.5 3.5 1.4 4.9 0 0 .5.7 1.3 1.7l2.9 3.5H13l-7 6v7h8l9-2 9-4v-4l-7 2h-9z"/><path d="M0 22.5h4v9H0z"/></g></symbol><symbol viewBox="0 0 32 32" id="gel-icon-sport"><title>sport</title><g id="sport-Layer_2"><path d="M12.5 17.2c1-1.6 2.5-3.2 4.5-4.5l-3.2-2.4-3.6 2.7 1.4 4.2h.9z"/><path d="M4.4 18.9l-.1 1.9c-1.7-1.9-2.9-4.4-3-7.2v-.5l1.4 1.3L5.4 11l-.7-4.3-1.9.5c1.4-2.4 3.7-4.3 6.4-5.3l-.8 1.7 4.1 1.6 3.9-2-1-1.6c2.8.6 5.3 2.2 7 4.5l-1.9-.2-.2 4.4 2.7-.5c.8-.2 1.6-.2 2.4-.3-1.7-5.6-7-9.6-13.1-9.2C5.1.5-.4 6.6 0 13.7c.3 5.6 4.2 10.2 9.3 11.6 0-.8.1-1.6.3-2.5l.2-1.3v-.2l-1.2-1.8-4.2-.6z"/><path d="M11.8 31l.1.3.3.1c.1 0 1.8.5 4.3.5 1 0 2.1-.1 3.3-.3l-8.3-8.3c-.7 4.1.2 7.5.3 7.7z"/><path d="M31.5 12.2l-.1-.3-.4-.1c-.1 0-1.8-.5-4.3-.5-1 0-2.1.1-3.3.3l8.3 8.3c.7-4.1-.2-7.5-.2-7.7z"/><path d="M21.9 13l-.8-.8c-1.8.7-3.7 1.7-5.5 3.4-1.7 1.7-2.8 3.6-3.4 5.5l.8.8 8.3 8.3.8.8c1.8-.7 3.7-1.7 5.5-3.4 1.7-1.7 2.8-3.6 3.4-5.5l-.8-.8-8.3-8.3zm.5 5.3l-1-1-1.9 1.7 1 1-.5.5-1-1-1.8 1.8 1 1-.5.5-1-1.1-.7.7-.4-.4.7-.7-1-1 .5-.5 1 1 1.8-1.8-1-1 .5-.5 1 1 1.8-1.8-1-1 .5-.5 1 1 .7-.7.5.5-.7.7 1 1-.5.6z"/></g></symbol><symbol viewBox="0 0 32 32" id="gel-icon-strategy"><title>strategy</title><g id="strategy-Layer_2"><path d="M13.6 7.4H27V0h-5.3v2.9h-2.9V0h-5.3v2.9h-3.3V0H5.3v7.4h5z"/><path d="M3.5 26.6h25v5.3h-25z"/><path d="M6.3 24.6h19.5l-2-15.2H8.2L6.3 24.6zm8-9.2c0-1 .8-1.8 1.8-1.8s1.8.8 1.8 1.8v3.3h-3.7v-3.3z"/></g></symbol><symbol viewBox="0 0 32 32" id="gel-icon-switch"><title>switch</title><g id="switch-Layer_2"><path d="M16 16l8.6-8.6-2.9-2.8L18.3 8V0h-4.6v8l-3.4-3.4-2.9 2.8L16 16z"/><ellipse cx="16" cy="25.1" rx="13.7" ry="6.9"/></g></symbol><symbol viewBox="0 0 32 32" id="gel-icon-target"><title>target</title><path d="M15.1 5.7c3 .4 4.6 1.4 6.4 2.9l2.6-2.5V3.3l3-3.3v4.4H32l-3.3 3h-2.8L13.7 19.7l2.7.2c-.5 1.3-1.7 2.2-3.1 2.2-1.8 0-3.3-1.5-3.3-3.3 0-1.8 1.5-3.3 3.3-3.3.5 0 1 .1 1.4.3l2.4-2.4c-1.1-.8-2.4-1.2-3.8-1.2-3.6 0-6.6 3-6.6 6.6s3 6.6 6.6 6.6c3.6 0 6.6-3 6.6-6.6 0-.6-.1-1.2-.2-1.7l.9-.9c.3.8.5 1.7.5 2.6 0 4.3-3.5 7.7-7.7 7.7-4.3 0-7.7-3.5-7.7-7.7 0-4.3 3.4-7.7 7.7-7.7 1.7 0 3.3.6 4.6 1.5l1.6-1.6c-1.7-1.4-3.8-2.2-6.2-2.2-5.4 0-9.9 4.4-9.9 9.9v1.4c0 .2 0 .4.1.5 0 .2.1.4.1.5 0 .1.1.3.1.4.1.2.1.4.2.7 0 .1 0 .1.1.2.5 1.2 1.2 2.3 2.2 3.3.5.5 1 .9 1.5 1.3 1.6 1.1 3.5 1.7 5.5 1.7h.6c2.2-.2 4.2-1 5.9-2.4.6-.6 1.2-1.2 1.7-1.9.2-.2.3-.5.4-.7 0 0 0-.1.1-.1.1-.2.2-.5.3-.7 0-.1.1-.1.1-.2.1-.2.2-.4.2-.6 0-.1.1-.2.1-.3.1-.2.1-.4.1-.5 0-.1.1-.3.1-.4 0-.2.1-.4.1-.5 0-.1 0-.3.1-.4v-.9c0-1.5-.4-3-1-4.3l2.4-2.4c1.1 1.9 1.8 4.3 1.8 6.3v.4c0 3.6-1.5 6.9-3.8 9.3l-.2.2c-.2.1-.3.3-.5.4-2.4 2.2-5.5 3.3-8.7 3.3-2.8 0-5.6-1-7.9-2.7 0-.4-.1-.5-.2-.6-.1-.1-.3-.2-.4-.3-2.8-2.4-4.6-6-4.6-10 0-6.5 5.1-12 11-13 .1 0 1.5-.3 4.1 0z" id="target-Layer_2"/></symbol><symbol viewBox="0 0 32 32" id="gel-icon-time-it-will-take"><title>time-it-will-take</title><g id="time-it-will-take-Layer_2"><path d="M16 0C7.2 0 0 7.2 0 16s7.2 16 16 16 16-7.2 16-16S24.8 0 16 0zm0 28C9.4 28 4 22.6 4 16S9.4 4 16 4s12 5.4 12 12-5.4 12-12 12z"/><path d="M17 15.4V6h-2v10.6l8.8 5.1 1-1.8z"/></g></symbol><symbol viewBox="0 0 32 32" id="gel-icon-understanding-the-world"><title>understanding-the-world</title><g id="understanding-the-world-Layer_2"><path d="M3 21.5l-3 10h25l-3.1-10z"/><path d="M12.5 19.5c2 0 3.9-.6 5.5-1.7-1-.4-1.9-1-2.7-1.7-.8.6-1.7.9-2.7.9C10 17 8 15 8 12.5h4.7c-.4-1.1-.7-2.3-.7-3.5 0-3.2 1.6-6.1 4.1-7.8C15 .7 13.8.5 12.5.5 7.3.5 3 4.8 3 10s4.3 9.5 9.5 9.5z"/><path d="M28.1 12.5c.6-1 .9-2.2.9-3.5 0-4.1-3.4-7.5-7.5-7.5S14 4.9 14 9s3.4 7.5 7.5 7.5c1.8 0 3.4-.6 4.7-1.7l3.7 3.7 2.1-2.1-3.9-3.9zm-6.6 1c-2.5 0-4.5-2-4.5-4.5s2-4.5 4.5-4.5S26 6.5 26 9s-2 4.5-4.5 4.5z"/></g></symbol><symbol viewBox="0 0 32 32" id="gel-icon-videos"><title>videos</title><path d="M3 32l26-16L3 0z" id="videos-Layer_2"/></symbol><symbol viewBox="0 0 32 32" id="gel-icon-votes"><title>votes</title><path d="M16 0C7.2 0 0 7.2 0 16s7.2 16 16 16 16-7.2 16-16S24.8 0 16 0zm2.4 9.5h4v4h-4v-4zm-10 0h4v4h-4v-4zm7.6 18c-4.4 0-8-4-8-8h16c0 4-3.6 8-8 8z" id="votes-Layer_2"/></symbol><symbol viewBox="0 0 32 32" id="gel-icon-webisodes-online-episodes"><title>webisodes-online-episodes</title><g id="webisodes-online-episodes-Layer_2"><path d="M12.3 15.5l8.4-4.1-8.4-4.1z"/><path d="M0 1v21h32V1H0zm4 17V5h24v13H4z"/><path d="M5 25l-5 4v2h32v-2l-5-4H5zm-1.4 4l2.3-2H26l2.3 2H3.6z"/></g></symbol></svg>