<svg xmlns="http://www.w3.org/2000/svg" xmlns:xlink="http://www.w3.org/1999/xlink"><symbol viewBox="0 0 32 32" id="gel-icon-360-image"><path d="M12.4 21.6c-4.9-.9-8.7-3.5-8.7-6.4 0-1.7 1.4-3.4 3.5-4.6L4.5 8.2C1.7 10 0 12.5 0 15.3c0 4.8 5.3 8.8 12.4 9.8V31l8.6-7.9-8.6-7.9v6.4z"/><path d="M24 6.5V2H12V1h-2v1H8v12h16v-3.7c2.6 1.3 4.3 3.1 4.3 5s-1.7 3.7-4.2 4.9V24c4.7-1.8 7.9-5 7.9-8.7 0-3.8-3.2-7-8-8.8zM12 6h-2V4h2v2zm6 6c-2.2 0-4-1.8-4-4s1.8-4 4-4 4 1.8 4 4-1.8 4-4 4z"/><circle cx="18" cy="8" r="2.2"/></symbol><symbol viewBox="0 0 32 32" id="gel-icon-360-video"><style>.st0{fill:#000101}</style><g id="abLayer_2"><path d="M11.2 26.5l10-6.5-10-6.5z"/><path d="M16 5.1C7.2 5.1.1 8.9.1 13.6c0 3.1 2.9 5.8 7.9 7.3v-3.1c-3-1-4.4-2.5-4.4-4.2 0-3 5.6-5.5 12.5-5.5s12.5 2.5 12.5 5.5c0 1.7-1.5 3.2-4.5 4.2V21c5-1.5 8-4.2 8-7.4C32 8.9 24.8 5.1 16 5.1z"/></g></symbol><symbol viewBox="0 0 32 32" id="gel-icon-activity"><path d="M27.2 12.9c1 .3 2.1.1 3-.4 1.9-1.1 2.6-3.5 1.5-5.4-1.1-1.9-3.5-2.6-5.4-1.5-1 .5-1.6 1.4-1.9 2.4l-.1-.2-3.6-6.4-7.2 4.1c.9.3 1.6.9 2.1 1.8 1.1 1.9.4 4.3-1.5 5.4-1.9 1.1-4.3.4-5.4-1.5-.6-.8-.7-1.8-.5-2.7l-7 4 4 6.9c-1.1-.4-2.3-.4-3.4.2C-.1 20.7-.8 23.1.3 25c1.1 1.9 3.5 2.6 5.4 1.5 1.1-.6 1.7-1.7 1.9-2.8l3.9 6.9 6.9-3.9c-.8-.3-1.4-.9-1.9-1.7-1.1-1.9-.4-4.3 1.5-5.4 1.9-1.1 4.3-.4 5.4 1.5.5.8.6 1.7.5 2.5l7.1-4-3.6-6.4-.2-.3z"/></symbol><symbol viewBox="0 0 32 32" id="gel-icon-apps"><style>.st0{fill:#000101}</style><path d="M12 14H2l-2-2V2l2-2h10l2 2v10zm18 0H20l-2-2V2l2-2h10l2 2v10zm0 18H20l-2-2V20l2-2h10l2 2v10zm-18 0H2l-2-2V20l2-2h10l2 2v10z" id="adLayer_2"/></symbol><symbol viewBox="0 0 32 32" id="gel-icon-audio"><path d="M21.4 4.8L20 6.2c2.5 2.5 4 6 4 9.8s-1.5 7.3-4 9.8l1.4 1.4C24.2 24.3 26 20.4 26 16c0-4.4-1.8-8.3-4.6-11.2z"/><path d="M25.6.5L24.2 2c3.6 3.6 5.8 8.6 5.8 14s-2.2 10.4-5.8 14l1.4 1.4C29.6 27.5 32 22 32 16S29.6 4.5 25.6.5zM16 4l-6 6H0v12h10l6 6"/></symbol><symbol viewBox="0 0 32 32" id="gel-icon-chart"><path d="M1 9h8v23H1zm11 9h8v14h-8zM23 0h8v32h-8z"/></symbol><symbol viewBox="0 0 32 32" id="gel-icon-collection"><path d="M4 26h22V4h2v24H4"/><path d="M8 32v-2h22V8h2v24"/><path d="M0 24h24V0H0v24z"/></symbol><symbol viewBox="0 0 32 32" id="gel-icon-curriculum-key-fact"><path d="M12 26h8v2h-8zm1 6h6l1-2h-8m3-30h2v2h-2zm12 12h2v2h-2zM3 12h2v2H3zm2-9h2v2H5zm20 0h2v2h-2zM6 21h2v2H6zm18 0h2v2h-2zM16 4c-4.7 0-8.5 3.8-8.5 8.5 0 2.3.9 4.3 2.3 5.8S12 21.8 12 24h8c0-2.2.8-4.2 2.2-5.7 1.4-1.5 2.3-3.6 2.3-5.8C24.5 7.8 20.7 4 16 4zm4.7 12.9c-1.3 1.4-2.2 3.1-2.6 5.1h-4.4c-.4-1.9-1.2-3.7-2.5-5-1.1-1.2-1.8-2.8-1.8-4.5.1-3.6 3-6.5 6.6-6.5s6.5 2.9 6.5 6.5c0 1.7-.6 3.3-1.8 4.4z"/></symbol><symbol viewBox="0 0 32 32" id="gel-icon-document"><path d="M21.3 3L27 8.7V29H5V3h16.3m.7-3H2v32h28V8l-8-8z"/><path d="M10 13h12v3H10zm0 4h12v3H10zm0 4h12v3H10z"/></symbol><symbol viewBox="0 0 32 32" id="gel-icon-film"><path d="M28 10l-2 4h-3l2-4h-3l-2 4h-3l2-4h-3l-2 4h-3l2-4h-3l-2 4-3-3-.1-.1 2-.6-3.1-3.2-1.8.6V32h28V10h-2zm-2 16H6v-2h20v2zm0-4H6v-2h20v2zM24.1 4.9L21 1.7l-2.8.9 3.1 3.2m-2.9.9l-3.1-3.2-2.8.9 3 3.2"/><path d="M12.7 8.5L9.6 5.3l-2.9.9 3.1 3.2m18.1-5.6L26.7 0l-2.8.9L27 4"/></symbol><symbol viewBox="0 0 32 32" id="gel-icon-game"><path d="M8 7.5c-1.9 0-3.5 1.6-3.5 3.5s1.6 3.5 3.5 3.5 3.5-1.6 3.5-3.5S9.9 7.5 8 7.5z"/><path d="M24 3c-2 0-3.9.8-5.3 2h-5.4C11.9 3.8 10 3 8 3c-4.4 0-8 3.6-8 8v18h6l6.4-10h7.1L26 29h6V11c0-4.4-3.6-8-8-8zm0 2c1.1 0 2 .9 2 2s-.9 2-2 2-2-.9-2-2 .9-2 2-2zM8 17c-3.3 0-6-2.7-6-6s2.7-6 6-6 6 2.7 6 6-2.7 6-6 6zm12-4c-1.1 0-2-.9-2-2s.9-2 2-2 2 .9 2 2-.9 2-2 2zm4 4c-1.1 0-2-.9-2-2s.9-2 2-2 2 .9 2 2-.9 2-2 2zm4-4c-1.1 0-2-.9-2-2s.9-2 2-2 2 .9 2 2-.9 2-2 2z"/></symbol><symbol viewBox="0 0 32 32" id="gel-icon-image"><path d="M9 5V3H4v2H0v24h32V5H9zm-2.5 8C5.1 13 4 11.9 4 10.5S5.1 8 6.5 8 9 9.1 9 10.5 7.9 13 6.5 13zM20 26c-5 0-9-4-9-9s4-9 9-9 9 4 9 9-4 9-9 9z"/><path d="M20 11.5c-3 0-5.5 2.5-5.5 5.5s2.5 5.5 5.5 5.5 5.5-2.5 5.5-5.5-2.5-5.5-5.5-5.5z"/></symbol><symbol viewBox="0 0 32 32" id="gel-icon-infographics"><path d="M24 18.1v-6.2c2.8-.5 5-2.9 5-5.9 0-3.3-2.7-6-6-6s-6 2.7-6 6c0 3 2.2 5.4 5 5.9v6.2c-1.3.2-2.5.7-3.4 1.5l-5.1-5.1c.3-.6.5-1.3.5-2C14 10 12 8 9.5 8S5 10 5 12.5 7 17 9.5 17c1 0 2-.4 2.7-.9l5 5c-.6.9-1 1.9-1.1 2.9H7.8c-.4-1.2-1.5-2-2.8-2-1.7 0-3 1.3-3 3s1.3 3 3 3c1.3 0 2.4-.8 2.8-2h8.3c.5 3.4 3.4 6 6.9 6 3.9 0 7-3.1 7-7 0-3.5-2.6-6.4-6-6.9z"/></symbol><symbol viewBox="0 0 32 32" id="gel-icon-interactive"><path d="M12.5 0l-1 20-6-4-2 2 10 14h15V14l-3-1.4V17h-1v-4.8l-3-1.4V17h-1v-6.6l-3-1.4v8h-1V0"/></symbol><symbol viewBox="0 0 32 32" id="gel-icon-iptv-guide"><path d="M0 0h8v8H0zm12 0h20v8H12zm12 24h8v8h-8zM0 24h20v8H0zm0-12h32v8H0z"/></symbol><symbol viewBox="0 0 32 32" id="gel-icon-list"><path d="M0 0v8h32V0M0 17v3h32v-8H0m0 17v3h32v-8H0"/></symbol><symbol viewBox="0 0 32 32" id="gel-icon-map"><path d="M25.1 17.2c1.2-1.8 1.9-3.9 1.9-6.2 0-6.1-4.9-11-11-11S5 4.9 5 11c0 2.3.7 4.4 1.9 6.2L16 32l9.1-14.8zM16 7c2.2 0 4 1.8 4 4s-1.8 4-4 4-4-1.8-4-4 1.8-4 4-4z"/></symbol><symbol viewBox="0 0 32 32" id="gel-icon-music-tracks"><path d="M16 13c-1.7 0-3 1.3-3 3s1.3 3 3 3 3-1.3 3-3-1.3-3-3-3"/><path d="M16 0C7.2 0 0 7.2 0 16s7.2 16 16 16 16-7.2 16-16S24.8 0 16 0m0 22c-3.3 0-6-2.7-6-6s2.7-6 6-6 6 2.7 6 6-2.7 6-6 6m8-6c0-4.4-3.6-8-8-8V6c5.5 0 10 4.5 10 10h-2zM16 4V2c7.7 0 14 6.3 14 14h-2c0-6.6-5.4-12-12-12"/></symbol><symbol viewBox="0 0 32 32" id="gel-icon-newsletter"><path d="M5 3h22v12h3V0H2v15h3"/><path d="M10 12h12v3H10zm0 4h12v3H10zm0-8h12v3H10z"/><path d="M29.5 16l-.5.3-13 8.1-13-8.1-.5-.3H0v16h32V16h-2.5zM29 29H3V17.5l13 8.1 13-8.1V29z"/></symbol><symbol viewBox="0 0 32 32" id="gel-icon-podcast"><circle cx="16" cy="14" r="4"/><path d="M16 6c2.2 0 4.2.9 5.7 2.3l1.4-1.4C21.3 5.1 18.8 4 16 4s-5.3 1.1-7.1 2.9l1.4 1.4C11.8 6.9 13.8 6 16 6z"/><path d="M16 2c3.3 0 6.3 1.3 8.5 3.5l1.4-1.4C23.4 1.6 19.9 0 16 0c-3.9 0-7.4 1.6-9.9 4.1l1.4 1.4C9.7 3.3 12.7 2 16 2zm3 30h-6l-3-13h12"/></symbol><symbol viewBox="0 0 32 32" id="gel-icon-project"><style>.st0{fill:#000101}</style><g id="auLayer_2"><path d="M5 7h11.7l3 3H23V4H11.9l-3-3H1v20h4z"/><path d="M8.5 30.6v-20h7l3 3h12v17z"/></g></symbol><symbol viewBox="0 0 32 32" id="gel-icon-quiz"><path d="M8 28c0 2.2-1.8 4-4 4s-4-1.8-4-4 1.8-4 4-4 4 1.8 4 4zm9-20.7c-3.3 0-4.5 2.7-4.5 5.5 0 2.7 1.2 5.4 4.5 5.4.5 0 1.3.1 1.5-.1l-1.9-1.7 1.7-1.8 2.2 1.9c.6-.8 1-2 1-3.7 0-2.8-1.2-5.5-4.5-5.5z"/><path d="M16.9 0C8.7 0 2 5.9 2 13.1 2 20.2 8.8 26 17.1 26s15-5.9 14.9-13.1C32 5.8 25.2 0 16.9 0zm7.9 20.4l-1.7 1.7-2.1-1.8c-1.1.6-2.4.9-4 .9-5.1 0-8.1-3.7-8.1-8.4 0-4.8 3-8.5 8.1-8.5s8.1 3.7 8.1 8.5c0 2.3-.8 4.4-2.1 5.9l1.8 1.7z"/></symbol><symbol viewBox="0 0 32 32" id="gel-icon-radio-dials"><circle cx="16" cy="3" r="3"/><circle cx="7" cy="7" r="3"/><circle cx="25" cy="7" r="3"/><circle cx="29" cy="16" r="3"/><circle cx="3" cy="16" r="3"/><circle cx="16" cy="29" r="3"/><circle cx="7" cy="25" r="3"/><circle cx="25" cy="25" r="3"/></symbol><symbol viewBox="0 0 32 32" id="gel-icon-revision-guide"><circle cx="16" cy="5" r="5"/><path d="M28 12.4l-5.1 2.3L21 12H11l-1.9 2.8L4 12.4v14.2L16 32l12-5.5V12.4zM6 15.5l9 4.1v9.8l-9-4.1v-9.8zm11 13.9v-9.8l9-4.1v9.8l-9 4.1z"/></symbol><symbol viewBox="0 0 32 32" id="gel-icon-rss"><circle cx="5" cy="27" r="5"/><path d="M25 32h7C32 14.3 17.7 0 0 0v7c13.8 0 25 11.2 25 25z"/><path d="M15 32h7c0-12.1-9.9-22-22-22v7c8.3 0 15 6.7 15 15z"/></symbol><symbol viewBox="0 0 32 32" id="gel-icon-slideshow"><path d="M22 13l-5-3-5-3v12l5-3"/><path d="M30 0H0v26h13.9l-3.5 6H13l2.9-5.1 2.9 5.1h2.6l-3.5-6H32V0h-2zm0 22H2V4h28v18z"/></symbol><symbol viewBox="0 0 32 32" id="gel-icon-special-content"><path d="M16 0l3.8 6.8L28 4l-2.8 8.2L32 16l-6.8 3.8L28 28l-8.2-2.8L16 32l-3.8-6.8L4 28l2.8-8.2L0 16l6.8-3.8L4 4l8.2 2.8"/></symbol><symbol viewBox="0 0 32 32" id="gel-icon-stations"><g fill="#000101"><path d="M13 16c0-1.7 1.3-3 3-3s3 1.3 3 3-1.3 3-3 3-3-1.3-3-3m10.1-7.1L21 11c2.7 2.7 2.7 7.2 0 9.9l2.1 2.1c3.9-3.8 3.9-10.2 0-14.1"/><path d="M27.3 4.7l-2.1 2.1c5.1 5.1 5.1 13.3 0 18.4l2.1 2.1c6.3-6.2 6.3-16.4 0-22.6M8.9 23.1L11 21c-2.7-2.7-2.7-7.2 0-9.9L8.9 8.9C5 12.8 5 19.2 8.9 23.1"/><path d="M4.7 27.3l2.1-2.1c-5.1-5.1-5.1-13.3 0-18.4L4.7 4.7c-6.3 6.2-6.3 16.4 0 22.6"/></g></symbol><symbol viewBox="0 0 32 32" id="gel-icon-streams"><path d="M0 0h14v14H0zm18 0h14v14H18zM0 18h14v14H0zm18 0h14v14H18z"/></symbol><symbol viewBox="0 0 32 32" id="gel-icon-timeline"><path d="M26 8.5h6v6h-6zm-18 0h6v6H8zm-8 0h6v6H0zm24-2h-8v10h8v-10zm-2 8h-4v-6h4v6zm-9 11h14l-7-7"/></symbol><symbol viewBox="0 0 32 32" id="gel-icon-tv-channels"><path d="M23 4v6l9-1V1M0 9l9 1V4L0 1m12 3h8v6h-8zm11 15l9 1v-8l-9 1M0 20l9-1v-6l-9-1m12 1h8v6h-8zm11 15l9 3v-8l-9-1M0 31l9-3v-6l-9 1m12-1h8v6h-8z"/></symbol><symbol viewBox="0 0 32 32" id="gel-icon-tv-schedule"><path d="M0 0h6v6H0zm0 10h6v6H0zm0 10h6v6H0zM8 0h24v6H8zm20.7 16H32v-6H8v6h9.3c-1.3 1-2.3 2.4-2.8 4H8v6h6.5c1.2 3.5 4.6 6 8.5 6 5 0 9-4 9-9 0-2.8-1.3-5.3-3.3-7M23 30c-3.9 0-7-3.1-7-7s3.1-7 7-7 7 3.1 7 7-3.1 7-7 7"/><path d="M27.6 25.2L24 22.5V18h-2v5.5l4.4 3.3"/></symbol><symbol viewBox="0 0 32 32" id="gel-icon-video"><path d="M3 32l26-16L3 0"/></symbol></svg>